<svg id="Capa_1" enable-background="new 0 0 512 512" height="512" viewBox="0 0 512 512" width="512" xmlns="http://www.w3.org/2000/svg"><g><g><path d="m422.504 501.698v-43.331c0-38.202-25.999-71.501-63.06-80.766l-61.818-15.454h-83.252l-61.818 15.454c-37.061 9.265-63.06 42.565-63.06 80.766v43.331c0 5.69 4.612 10.302 10.302 10.302h312.404c5.69 0 10.302-4.612 10.302-10.302z" fill="#6b61b1"/><path d="m256 354.862h41.626l29.877 14.756-4.143 60.095c-1.151 16.692-8.953 32.224-21.656 43.113l-45.704 39.174-45.704-39.174c-12.704-10.889-20.506-26.421-21.656-43.113l-4.143-60.095 29.877-14.756z" fill="#ddeafb"/><path d="m202.909 420.905c-8.15-11.966-16.765-29.439-18.414-51.289l29.879-14.754h41.626v48.911l-21.659 20.456c-9.28 8.764-24.246 7.227-31.432-3.324z" fill="#f4fbff"/><path d="m309.091 420.905c8.15-11.966 16.765-29.439 18.414-51.289l-29.879-14.754h-41.626v48.911l21.659 20.456c9.28 8.764 24.246 7.227 31.432-3.324z" fill="#f4fbff"/><path d="m370.093 381.044c13.287 14.872 21.192 34.421 21.192 55.469v75.487h20.918c5.69 0 10.302-4.612 10.302-10.302v-43.331c-.001-34.424-21.118-64.859-52.412-77.323z" fill="#5e54ac"/><g><path d="m256 403.772c-22.989 0-41.626-18.637-41.626-41.626v-41.626h83.252v41.626c0 22.99-18.637 41.626-41.626 41.626z" fill="#f1d0a5"/></g><path d="m214.374 343.557c13.026 4.619 27.036 7.143 41.626 7.143s28.599-2.523 41.626-7.143v-23.037h-83.252z" fill="#f1b986"/><g fill="#f1d0a5"><path d="m378.797 225.821h-18.732v-62.439h18.732c9.196 0 16.65 7.455 16.65 16.65v29.138c0 9.197-7.454 16.651-16.65 16.651z"/><path d="m133.203 225.821h18.732v-62.439h-18.732c-9.196 0-16.65 7.455-16.65 16.65v29.138c0 9.197 7.454 16.651 16.65 16.651z"/><path d="m151.935 163.382v61.133c0 57.381 45.896 104.943 103.276 105.369 57.836.429 104.854-46.326 104.854-104.062v-62.439h-208.13z"/></g><path d="m337.171 163.382v62.439c0 53.604-40.531 97.735-92.618 103.435 3.76.412 7.578.63 11.447.63 57.474 0 104.065-46.591 104.065-104.065v-62.439z" fill="#f1b986"/><path d="m133.203 225.821h18.732v-62.439h-18.732c-9.196 0-16.65 7.455-16.65 16.65v29.138c0 9.197 7.454 16.651 16.65 16.651z" fill="#f1d0a5"/><path d="m378.797 225.821h-18.732v-62.439h18.732c9.196 0 16.65 7.455 16.65 16.65v29.138c0 9.197-7.454 16.651-16.65 16.651z" fill="#f1d0a5"/></g><path d="m244.111 9.041c-9.225-5.903-19.948-9.041-30.9-9.041-24.764 0-46.729 15.903-54.458 39.43l-28.072 85.448-46.36 26.98c-5.456 3.175-3.203 11.523 3.109 11.523h337.14c6.313 0 8.565-8.348 3.109-11.523l-46.36-26.98-28.072-85.448c-7.73-23.527-29.694-39.43-54.458-39.43-10.952 0-21.675 3.138-30.899 9.041-7.248 4.639-16.532 4.639-23.779 0z" fill="#6b61b1"/><path d="m381.319 124.878s-28.072-85.448-28.072-85.448c-7.73-23.527-29.694-39.43-54.458-39.43-5.3 0-10.545.741-15.593 2.169 18.009 5.103 32.782 18.846 38.832 37.261l28.072 85.448 63.039 38.504h11.432c6.313 0 8.565-8.348 3.109-11.523z" fill="#5e54ac"/><path d="m369.011 87.415h-226.022l-12.308 37.463h250.638z" fill="#a2aae2"/><path d="m369.011 87.415h-31.219l12.308 37.463h31.219z" fill="#8993da"/><g><path d="m272.651 204.409h-33.301c-4.267 0-7.726-3.459-7.726-7.726s3.459-7.726 7.726-7.726h33.301c4.268 0 7.726 3.459 7.726 7.726s-3.458 7.726-7.726 7.726z" fill="#5766cb"/></g><path d="m354.42 512v-24.976c0-4.267 3.459-7.726 7.726-7.726s7.726 3.459 7.726 7.726v24.976z" fill="#5e54ac"/><path d="m142.127 512v-24.976c0-4.267 3.459-7.726 7.726-7.726s7.726 3.459 7.726 7.726v24.976z" fill="#5e54ac"/><g fill="#8993da"><path d="m326.765 188.957h-54.114c-4.268 0-7.726 3.459-7.726 7.726v24.975c0 15.736 12.803 28.539 28.539 28.539h12.488c15.736 0 28.539-12.803 28.539-28.539v-24.975c0-4.267-3.459-7.726-7.726-7.726z"/><path d="m239.35 188.957h-54.114c-4.267 0-7.726 3.459-7.726 7.726v24.975c0 15.736 12.803 28.539 28.539 28.539h12.488c15.736 0 28.539-12.803 28.539-28.539v-24.975c0-4.267-3.459-7.726-7.726-7.726z"/></g></g></svg>