<svg xmlns="http://www.w3.org/2000/svg" viewBox="0 0 512 512"><path fill="#babac0" d="M484 256c0-20-2-39-7-58l29-21-56-98-33 15c-28-28-63-48-101-58l-4-36h-56l-21 256 21 256h56l4-36c38-10 73-30 101-58l33 15 56-98-29-21c5-19 7-38 7-58z"/><path fill="#d8d8d8" d="M200 0l-4 36c-38 10-73 30-101 58L62 79 6 177l29 21a229 229 0 000 116L6 335l56 98 33-15c28 28 63 48 101 58l4 36h56V0z"/><path fill="#ececf1" d="M256 85l-23 171 23 171a171 171 0 100-342z"/><path fill="#fff" d="M85 256c0 94 77 171 171 171V85c-94 0-171 77-171 171z"/><path fill="#12b0ff" d="M176 312l-56-55 55-56 21 21-33 34 34 34z"/><path fill="#0093fd" d="M336 312l-21-22 34-34-33-34 21-21 55 56z"/><path fill="#fc3636" d="M292 158l-29-6-7 31-11 105 11 41z"/><path fill="#fc5b3f" d="M249 360l7-31V183l-36 171z"/></svg>