<?xml version="1.0" encoding="UTF-8" standalone="no"?>
<svg
   xmlns:dc="http://purl.org/dc/elements/1.1/"
   xmlns:cc="http://creativecommons.org/ns#"
   xmlns:rdf="http://www.w3.org/1999/02/22-rdf-syntax-ns#"
   xmlns:svg="http://www.w3.org/2000/svg"
   xmlns="http://www.w3.org/2000/svg"
   xmlns:sodipodi="http://sodipodi.sourceforge.net/DTD/sodipodi-0.dtd"
   xmlns:inkscape="http://www.inkscape.org/namespaces/inkscape"
   inkscape:version="1.0 (4035a4fb49, 2020-05-01)"
   sodipodi:docname="bulb.svg"
   xml:space="preserve"
   style="enable-background:new 0 0 512 512;"
   viewBox="0 0 512 512"
   y="0px"
   x="0px"
   id="Layer_1"
   version="1.1"><metadata
   id="metadata69"><rdf:RDF><cc:Work
       rdf:about=""><dc:format>image/svg+xml</dc:format><dc:type
         rdf:resource="http://purl.org/dc/dcmitype/StillImage" /><dc:title></dc:title></cc:Work></rdf:RDF></metadata><defs
   id="defs67"><filter
     height="1.1266797"
     y="-0.06333986"
     width="1.1940074"
     x="-0.097003699"
     id="filter1101"
     style="color-interpolation-filters:sRGB"
     inkscape:collect="always"><feGaussianBlur
       id="feGaussianBlur1103"
       stdDeviation="4.6730566"
       inkscape:collect="always" /></filter><filter
     height="1.1449591"
     y="-0.072479538"
     width="1.1550101"
     x="-0.077505035"
     id="filter1223"
     style="color-interpolation-filters:sRGB"
     inkscape:collect="always"><feGaussianBlur
       id="feGaussianBlur1225"
       stdDeviation="9.5086134"
       inkscape:collect="always" /></filter></defs><sodipodi:namedview
   inkscape:current-layer="Layer_1"
   inkscape:window-maximized="1"
   inkscape:window-y="0"
   inkscape:window-x="0"
   inkscape:cy="322.71745"
   inkscape:cx="130.52453"
   inkscape:zoom="1.1504296"
   showgrid="false"
   id="namedview65"
   inkscape:window-height="1009"
   inkscape:window-width="1920"
   inkscape:pageshadow="2"
   inkscape:pageopacity="0"
   guidetolerance="10"
   gridtolerance="10"
   objecttolerance="10"
   borderopacity="1"
   bordercolor="#666666"
   pagecolor="#ffffff" />
<path
   style="fill:#fffd00;filter:url(#filter1223);fill-opacity:1"
   d="M314.667,391.467c6.4-21.333,19.2-40.533,36.267-55.467c32-26.667,52.267-67.2,52.267-112  c0-83.2-69.333-151.467-154.667-147.2C172.8,80,110.933,144,108.8,219.733C107.733,266.667,128,308.267,161.067,336  C179.2,350.933,192,370.133,198.4,391.467L314.667,391.467L314.667,391.467z"
   id="path1105" /><path
   id="path2"
   d="M314.667,391.467c6.4-21.333,19.2-40.533,36.267-55.467c32-26.667,52.267-67.2,52.267-112  c0-83.2-69.333-151.467-154.667-147.2C172.8,80,110.933,144,108.8,219.733C107.733,266.667,128,308.267,161.067,336  C179.2,350.933,192,370.133,198.4,391.467L314.667,391.467L314.667,391.467z"
   style="fill:#FFD15C;" />
<path
   id="path4"
   d="M242.133,393.6h9.6l-42.667-158.933c1.067,0,2.133,0,3.2,0c5.333,0,10.667-2.133,14.933-6.4  c2.133-2.133,4.267-3.2,7.467-3.2c3.2,0,5.333,1.067,7.467,3.2c7.467,8.533,20.267,8.533,27.733,0c2.133-2.133,4.267-3.2,7.467-3.2  c2.133,0,5.333,1.067,7.467,3.2c4.267,4.267,8.533,6.4,14.933,6.4c1.067,0,2.133,0,3.2,0l-41.6,158.933h9.6l43.733-166.4  c0-2.133,0-4.267-2.133-5.333c-2.133-1.067-4.267,0-5.333,1.067c-2.133,2.133-4.267,3.2-6.4,3.2c-3.2,0-5.333-1.067-8.533-3.2  c-4.267-4.267-8.533-6.4-13.867-6.4s-9.6,2.133-13.867,6.4s-10.667,4.267-14.933,0c-3.2-4.267-8.533-6.4-13.867-6.4l0,0  c-5.333,0-10.667,2.133-13.867,6.4c-2.133,2.133-5.333,3.2-8.533,3.2c-2.133,0-5.333-1.067-6.4-3.2  c-1.067-1.067-3.2-2.133-5.333-1.067c-2.133,1.067-3.2,3.2-2.133,5.333L242.133,393.6z"
   style="fill:#ffeb00;fill-opacity:1" />
<path
   style="fill:#ffeb00;fill-opacity:1;filter:url(#filter1101)"
   d="M242.133,393.6h9.6l-42.667-158.933c1.067,0,2.133,0,3.2,0c5.333,0,10.667-2.133,14.933-6.4  c2.133-2.133,4.267-3.2,7.467-3.2c3.2,0,5.333,1.067,7.467,3.2c7.467,8.533,20.267,8.533,27.733,0c2.133-2.133,4.267-3.2,7.467-3.2  c2.133,0,5.333,1.067,7.467,3.2c4.267,4.267,8.533,6.4,14.933,6.4c1.067,0,2.133,0,3.2,0l-41.6,158.933h9.6l43.733-166.4  c0-2.133,0-4.267-2.133-5.333c-2.133-1.067-4.267,0-5.333,1.067c-2.133,2.133-4.267,3.2-6.4,3.2c-3.2,0-5.333-1.067-8.533-3.2  c-4.267-4.267-8.533-6.4-13.867-6.4s-9.6,2.133-13.867,6.4s-10.667,4.267-14.933,0c-3.2-4.267-8.533-6.4-13.867-6.4l0,0  c-5.333,0-10.667,2.133-13.867,6.4c-2.133,2.133-5.333,3.2-8.533,3.2c-2.133,0-5.333-1.067-6.4-3.2  c-1.067-1.067-3.2-2.133-5.333-1.067c-2.133,1.067-3.2,3.2-2.133,5.333L242.133,393.6z"
   id="path911" /><g
   id="g10">
	<path
   id="path6"
   d="M222.933,489.6C228.267,502.4,241.067,512,256,512c14.933,0,27.733-9.6,33.067-22.4H222.933z"
   style="fill:#344A5E;" />
	<path
   id="path8"
   d="M295.467,490.667H217.6c-10.667,0-19.2-8.533-19.2-19.2V390.4h116.267v81.067   C314.667,482.133,306.133,490.667,295.467,490.667z"
   style="fill:#344A5E;" />
</g>
<g
   style="opacity:1"
   id="g16">
	<path
   id="path12"
   d="M313.6,430.933H198.4c-6.4,0-11.733-5.333-11.733-11.733l0,0c0-6.4,5.333-11.733,11.733-11.733   h115.2c6.4,0,11.733,5.333,11.733,11.733l0,0C325.333,425.6,320,430.933,313.6,430.933z"
   style="fill:#415A6B" />
	<path
   id="path14"
   d="M313.6,468.267H198.4c-6.4,0-11.733-5.333-11.733-11.733l0,0c0-6.4,5.333-11.733,11.733-11.733   h115.2c6.4,0,11.733,5.333,11.733,11.733l0,0C325.333,462.933,320,468.267,313.6,468.267z"
   style="fill:#415A6B" />
</g>
<g
   id="g32">
	<path
   id="path18"
   d="M256,0c-5.333,0-10.667,4.267-10.667,10.667v36.267c0,5.333,4.267,10.667,10.667,10.667   c6.4,0,10.667-4.267,10.667-10.667V10.667C266.667,4.267,261.333,0,256,0z"
   style="fill:#FFD15C;" />
	<path
   id="path20"
   d="M113.067,65.067c-4.267-4.267-10.667-4.267-14.933,0s-4.267,10.667,0,14.933l25.6,25.6   c4.267,4.267,10.667,4.267,14.933,0s4.267-10.667,0-14.933L113.067,65.067z"
   style="fill:#FFD15C;" />
	<path
   id="path22"
   d="M80,212.267H43.733c-5.333,0-10.667,4.267-10.667,10.667l0,0c0,5.333,4.267,10.667,10.667,10.667H80   c5.333,0,10.667-4.267,10.667-10.667l0,0C90.667,217.6,85.333,212.267,80,212.267z"
   style="fill:#FFD15C;" />
	<path
   id="path24"
   d="M123.733,340.267l-25.6,25.6c-4.267,4.267-4.267,10.667,0,14.933s10.667,4.267,14.933,0l25.6-25.6   c4.267-4.267,4.267-10.667,0-14.933S128,336,123.733,340.267z"
   style="fill:#FFD15C;" />
	<path
   id="path26"
   d="M388.267,340.267C384,336,377.6,336,373.333,340.267c-4.267,4.267-4.267,10.667,0,14.933l25.6,25.6   c4.267,4.267,10.667,4.267,14.933,0s4.267-10.667,0-14.933L388.267,340.267z"
   style="fill:#FFD15C;" />
	<path
   id="path28"
   d="M468.267,212.267H432c-5.333,0-10.667,4.267-10.667,10.667l0,0c0,5.333,4.267,10.667,10.667,10.667   h36.267c5.333,0,10.667-4.267,10.667-10.667l0,0C478.933,217.6,474.667,212.267,468.267,212.267z"
   style="fill:#FFD15C;" />
	<path
   id="path30"
   d="M398.933,65.067l-25.6,25.6c-4.267,4.267-4.267,10.667,0,14.933c4.267,4.267,10.667,4.267,14.933,0   l25.6-25.6c4.267-4.267,4.267-10.667,0-14.933S403.2,60.8,398.933,65.067z"
   style="fill:#FFD15C;" />
</g>
<g
   id="g34">
</g>
<g
   id="g36">
</g>
<g
   id="g38">
</g>
<g
   id="g40">
</g>
<g
   id="g42">
</g>
<g
   id="g44">
</g>
<g
   id="g46">
</g>
<g
   id="g48">
</g>
<g
   id="g50">
</g>
<g
   id="g52">
</g>
<g
   id="g54">
</g>
<g
   id="g56">
</g>
<g
   id="g58">
</g>
<g
   id="g60">
</g>
<g
   id="g62">
</g>
<path
   d="M 235.73242 216.5332 C 230.39942 216.5332 225.06523 218.66659 221.86523 222.93359 C 219.73223 225.06659 216.53203 226.13477 213.33203 226.13477 C 211.19903 226.13477 208.00059 225.06659 206.93359 222.93359 C 205.86659 221.86659 203.73261 220.80119 201.59961 221.86719 C 199.46661 222.93419 198.3998 225.06622 199.4668 227.19922 L 201.44531 234.91211 L 209.13281 234.91211 L 209.06641 234.66797 L 212.26562 234.66797 C 217.59862 234.66797 222.93322 232.53458 227.19922 228.26758 C 229.33222 226.13458 231.46602 225.06641 234.66602 225.06641 C 237.86602 225.06641 239.99881 226.13458 242.13281 228.26758 C 249.59981 236.80058 262.39923 236.80058 269.86523 228.26758 C 271.99823 226.13458 274.13203 225.06641 277.33203 225.06641 C 279.46503 225.06641 282.66678 226.13458 284.80078 228.26758 C 289.06778 232.53458 293.33242 234.66797 299.73242 234.66797 L 302.93359 234.66797 L 302.86914 234.91211 L 312.63867 234.91211 L 314.66602 227.19922 C 314.66602 225.06622 314.6662 222.93319 312.5332 221.86719 C 310.4002 220.80019 308.26522 221.86659 307.19922 222.93359 C 305.06622 225.06659 302.93378 226.13477 300.80078 226.13477 C 297.60078 226.13477 295.46758 225.06659 292.26758 222.93359 C 288.00058 218.66659 283.73439 216.5332 278.40039 216.5332 C 273.06639 216.5332 268.8002 218.66659 264.5332 222.93359 C 260.2662 227.20059 253.86561 227.20059 249.59961 222.93359 C 246.39961 218.66659 241.06642 216.5332 235.73242 216.5332 z "
   style="fill:#ffffff;fill-opacity:1"
   id="path903" /></svg>
