<?xml version="1.0" encoding="UTF-8" standalone="no"?>
<svg
   xmlns:dc="http://purl.org/dc/elements/1.1/"
   xmlns:cc="http://creativecommons.org/ns#"
   xmlns:rdf="http://www.w3.org/1999/02/22-rdf-syntax-ns#"
   xmlns:svg="http://www.w3.org/2000/svg"
   xmlns="http://www.w3.org/2000/svg"
   xmlns:sodipodi="http://sodipodi.sourceforge.net/DTD/sodipodi-0.dtd"
   xmlns:inkscape="http://www.inkscape.org/namespaces/inkscape"
   inkscape:version="1.0 (4035a4fb49, 2020-05-01)"
   sodipodi:docname="bulb-energized.svg"
   xml:space="preserve"
   style="enable-background:new 0 0 512 512;"
   viewBox="0 0 512 512"
   y="0px"
   x="0px"
   id="Layer_1"
   version="1.1"><metadata
   id="metadata69"><rdf:RDF><cc:Work
       rdf:about=""><dc:format>image/svg+xml</dc:format><dc:type
         rdf:resource="http://purl.org/dc/dcmitype/StillImage" /><dc:title></dc:title></cc:Work></rdf:RDF></metadata><defs
   id="defs67"><filter
     height="1.1502595"
     y="-0.075129763"
     width="1.2441903"
     x="-0.12209514"
     id="filter1601"
     style="color-interpolation-filters:sRGB"
     inkscape:collect="always"><feGaussianBlur
       id="feGaussianBlur1603"
       stdDeviation="16.029112"
       inkscape:collect="always" /></filter><filter
     height="1.1782681"
     y="-0.08913406"
     width="1.1906287"
     x="-0.095314327"
     id="filter1617"
     style="color-interpolation-filters:sRGB"
     inkscape:collect="always"><feGaussianBlur
       id="feGaussianBlur1619"
       stdDeviation="11.693525"
       inkscape:collect="always" /></filter><filter
     inkscape:collect="always"
     style="color-interpolation-filters:sRGB"
     id="filter1625"
     x="-0.080505568"
     width="1.1610111"
     y="-0.075285514"
     height="1.150571"><feGaussianBlur
       inkscape:collect="always"
       stdDeviation="9.8767303"
       id="feGaussianBlur1623" /></filter></defs><sodipodi:namedview
   inkscape:current-layer="Layer_1"
   inkscape:window-maximized="1"
   inkscape:window-y="0"
   inkscape:window-x="0"
   inkscape:cy="255.63803"
   inkscape:cx="128.33304"
   inkscape:zoom="1.6269531"
   showgrid="false"
   id="namedview65"
   inkscape:window-height="1009"
   inkscape:window-width="1920"
   inkscape:pageshadow="2"
   inkscape:pageopacity="0"
   guidetolerance="10"
   gridtolerance="10"
   objecttolerance="10"
   borderopacity="1"
   bordercolor="#666666"
   pagecolor="#ffffff" />
<path
   id="path1621"
   d="m 314.667,391.467 c 6.4,-21.333 19.2,-40.533 36.267,-55.467 32,-26.667 52.267,-67.2 52.267,-112 0,-83.2 -69.333,-151.467 -154.667,-147.2 C 172.8,80 110.933,144 108.8,219.733 107.733,266.667 128,308.267 161.067,336 179.2,350.933 192,370.133 198.4,391.467 Z"
   style="mix-blend-mode:normal;fill:#ffbf00;filter:url(#filter1625);fill-opacity:1;opacity:0.44288437" /><path
   style="mix-blend-mode:normal;fill:#ffff00;filter:url(#filter1617);fill-opacity:1"
   d="m 314.667,391.467 c 6.4,-21.333 19.2,-40.533 36.267,-55.467 32,-26.667 52.267,-67.2 52.267,-112 0,-83.2 -69.333,-151.467 -154.667,-147.2 C 172.8,80 110.933,144 108.8,219.733 107.733,266.667 128,308.267 161.067,336 179.2,350.933 192,370.133 198.4,391.467 Z"
   id="path1611" /><path
   id="path2"
   d="m 314.667,391.467 c 6.4,-21.333 19.2,-40.533 36.267,-55.467 32,-26.667 52.267,-67.2 52.267,-112 0,-83.2 -69.333,-151.467 -154.667,-147.2 C 172.8,80 110.933,144 108.8,219.733 107.733,266.667 128,308.267 161.067,336 179.2,350.933 192,370.133 198.4,391.467 Z"
   style="mix-blend-mode:normal;fill:#ffd15c" />

<g
   id="g10">
	<path
   id="path6"
   d="M222.933,489.6C228.267,502.4,241.067,512,256,512c14.933,0,27.733-9.6,33.067-22.4H222.933z"
   style="fill:#344A5E;" />
	<path
   id="path8"
   d="M295.467,490.667H217.6c-10.667,0-19.2-8.533-19.2-19.2V390.4h116.267v81.067   C314.667,482.133,306.133,490.667,295.467,490.667z"
   style="fill:#344A5E;" />
</g>
<g
   style="opacity:1"
   id="g16">
	<path
   id="path12"
   d="M313.6,430.933H198.4c-6.4,0-11.733-5.333-11.733-11.733l0,0c0-6.4,5.333-11.733,11.733-11.733   h115.2c6.4,0,11.733,5.333,11.733,11.733l0,0C325.333,425.6,320,430.933,313.6,430.933z"
   style="fill:#415A6B" />
	<path
   id="path14"
   d="M313.6,468.267H198.4c-6.4,0-11.733-5.333-11.733-11.733l0,0c0-6.4,5.333-11.733,11.733-11.733   h115.2c6.4,0,11.733,5.333,11.733,11.733l0,0C325.333,462.933,320,468.267,313.6,468.267z"
   style="fill:#415A6B" />
</g>
<g
   id="g32">
	<path
   id="path18"
   d="M256,0c-5.333,0-10.667,4.267-10.667,10.667v36.267c0,5.333,4.267,10.667,10.667,10.667   c6.4,0,10.667-4.267,10.667-10.667V10.667C266.667,4.267,261.333,0,256,0z"
   style="fill:#FFD15C;" />
	<path
   id="path20"
   d="M113.067,65.067c-4.267-4.267-10.667-4.267-14.933,0s-4.267,10.667,0,14.933l25.6,25.6   c4.267,4.267,10.667,4.267,14.933,0s4.267-10.667,0-14.933L113.067,65.067z"
   style="fill:#FFD15C;" />
	<path
   id="path22"
   d="M80,212.267H43.733c-5.333,0-10.667,4.267-10.667,10.667l0,0c0,5.333,4.267,10.667,10.667,10.667H80   c5.333,0,10.667-4.267,10.667-10.667l0,0C90.667,217.6,85.333,212.267,80,212.267z"
   style="fill:#FFD15C;" />
	<path
   id="path24"
   d="M123.733,340.267l-25.6,25.6c-4.267,4.267-4.267,10.667,0,14.933s10.667,4.267,14.933,0l25.6-25.6   c4.267-4.267,4.267-10.667,0-14.933S128,336,123.733,340.267z"
   style="fill:#FFD15C;" />
	<path
   id="path26"
   d="M388.267,340.267C384,336,377.6,336,373.333,340.267c-4.267,4.267-4.267,10.667,0,14.933l25.6,25.6   c4.267,4.267,10.667,4.267,14.933,0s4.267-10.667,0-14.933L388.267,340.267z"
   style="fill:#FFD15C;" />
	<path
   id="path28"
   d="M468.267,212.267H432c-5.333,0-10.667,4.267-10.667,10.667l0,0c0,5.333,4.267,10.667,10.667,10.667   h36.267c5.333,0,10.667-4.267,10.667-10.667l0,0C478.933,217.6,474.667,212.267,468.267,212.267z"
   style="fill:#FFD15C;" />
	<path
   id="path30"
   d="M398.933,65.067l-25.6,25.6c-4.267,4.267-4.267,10.667,0,14.933c4.267,4.267,10.667,4.267,14.933,0   l25.6-25.6c4.267-4.267,4.267-10.667,0-14.933S403.2,60.8,398.933,65.067z"
   style="fill:#FFD15C;" />
</g>
<g
   id="g34">
</g>
<g
   id="g36">
</g>
<g
   id="g38">
</g>
<g
   id="g40">
</g>
<g
   id="g42">
</g>
<g
   id="g44">
</g>
<g
   id="g46">
</g>
<g
   id="g48">
</g>
<g
   id="g50">
</g>
<g
   id="g52">
</g>
<g
   id="g54">
</g>
<g
   id="g56">
</g>
<g
   id="g58">
</g>
<g
   id="g60">
</g>
<g
   id="g62">
</g>
<g
   id="g1443"
   transform="matrix(0.44186005,0,0,0.44186005,143.9755,117.18611)"
   style="fill:#ffff00;fill-opacity:1;filter:url(#filter1601)"><path
     id="path1439"
     fill="#ffdf8e"
     d="m 395.316,181.391 -108.61,23.75 53.1,-185.98 c 4.62,-16.17 -17,-26.52 -26.69,-12.75 l -47.73,67.81 -164.13,233.19 c -7.96,11.31 2.42,26.5 15.85,23.19 l 96.79,-23.82 -52.94,186.16 c -4.56,16.04 16.67,26.26 26.48,13.03 l 77.95,-105.15 145.19,-195.85 c 8.23,-11.11 -1.75,-26.54 -15.26,-23.58 z"
     style="fill:#ffff00;fill-opacity:1" /><path
     id="path1441"
     fill="#ffb64c"
     d="m 410.576,204.971 -145.19,195.85 v -326.6 l 47.73,-67.81 c 9.69,-13.77 31.31,-3.42 26.69,12.75 l -53.1,185.98 108.61,-23.75 c 13.51,-2.96 23.49,12.47 15.26,23.58 z"
     style="fill:#ffff00;fill-opacity:1" /></g><g
   style="fill:#ffff00;fill-opacity:1;filter:url(#filter1601)"
   transform="matrix(0.44186005,0,0,0.44186005,143.9755,117.18611)"
   id="g1609"><path
     style="fill:#ffff00;fill-opacity:1"
     d="m 395.316,181.391 -108.61,23.75 53.1,-185.98 c 4.62,-16.17 -17,-26.52 -26.69,-12.75 l -47.73,67.81 -164.13,233.19 c -7.96,11.31 2.42,26.5 15.85,23.19 l 96.79,-23.82 -52.94,186.16 c -4.56,16.04 16.67,26.26 26.48,13.03 l 77.95,-105.15 145.19,-195.85 c 8.23,-11.11 -1.75,-26.54 -15.26,-23.58 z"
     fill="#ffdf8e"
     id="path1605" /><path
     style="fill:#ffff00;fill-opacity:1"
     d="m 410.576,204.971 -145.19,195.85 v -326.6 l 47.73,-67.81 c 9.69,-13.77 31.31,-3.42 26.69,12.75 l -53.1,185.98 108.61,-23.75 c 13.51,-2.96 23.49,12.47 15.26,23.58 z"
     fill="#ffb64c"
     id="path1607" /></g><g
   style="fill:#ffffff;fill-opacity:1"
   transform="matrix(0.44186005,0,0,0.44186005,143.9755,117.18611)"
   id="g1425"><path
     style="fill:#ffffff;fill-opacity:1"
     d="m 395.316,181.391 -108.61,23.75 53.1,-185.98 c 4.62,-16.17 -17,-26.52 -26.69,-12.75 l -47.73,67.81 -164.13,233.19 c -7.96,11.31 2.42,26.5 15.85,23.19 l 96.79,-23.82 -52.94,186.16 c -4.56,16.04 16.67,26.26 26.48,13.03 l 77.95,-105.15 145.19,-195.85 c 8.23,-11.11 -1.75,-26.54 -15.26,-23.58 z"
     fill="#ffdf8e"
     id="path1417" /><path
     style="fill:#ffffff;fill-opacity:1"
     d="m 410.576,204.971 -145.19,195.85 v -326.6 l 47.73,-67.81 c 9.69,-13.77 31.31,-3.42 26.69,12.75 l -53.1,185.98 108.61,-23.75 c 13.51,-2.96 23.49,12.47 15.26,23.58 z"
     fill="#ffb64c"
     id="path1419" /></g></svg>
