<?xml version="1.0" encoding="iso-8859-1"?>
<!-- Generator: Adobe Illustrator 19.0.0, SVG Export Plug-In . SVG Version: 6.00 Build 0)  -->
<svg version="1.1" id="Capa_1" xmlns="http://www.w3.org/2000/svg" xmlns:xlink="http://www.w3.org/1999/xlink" x="0px" y="0px"
	 viewBox="0 0 512 512" style="enable-background:new 0 0 512 512;" xml:space="preserve">
<path style="fill:#70B5E8;" d="M379.765,0.091L379.765,0.091H219.093l0,0c-47.818,0-141.156,0-188.8,0
	c-10.286,0-19.546,5.162-25.06,13.324C1.9,18.349,0.072,24.185,0.072,30.312c0,15.434,0,334.225,0,349.472
	c0,16.691,13.53,30.221,30.221,30.221c11.341,0,237.81,0,249.147,0h100.325c16.691,0,30.221-13.53,30.221-30.221v-88.955
	c0-7.236,0-252.872,0-260.517C409.987,13.654,396.489,0.091,379.765,0.091z"/>
<path style="fill:#52A5D8;" d="M30.976,379.783c0-378.962-1.266-353.764,2.98-362.574c4.91-10.19,15.311-17.119,27.241-17.119
	c-19.132,0-11.774,0-30.904,0c-16.696,0-30.221,13.533-30.221,30.221c0,15.434,0,334.225,0,349.472
	c0,16.691,13.53,30.221,30.221,30.221h30.904C44.506,410.005,30.976,396.474,30.976,379.783z"/>
<g>
	<path style="fill:#666666;" d="M467.499,305.491l18.957-32.079c3.824-6.624,1.534-15.172-5.091-18.997
		c-6.624-3.824-15.173-1.534-18.997,5.091l-18.438,31.182C452.392,294.684,460.296,299.668,467.499,305.491z"/>
	<path style="fill:#666666;" d="M409.166,283.058v-36.311h-27.813v36.311c4.562-0.646,9.201-0.987,13.908-0.987
		C399.965,282.071,404.605,282.412,409.166,283.058z"/>
</g>
<path style="fill:#CCCCCC;" d="M348.043,314.454c-44.699,25.806-60.068,83.166-34.262,127.864
	c25.806,44.698,83.166,60.068,127.864,34.26c44.698-25.806,60.067-83.165,34.261-127.863
	C450.1,304.018,392.74,288.648,348.043,314.454z"/>
<path style="fill:#BCBBB8;" d="M346.165,423.622c-22.606-39.154-13.615-88.024,19.008-116.89c-5.849,1.957-11.587,4.522-17.13,7.722
	c-44.698,25.806-60.068,83.166-34.261,127.864c25.806,44.698,83.165,60.067,127.864,34.26c5.544-3.201,10.634-6.887,15.253-10.974
	C415.588,479.424,368.771,462.776,346.165,423.622z"/>
<path style="fill:#FFB70D;" d="M394.78,301.674L394.78,301.674l-0.001,93.372h93.599C488.254,343.54,446.315,301.674,394.78,301.674
	z"/>
<path style="fill:#F4A403;" d="M394.78,301.674L394.78,301.674v93.372h30.659v-88.21
	C415.828,303.496,405.514,301.674,394.78,301.674z"/>
<g>
	<path style="fill:#F9F9F9;" d="M157.348,207.409c-2.045,0-4.09-0.78-5.65-2.34l-36.249-36.249c-1.499-1.498-2.34-3.531-2.34-5.65
		c0-2.119,0.842-4.151,2.34-5.65l36.249-36.249c3.12-3.121,8.177-3.121,11.298,0c3.121,3.12,3.121,8.178,0,11.298l-30.6,30.6
		l30.6,30.6c3.121,3.12,3.121,8.178,0,11.298C161.437,206.629,159.393,207.409,157.348,207.409z"/>
	<path style="fill:#F9F9F9;" d="M252.711,207.409c-2.045,0-4.09-0.78-5.65-2.34c-3.121-3.121-3.121-8.178,0-11.298l30.6-30.6
		l-30.6-30.6c-3.121-3.12-3.121-8.178,0-11.298c3.12-3.121,8.177-3.121,11.298,0l36.249,36.249c3.12,3.12,3.12,8.178,0,11.298
		L258.36,205.07C256.801,206.629,254.756,207.409,252.711,207.409z"/>
	<path style="fill:#F9F9F9;" d="M187.015,218.374c-0.907,0-1.83-0.155-2.732-0.484c-4.146-1.509-6.285-6.094-4.775-10.239
		l34.368-94.425c1.51-4.147,6.094-6.284,10.24-4.775c4.146,1.509,6.285,6.094,4.775,10.24l-34.368,94.424
		C193.342,216.359,190.278,218.374,187.015,218.374z"/>
</g>
<path style="fill:#666666;" d="M409.987,30.312c0-16.691-13.53-30.221-30.221-30.221H219.093l0,0c-17.769,0-126.774,0-144.958,0
	c-44.652,0.301-49.483-1.72-59.514,4.376C5.758,9.848,0.072,19.52,0.072,30.312v51.466h219.021l0,0h190.892L409.987,30.312
	L409.987,30.312z"/>
<path style="fill:#535454;" d="M61.197,0.091C28.089,0.092,27.265-0.315,21.673,1.346C17.065,2.71,12.783,5.209,9.284,8.598
	c-3.63,3.515-6.239,7.777-7.725,12.35c-1.982,6.078-1.483,5.054-1.486,60.83h30.904V30.312C30.976,13.655,44.468,0.091,61.197,0.091
	z"/>
<path style="fill:#F94A46;" d="M385.869,385.904c-5.517,3.532-6.437,11.415-2.044,17.52c0.471,0.655,0.993,1.254,1.542,1.815
	c0.561,0.549,1.16,1.071,1.815,1.542c6.105,4.393,13.988,3.474,17.52-2.043l26.802-41.867c1.401-2.188-1.58-5.168-3.768-3.768
	L385.869,385.904z"/>
<g>
	<path style="fill:#EFEFEF;" d="M395.26,298.618c-4.267,0-7.725,3.459-7.725,7.725v10.929c0,4.268,3.459,7.725,7.725,7.725
		s7.725-3.459,7.725-7.725v-10.929C402.986,302.077,399.526,298.618,395.26,298.618z"/>
	<path style="fill:#EFEFEF;" d="M395.26,465.094c-4.267,0-7.725,3.459-7.725,7.725v10.928c0,4.268,3.459,7.725,7.725,7.725
		s7.725-3.459,7.725-7.725V472.82C402.986,468.552,399.526,465.094,395.26,465.094z"/>
	<path style="fill:#EFEFEF;" d="M317.487,387.321h-10.929c-4.267,0-7.725,3.459-7.725,7.725c0,4.268,3.459,7.725,7.725,7.725h10.928
		c4.267,0,7.725-3.459,7.725-7.725C325.213,390.78,321.754,387.321,317.487,387.321z"/>
	<path style="fill:#EFEFEF;" d="M483.961,387.321h-10.928c-4.267,0-7.725,3.459-7.725,7.725c0,4.268,3.459,7.725,7.725,7.725h10.928
		c4.267,0,7.725-3.459,7.725-7.725C491.687,390.78,488.228,387.321,483.961,387.321z"/>
</g>
<path style="fill:#7E7F7F;" d="M414.574,248.763h-38.629c-7.648,0-13.906-6.258-13.906-13.906l0,0
	c0-7.648,6.258-13.906,13.906-13.906h38.629c7.648,0,13.906,6.258,13.906,13.906l0,0
	C428.48,242.504,422.223,248.763,414.574,248.763z"/>
<path style="fill:#666666;" d="M395.26,234.856c0-7.648,6.258-13.906,13.906-13.906h-33.221c-7.648,0-13.906,6.258-13.906,13.906
	c0,7.648,6.258,13.906,13.906,13.906h33.221C401.517,248.763,395.26,242.504,395.26,234.856z"/>
<g>
	<path style="fill:#A4D9F4;" d="M64.714,251.853H51.21c-4.267,0-7.725-3.459-7.725-7.725c0-4.268,3.459-7.725,7.725-7.725h13.504
		c4.267,0,7.725,3.459,7.725,7.725C72.439,248.395,68.98,251.853,64.714,251.853z"/>
	<path style="fill:#A4D9F4;" d="M64.714,288.937H51.21c-4.267,0-7.725-3.459-7.725-7.725c0-4.268,3.459-7.725,7.725-7.725h13.504
		c4.267,0,7.725,3.459,7.725,7.725C72.439,285.478,68.98,288.937,64.714,288.937z"/>
	<path style="fill:#A4D9F4;" d="M64.714,326.021H51.21c-4.267,0-7.725-3.459-7.725-7.725c0-4.268,3.459-7.725,7.725-7.725h13.504
		c4.267,0,7.725,3.459,7.725,7.725C72.439,322.563,68.98,326.021,64.714,326.021z"/>
	<path style="fill:#A4D9F4;" d="M64.714,363.105H51.21c-4.267,0-7.725-3.459-7.725-7.725c0-4.268,3.459-7.725,7.725-7.725h13.504
		c4.267,0,7.725,3.459,7.725,7.725C72.439,359.647,68.98,363.105,64.714,363.105z"/>
</g>
<path style="fill:#84C7EF;" d="M312.023,251.853H98.138c-4.267,0-7.725-3.459-7.725-7.725c0-4.268,3.459-7.725,7.725-7.725h213.885
	c4.267,0,7.725,3.459,7.725,7.725C319.749,248.395,316.289,251.853,312.023,251.853z"/>
<path style="fill:#F9F9F9;" d="M301.721,288.937H98.138c-4.267,0-7.725-3.459-7.725-7.725c0-4.268,3.459-7.725,7.725-7.725h203.584
	c4.267,0,7.725,3.459,7.725,7.725S305.988,288.937,301.721,288.937z"/>
<path style="fill:#84C7EF;" d="M256.039,326.021H98.138c-4.267,0-7.725-3.459-7.725-7.725c0-4.268,3.459-7.725,7.725-7.725h157.901
	c4.267,0,7.725,3.459,7.725,7.725C263.764,322.563,260.305,326.021,256.039,326.021z"/>
<path style="fill:#F9F9F9;" d="M245.737,363.105H98.138c-4.267,0-7.725-3.459-7.725-7.725c0-4.268,3.459-7.725,7.725-7.725h147.599
	c4.267,0,7.725,3.459,7.725,7.725C253.463,359.647,250.004,363.105,245.737,363.105z"/>
<path style="fill:#7E7F7F;" d="M453.632,496.382c-55.749,32.187-127.291,13.017-159.477-42.732
	c-32.187-55.749-13.017-127.29,42.732-159.478c55.749-32.187,127.29-13.017,159.477,42.732
	C528.55,392.653,509.381,464.195,453.632,496.382z M350.794,318.259c-42.468,24.519-57.07,79.016-32.552,121.484
	c24.518,42.468,79.016,57.07,121.483,32.551c42.467-24.518,57.07-79.015,32.551-121.483S393.261,293.741,350.794,318.259z"/>
<path style="fill:#6F7070;" d="M318.242,439.743c-29.834-51.674-15.54-116.91,31.104-151.804c-4.223,1.81-8.383,3.88-12.459,6.233
	c-55.749,32.187-74.919,103.728-42.732,159.478c32.187,55.749,103.727,74.919,159.477,42.732c4.076-2.353,7.948-4.922,11.627-7.673
	C411.719,511.656,348.076,491.417,318.242,439.743z"/>
<path style="fill:#F94A46;" d="M44.851,48.657c-0.505,0-1.01-0.052-1.515-0.145c-0.494-0.103-0.979-0.248-1.442-0.443
	c-0.464-0.196-0.917-0.433-1.329-0.711c-0.433-0.278-0.824-0.608-1.185-0.958c-0.351-0.36-0.67-0.752-0.958-1.174
	c-0.278-0.422-0.515-0.876-0.711-1.34c-0.196-0.463-0.34-0.948-0.443-1.442c-0.093-0.495-0.144-1.01-0.144-1.514
	c0-0.505,0.051-1.01,0.144-1.504c0.103-0.495,0.248-0.979,0.443-1.453c0.196-0.464,0.433-0.906,0.711-1.329
	c0.288-0.422,0.608-0.824,0.958-1.175c0.36-0.36,0.752-0.679,1.185-0.958c0.412-0.278,0.865-0.525,1.329-0.71
	c0.463-0.196,0.948-0.351,1.442-0.444c2.514-0.505,5.182,0.32,6.973,2.112c0.361,0.351,0.68,0.753,0.958,1.175
	c0.278,0.423,0.525,0.865,0.711,1.329c0.196,0.474,0.34,0.958,0.443,1.453c0.103,0.494,0.155,0.999,0.155,1.504
	c0,0.504-0.052,1.019-0.155,1.514c-0.103,0.494-0.247,0.979-0.443,1.442c-0.186,0.464-0.433,0.918-0.711,1.34
	C50.99,45.65,50.67,46.041,50.31,46.4C48.879,47.832,46.881,48.657,44.851,48.657z"/>
<path style="fill:#FFB70D;" d="M71.037,48.657c-0.505,0-1.01-0.052-1.504-0.145c-0.494-0.103-0.989-0.248-1.453-0.443
	c-0.464-0.196-0.917-0.433-1.329-0.711c-0.423-0.278-0.824-0.608-1.175-0.958c-0.361-0.36-0.68-0.752-0.958-1.174
	c-0.278-0.422-0.526-0.876-0.711-1.34c-0.196-0.463-0.351-0.948-0.443-1.442c-0.103-0.495-0.154-1.01-0.154-1.514
	c0-2.03,0.824-4.018,2.266-5.461c0.351-0.36,0.752-0.679,1.175-0.958c0.412-0.278,0.865-0.525,1.329-0.71
	c0.464-0.196,0.958-0.351,1.453-0.444c0.989-0.206,2.019-0.206,3.018,0c0.484,0.093,0.979,0.247,1.442,0.444
	c0.464,0.185,0.917,0.433,1.329,0.71c0.433,0.279,0.824,0.598,1.185,0.958c1.432,1.443,2.256,3.431,2.256,5.461
	c0,0.504-0.052,1.019-0.155,1.514c-0.093,0.494-0.247,0.979-0.433,1.442c-0.196,0.464-0.433,0.918-0.711,1.34
	c-0.288,0.423-0.608,0.814-0.958,1.174c-0.361,0.35-0.752,0.68-1.185,0.958c-0.412,0.279-0.865,0.515-1.329,0.711
	c-0.463,0.195-0.958,0.34-1.442,0.443C72.046,48.604,71.541,48.657,71.037,48.657z"/>
<path style="fill:#92B620;" d="M97.222,48.657c-0.505,0-1.009-0.052-1.504-0.145c-0.494-0.103-0.979-0.248-1.453-0.443
	c-0.464-0.196-0.906-0.433-1.329-0.711c-0.423-0.278-0.814-0.608-1.175-0.958c-0.36-0.36-0.68-0.752-0.958-1.174
	c-0.278-0.422-0.515-0.876-0.711-1.34c-0.196-0.463-0.34-0.948-0.443-1.442c-0.103-0.495-0.154-1.01-0.154-1.514
	c0-2.03,0.824-4.018,2.266-5.461c0.361-0.36,0.752-0.679,1.175-0.958c0.422-0.278,0.865-0.525,1.329-0.71
	c0.474-0.196,0.958-0.351,1.453-0.444c0.999-0.206,2.019-0.206,3.018,0c0.494,0.093,0.979,0.247,1.443,0.444
	c0.474,0.185,0.916,0.433,1.339,0.71c0.422,0.279,0.814,0.598,1.175,0.958c1.432,1.443,2.256,3.431,2.256,5.461
	c0,0.504-0.052,1.019-0.144,1.514c-0.103,0.494-0.247,0.979-0.443,1.442c-0.196,0.464-0.433,0.918-0.711,1.34
	c-0.278,0.423-0.608,0.814-0.958,1.174c-0.361,0.35-0.752,0.68-1.175,0.958c-0.423,0.279-0.865,0.515-1.339,0.711
	c-0.464,0.195-0.948,0.34-1.443,0.443C98.241,48.604,97.726,48.657,97.222,48.657z"/>
<g>
	<path style="fill:#7E7F7F;" d="M313.611,48.66H129.394c-4.267,0-7.725-3.459-7.725-7.725s3.459-7.725,7.725-7.725h184.217
		c4.267,0,7.725,3.459,7.725,7.725S317.877,48.66,313.611,48.66z"/>
	<path style="fill:#7E7F7F;" d="M372.369,48.66h-31.59c-4.267,0-7.725-3.459-7.725-7.725s3.459-7.725,7.725-7.725h31.59
		c4.267,0,7.725,3.459,7.725,7.725S376.636,48.66,372.369,48.66z"/>
</g>
<g>
</g>
<g>
</g>
<g>
</g>
<g>
</g>
<g>
</g>
<g>
</g>
<g>
</g>
<g>
</g>
<g>
</g>
<g>
</g>
<g>
</g>
<g>
</g>
<g>
</g>
<g>
</g>
<g>
</g>
</svg>
