<?xml version="1.0" encoding="UTF-8" standalone="no"?>
<svg
   xmlns:dc="http://purl.org/dc/elements/1.1/"
   xmlns:cc="http://creativecommons.org/ns#"
   xmlns:rdf="http://www.w3.org/1999/02/22-rdf-syntax-ns#"
   xmlns:svg="http://www.w3.org/2000/svg"
   xmlns="http://www.w3.org/2000/svg"
   xmlns:sodipodi="http://sodipodi.sourceforge.net/DTD/sodipodi-0.dtd"
   xmlns:inkscape="http://www.inkscape.org/namespaces/inkscape"
   version="1.1"
   id="Capa_1"
   x="0px"
   y="0px"
   viewBox="0 0 512 512"
   style="enable-background:new 0 0 512 512;"
   xml:space="preserve"
   sodipodi:docname="dislike.svg"
   inkscape:version="1.0 (4035a4fb49, 2020-05-01)"><metadata
   id="metadata57"><rdf:RDF><cc:Work
       rdf:about=""><dc:format>image/svg+xml</dc:format><dc:type
         rdf:resource="http://purl.org/dc/dcmitype/StillImage" /><dc:title></dc:title></cc:Work></rdf:RDF></metadata><defs
   id="defs55" /><sodipodi:namedview
   inkscape:document-rotation="0"
   pagecolor="#ffffff"
   bordercolor="#666666"
   borderopacity="1"
   objecttolerance="10"
   gridtolerance="10"
   guidetolerance="10"
   inkscape:pageopacity="0"
   inkscape:pageshadow="2"
   inkscape:window-width="1920"
   inkscape:window-height="1009"
   id="namedview53"
   showgrid="false"
   inkscape:zoom="0.83105469"
   inkscape:cx="420.31048"
   inkscape:cy="320.92509"
   inkscape:window-x="0"
   inkscape:window-y="0"
   inkscape:window-maximized="1"
   inkscape:current-layer="Capa_1" />


















<g
   transform="rotate(180,256,261)"
   id="g70"><g
     id="g47"
     transform="translate(0,-40)"><path
       style="fill:#fedbab"
       d="m 481,332 c 0,-16.5 -13.5,-30 -30,-30 16.5,0 30,-13.5 30,-30 0,-16.5 -13.5,-30 -30,-30 H 328.001 C 346.3,187.099 346,168.6 346,135 346,115.499 333.401,98.699 316,92.701 311.201,90.901 306.4,90 301,90 h -9 c -5.7,0 -12.9,4.501 -14.401,11.4 L 269.2,134.099 C 256.601,182.999 216.099,242 166,242 v 210 l 66.899,22.2 c 15.3,5.099 31.201,7.8 47.401,7.8 H 421 c 16.569,0 30,-13.433 30,-30 0,-16.569 -13.431,-30 -30,-30 h 30 c 16.5,0 30,-13.5 30,-30 0,-16.5 -13.5,-30 -30,-30 16.5,0 30,-13.5 30,-30 z"
       id="path2" /><path
       style="fill:#fec478"
       d="m 421,482 c 16.569,0 30,-13.433 30,-30 0,-16.569 -13.431,-30 -30,-30 h 30 c 16.5,0 30,-13.5 30,-30 0,-16.5 -13.5,-30 -30,-30 16.5,0 30,-13.5 30,-30 0,-16.5 -13.5,-30 -30,-30 16.5,0 30,-13.5 30,-30 0,-16.5 -13.5,-30 -30,-30 H 328.001 C 346.3,187.099 346,168.6 346,135 346,115.499 333.401,98.699 316,92.701 311.201,90.901 306.4,90 301,90 v 392 z"
       id="path4" /><g
       id="g14">
	<path
   style="fill:#1689fc"
   d="M 136,512 H 46 c -8.291,0 -15,-6.709 -15,-15 V 227 c 0,-8.291 6.709,-15 15,-15 h 90 c 24.814,0 45,20.186 45,45 v 210 c 0,24.814 -20.186,45 -45,45 z"
   id="path6" />
	<circle
   style="fill:#1689fc"
   cx="106"
   cy="437"
   r="15"
   id="circle8" />
	
	
</g><g
       id="g22">
</g><g
       id="g24">
</g><g
       id="g26">
</g><g
       id="g28">
</g><g
       id="g30">
</g><g
       id="g32">
</g><g
       id="g34">
</g><g
       id="g36">
</g><g
       id="g38">
</g><g
       id="g40">
</g><g
       id="g42">
</g><g
       id="g44">
</g><g
       id="g46">
</g><g
       id="g48">
</g><g
       id="g50">
</g></g></g>
</svg>
