<?xml version="1.0" encoding="UTF-8" standalone="no"?>
<svg
   xmlns:dc="http://purl.org/dc/elements/1.1/"
   xmlns:cc="http://creativecommons.org/ns#"
   xmlns:rdf="http://www.w3.org/1999/02/22-rdf-syntax-ns#"
   xmlns:svg="http://www.w3.org/2000/svg"
   xmlns="http://www.w3.org/2000/svg"
   xmlns:sodipodi="http://sodipodi.sourceforge.net/DTD/sodipodi-0.dtd"
   xmlns:inkscape="http://www.inkscape.org/namespaces/inkscape"
   inkscape:version="1.0 (4035a4fb49, 2020-05-01)"
   sodipodi:docname="like.svg"
   xml:space="preserve"
   style="enable-background:new 0 0 512 512;"
   viewBox="0 0 512 512"
   y="0px"
   x="0px"
   id="Capa_1"
   version="1.1"><metadata
   id="metadata57"><rdf:RDF><cc:Work
       rdf:about=""><dc:format>image/svg+xml</dc:format><dc:type
         rdf:resource="http://purl.org/dc/dcmitype/StillImage" /></cc:Work></rdf:RDF></metadata><defs
   id="defs55" /><sodipodi:namedview
   inkscape:current-layer="Capa_1"
   inkscape:window-maximized="1"
   inkscape:window-y="0"
   inkscape:window-x="0"
   inkscape:cy="238.91971"
   inkscape:cx="364.38545"
   inkscape:zoom="1.1752888"
   showgrid="false"
   id="namedview53"
   inkscape:window-height="1009"
   inkscape:window-width="1920"
   inkscape:pageshadow="2"
   inkscape:pageopacity="0"
   guidetolerance="10"
   gridtolerance="10"
   objecttolerance="10"
   borderopacity="1"
   bordercolor="#666666"
   pagecolor="#ffffff" />
<path
   id="path2"
   d="M481,332c0-16.5-13.5-30-30-30c16.5,0,30-13.5,30-30s-13.5-30-30-30H328.001  C346.3,187.099,346,168.6,346,135c0-19.501-12.599-36.301-30-42.299c-4.799-1.8-9.6-2.701-15-2.701h-9  c-5.7,0-12.9,4.501-14.401,11.4l-8.399,32.699C256.601,182.999,216.099,242,166,242v210l66.899,22.2  c15.3,5.099,31.201,7.8,47.401,7.8H421c16.569,0,30-13.433,30-30c0-16.569-13.431-30-30-30h30c16.5,0,30-13.5,30-30s-13.5-30-30-30  C467.5,362,481,348.5,481,332z"
   style="fill:#FEDBAB;" />
<path
   id="path4"
   d="M421,482c16.569,0,30-13.433,30-30c0-16.569-13.431-30-30-30h30c16.5,0,30-13.5,30-30s-13.5-30-30-30  c16.5,0,30-13.5,30-30s-13.5-30-30-30c16.5,0,30-13.5,30-30s-13.5-30-30-30H328.001C346.3,187.099,346,168.6,346,135  c0-19.501-12.599-36.301-30-42.299c-4.799-1.8-9.6-2.701-15-2.701v392H421z"
   style="fill:#FEC478;" />
<g
   id="g14">
	<path
   id="path6"
   d="M136,512H46c-8.291,0-15-6.709-15-15V227c0-8.291,6.709-15,15-15h90c24.814,0,45,20.186,45,45v210   C181,491.814,160.814,512,136,512z"
   style="fill:#1689FC;" />
	<circle
   id="circle8"
   r="15"
   cy="437"
   cx="106"
   style="fill:#1689FC;" />
	<path
   id="path10"
   d="M316,15v30c0,8.401-6.599,15-15,15s-15-6.599-15-15V15c0-8.401,6.599-15,15-15S316,6.599,316,15z"
   style="fill:#1689FC;" />
	<path
   id="path12"
   d="M216.142,86.353l-21.211-21.211c-5.859-5.859-5.859-15.352,0-21.211s15.352-5.859,21.211,0   l21.211,21.211c5.859,5.859,5.859,15.352,0,21.211C231.493,92.212,222.001,92.212,216.142,86.353z"
   style="fill:#1689FC;" />
</g>
<g
   id="g20">
	<path
   id="path16"
   d="M364.647,86.353c-5.859-5.859-5.859-15.352,0-21.211l21.211-21.211   c5.859-5.859,15.352-5.859,21.211,0s5.859,15.352,0,21.211l-21.211,21.211C379.999,92.212,370.507,92.212,364.647,86.353z"
   style="fill:#136EF1;" />
	<path
   id="path18"
   d="M316,15v30c0,8.401-6.599,15-15,15V0C309.401,0,316,6.599,316,15z"
   style="fill:#136EF1;" />
</g>
<g
   id="g22">
</g>
<g
   id="g24">
</g>
<g
   id="g26">
</g>
<g
   id="g28">
</g>
<g
   id="g30">
</g>
<g
   id="g32">
</g>
<g
   id="g34">
</g>
<g
   id="g36">
</g>
<g
   id="g38">
</g>
<g
   id="g40">
</g>
<g
   id="g42">
</g>
<g
   id="g44">
</g>
<g
   id="g46">
</g>
<g
   id="g48">
</g>
<g
   id="g50">
</g>
</svg>
