<svg xmlns="http://www.w3.org/2000/svg" viewBox="0 0 83.39324 95.26844"><defs><filter height="1.15764" y="-.07882" width="1.14307" x="-.07153" id="j" color-interpolation-filters="sRGB"><feGaussianBlur stdDeviation="3.66537"/></filter><filter color-interpolation-filters="sRGB" id="i" x="-.18606" width="1.37212" y="-.18295" height="1.3659"><feGaussianBlur stdDeviation=".59083"/></filter><filter color-interpolation-filters="sRGB" id="h" x="-.30459" width="1.60919" y="-.2995" height="1.59901"><feGaussianBlur stdDeviation=".96723"/></filter><filter color-interpolation-filters="sRGB" id="g" x="-.25124" width="1.50249" y="-.24705" height="1.49409"><feGaussianBlur stdDeviation=".79782"/></filter><filter color-interpolation-filters="sRGB" id="f" x="-.08574" width="1.17147" y="-.0998" height="1.19959"><feGaussianBlur stdDeviation="1.58838"/></filter><filter height="1.15764" y="-.07882" width="1.14307" x="-.07153" id="e" color-interpolation-filters="sRGB"><feGaussianBlur stdDeviation="3.66537"/></filter><filter height="1.18759" y="-.09379" width="1.12496" x="-.06248" id="d" color-interpolation-filters="sRGB"><feGaussianBlur stdDeviation="2.12628"/></filter><filter color-interpolation-filters="sRGB" id="c" x="-.1273" width="1.25461" y="-.09378" height="1.18756"><feGaussianBlur stdDeviation="1.41763"/></filter><filter color-interpolation-filters="sRGB" id="b" x="-.1273" width="1.25461" y="-.09378" height="1.18756"><feGaussianBlur stdDeviation="1.41763"/></filter><filter color-interpolation-filters="sRGB" id="a" x="-.05824" width="1.11647" y="-.04082" height="1.08165"><feGaussianBlur stdDeviation="3.93739"/></filter></defs><path d="M66.56008 37.97689c-5.51603-4.95062-7.83352-12.44415-6.70428-19.7694.15902-1.03082.21802-2.09471.16722-3.18136C59.64043 6.85263 52.90441.24386 44.72508.0068c-8.93154-.25877-16.2531 6.9043-16.2531 15.77763 0 1.33033.16458 2.62229.4744 3.8563 1.8005 7.16995.02381 14.75238-5.04534 20.1332-5.0882 5.40121-8.30685 12.6545-8.30685 20.64386 0 18.40018 7.16068 27.2677 17.40614 30.06142 2.35717-1.05807 5.77559-1.72402 9.5803-1.72402 3.61897 0 6.8871.60272 9.22628 1.57215 12.6418-2.53418 18.63884-8.6913 22.82296-22.9071 3.34196-11.35432-1.83912-23.85165-8.06979-29.44335z"/><path filter="url(#a)" fill="#fff" opacity=".7" d="M84.22465 242.44769c0-45.34 36.32501-150.337 81.13401-150.337 44.809 0 81.134 105.528 81.134 150.337 0 44.809-36.325 81.134-81.134 81.134s-81.134-36.325-81.134-81.134z" transform="scale(.26458)"/><path fill="#fff" d="M22.28444 64.14762c0-11.99621 9.611-39.77667 21.4667-39.77667 11.85572 0 21.46671 27.92095 21.46671 39.77667 0 11.85571-9.61099 21.4667-21.4667 21.4667-11.85572 0-21.46671-9.61099-21.46671-21.4667zm17.0852-45.83774a3.53563 4.79954 0 01-3.53562 4.79954 3.53563 4.79954 0 01-3.53563-4.79954 3.53563 4.79954 0 013.53563-4.79954 3.53563 4.79954 0 013.53562 4.79954"/><path filter="url(#b)" fill="#fff" opacity=".7" d="M148.79866 69.20269a13.363 18.14 0 01-13.363 18.14 13.363 18.14 0 01-13.363-18.14 13.363 18.14 0 0113.363-18.14 13.363 18.14 0 0113.363 18.14" transform="scale(.26458)"/><path fill="#000100" d="M37.58741 19.39996a1.7534 3.11124 0 01-1.7534 3.11123 1.7534 3.11124 0 01-1.75338-3.11123 1.7534 3.11124 0 011.75339-3.11124 1.7534 3.11124 0 011.7534 3.11124"/><path fill="#fff" d="M51.95852 18.30988a3.53563 4.79954 0 01-3.53563 4.79954 3.53563 4.79954 0 01-3.53563-4.79954 3.53563 4.79954 0 013.53563-4.79954 3.53563 4.79954 0 013.53563 4.79954"/><path filter="url(#c)" fill="#fff" opacity=".7" d="M196.37865 69.20269a13.363 18.14 0 01-13.363 18.14 13.363 18.14 0 01-13.363-18.14 13.363 18.14 0 0113.363-18.14 13.363 18.14 0 0113.363 18.14" transform="scale(.26458)"/><path fill="#000100" d="M50.17628 19.39996a1.7534 3.11124 0 01-1.75339 3.11123 1.7534 3.11124 0 01-1.7534-3.11123 1.7534 3.11124 0 011.7534-3.11124 1.7534 3.11124 0 011.7534 3.11124"/><path fill="#ae4e32" d="M42.42056 32.25633c-3.19829 0-6.46034-1.56316-9.71312-4.65852l1.09431-1.15014c3.243 3.08557 6.427 4.4905 9.46124 4.17777 4.18862-.4326 6.7101-4.0177 6.73497-4.05368l1.30651.90223c-.11906.17224-2.97021 4.2238-7.87823 4.73048a9.7606 9.7606 0 01-1.00568.05186z"/><path fill="#9e402b" d="M43.26272 30.62544c-.22621.02328-.45376.03387-.68183.0381v1.58856c.28205-.0048.56383-.01852.84455-.04762 4.90829-.50668 7.75917-4.5585 7.87824-4.73049l-1.30652-.90223c-.02434.03598-2.54608 3.62109-6.73444 4.05368z"/><path fill="#fe9a0f" d="M53.15893 26.51752c1.15465 2.46247-7.63957 7.13449-10.70186 7.13449-3.8198 0-11.79671-5.64568-10.70187-7.1345 2.04285-2.77812 6.5032-7.26069 10.16503-7.26069 2.63816 0 10.45395 5.58747 11.2387 7.2607z"/><path fill="#e2810c" d="M53.15867 26.51752c-.72734-1.55072-7.49088-6.4606-10.57778-7.17153v14.30046c3.16495-.11642 11.71787-4.69794 10.57778-7.12893z"/><path d="M200.91566 100.22369c4.364 9.307-28.874 26.965-40.448 26.965-14.437 0-44.586-21.338-40.448-26.965 7.721-10.5 24.579-27.442 38.419-27.442 9.971 0 39.511 21.118 42.477 27.442z" fill="#fe9a0f" transform="scale(.26458)" opacity=".7" filter="url(#d)"/><path fill="#ae4e32" d="M42.42056 32.25633c-3.19829 0-6.46034-1.56316-9.71312-4.65852l1.09431-1.15014c3.243 3.08557 6.427 4.4905 9.46124 4.17777 4.18862-.4326 6.7101-4.0177 6.73497-4.05368l1.30651.90223c-.11906.17224-2.97021 4.2238-7.87823 4.73048a9.7606 9.7606 0 01-1.00568.05186z"/><path fill="#9e402b" d="M43.26272 30.62544c-.22621.02328-.45376.03387-.68183.0381v1.58856c.28205-.0048.56383-.01852.84455-.04762 4.90829-.50668 7.75917-4.5585 7.87824-4.73049l-1.30652-.90223c-.02434.03598-2.54608 3.62109-6.73444 4.05368z"/><path fill="#fe9b0e" d="M66.64865 64.84233c1.56051 3.0144 3.88144 5.86131 6.87494 6.5204 2.20768.48603 3.87747 2.36457 4.12379 4.61168.0341.31194.0804.62468.13944.93821.38126 2.03173 1.24407 3.85101 2.44792 5.36231 1.80737 2.26907.50456 5.65335-2.34553 6.19337l-22.50678 4.26534c-4.90247.92922-8.59023-4.38599-6.00366-8.65293l12.42695-19.48365c1.1631-1.82403 3.84863-1.67613 4.84293.24527z"/><path d="M251.90042 245.07338c5.898 11.393 14.67 22.153 25.984 24.644 8.344 1.837 14.655 8.937 15.586 17.43.129 1.179.304 2.361.527 3.546 1.441 7.679 4.702 14.555 9.252 20.267 6.831 8.576 1.907 21.367-8.865 23.408l-85.065 16.121c-18.529 3.512-32.467-16.577-22.691-32.704l46.968-73.639c4.396-6.894 14.546-6.335 18.304.927z" fill="#fe9b0e" transform="scale(.26458)" opacity=".71" filter="url(#e)"/><path d="M76.81534 68.41138a7.2099 7.2099 0 01-7.2099 7.2099 7.2099 7.2099 0 01-7.2099-7.2099 7.2099 7.2099 0 017.2099-7.2099 7.2099 7.2099 0 017.2099 7.2099m-55.93028-7.90046s7.7044 9.3927 13.1945 11.50937c5.49011 2.11667-2.61117 8.26214-10.0195 3.60177-7.40834-4.6601-3.175-15.11114-3.175-15.11114z"/><g filter="url(#f)" transform="matrix(.2776 .27356 -.26404 .26795 32.72722 50.84483)"><path fill="#9b1010" d="M42 14l-2 26-26 2z"/><path fill="#b71c1c" d="M28 28l12 12 2-26z"/><path fill="#c62828" d="M15.75216 15.75245a22.621 11.664-45.001 1016.49568 16.4951 22.621 11.664-45.001 10-16.49568-16.4951z"/><path fill="#e53935" d="M10 17l7-7 8-4 6 4-3 9-9 8-9 3-4-6z"/><path fill="#ff5252" d="M31 10l-6-4h11zm11 5l-11-5-3 9zM19 27l13.235 5.235L28 19zm-9 3l4 12 5-15zm-4-6v11l4-5z"/></g><path d="M40.69024 66.08575l-7.4203 6.41951-7.74594-6.57674z" fill="#9b1010"/><path d="M33.10712 66.00713l.16281 6.49813 7.4203-6.41951z" fill="#b71c1c"/><path d="M32.94086 59.37487a8.6664 4.4638 1.32643 10.22397 8.93244 8.6664 4.4638 1.32643 10-.22397-8.93244z" fill="#c62828"/><path d="M31.0146 58.13557l3.79156.03931 3.27705 1.11672.6095 2.71317-3.20922 1.59084-4.61082-.31849-3.29061-1.65822.47381-2.70194z" fill="#e53935"/><path d="M38.6927 62.00476l-.6095-2.71317 3.05371 3.0092zm1.7335 4.34893l-1.7335-4.34893-3.2092 1.59084zm-9.55353-3.07657l2.2919 5.0233 2.31892-4.70482zm-3.29061-1.65822L25.524 65.92852l5.34867-2.6514zm.47381-2.70194l-2.90446 2.94742 2.43065-.24548z" fill="#ff5252"/><path d="M20.59236 59.47263s7.9971 10.431 13.4872 12.54766c5.49011 2.11667-2.61117 8.26214-10.0195 3.60177-5.7838-3.63822-6.90294-15.29408-6.04942-18.26274.23973-.83382 2.58172 2.1133 2.58172 2.1133z"/><path fill="#fe9b0e" d="M16.74433 64.9427c-1.56051 3.01439-3.88144 5.8613-6.87493 6.52038-2.20769.48604-3.87747 2.36458-4.1238 4.6117a12.44116 12.44116 0 01-.13917.9382C5.22516 79.04471 4.36236 80.864 3.1585 82.3753c-1.80736 2.26907-.50456 5.65335 2.34554 6.19337L28.01082 92.834c4.90246.92922 8.59023-4.38599 6.00366-8.65293L21.58753 64.69742c-1.16337-1.82403-3.8489-1.67613-4.8432.24527z"/><path fill="#fff" d="M35.30415 62.4186c-.11425.50783-.50626.90713-1.01193 1.03063.49994.12428.88791.51831 1.00444 1.02007.11432-.50775.5064-.90699 1.012-1.03043-.49994-.12422-.88804-.51837-1.0045-1.02026zm-2.01129-1.62558c-.11425.50782-.50625.90713-1.01193 1.03063.49995.12428.88791.5183 1.00444 1.02007.11432-.50775.5064-.90699 1.012-1.03043-.49994-.12422-.88804-.51837-1.0045-1.02027zm-2.4757 1.59859c-.11425.50782-.50626.90712-1.01193 1.03062.49994.12428.88791.5183 1.00444 1.02007.11432-.50775.5064-.90699 1.012-1.03043-.49994-.12422-.88804-.51837-1.0045-1.02026z" class="spark3"/><path filter="url(#g)" fill="#fff" class="spark3" d="M133.43302 235.91284c-.43183 1.91932-1.91342 3.42849-3.82462 3.89527 1.88954.46974 3.35587 1.95897 3.79631 3.8554.43207-1.91908 1.91391-3.428 3.82486-3.89454-1.88953-.46949-3.35636-1.95921-3.79655-3.85613z" transform="scale(.26458)"/><path filter="url(#h)" fill="#fff" d="M125.8313 229.76891c-.43183 1.91932-1.91342 3.42849-3.82462 3.89527 1.88954.46974 3.35587 1.95897 3.79631 3.8554.43207-1.91908 1.91391-3.428 3.82486-3.89454-1.88953-.46949-3.35636-1.95921-3.79655-3.85613z" class="spark3" transform="scale(.26458)"/><path filter="url(#i)" fill="#fff" d="M116.47432 235.81079c-.43183 1.91932-1.91342 3.42849-3.82462 3.89527 1.88954.46974 3.35587 1.95897 3.79631 3.8554.43207-1.91908 1.91391-3.428 3.82486-3.89454-1.88953-.46949-3.35636-1.95921-3.79655-3.85613z" class="spark3" transform="scale(.26458)"/><path d="M63.28565 245.45269c-5.898 11.393-14.67 22.153-25.984 24.644-8.344 1.837-14.655 8.937-15.586 17.43-.129 1.179-.304 2.361-.526 3.546-1.441 7.679-4.702 14.555-9.252 20.267-6.831 8.576-1.907 21.367 8.865 23.408l85.06501 16.121c18.529 3.512 32.467-16.577 22.691-32.704l-46.968-73.639c-4.397-6.894-14.547-6.335-18.305.927z" fill="#fe9b0e" transform="scale(.26458)" opacity=".7" filter="url(#j)"/></svg>