<?xml version="1.0" encoding="UTF-8" standalone="no"?>
<svg
   xmlns:dc="http://purl.org/dc/elements/1.1/"
   xmlns:cc="http://creativecommons.org/ns#"
   xmlns:rdf="http://www.w3.org/1999/02/22-rdf-syntax-ns#"
   xmlns:svg="http://www.w3.org/2000/svg"
   xmlns="http://www.w3.org/2000/svg"
   xmlns:sodipodi="http://sodipodi.sourceforge.net/DTD/sodipodi-0.dtd"
   xmlns:inkscape="http://www.inkscape.org/namespaces/inkscape"
   viewBox="0 0 95.999998 96"
   version="1.1"
   id="svg293"
   sodipodi:docname="linux+ruby-recursive.svg"
   width="96"
   height="96"
   inkscape:version="1.0.1 (3bc2e813f5, 2020-09-07)">
  <metadata
     id="metadata297">
    <rdf:RDF>
      <cc:Work
         rdf:about="">
        <dc:format>image/svg+xml</dc:format>
        <dc:type
           rdf:resource="http://purl.org/dc/dcmitype/StillImage" />
        <dc:title></dc:title>
      </cc:Work>
    </rdf:RDF>
  </metadata>
  <sodipodi:namedview
     pagecolor="#ffffff"
     bordercolor="#666666"
     borderopacity="1"
     objecttolerance="10"
     gridtolerance="10"
     guidetolerance="10"
     inkscape:pageopacity="0"
     inkscape:pageshadow="2"
     inkscape:window-width="1920"
     inkscape:window-height="1009"
     id="namedview295"
     showgrid="false"
     fit-margin-left="0"
     fit-margin-top="0"
     inkscape:zoom="6.1827395"
     inkscape:cx="27.556361"
     inkscape:cy="46.846134"
     inkscape:window-x="0"
     inkscape:window-y="0"
     inkscape:window-maximized="1"
     inkscape:current-layer="svg293" />
  <defs
     id="defs35">
    <filter
       id="i"
       x="-0.071529999"
       width="1.14307"
       y="-0.078819998"
       height="1.15764"
       color-interpolation-filters="sRGB">
      <feGaussianBlur
         stdDeviation="3.66537"
         id="feGaussianBlur2" />
    </filter>
    <filter
       height="1.3659"
       y="-0.18295"
       width="1.37212"
       x="-0.18606"
       id="j"
       color-interpolation-filters="sRGB">
      <feGaussianBlur
         stdDeviation=".59083"
         id="feGaussianBlur5" />
    </filter>
    <filter
       height="1.59901"
       y="-0.29949999"
       width="1.60919"
       x="-0.30458999"
       id="h"
       color-interpolation-filters="sRGB">
      <feGaussianBlur
         stdDeviation=".96723"
         id="feGaussianBlur8" />
    </filter>
    <filter
       height="1.49409"
       y="-0.24705"
       width="1.50249"
       x="-0.25123999"
       id="g"
       color-interpolation-filters="sRGB">
      <feGaussianBlur
         stdDeviation=".79782"
         id="feGaussianBlur11" />
    </filter>
    <filter
       height="1.19959"
       y="-0.099799998"
       width="1.17147"
       x="-0.08574"
       id="f"
       color-interpolation-filters="sRGB">
      <feGaussianBlur
         stdDeviation="1.58838"
         id="feGaussianBlur14" />
    </filter>
    <filter
       id="d"
       x="-0.071529999"
       width="1.14307"
       y="-0.078819998"
       height="1.15764"
       color-interpolation-filters="sRGB">
      <feGaussianBlur
         stdDeviation="3.66537"
         id="feGaussianBlur17" />
    </filter>
    <filter
       id="e"
       x="-0.062479999"
       width="1.1249599"
       y="-0.093790002"
       height="1.18759"
       color-interpolation-filters="sRGB">
      <feGaussianBlur
         stdDeviation="2.12628"
         id="feGaussianBlur20" />
    </filter>
    <filter
       height="1.18756"
       y="-0.093780003"
       width="1.2546099"
       x="-0.12729999"
       id="c"
       color-interpolation-filters="sRGB">
      <feGaussianBlur
         stdDeviation="1.41763"
         id="feGaussianBlur23" />
    </filter>
    <filter
       height="1.18756"
       y="-0.093780003"
       width="1.2546099"
       x="-0.12729999"
       id="b"
       color-interpolation-filters="sRGB">
      <feGaussianBlur
         stdDeviation="1.41763"
         id="feGaussianBlur26" />
    </filter>
    <filter
       height="1.08165"
       y="-0.040819999"
       width="1.11647"
       x="-0.05824"
       id="a"
       color-interpolation-filters="sRGB">
      <feGaussianBlur
         stdDeviation="3.93739"
         id="feGaussianBlur29" />
    </filter>
    <filter
       height="1.15767"
       y="-0.078840002"
       width="1.1430399"
       x="-0.071520001"
       id="k"
       color-interpolation-filters="sRGB">
      <feGaussianBlur
         stdDeviation=".00422"
         id="feGaussianBlur32" />
    </filter>
  </defs>
  <path
     d="M 72.55435,39.268603 C 67.039533,34.279953 64.722554,26.728864 65.851553,19.347346 66.01052,18.308608 66.069507,17.236546 66.018717,16.14155 65.636233,7.9052668 58.901694,1.2457331 50.724163,1.0068522 41.794587,0.74609453 34.474638,7.9641861 34.474638,16.905673 c 0,1.340541 0.164545,2.642433 0.474296,3.885923 1.800103,7.225026 0.02381,14.865687 -5.04423,20.28785 -5.087082,5.442697 -8.305024,12.751703 -8.305024,20.802431 0,18.541516 7.159106,27.47715 17.402311,30.29234 2.356653,-1.066209 5.77432,-1.737264 9.578192,-1.737264 3.618175,0 6.885588,0.60734 9.224252,1.584218 C 70.443454,89.467534 76.439184,83.263109 80.622377,68.938115 83.9636,57.496578 78.783668,44.903253 72.55435,39.268603 Z"
     id="path37"
     style="stroke-width:1.00369" />
  <path
     d="m 84.22465,242.44768 c 0,-45.34 36.32501,-150.337 81.13401,-150.337 44.809,0 81.134,105.528 81.134,150.337 0,44.809 -36.325,81.134 -81.134,81.134 -44.809,0 -81.134,-36.325 -81.134,-81.134 z"
     opacity="0.7"
     fill="#ffffff"
     filter="url(#a)"
     transform="matrix(0.26452181,0,0,0.26661232,6.0089104,1)"
     id="path39" />
  <path
     d="m 28.288448,65.640356 c 0,-12.088356 9.608887,-40.082206 21.461979,-40.082206 11.853112,0 21.461979,28.135419 21.461979,40.082206 0,11.946776 -9.608867,21.631591 -21.461979,21.631591 -11.853092,0 -21.461979,-9.684815 -21.461979,-21.631591 z M 45.369891,19.450524 a 3.5348523,4.8364066 0 0 1 -3.534843,4.836406 3.5348523,4.8364066 0 0 1 -3.534852,-4.836406 3.5348523,4.8364066 0 0 1 3.534852,-4.836408 3.5348523,4.8364066 0 0 1 3.534843,4.836408"
     fill="#ffffff"
     id="path41"
     style="stroke-width:1.00369" />
  <path
     d="m 148.79866,69.20268 a 13.363,18.14 0 0 1 -13.363,18.14 13.363,18.14 0 0 1 -13.363,-18.14 13.363,18.14 0 0 1 13.363,-18.14 13.363,18.14 0 0 1 13.363,18.14"
     opacity="0.7"
     fill="#ffffff"
     filter="url(#b)"
     transform="matrix(0.26452181,0,0,0.26661232,6.0089104,1)"
     id="path43" />
  <path
     d="m 43.588053,20.548977 a 1.7530142,3.1351382 0 0 1 -1.753015,3.135128 1.7530142,3.1351382 0 0 1 -1.753004,-3.135128 1.7530142,3.1351382 0 0 1 1.753014,-3.135138 1.7530142,3.1351382 0 0 1 1.753015,3.135138"
     fill="#000100"
     id="path45"
     style="stroke-width:1.00369" />
  <path
     d="m 57.956003,19.450524 a 3.5348523,4.8364066 0 0 1 -3.534854,4.836406 3.5348523,4.8364066 0 0 1 -3.534851,-4.836406 3.5348523,4.8364066 0 0 1 3.534851,-4.836408 3.5348523,4.8364066 0 0 1 3.534854,4.836408"
     fill="#ffffff"
     id="path47"
     style="stroke-width:1.00369" />
  <path
     d="m 196.37865,69.20268 a 13.363,18.14 0 0 1 -13.363,18.14 13.363,18.14 0 0 1 -13.363,-18.14 13.363,18.14 0 0 1 13.363,-18.14 13.363,18.14 0 0 1 13.363,18.14"
     opacity="0.7"
     fill="#ffffff"
     filter="url(#c)"
     transform="matrix(0.26452181,0,0,0.26661232,6.0089104,1)"
     id="path49" />
  <path
     d="m 56.174154,20.548977 a 1.7530142,3.1351382 0 0 1 -1.753005,3.135128 1.7530142,3.1351382 0 0 1 -1.753013,-3.135128 1.7530142,3.1351382 0 0 1 1.753013,-3.135138 1.7530142,3.1351382 0 0 1 1.753015,3.135138"
     fill="#000100"
     id="path51"
     style="stroke-width:1.00369" />
  <path
     d="m 48.420138,33.5041 c -3.197586,0 -6.458917,-1.575167 -9.710982,-4.694304 l 1.09407,-1.158973 c 3.242287,3.109271 6.425587,4.524991 9.459161,4.20986 4.187696,-0.435923 6.708622,-4.048561 6.733486,-4.084818 l 1.306223,0.90916 c -0.119035,0.173563 -2.969557,4.256245 -7.876496,4.766817 a 9.7584332,9.8355538 0 0 1 -1.005462,0.05227 z"
     fill="#ae4e32"
     id="path53"
     style="stroke-width:1.00369" />
  <path
     d="m 49.262117,31.860683 c -0.226161,0.02345 -0.453662,0.03416 -0.681684,0.03839 v 1.600761 c 0.281991,-0.0048 0.563706,-0.01866 0.844367,-0.04798 4.907209,-0.510572 7.757461,-4.593516 7.876506,-4.766827 l -1.306232,-0.909161 c -0.02434,0.03627 -2.545521,3.648905 -6.732957,4.084819 z"
     fill="#9e402b"
     id="path55"
     style="stroke-width:1.00369" />
  <path
     d="m 72.642912,66.340402 c 1.560155,3.037555 3.880579,5.906332 6.873415,6.570485 2.207196,0.489774 3.876618,2.382732 4.122885,4.647104 0.0341,0.314336 0.0804,0.629477 0.13941,0.945416 0.381176,2.047337 1.243796,3.880591 2.447381,5.403501 1.806972,2.286508 0.50445,5.696784 -2.345014,6.240953 l -22.50183,4.298103 c -4.901382,0.936347 -8.588342,-4.41969 -6.00234,-8.719407 L 67.801037,66.093246 c 1.162844,-1.838038 3.847784,-1.689003 4.841875,0.247156 z"
     fill="#fe9b0e"
     id="path57"
     style="stroke-width:1.00369" />
  <path
     fill="#fe9b0e"
     d="m 251.90042,245.07337 c 5.898,11.393 14.67,22.153 25.984,24.644 8.344,1.837 14.655,8.937 15.586,17.43 0.129,1.179 0.304,2.361 0.527,3.546 1.441,7.679 4.702,14.555 9.252,20.267 6.831,8.576 1.907,21.367 -8.865,23.408 l -85.065,16.121 c -18.529,3.512 -32.467,-16.577 -22.691,-32.704 l 46.968,-73.639 c 4.396,-6.894 14.546,-6.335 18.304,0.927 z"
     transform="matrix(0.26452181,0,0,0.26661232,6.0089104,1)"
     opacity="0.71"
     filter="url(#d)"
     id="path59" />
  <path
     d="m 82.807354,69.936866 a 7.2083142,7.2652813 0 0 1 -7.208312,7.265282 7.2083142,7.2652813 0 0 1 -7.208316,-7.265282 7.2083142,7.2652813 0 0 1 7.208316,-7.26528 7.2083142,7.2652813 0 0 1 7.208312,7.26528 M 26.889377,61.975721 c 0,0 7.702707,9.464848 13.191597,11.597777 5.488903,2.132928 -2.610594,8.325604 -10.017296,3.629437 -7.4067,-4.695898 -3.174301,-15.227214 -3.174301,-15.227214 z"
     id="path61"
     style="stroke-width:1.00369" />
  <path
     d="m 43.588053,20.548977 a 1.7530142,3.1351382 0 0 1 -1.753015,3.135128 1.7530142,3.1351382 0 0 1 -1.753004,-3.135128 1.7530142,3.1351382 0 0 1 1.753014,-3.135138 1.7530142,3.1351382 0 0 1 1.753015,3.135138"
     fill="#000100"
     id="path63"
     style="stroke-width:1.00369" />
  <path
     d="m 57.956003,19.450524 a 3.5348523,4.8364066 0 0 1 -3.534854,4.836406 3.5348523,4.8364066 0 0 1 -3.534851,-4.836406 3.5348523,4.8364066 0 0 1 3.534851,-4.836408 3.5348523,4.8364066 0 0 1 3.534854,4.836408"
     fill="#ffffff"
     id="path65"
     style="stroke-width:1.00369" />
  <path
     d="m 56.174154,20.548977 a 1.7530142,3.1351382 0 0 1 -1.753005,3.135128 1.7530142,3.1351382 0 0 1 -1.753013,-3.135128 1.7530142,3.1351382 0 0 1 1.753013,-3.135138 1.7530142,3.1351382 0 0 1 1.753015,3.135138"
     fill="#000100"
     id="path67"
     style="stroke-width:1.00369" />
  <path
     d="m 59.156147,27.721208 c 1.154397,2.481394 -7.637888,7.189283 -10.699506,7.189283 -3.818958,0 -11.794116,-5.689047 -10.699515,-7.189303 2.0424,-2.79946 6.50177,-7.316461 10.162791,-7.316461 2.637583,0 10.451653,5.63039 11.23623,7.316471 z"
     fill="#fe9a0f"
     id="path69"
     style="stroke-width:1.00369" />
  <path
     d="M 59.155887,27.721208 C 58.428708,26.158577 51.666655,21.210984 48.580433,20.494591 v 14.410306 c 3.164256,-0.117303 11.715295,-4.734027 10.575454,-7.183689 z"
     fill="#e2810c"
     id="path71"
     style="stroke-width:1.00369" />
  <path
     fill="#fe9a0f"
     d="m 200.91566,100.22368 c 4.364,9.307 -28.874,26.965 -40.448,26.965 -14.437,0 -44.586,-21.338 -40.448,-26.965 7.721,-10.5 24.579,-27.442 38.419,-27.442 9.971,0 39.511,21.118 42.477,27.442 z"
     transform="matrix(0.26452181,0,0,0.26661232,6.0089104,1)"
     opacity="0.7"
     filter="url(#e)"
     id="path73" />
  <path
     d="m 48.420138,33.5041 c -3.197586,0 -6.458917,-1.575167 -9.710982,-4.694304 l 1.09407,-1.158973 c 3.242287,3.109271 6.425587,4.524991 9.459161,4.20986 4.187696,-0.435923 6.708622,-4.048561 6.733486,-4.084818 l 1.306223,0.90916 c -0.119035,0.173563 -2.969557,4.256245 -7.876496,4.766817 a 9.7584332,9.8355538 0 0 1 -1.005462,0.05227 z"
     fill="#ae4e32"
     id="path75"
     style="stroke-width:1.00369" />
  <path
     d="m 49.262117,31.860683 c -0.226161,0.02345 -0.453662,0.03416 -0.681684,0.03839 v 1.600761 c 0.281991,-0.0048 0.563706,-0.01866 0.844367,-0.04798 4.907209,-0.510572 7.757461,-4.593516 7.876506,-4.766827 l -1.306232,-0.909161 c -0.02434,0.03627 -2.545521,3.648905 -6.732957,4.084819 z"
     fill="#9e402b"
     id="path77"
     style="stroke-width:1.00369" />
  <g
     transform="matrix(0.27753894,0.27566128,-0.26398192,0.2700082,38.728922,52.235384)"
     filter="url(#f)"
     id="g89">
    <path
       d="M 42,14 40,40 14,42 Z"
       fill="#9b1010"
       id="path79" />
    <path
       d="M 28,28 40,40 42,14 Z"
       fill="#b71c1c"
       id="path81" />
    <path
       d="M 15.75216,15.75245 A 22.621004,11.664002 -45.001 1 0 32.24784,32.24755 22.621004,11.664002 -45.001 1 0 15.75216,15.75245 Z"
       fill="#c62828"
       id="path83" />
    <path
       d="m 10,17 7,-7 8,-4 6,4 -3,9 -9,8 -9,3 -4,-6 z"
       fill="#e53935"
       id="path85" />
    <path
       d="M 31,10 25,6 h 11 z m 11,5 -11,-5 -3,9 z M 19,27 32.235,32.235 28,19 Z m -9,3 4,12 5,-15 z M 6,24 v 11 l 4,-5 z"
       fill="#ff5252"
       id="path87" />
  </g>
  <path
     fill="#9b1010"
     d="m 46.690203,67.593374 -7.418671,6.468829 -7.744235,-6.627267 z"
     id="path91"
     style="stroke-width:1.00369" />
  <path
     fill="#b71c1c"
     d="m 39.108749,67.514148 0.162773,6.548055 7.418671,-6.468829 z"
     id="path93"
     style="stroke-width:1.00369" />
  <path
     fill="#c62828"
     d="m 38.942525,60.830945 a 8.6645399,4.4980732 1.3446107 1 0 0.223921,9.001043 8.6645399,4.4980732 1.3446107 1 0 -0.223921,-9.001043 z"
     id="path95"
     style="stroke-width:1.00369" />
  <path
     fill="#e53935"
     d="m 37.016687,59.582126 3.790727,0.0396 3.27633,1.125296 0.609365,2.734011 -3.208513,1.60305 -4.609806,-0.320928 -3.289886,-1.670956 0.473704,-2.722694 z"
     id="path97"
     style="stroke-width:1.00369" />
  <path
     fill="#ff5252"
     d="m 44.693099,63.481036 -0.609365,-2.734011 3.053037,3.032316 z m 1.733121,4.382335 -1.733121,-4.382335 -3.208493,1.60306 z m -9.55143,-3.100203 2.291396,5.061886 2.31841,-4.740958 z m -3.289886,-1.670966 -2.057607,4.342734 5.347493,-2.671768 z m 0.473704,-2.722684 -2.903821,2.970059 2.430117,-0.247375 z"
     id="path99"
     style="stroke-width:1.00369" />
  <path
     d="m 26.596741,60.929456 c 0,0 7.995343,10.511123 13.484233,12.644042 5.488903,2.132928 -2.610594,8.325604 -10.017296,3.629437 -5.782528,-3.666167 -6.901422,-15.411559 -6.04809,-18.403022 0.239678,-0.840225 2.581153,2.129533 2.581153,2.129533 z"
     id="path101"
     style="stroke-width:1.00369" />
  <path
     d="m 22.749559,66.441544 c -1.560169,3.037543 -3.880586,5.906322 -6.873419,6.570464 -2.207205,0.489773 -3.876617,2.382743 -4.122893,4.647124 a 12.438573,12.536875 0 0 1 -0.13914,0.945406 c -0.381176,2.047337 -1.243796,3.880603 -2.4473813,5.40351 -1.8069726,2.28649 -0.504449,5.696765 2.3450143,6.240933 l 22.501829,4.298113 c 4.901383,0.936347 8.588341,-4.41969 6.002339,-8.719405 L 27.591691,66.19438 c -1.163113,-1.838042 -3.848052,-1.689005 -4.842132,0.247154 z"
     fill="#fe9b0e"
     id="path103"
     style="stroke-width:1.00369" />
  <path
     class="spark3"
     d="m 41.305294,63.898056 c -0.114224,0.511729 -0.506148,0.914096 -1.011707,1.038546 0.499831,0.125234 0.887716,0.522291 1.004219,1.027905 0.114296,-0.51165 0.50629,-0.913958 1.011779,-1.038345 -0.499831,-0.125174 -0.887846,-0.522353 -1.004281,-1.028096 z m -2.010846,-1.638068 c -0.114226,0.511722 -0.506139,0.914089 -1.011709,1.038548 0.499832,0.125235 0.887716,0.522281 1.004221,1.027904 0.114294,-0.51165 0.506288,-0.913956 1.011777,-1.038344 -0.499831,-0.125176 -0.887846,-0.522352 -1.004279,-1.028108 z m -2.475157,1.610859 c -0.114224,0.511732 -0.506148,0.914098 -1.011707,1.038548 0.499831,0.125234 0.887715,0.522279 1.004221,1.027902 0.114293,-0.511647 0.506287,-0.913954 1.011777,-1.038342 -0.499833,-0.125174 -0.887844,-0.522354 -1.004281,-1.028108 z"
     fill="#ffffff"
     id="path105"
     style="stroke-width:1.00369" />
  <path
     d="m 133.43302,235.91283 c -0.43183,1.91932 -1.91342,3.42849 -3.82462,3.89527 1.88954,0.46974 3.35587,1.95897 3.79631,3.8554 0.43207,-1.91908 1.91391,-3.428 3.82486,-3.89454 -1.88953,-0.46949 -3.35636,-1.95921 -3.79655,-3.85613 z"
     class="spark3"
     fill="#ffffff"
     filter="url(#g)"
     transform="matrix(0.26452181,0,0,0.26661232,6.0089104,1)"
     id="path107" />
  <path
     class="spark3"
     d="m 125.8313,229.7689 c -0.43183,1.91932 -1.91342,3.42849 -3.82462,3.89527 1.88954,0.46974 3.35587,1.95897 3.79631,3.8554 0.43207,-1.91908 1.91391,-3.428 3.82486,-3.89454 -1.88953,-0.46949 -3.35636,-1.95921 -3.79655,-3.85613 z"
     fill="#ffffff"
     filter="url(#h)"
     transform="matrix(0.26452181,0,0,0.26661232,6.0089104,1)"
     id="path109" />
  <path
     fill="#fe9b0e"
     d="m 63.28565,245.45268 c -5.898,11.393 -14.67,22.153 -25.984,24.644 -8.344,1.837 -14.655,8.937 -15.586,17.43 -0.129,1.179 -0.304,2.361 -0.526,3.546 -1.441,7.679 -4.702,14.555 -9.252,20.267 -6.831,8.576 -1.907,21.367 8.865,23.408 l 85.06501,16.121 c 18.529,3.512 32.467,-16.577 22.691,-32.704 l -46.968,-73.639 c -4.397,-6.894 -14.547,-6.335 -18.305,0.927 z"
     transform="matrix(0.26452181,0,0,0.26661232,6.0089104,1)"
     opacity="0.7"
     filter="url(#i)"
     id="path111" />
  <path
     class="spark3"
     d="m 116.47432,235.81078 c -0.43183,1.91932 -1.91342,3.42849 -3.82462,3.89527 1.88954,0.46974 3.35587,1.95897 3.79631,3.8554 0.43207,-1.91908 1.91391,-3.428 3.82486,-3.89454 -1.88953,-0.46949 -3.35636,-1.95921 -3.79655,-3.85613 z"
     fill="#ffffff"
     filter="url(#j)"
     transform="matrix(0.26452181,0,0,0.26661232,6.0089104,1)"
     id="path113" />
  <path
     d="m 52.375211,47.413558 c -0.899104,-0.81332 -1.27684,-2.044395 -1.09278,-3.247827 0.02592,-0.16935 0.03554,-0.344133 0.02726,-0.522656 -0.06238,-1.342783 -1.160315,-2.42851 -2.493523,-2.467458 -1.455821,-0.04252 -2.649216,1.134277 -2.649216,2.592039 0,0.218546 0.02684,0.430803 0.07735,0.633531 0.293475,1.177918 0.0039,2.423603 -0.822379,3.307591 -0.829365,0.887344 -1.354,2.078948 -1.354,3.391492 0,3.022885 1.167173,4.479687 2.837154,4.938647 0.384217,-0.173827 0.941417,-0.283229 1.561569,-0.283229 0.58988,0 1.122583,0.09899 1.503866,0.258289 2.060568,-0.416334 3.038074,-1.427855 3.720084,-3.763307 0.544719,-1.865349 -0.299775,-3.918479 -1.31536,-4.837122 z"
     id="path115"
     style="stroke-width:1.00369" />
  <path
     transform="matrix(0.04313052,0,0,0.04347141,41.526097,41.174501)"
     filter="url(#a)"
     fill="#ffffff"
     opacity="0.7"
     d="m 84.22465,242.44768 c 0,-45.34 36.32501,-150.337 81.13401,-150.337 44.809,0 81.134,105.528 81.134,150.337 0,44.809 -36.325,81.134 -81.134,81.134 -44.809,0 -81.134,-36.325 -81.134,-81.134 z"
     id="path117" />
  <path
     fill="#ffffff"
     d="m 45.158396,51.713021 c 0,-1.970802 1.566569,-6.534722 3.499022,-6.534722 1.932445,0 3.49901,4.587006 3.49901,6.534722 0,1.947727 -1.566555,3.526672 -3.49901,3.526672 -1.932453,0 -3.499022,-1.578945 -3.499022,-3.526672 z m 2.784851,-7.530472 a 0.57629322,0.78849045 0 0 1 -0.576307,0.78849 0.57629322,0.78849045 0 0 1 -0.57629,-0.78849 0.57629322,0.78849045 0 0 1 0.57629,-0.788492 0.57629322,0.78849045 0 0 1 0.576307,0.788492"
     id="path119"
     style="stroke-width:1.00369" />
  <path
     transform="matrix(0.04313052,0,0,0.04347141,41.526097,41.174501)"
     filter="url(#b)"
     fill="#ffffff"
     opacity="0.7"
     d="m 148.79866,69.20268 a 13.363,18.14 0 0 1 -13.363,18.14 13.363,18.14 0 0 1 -13.363,-18.14 13.363,18.14 0 0 1 13.363,-18.14 13.363,18.14 0 0 1 13.363,18.14"
     id="path121" />
  <path
     fill="#000100"
     d="m 47.652749,44.361633 a 0.28579712,0.51112618 0 0 1 -0.285809,0.511128 0.28579712,0.51112618 0 0 1 -0.285794,-0.511128 0.28579712,0.51112618 0 0 1 0.285794,-0.511135 0.28579712,0.51112618 0 0 1 0.285809,0.511135"
     id="path123"
     style="stroke-width:1.00369" />
  <path
     fill="#ffffff"
     d="m 49.995194,44.182549 a 0.57629322,0.78849045 0 0 1 -0.576294,0.78849 0.57629322,0.78849045 0 0 1 -0.576303,-0.78849 0.57629322,0.78849045 0 0 1 0.576303,-0.788502 0.57629322,0.78849045 0 0 1 0.576294,0.788502"
     id="path125"
     style="stroke-width:1.00369" />
  <path
     transform="matrix(0.04313052,0,0,0.04347141,41.526097,41.174501)"
     filter="url(#c)"
     fill="#ffffff"
     opacity="0.7"
     d="m 196.37865,69.20268 a 13.363,18.14 0 0 1 -13.363,18.14 13.363,18.14 0 0 1 -13.363,-18.14 13.363,18.14 0 0 1 13.363,-18.14 13.363,18.14 0 0 1 13.363,18.14"
     id="path127" />
  <path
     fill="#000100"
     d="M 49.704696,44.361633 A 0.28579712,0.51112618 0 0 1 49.4189,44.872761 0.28579712,0.51112618 0 0 1 49.133105,44.361633 0.28579712,0.51112618 0 0 1 49.4189,43.850498 0.28579712,0.51112618 0 0 1 49.704696,44.361633"
     id="path129"
     style="stroke-width:1.00369" />
  <path
     fill="#ae4e32"
     d="m 48.440539,46.473744 c -0.521322,0 -1.053019,-0.256798 -1.583213,-0.765324 l 0.178357,-0.18895 c 0.528604,0.506914 1.047589,0.737722 1.542162,0.686352 0.682742,-0.07106 1.093729,-0.660051 1.097787,-0.665967 l 0.212955,0.148229 c -0.0194,0.02829 -0.484135,0.693901 -1.284125,0.777144 a 1.5773332,1.5897985 0 0 1 -0.163923,0.0085 z"
     id="path131"
     style="stroke-width:1.00369" />
  <path
     fill="#9e402b"
     d="m 48.577805,46.205811 c -0.03688,0.0038 -0.07398,0.0055 -0.111134,0.0062 v 0.26099 c 0.04598,-7.96e-4 0.09192,-0.003 0.137661,-0.0078 0.80003,-0.08327 1.264718,-0.748909 1.284125,-0.777154 l -0.212955,-0.148243 c -0.004,0.0059 -0.415005,0.594896 -1.097697,0.665967 z"
     id="path133"
     style="stroke-width:1.00369" />
  <path
     fill="#fe9a0f"
     d="m 50.19086,45.530947 c 0.18821,0.404545 -1.245228,1.172096 -1.744377,1.172096 -0.622614,0 -1.922824,-0.927512 -1.744378,-1.172096 0.332978,-0.456408 1.060008,-1.192833 1.656878,-1.192833 0.430006,0 1.703965,0.917947 1.831877,1.192833 z"
     id="path135"
     style="stroke-width:1.00369" />
  <path
     transform="matrix(0.04313052,0,0,0.04347141,41.526097,41.174501)"
     d="m 200.91566,100.22368 c 4.364,9.307 -28.874,26.965 -40.448,26.965 -14.437,0 -44.586,-21.338 -40.448,-26.965 7.721,-10.5 24.579,-27.442 38.419,-27.442 9.971,0 39.511,21.118 42.477,27.442 z"
     fill="#fe9a0f"
     opacity="0.7"
     filter="url(#e)"
     id="path137" />
  <path
     fill="#e2810c"
     d="m 50.19082,45.530947 c -0.118554,-0.254762 -1.220999,-1.06139 -1.724149,-1.178179 v 2.349358 c 0.515874,-0.01913 1.909978,-0.771805 1.724149,-1.171179 z"
     id="path139"
     style="stroke-width:1.00369" />
  <path
     fill="#ae4e32"
     d="m 48.440539,46.473744 c -0.521322,0 -1.053019,-0.256798 -1.583213,-0.765324 l 0.178357,-0.18895 c 0.528604,0.506914 1.047589,0.737722 1.542162,0.686352 0.682742,-0.07106 1.093729,-0.660051 1.097787,-0.665967 l 0.212955,0.148229 c -0.0194,0.02829 -0.484135,0.693901 -1.284125,0.777144 a 1.5773332,1.5897985 0 0 1 -0.163923,0.0085 z"
     id="path141"
     style="stroke-width:1.00369" />
  <path
     fill="#9e402b"
     d="m 48.577805,46.205811 c -0.03688,0.0038 -0.07398,0.0055 -0.111134,0.0062 v 0.26099 c 0.04598,-7.96e-4 0.09192,-0.003 0.137661,-0.0078 0.80003,-0.08327 1.264718,-0.748909 1.284125,-0.777154 l -0.212955,-0.148243 c -0.004,0.0059 -0.415005,0.594896 -1.097697,0.665967 z"
     id="path143"
     style="stroke-width:1.00369" />
  <path
     transform="matrix(0.04313052,0,0,0.04347141,41.526097,41.174501)"
     d="m 251.90042,245.07337 c 5.898,11.393 14.67,22.153 25.984,24.644 8.344,1.837 14.655,8.937 15.586,17.43 0.129,1.179 0.304,2.361 0.527,3.546 1.441,7.679 4.702,14.555 9.252,20.267 6.831,8.576 1.907,21.367 -8.865,23.408 l -85.065,16.121 c -18.529,3.512 -32.467,-16.577 -22.691,-32.704 l 46.968,-73.639 c 4.396,-6.894 14.546,-6.335 18.304,0.927 z"
     fill="#fe9b0e"
     opacity="0.71"
     filter="url(#d)"
     id="path145" />
  <path
     fill="#fe9b0e"
     d="m 52.389647,51.827152 c 0.254365,0.495225 0.63266,0.962939 1.120593,1.071205 0.359852,0.07981 0.632021,0.388462 0.672172,0.757635 a 2.0240548,2.0400507 0 0 0 0.02273,0.154134 c 0.06216,0.333786 0.202785,0.632665 0.399012,0.880956 0.294585,0.372771 0.08225,0.92876 -0.382316,1.017477 L 50.553285,56.4093 c -0.799084,0.152653 -1.400192,-0.720563 -0.978587,-1.421557 l 2.025566,-3.200878 c 0.189589,-0.299665 0.627321,-0.27537 0.789387,0.04028 z"
     id="path147"
     style="stroke-width:1.00369" />
  <path
     d="m 54.046791,52.413501 a 1.1751914,1.1844791 0 0 1 -1.175189,1.184478 1.1751914,1.1844791 0 0 1 -1.175203,-1.184478 1.1751914,1.1844791 0 0 1 1.175203,-1.184489 1.1751914,1.1844791 0 0 1 1.175189,1.184489 m -9.116494,-1.297935 c 0,0 1.255805,1.543083 2.150679,1.890824 0.894874,0.347741 -0.425606,1.357347 -1.633153,0.59171 -1.207533,-0.765576 -0.517516,-2.482534 -0.517516,-2.482534 z"
     id="path149"
     style="stroke-width:1.00369" />
  <path
     d="m 44.882598,50.944988 c 0,0 1.303514,1.713661 2.198378,2.061402 0.894874,0.347741 -0.425606,1.357347 -1.633153,0.59171 -0.942741,-0.597694 -1.12515,-2.512582 -0.986041,-3.000299 0.03908,-0.136984 0.420806,0.347187 0.420806,0.347187 z"
     id="path151"
     style="stroke-width:1.00369" />
  <path
     fill="#fe9b0e"
     d="m 44.255377,51.843649 c -0.254354,0.495214 -0.632662,0.962918 -1.120593,1.071204 -0.359851,0.07982 -0.632023,0.38846 -0.672173,0.757626 a 2.0442904,2.0604463 0 0 1 -0.02269,0.154135 c -0.06216,0.333783 -0.202776,0.632672 -0.399002,0.880954 -0.294596,0.372771 -0.08226,0.928761 0.382316,1.017477 l 3.668545,0.700741 c 0.799095,0.152653 1.400187,-0.720564 0.978582,-1.421557 L 45.044808,51.80335 c -0.189628,-0.299663 -0.627361,-0.27537 -0.789425,0.04028 z"
     id="path153"
     style="stroke-width:1.00369" />
  <path
     transform="matrix(0.04313052,0,0,0.04347141,41.526097,41.174501)"
     d="m 63.28565,245.45268 c -5.898,11.393 -14.67,22.153 -25.984,24.644 -8.344,1.837 -14.655,8.937 -15.586,17.43 -0.129,1.179 -0.304,2.361 -0.526,3.546 -1.441,7.679 -4.702,14.555 -9.252,20.267 -6.831,8.576 -1.907,21.367 8.865,23.408 l 85.06501,16.121 c 18.529,3.512 32.467,-16.577 22.691,-32.704 l -46.968,-73.639 c -4.397,-6.894 -14.547,-6.335 -18.305,0.927 z"
     fill="#fe9b0e"
     opacity="0.7"
     filter="url(#i)"
     id="path155" />
  <path
     d="M 49.083383,48.74148 C 48.936818,48.6089 48.87524,48.408211 48.905244,48.212044 a 0.42237707,0.42571512 0 0 0 0.0044,-0.08521 c -0.01017,-0.21889 -0.189148,-0.395878 -0.406477,-0.402227 -0.237319,-0.0069 -0.431856,0.184911 -0.431856,0.422542 0,0.03564 0.0044,0.07018 0.0126,0.103266 0.04786,0.192025 6.4e-4,0.395082 -0.134047,0.539191 -0.135197,0.144652 -0.220723,0.338892 -0.220723,0.552863 0,0.492768 0.190256,0.730248 0.462498,0.805068 0.06265,-0.02834 0.153468,-0.04618 0.254555,-0.04618 0.09618,0 0.183001,0.01617 0.245146,0.04207 0.335918,-0.06786 0.495262,-0.232754 0.606438,-0.613476 0.08882,-0.304079 -0.04888,-0.638769 -0.214425,-0.788511 z"
     id="path157"
     style="stroke-width:1.00369" />
  <path
     d="m 84.22465,242.44768 c 0,-45.34 36.32501,-150.337 81.13401,-150.337 44.809,0 81.134,105.528 81.134,150.337 0,44.809 -36.325,81.134 -81.134,81.134 -44.809,0 -81.134,-36.325 -81.134,-81.134 z"
     opacity="0.7"
     fill="#ffffff"
     filter="url(#a)"
     transform="matrix(0.00702848,0,0,0.00708399,47.314825,47.724427)"
     id="path159" />
  <path
     d="m 47.906945,49.442362 c 0,-0.321278 0.255371,-1.065259 0.570383,-1.065259 0.315031,0 0.570392,0.74775 0.570392,1.065249 0,0.31751 -0.255371,0.574902 -0.570392,0.574902 -0.315012,0 -0.570383,-0.257392 -0.570383,-0.574902 z m 0.453968,-1.227586 a 0.09394933,0.12853983 0 0 1 -0.09397,0.12854 0.09394933,0.12853983 0 0 1 -0.09397,-0.12854 0.09394933,0.12853983 0 0 1 0.09397,-0.128529 0.09394933,0.12853983 0 0 1 0.09397,0.128529"
     fill="#ffffff"
     id="path161"
     style="stroke-width:1.00369" />
  <path
     d="m 148.79866,69.20268 a 13.363,18.14 0 0 1 -13.363,18.14 13.363,18.14 0 0 1 -13.363,-18.14 13.363,18.14 0 0 1 13.363,-18.14 13.363,18.14 0 0 1 13.363,18.14"
     opacity="0.7"
     fill="#ffffff"
     filter="url(#b)"
     transform="matrix(0.00702848,0,0,0.00708399,47.314825,47.724427)"
     id="path163" />
  <path
     d="m 48.313553,48.243969 a 0.04658974,0.08332519 0 0 1 -0.0466,0.08335 0.04658974,0.08332519 0 0 1 -0.0466,-0.08335 0.04658974,0.08332519 0 0 1 0.0466,-0.08334 0.04658974,0.08332519 0 0 1 0.0466,0.08335"
     fill="#000100"
     id="path165"
     style="stroke-width:1.00369" />
  <path
     d="m 48.69541,48.214776 a 0.09394933,0.12853983 0 0 1 -0.09397,0.12854 0.09394933,0.12853983 0 0 1 -0.09397,-0.12854 0.09394933,0.12853983 0 0 1 0.09397,-0.128529 0.09394933,0.12853983 0 0 1 0.09397,0.128529"
     fill="#ffffff"
     id="path167"
     style="stroke-width:1.00369" />
  <path
     d="m 196.37865,69.20268 a 13.363,18.14 0 0 1 -13.363,18.14 13.363,18.14 0 0 1 -13.363,-18.14 13.363,18.14 0 0 1 13.363,-18.14 13.363,18.14 0 0 1 13.363,18.14"
     opacity="0.7"
     fill="#ffffff"
     filter="url(#c)"
     transform="matrix(0.00702848,0,0,0.00708399,47.314825,47.724427)"
     id="path169" />
  <path
     d="m 48.648047,48.243969 a 0.04658974,0.08332519 0 0 1 -0.0466,0.08335 0.04658974,0.08332519 0 0 1 -0.0466,-0.08335 0.04658974,0.08332519 0 0 1 0.0466,-0.08334 0.04658974,0.08332519 0 0 1 0.0466,0.08335"
     fill="#000100"
     id="path171"
     style="stroke-width:1.00369" />
  <path
     d="m 48.441978,48.588274 c -0.085,0 -0.171663,-0.04183 -0.258089,-0.124751 l 0.02908,-0.03079 c 0.08619,0.08266 0.170758,0.120259 0.251394,0.111884 0.111296,-0.01157 0.178291,-0.107599 0.17896,-0.108556 l 0.03471,0.02418 c -0.0032,0.0046 -0.07894,0.113112 -0.209331,0.126686 a 0.25724342,0.2592764 0 0 1 -0.02673,0.0014 z"
     fill="#ae4e32"
     id="path173"
     style="stroke-width:1.00369" />
  <path
     d="m 48.464351,48.5446 a 0.21217332,0.21385012 0 0 1 -0.01812,9.98e-4 v 0.04256 a 0.24665574,0.24860504 0 0 0 0.02245,-0.0013 c 0.130421,-0.01356 0.206173,-0.122082 0.209331,-0.126687 l -0.03472,-0.02419 c -6.49e-4,9.67e-4 -0.06767,0.09696 -0.17894,0.108557 z"
     fill="#9e402b"
     id="path175"
     style="stroke-width:1.00369" />
  <path
     d="m 48.727313,48.434581 c 0.03068,0.06596 -0.202996,0.191076 -0.284366,0.191076 -0.101497,0 -0.313453,-0.151203 -0.284361,-0.191066 0.0543,-0.07441 0.172794,-0.194452 0.270092,-0.194452 0.07011,0 0.277781,0.14964 0.298635,0.194452 z"
     fill="#fe9a0f"
     id="path177"
     style="stroke-width:1.00369" />
  <path
     fill="#fe9a0f"
     d="m 200.91566,100.22368 c 4.364,9.307 -28.874,26.965 -40.448,26.965 -14.437,0 -44.586,-21.338 -40.448,-26.965 7.721,-10.5 24.579,-27.442 38.419,-27.442 9.971,0 39.511,21.118 42.477,27.442 z"
     transform="matrix(0.00702848,0,0,0.00708399,47.314825,47.724427)"
     opacity="0.7"
     filter="url(#e)"
     id="path179" />
  <path
     d="m 48.727303,48.434581 c -0.01933,-0.0415 -0.199046,-0.17302 -0.281069,-0.192055 v 0.382979 c 0.08411,-0.0031 0.311362,-0.125817 0.281069,-0.190914 z"
     fill="#e2810c"
     id="path181"
     style="stroke-width:1.00369" />
  <path
     d="m 48.441978,48.588274 c -0.085,0 -0.171663,-0.04183 -0.258089,-0.124751 l 0.02908,-0.03079 c 0.08619,0.08266 0.170758,0.120259 0.251394,0.111884 0.111296,-0.01157 0.178291,-0.107599 0.17896,-0.108556 l 0.03471,0.02418 c -0.0032,0.0046 -0.07894,0.113112 -0.209331,0.126686 a 0.25724342,0.2592764 0 0 1 -0.02673,0.0014 z"
     fill="#ae4e32"
     id="path183"
     style="stroke-width:1.00369" />
  <path
     d="m 48.464351,48.5446 a 0.21217332,0.21385012 0 0 1 -0.01812,9.98e-4 v 0.04256 a 0.24665574,0.24860504 0 0 0 0.02245,-0.0013 c 0.130421,-0.01356 0.206173,-0.122082 0.209331,-0.126687 l -0.03472,-0.02419 c -6.49e-4,9.67e-4 -0.06767,0.09696 -0.17894,0.108557 z"
     fill="#9e402b"
     id="path185"
     style="stroke-width:1.00369" />
  <path
     d="m 47.861982,49.317159 c 0,0 0.212496,0.279349 0.35836,0.33603 0.145881,0.0567 -0.0694,0.221267 -0.266222,0.09644 -0.153684,-0.09741 -0.183416,-0.409594 -0.160744,-0.489089 0.0064,-0.0223 0.06861,0.0566 0.06861,0.0566 z"
     id="path187"
     style="stroke-width:1.00369" />
  <path
     fill="#ae4e32"
     d="m 48.441978,48.588274 c -0.085,0 -0.171663,-0.04183 -0.258089,-0.124751 l 0.02908,-0.03079 c 0.08619,0.08266 0.170758,0.120259 0.251394,0.111884 0.111296,-0.01157 0.178291,-0.107599 0.17896,-0.108556 l 0.03471,0.02418 c -0.0032,0.0046 -0.07894,0.113112 -0.209331,0.126686 a 0.25724342,0.2592764 0 0 1 -0.02673,0.0014 z"
     id="path189"
     style="stroke-width:1.00369" />
  <path
     fill="#9e402b"
     d="m 48.464351,48.5446 a 0.21217332,0.21385012 0 0 1 -0.01812,9.98e-4 v 0.04256 a 0.24665574,0.24860504 0 0 0 0.02245,-0.0013 c 0.130421,-0.01356 0.206173,-0.122082 0.209331,-0.126687 l -0.03472,-0.02419 c -6.49e-4,9.67e-4 -0.06767,0.09696 -0.17894,0.108557 z"
     id="path191"
     style="stroke-width:1.00369" />
  <path
     fill="#e2810c"
     d="m 48.727303,48.434581 c -0.01933,-0.0415 -0.199046,-0.17302 -0.281069,-0.192055 v 0.382979 c 0.08411,-0.0031 0.311362,-0.125817 0.281069,-0.190914 z"
     id="path193"
     style="stroke-width:1.00369" />
  <path
     fill="#ae4e32"
     d="m 48.441978,48.588274 c -0.085,0 -0.171663,-0.04183 -0.258089,-0.124751 l 0.02908,-0.03079 c 0.08619,0.08266 0.170758,0.120259 0.251394,0.111884 0.111296,-0.01157 0.178291,-0.107599 0.17896,-0.108556 l 0.03471,0.02418 c -0.0032,0.0046 -0.07894,0.113112 -0.209331,0.126686 a 0.25724342,0.2592764 0 0 1 -0.02673,0.0014 z"
     id="path195"
     style="stroke-width:1.00369" />
  <path
     fill="#9e402b"
     d="m 48.464351,48.5446 a 0.21217332,0.21385012 0 0 1 -0.01812,9.98e-4 v 0.04256 a 0.24665574,0.24860504 0 0 0 0.02245,-0.0013 c 0.130421,-0.01356 0.206173,-0.122082 0.209331,-0.126687 l -0.03472,-0.02419 c -6.49e-4,9.67e-4 -0.06767,0.09696 -0.17894,0.108557 z"
     id="path197"
     style="stroke-width:1.00369" />
  <path
     d="m 47.861982,49.317159 c 0,0 0.212496,0.279349 0.35836,0.33603 0.145881,0.0567 -0.0694,0.221267 -0.266222,0.09644 -0.153684,-0.09741 -0.183416,-0.409594 -0.160744,-0.489089 0.0064,-0.0223 0.06861,0.0566 0.06861,0.0566 z"
     id="path199"
     style="stroke-width:1.00369" />
  <path
     fill="#ae4e32"
     d="m 48.441978,48.588274 c -0.085,0 -0.171663,-0.04183 -0.258089,-0.124751 l 0.02908,-0.03079 c 0.08619,0.08266 0.170758,0.120259 0.251394,0.111884 0.111296,-0.01157 0.178291,-0.107599 0.17896,-0.108556 l 0.03471,0.02418 c -0.0032,0.0046 -0.07894,0.113112 -0.209331,0.126686 a 0.25724342,0.2592764 0 0 1 -0.02673,0.0014 z"
     id="path201"
     style="stroke-width:1.00369" />
  <path
     fill="#9e402b"
     d="m 48.464351,48.5446 a 0.21217332,0.21385012 0 0 1 -0.01812,9.98e-4 v 0.04256 a 0.24665574,0.24860504 0 0 0 0.02245,-0.0013 c 0.130421,-0.01356 0.206173,-0.122082 0.209331,-0.126687 l -0.03472,-0.02419 c -6.49e-4,9.67e-4 -0.06767,0.09696 -0.17894,0.108557 z"
     id="path203"
     style="stroke-width:1.00369" />
  <path
     fill="#ae4e32"
     d="m 48.441978,48.588274 c -0.085,0 -0.171663,-0.04183 -0.258089,-0.124751 l 0.02908,-0.03079 c 0.08619,0.08266 0.170758,0.120259 0.251394,0.111884 0.111296,-0.01157 0.178291,-0.107599 0.17896,-0.108556 l 0.03471,0.02418 c -0.0032,0.0046 -0.07894,0.113112 -0.209331,0.126686 a 0.25724342,0.2592764 0 0 1 -0.02673,0.0014 z"
     id="path205"
     style="stroke-width:1.00369" />
  <path
     fill="#9e402b"
     d="m 48.464351,48.5446 a 0.21217332,0.21385012 0 0 1 -0.01812,9.98e-4 v 0.04256 a 0.24665574,0.24860504 0 0 0 0.02245,-0.0013 c 0.130421,-0.01356 0.206173,-0.122082 0.209331,-0.126687 l -0.03472,-0.02419 c -6.49e-4,9.67e-4 -0.06767,0.09696 -0.17894,0.108557 z"
     id="path207"
     style="stroke-width:1.00369" />
  <path
     d="m 47.861982,49.317159 c 0,0 0.212496,0.279349 0.35836,0.33603 0.145881,0.0567 -0.0694,0.221267 -0.266222,0.09644 -0.153684,-0.09741 -0.183416,-0.409594 -0.160744,-0.489089 0.0064,-0.0223 0.06861,0.0566 0.06861,0.0566 z"
     id="path209"
     style="stroke-width:1.00369" />
  <path
     d="m 48.441978,48.588274 c -0.085,0 -0.171663,-0.04183 -0.258089,-0.124751 l 0.02908,-0.03079 c 0.08619,0.08266 0.170758,0.120259 0.251394,0.111884 0.111296,-0.01157 0.178291,-0.107599 0.17896,-0.108556 l 0.03471,0.02418 c -0.0032,0.0046 -0.07894,0.113112 -0.209331,0.126686 a 0.25724342,0.2592764 0 0 1 -0.02673,0.0014 z"
     fill="#ae4e32"
     id="path211"
     style="stroke-width:1.00369" />
  <path
     d="m 48.464351,48.5446 a 0.21217332,0.21385012 0 0 1 -0.01812,9.98e-4 v 0.04256 a 0.24665574,0.24860504 0 0 0 0.02245,-0.0013 c 0.130421,-0.01356 0.206173,-0.122082 0.209331,-0.126687 l -0.03472,-0.02419 c -6.49e-4,9.67e-4 -0.06767,0.09696 -0.17894,0.108557 z"
     fill="#9e402b"
     id="path213"
     style="stroke-width:1.00369" />
  <path
     d="m 48.441978,48.588274 c -0.085,0 -0.171663,-0.04183 -0.258089,-0.124751 l 0.02908,-0.03079 c 0.08619,0.08266 0.170758,0.120259 0.251394,0.111884 0.111296,-0.01157 0.178291,-0.107599 0.17896,-0.108556 l 0.03471,0.02418 c -0.0032,0.0046 -0.07894,0.113112 -0.209331,0.126686 a 0.25724342,0.2592764 0 0 1 -0.02673,0.0014 z"
     fill="#ae4e32"
     id="path215"
     style="stroke-width:1.00369" />
  <path
     d="m 48.464351,48.5446 a 0.21217332,0.21385012 0 0 1 -0.01812,9.98e-4 v 0.04256 a 0.24665574,0.24860504 0 0 0 0.02245,-0.0013 c 0.130421,-0.01356 0.206173,-0.122082 0.209331,-0.126687 l -0.03472,-0.02419 c -6.49e-4,9.67e-4 -0.06767,0.09696 -0.17894,0.108557 z"
     fill="#9e402b"
     id="path217"
     style="stroke-width:1.00369" />
  <path
     fill="#fe9b0e"
     d="m 251.90042,245.07337 c 5.898,11.393 14.67,22.153 25.984,24.644 8.344,1.837 14.655,8.937 15.586,17.43 0.129,1.179 0.304,2.361 0.527,3.546 1.441,7.679 4.702,14.555 9.252,20.267 6.831,8.576 1.907,21.367 -8.865,23.408 l -85.065,16.121 c -18.529,3.512 -32.467,-16.577 -22.691,-32.704 l 46.968,-73.639 c 4.396,-6.894 14.546,-6.335 18.304,0.927 z"
     transform="matrix(0.00702848,0,0,0.00708399,47.314825,47.724427)"
     opacity="0.71"
     filter="url(#d)"
     id="path219" />
  <path
     d="m 49.085733,49.460964 c 0.04148,0.08072 0.103139,0.156967 0.18268,0.174622 0.05867,0.01299 0.103027,0.06335 0.109574,0.123501 a 0.31366102,0.31613984 0 0 0 0.0037,0.02515 0.32371876,0.32627712 0 0 0 0.06506,0.143604 c 0.04803,0.06072 0.0134,0.151402 -0.06234,0.165864 l -0.598028,0.114231 c -0.130271,0.02491 -0.22825,-0.117459 -0.159524,-0.23173 l 0.330197,-0.521797 c 0.0309,-0.04884 0.102259,-0.04491 0.128671,0.0065 z"
     fill="#fe9b0e"
     id="path221"
     style="stroke-width:1.00369" />
  <path
     d="m 49.355874,49.556542 a 0.19157786,0.19309187 0 0 1 -0.191566,0.193094 0.19157786,0.19309187 0 0 1 -0.191578,-0.193094 0.19157786,0.19309187 0 0 1 0.191578,-0.19309 0.19157786,0.19309187 0 0 1 0.191566,0.19309 M 47.869762,49.34496 c 0,0 0.204716,0.251548 0.35058,0.308229 0.145881,0.0567 -0.0694,0.221267 -0.266222,0.09644 -0.196857,-0.124798 -0.08438,-0.404682 -0.08438,-0.404682 z"
     id="path223"
     style="stroke-width:1.00369" />
  <path
     d="m 47.861982,49.317159 c 0,0 0.212496,0.279349 0.35836,0.33603 0.145881,0.0567 -0.0694,0.221267 -0.266222,0.09644 -0.153684,-0.09741 -0.183416,-0.409594 -0.160744,-0.489089 0.0064,-0.0223 0.06861,0.0566 0.06861,0.0566 z"
     id="path225"
     style="stroke-width:1.00369" />
  <path
     d="m 47.759733,49.463646 c -0.04147,0.08073 -0.103138,0.156976 -0.182666,0.17463 -0.05867,0.01298 -0.103028,0.06334 -0.109578,0.123501 a 0.31320108,0.31567632 0 0 1 -0.0037,0.02515 0.32370876,0.32626704 0 0 1 -0.06506,0.143604 c -0.04803,0.06073 -0.01341,0.151404 0.06234,0.165863 l 0.598029,0.114233 c 0.130261,0.02492 0.228249,-0.117466 0.159514,-0.231736 L 47.888424,49.4571 c -0.03092,-0.04884 -0.102278,-0.04492 -0.128691,0.0065 z"
     fill="#fe9b0e"
     id="path227"
     style="stroke-width:1.00369" />
  <path
     fill="#fe9b0e"
     d="m 63.28565,245.45268 c -5.898,11.393 -14.67,22.153 -25.984,24.644 -8.344,1.837 -14.655,8.937 -15.586,17.43 -0.129,1.179 -0.304,2.361 -0.526,3.546 -1.441,7.679 -4.702,14.555 -9.252,20.267 -6.831,8.576 -1.907,21.367 8.865,23.408 l 85.06501,16.121 c 18.529,3.512 32.467,-16.577 22.691,-32.704 l -46.968,-73.639 c -4.397,-6.894 -14.547,-6.335 -18.305,0.927 z"
     transform="matrix(0.00702848,0,0,0.00708399,47.314825,47.724427)"
     opacity="0.7"
     filter="url(#i)"
     id="path229" />
  <path
     d="m 48.551479,48.957719 c -0.02403,-0.0217 -0.03412,-0.05464 -0.0292,-0.08675 a 0.06924478,0.06979202 0 0 0 7.2e-4,-0.01398 c -0.0017,-0.03589 -0.03101,-0.0649 -0.06664,-0.06593 a 0.06876488,0.06930832 0 0 0 -0.0687,0.08618 c 0.0078,0.03144 1e-4,0.06477 -0.02198,0.08835 -0.02216,0.0237 -0.03618,0.05556 -0.03618,0.09063 0,0.08078 0.03119,0.119693 0.07582,0.131955 0.01027,-0.0046 0.02516,-0.0075 0.04173,-0.0075 0.01576,0 0.03,0.0026 0.04019,0.0068 0.05507,-0.01111 0.08119,-0.03815 0.0994,-0.100554 0.01457,-0.04982 -0.008,-0.104698 -0.03514,-0.129235 z"
     id="path231"
     style="stroke-width:1.00369" />
  <path
     transform="matrix(0.00114978,0,0,0.00115884,48.261615,48.791029)"
     filter="url(#a)"
     fill="#ffffff"
     opacity="0.7"
     d="m 84.22465,242.44768 c 0,-45.34 36.32501,-150.337 81.13401,-150.337 44.809,0 81.134,105.528 81.134,150.337 0,44.809 -36.325,81.134 -81.134,81.134 -44.809,0 -81.134,-36.325 -81.134,-81.134 z"
     id="path233" />
  <path
     fill="#ffffff"
     d="m 48.358663,49.072594 c 0,-0.05268 0.04186,-0.174589 0.0935,-0.174589 0.05165,0 0.09352,0.122552 0.09352,0.174589 a 0.09347942,0.09421823 0 0 1 -0.09351,0.09424 0.09347942,0.09421823 0 0 1 -0.09351,-0.09424 z m 0.07442,-0.201192 a 0.01539661,0.02106056 0 0 1 -0.0154,0.02104 0.01539661,0.02106056 0 0 1 -0.0154,-0.02104 0.01539661,0.02106056 0 0 1 0.0154,-0.02105 0.01539661,0.02106056 0 0 1 0.0154,0.02104"
     id="path235"
     style="stroke-width:1.00369" />
  <path
     transform="matrix(0.00114978,0,0,0.00115884,48.261615,48.791029)"
     filter="url(#b)"
     fill="#ffffff"
     opacity="0.7"
     d="m 148.79866,69.20268 a 13.363,18.14 0 0 1 -13.363,18.14 13.363,18.14 0 0 1 -13.363,-18.14 13.363,18.14 0 0 1 13.363,-18.14 13.363,18.14 0 0 1 13.363,18.14"
     id="path237" />
  <path
     fill="#000100"
     d="m 48.425298,48.876178 a 0.00763833,0.01365412 0 0 1 -0.0076,0.01366 0.00763833,0.01365412 0 0 1 -0.0076,-0.01366 0.00763833,0.01365412 0 0 1 0.0076,-0.01361 0.00763833,0.01365412 0 0 1 0.0076,0.01361"
     id="path239"
     style="stroke-width:1.00369" />
  <path
     fill="#ffffff"
     d="m 48.487884,48.871402 a 0.01539661,0.02106056 0 0 1 -0.0154,0.02104 0.01539661,0.02106056 0 0 1 -0.0154,-0.02104 0.01539661,0.02106056 0 0 1 0.0154,-0.02105 0.01539661,0.02106056 0 0 1 0.0154,0.02104"
     id="path241"
     style="stroke-width:1.00369" />
  <path
     transform="matrix(0.00114978,0,0,0.00115884,48.261615,48.791029)"
     filter="url(#c)"
     fill="#ffffff"
     opacity="0.7"
     d="m 196.37865,69.20268 a 13.363,18.14 0 0 1 -13.363,18.14 13.363,18.14 0 0 1 -13.363,-18.14 13.363,18.14 0 0 1 13.363,-18.14 13.363,18.14 0 0 1 13.363,18.14"
     id="path243" />
  <path
     fill="#000100"
     d="m 48.480126,48.876178 a 0.00763833,0.01365412 0 0 1 -0.0076,0.01366 0.00763833,0.01365412 0 0 1 -0.0076,-0.01366 0.00763833,0.01365412 0 0 1 0.0076,-0.01361 0.00763833,0.01365412 0 0 1 0.0076,0.01361"
     id="path245"
     style="stroke-width:1.00369" />
  <path
     fill="#ae4e32"
     d="m 48.446354,48.932608 c -0.01393,0 -0.02814,-0.0068 -0.04231,-0.02043 l 0.0048,-0.005 c 0.01413,0.01351 0.028,0.0197 0.0412,0.01835 0.01826,-0.0019 0.02924,-0.01765 0.02935,-0.01781 l 0.0057,0.0039 c -5.3e-4,7.67e-4 -0.01294,0.01855 -0.03432,0.02074 a 0.04237067,0.04270553 0 0 1 -0.0044,2.3e-4 z"
     id="path247"
     style="stroke-width:1.00369" />
  <path
     fill="#9e402b"
     d="m 48.450021,48.925454 a 0.03507228,0.03534945 0 0 1 -0.003,1.61e-4 v 0.0069 a 0.04096098,0.04128472 0 0 0 0.0037,-1.99e-4 c 0.02138,-0.0022 0.0338,-0.02002 0.03432,-0.02074 l -0.0057,-0.0039 c -1.1e-4,1.5e-4 -0.0111,0.01591 -0.02933,0.0178 z"
     id="path249"
     style="stroke-width:1.00369" />
  <path
     fill="#fe9a0f"
     d="m 48.493114,48.907426 c 0.005,0.0108 -0.03328,0.0313 -0.04662,0.0313 -0.01664,0 -0.05139,-0.02482 -0.04662,-0.0313 0.0089,-0.01217 0.02833,-0.03185 0.04428,-0.03185 0.0115,0 0.04554,0.02454 0.04895,0.03185 z"
     id="path251"
     style="stroke-width:1.00369" />
  <path
     fill="#e2810c"
     d="m 48.493114,48.907426 c -0.0032,-0.0068 -0.03263,-0.02836 -0.04608,-0.03146 v 0.0628 c 0.0138,-5.16e-4 0.05104,-0.0206 0.04608,-0.03127 z"
     id="path253"
     style="stroke-width:1.00369" />
  <path
     fill="#ae4e32"
     d="m 48.446354,48.932608 c -0.01393,0 -0.02814,-0.0068 -0.04231,-0.02043 l 0.0048,-0.005 c 0.01413,0.01351 0.028,0.0197 0.0412,0.01835 0.01826,-0.0019 0.02924,-0.01765 0.02935,-0.01781 l 0.0057,0.0039 c -5.3e-4,7.67e-4 -0.01294,0.01855 -0.03432,0.02074 a 0.04237067,0.04270553 0 0 1 -0.0044,2.3e-4 z"
     id="path255"
     style="stroke-width:1.00369" />
  <path
     fill="#9e402b"
     d="m 48.450021,48.925454 a 0.03507228,0.03534945 0 0 1 -0.003,1.61e-4 v 0.0069 a 0.04096098,0.04128472 0 0 0 0.0037,-1.99e-4 c 0.02138,-0.0022 0.0338,-0.02002 0.03432,-0.02074 l -0.0057,-0.0039 c -1.1e-4,1.5e-4 -0.0111,0.01591 -0.02933,0.0178 z"
     id="path257"
     style="stroke-width:1.00369" />
  <path
     d="m 48.351293,49.052077 c 0,0 0.03484,0.0458 0.05875,0.0551 0.0239,0.0092 -0.01138,0.03628 -0.04364,0.01584 -0.0252,-0.016 -0.03007,-0.06713 -0.02635,-0.08013 0.001,-0.0036 0.01125,0.0092 0.01125,0.0092 z"
     id="path259"
     style="stroke-width:1.00369" />
  <path
     d="m 48.446354,48.932608 c -0.01393,0 -0.02814,-0.0068 -0.04231,-0.02043 l 0.0048,-0.005 c 0.01413,0.01351 0.028,0.0197 0.0412,0.01835 0.01826,-0.0019 0.02924,-0.01765 0.02935,-0.01781 l 0.0057,0.0039 c -5.3e-4,7.67e-4 -0.01294,0.01855 -0.03432,0.02074 a 0.04237067,0.04270553 0 0 1 -0.0044,2.3e-4 z"
     fill="#ae4e32"
     id="path261"
     style="stroke-width:1.00369" />
  <path
     d="m 48.450021,48.925454 a 0.03507228,0.03534945 0 0 1 -0.003,1.61e-4 v 0.0069 a 0.04096098,0.04128472 0 0 0 0.0037,-1.99e-4 c 0.02138,-0.0022 0.0338,-0.02002 0.03432,-0.02074 l -0.0057,-0.0039 c -1.1e-4,1.5e-4 -0.0111,0.01591 -0.02933,0.0178 z"
     fill="#9e402b"
     id="path263"
     style="stroke-width:1.00369" />
  <path
     d="m 48.446354,48.932608 c -0.01393,0 -0.02814,-0.0068 -0.04231,-0.02043 l 0.0048,-0.005 c 0.01413,0.01351 0.028,0.0197 0.0412,0.01835 0.01826,-0.0019 0.02924,-0.01765 0.02935,-0.01781 l 0.0057,0.0039 c -5.3e-4,7.67e-4 -0.01294,0.01855 -0.03432,0.02074 a 0.04237067,0.04270553 0 0 1 -0.0044,2.3e-4 z"
     fill="#ae4e32"
     id="path265"
     style="stroke-width:1.00369" />
  <path
     d="m 48.450021,48.925454 a 0.03507228,0.03534945 0 0 1 -0.003,1.61e-4 v 0.0069 a 0.04096098,0.04128472 0 0 0 0.0037,-1.99e-4 c 0.02138,-0.0022 0.0338,-0.02002 0.03432,-0.02074 l -0.0057,-0.0039 c -1.1e-4,1.5e-4 -0.0111,0.01591 -0.02933,0.0178 z"
     fill="#9e402b"
     id="path267"
     style="stroke-width:1.00369" />
  <path
     d="m 48.351293,49.052077 c 0,0 0.03484,0.0458 0.05875,0.0551 0.0239,0.0092 -0.01138,0.03628 -0.04364,0.01584 -0.0252,-0.016 -0.03007,-0.06713 -0.02635,-0.08013 0.001,-0.0036 0.01125,0.0092 0.01125,0.0092 z"
     id="path269"
     style="stroke-width:1.00369" />
  <path
     d="m 48.446354,48.932608 c -0.01393,0 -0.02814,-0.0068 -0.04231,-0.02043 l 0.0048,-0.005 c 0.01413,0.01351 0.028,0.0197 0.0412,0.01835 0.01826,-0.0019 0.02924,-0.01765 0.02935,-0.01781 l 0.0057,0.0039 c -5.3e-4,7.67e-4 -0.01294,0.01855 -0.03432,0.02074 a 0.04237067,0.04270553 0 0 1 -0.0044,2.3e-4 z"
     fill="#ae4e32"
     id="path271"
     style="stroke-width:1.00369" />
  <path
     d="m 48.450021,48.925454 a 0.03507228,0.03534945 0 0 1 -0.003,1.61e-4 v 0.0069 a 0.04096098,0.04128472 0 0 0 0.0037,-1.99e-4 c 0.02138,-0.0022 0.0338,-0.02002 0.03432,-0.02074 l -0.0057,-0.0039 c -1.1e-4,1.5e-4 -0.0111,0.01591 -0.02933,0.0178 z"
     fill="#9e402b"
     id="path273"
     style="stroke-width:1.00369" />
  <path
     d="m 48.446354,48.932608 c -0.01393,0 -0.02814,-0.0068 -0.04231,-0.02043 l 0.0048,-0.005 c 0.01413,0.01351 0.028,0.0197 0.0412,0.01835 0.01826,-0.0019 0.02924,-0.01765 0.02935,-0.01781 l 0.0057,0.0039 c -5.3e-4,7.67e-4 -0.01294,0.01855 -0.03432,0.02074 a 0.04237067,0.04270553 0 0 1 -0.0044,2.3e-4 z"
     fill="#ae4e32"
     id="path275"
     style="stroke-width:1.00369" />
  <path
     d="m 48.450021,48.925454 a 0.03507228,0.03534945 0 0 1 -0.003,1.61e-4 v 0.0069 a 0.04096098,0.04128472 0 0 0 0.0037,-1.99e-4 c 0.02138,-0.0022 0.0338,-0.02002 0.03432,-0.02074 l -0.0057,-0.0039 c -1.1e-4,1.5e-4 -0.0111,0.01591 -0.02933,0.0178 z"
     fill="#9e402b"
     id="path277"
     style="stroke-width:1.00369" />
  <path
     d="m 48.351293,49.052077 c 0,0 0.03484,0.0458 0.05875,0.0551 0.0239,0.0092 -0.01138,0.03628 -0.04364,0.01584 -0.0252,-0.016 -0.03007,-0.06713 -0.02635,-0.08013 0.001,-0.0036 0.01125,0.0092 0.01125,0.0092 z"
     id="path279"
     style="stroke-width:1.00369" />
  <path
     d="m 87.79021,-31.67504 c 0.0068,0.01313 0.01691,0.02553 0.02995,0.0284 a 0.02323,0.02323 0 0 1 0.01796,0.02009 0.05313,0.05313 0 0 0 0.01127,0.02746 c 0.0079,0.0099 0.0022,0.02463 -0.01022,0.02698 l -0.09804,0.01858 c -0.02135,0.004 -0.03742,-0.01911 -0.02615,-0.0377 l 0.05413,-0.08486 a 0.01218,0.01218 0 0 1 0.0211,0.0011 z"
     fill="#fe9b0e"
     opacity="0.7"
     filter="url(#k)"
     transform="matrix(0.99978006,0,0,1.0076815,-39.219041,80.993992)"
     id="path281" />
  <path
     fill="#fe9b0e"
     d="m 48.551859,49.075648 c 0.0068,0.0132 0.01691,0.02575 0.02995,0.02862 a 0.0232249,0.02340846 0 0 1 0.01796,0.02023 0.05311832,0.05353813 0 0 0 0.01127,0.02768 c 0.0079,0.0099 0.0022,0.02485 -0.01022,0.0272 l -0.09804,0.01872 c -0.02135,0.004 -0.03742,-0.01926 -0.02615,-0.03799 l 0.05413,-0.08551 a 0.01217732,0.01227353 0 0 1 0.0211,0.0011 z"
     id="path283"
     style="stroke-width:1.00369" />
  <path
     d="m 48.351293,49.052077 c 0,0 0.03484,0.0458 0.05875,0.0551 0.0239,0.0092 -0.01138,0.03628 -0.04364,0.01584 -0.0252,-0.016 -0.03007,-0.06713 -0.02635,-0.08013 0.001,-0.0036 0.01125,0.0092 0.01125,0.0092 z"
     id="path285"
     style="stroke-width:1.00369" />
  <path
     d="m 48.596142,49.091306 a 0.03139309,0.03164119 0 0 1 -0.03141,0.03162 0.03139309,0.03164119 0 0 1 -0.03141,-0.03162 0.03139309,0.03164119 0 0 1 0.0314,-0.03162 0.03139309,0.03164119 0 0 1 0.03142,0.03162 m -0.243579,-0.03467 c 0,0 0.03356,0.04119 0.05747,0.05048 0.02391,0.0092 -0.01138,0.03629 -0.04364,0.01585 -0.03227,-0.02044 -0.01383,-0.06634 -0.01383,-0.06634 z"
     id="path287"
     style="stroke-width:1.00369" />
  <path
     fill="#fe9b0e"
     d="m 48.33454,49.076081 c -0.0068,0.0132 -0.01691,0.02575 -0.02995,0.02862 a 0.0232249,0.02340846 0 0 0 -0.01796,0.02024 0.0536382,0.0540621 0 0 1 -0.01127,0.02768 c -0.0079,0.0099 -0.0022,0.02484 0.01022,0.02719 l 0.09804,0.01873 c 0.02135,0.004 0.03742,-0.01924 0.02615,-0.03798 l -0.05413,-0.08552 a 0.01217732,0.01227353 0 0 0 -0.0211,0.0011 z"
     id="path289"
     style="stroke-width:1.00369" />
  <path
     transform="matrix(0.00114978,0,0,0.00115884,48.261615,48.791029)"
     d="m 63.28565,245.45268 c -5.898,11.393 -14.67,22.153 -25.984,24.644 -8.344,1.837 -14.655,8.937 -15.586,17.43 -0.129,1.179 -0.304,2.361 -0.526,3.546 -1.441,7.679 -4.702,14.555 -9.252,20.267 -6.831,8.576 -1.907,21.367 8.865,23.408 l 85.06501,16.121 c 18.529,3.512 32.467,-16.577 22.691,-32.704 l -46.968,-73.639 c -4.397,-6.894 -14.547,-6.335 -18.305,0.927 z"
     fill="#fe9b0e"
     opacity="0.7"
     filter="url(#i)"
     id="path291" />
</svg>
