<svg height="512pt" viewBox="0 -14 512 512" width="512pt" xmlns="http://www.w3.org/2000/svg"><path d="m293.101562 20.863281v380.148438c0 11.519531-8.363281 20.863281-18.691406 20.863281h-255.71875c-10.332031 0-18.691406-9.34375-18.691406-20.863281v-380.148438c0-11.515625 8.359375-20.863281 18.691406-20.863281h255.71875c10.328125 0 18.691406 9.347656 18.691406 20.863281zm0 0" fill="#4895ff"/><path d="m293.101562 20.863281v380.148438c0 11.519531-8.363281 20.863281-18.691406 20.863281h-127.859375v-421.875h127.859375c10.328125 0 18.691406 9.347656 18.691406 20.863281zm0 0" fill="#2682ff"/><path d="m0 140.621094h293.101562v140.632812h-293.101562zm0 0" fill="#aed0ff"/><path d="m146.550781 140.621094h146.550781v140.632812h-146.550781zm0 0" fill="#8cbcff"/><path d="m170.558594 73.339844c0 9.8125-7.949219 17.777344-17.773438 17.777344h-89.746094c-9.808593 0-17.773437-7.964844-17.773437-17.777344 0-9.824219 7.964844-17.773438 17.773437-17.773438h89.746094c9.824219 0 17.773438 7.949219 17.773438 17.773438zm0 0" fill="#ffeb99"/><path d="m152.785156 91.117188h-6.234375v-35.550782h6.234375c9.820313 0 17.773438 7.949219 17.773438 17.773438 0 9.8125-7.949219 17.777344-17.773438 17.777344zm0 0" fill="#ffda44"/><path d="m209.988281 91.113281h15.777344c9.820313 0 17.777344-7.960937 17.777344-17.777343 0-9.816407-7.960938-17.773438-17.777344-17.773438h-15.777344c-9.816406 0-17.777343 7.957031-17.777343 17.773438 0 9.816406 7.960937 17.777343 17.777343 17.777343zm0 0" fill="#ffda44"/><path d="m170.558594 212.929688c0 9.824218-7.949219 17.773437-17.773438 17.773437h-89.746094c-9.808593 0-17.773437-7.949219-17.773437-17.773437 0-9.8125 7.964844-17.777344 17.773437-17.777344h89.746094c9.824219 0 17.773438 7.964844 17.773438 17.777344zm0 0" fill="#ffeb99"/><path d="m170.558594 212.929688c0 9.824218-7.949219 17.773437-17.773438 17.773437h-6.234375v-35.550781h6.234375c9.824219 0 17.773438 7.964844 17.773438 17.777344zm0 0" fill="#ffda44"/><path d="m170.558594 354.390625c0 9.8125-7.949219 17.777344-17.773438 17.777344h-89.746094c-9.808593 0-17.773437-7.964844-17.773437-17.777344 0-9.824219 7.964844-17.773437 17.773437-17.773437h89.746094c9.824219 0 17.773438 7.953124 17.773438 17.773437zm0 0" fill="#ffeb99"/><path d="m170.558594 354.390625c0 9.8125-7.949219 17.777344-17.773438 17.777344h-6.234375v-35.550781h6.234375c9.824219 0 17.773438 7.953124 17.773438 17.773437zm0 0" fill="#ffda44"/><path d="m500.351562 294.03125h-24.171874c-5.089844 0-9.554688-3.332031-11.101563-8.175781-2.015625-6.269531-4.53125-12.328125-7.503906-18.105469-2.328125-4.53125-1.527344-10.039062 2.074219-13.640625l17.089843-17.089844c4.542969-4.554687 4.542969-11.925781 0-16.472656l-23.648437-23.644531c-4.542969-4.554688-11.929688-4.554688-16.472656 0l-17.089844 17.085937c-3.601563 3.601563-9.109375 4.40625-13.640625 2.074219-5.78125-2.96875-11.835938-5.484375-18.105469-7.5-4.855469-1.550781-8.175781-6.011719-8.175781-11.113281v-24.164063c0-6.429687-5.207031-11.648437-11.648438-11.648437h-33.433593c-6.441407 0-11.648438 5.21875-11.648438 11.648437v24.164063c0 5.101562-3.320312 9.5625-8.179688 11.113281-6.265624 2.015625-12.324218 4.53125-18.101562 7.5-4.53125 2.332031-10.042969 1.527344-13.640625-2.074219l-17.089844-17.085937c-4.542969-4.554688-11.929687-4.554688-16.472656 0l-23.648437 23.644531c-4.542969 4.542969-4.542969 11.917969 0 16.472656l17.089843 17.089844c3.597657 3.601563 4.402344 9.109375 2.074219 13.640625-2.972656 5.78125-5.488281 11.835938-7.503906 18.105469-1.550782 4.84375-6.011719 8.175781-11.101563 8.175781h-24.171875c-6.429687 0-11.648437 5.207031-11.648437 11.648438v33.433593c0 6.429688 5.21875 11.648438 11.648437 11.648438h24.171875c5.089844 0 9.550781 3.320312 11.101563 8.167969 2.015625 6.277343 4.53125 12.324218 7.503906 18.101562 2.328125 4.53125 1.523438 10.042969-2.074219 13.652344l-17.089843 17.089844c-4.542969 4.542968-4.542969 11.917968 0 16.472656l23.648437 23.648437c4.542969 4.539063 11.929687 4.539063 16.472656 0l17.089844-17.089843c3.597656-3.613282 9.109375-4.40625 13.640625-2.074219 5.777344 2.96875 11.835938 5.484375 18.101562 7.5 4.859376 1.550781 8.179688 6.011719 8.179688 11.105469v24.171874c0 6.429688 5.207031 11.648438 11.648438 11.648438h33.433593c6.441407 0 11.648438-5.222656 11.648438-11.648438v-24.171874c0-5.09375 3.320312-9.554688 8.175781-11.105469 6.269531-2.015625 12.328125-4.53125 18.105469-7.5 4.53125-2.332031 10.039062-1.539063 13.640625 2.074219l17.089844 17.089843c4.542968 4.539063 11.929687 4.539063 16.472656 0l23.648437-23.648437c4.542969-4.558594 4.542969-11.929688 0-16.472656l-17.089843-17.089844c-3.601563-3.609375-4.402344-9.121094-2.074219-13.652344 2.96875-5.777344 5.488281-11.824219 7.503906-18.101562 1.546875-4.847657 6.011719-8.167969 11.101563-8.167969h24.171874c6.429688 0 11.648438-5.21875 11.648438-11.648438v-33.433593c0-6.441407-5.21875-11.648438-11.648438-11.648438zm-149.113281 84.121094c-30.789062 0-55.753906-24.964844-55.753906-55.753906 0-30.800782 24.964844-55.765626 55.753906-55.765626 30.789063 0 55.753907 24.964844 55.753907 55.765626 0 30.789062-24.964844 55.753906-55.753907 55.753906zm0 0" fill="#ff5e93"/><path d="m512 305.679688v33.433593c0 6.429688-5.21875 11.648438-11.648438 11.648438h-24.171874c-5.089844 0-9.554688 3.320312-11.101563 8.167969-2.015625 6.277343-4.53125 12.324218-7.503906 18.101562-2.328125 4.53125-1.527344 10.042969 2.074219 13.652344l17.089843 17.089844c4.542969 4.542968 4.542969 11.917968 0 16.472656l-23.648437 23.648437c-4.542969 4.539063-11.929688 4.539063-16.472656 0l-17.089844-17.089843c-3.601563-3.613282-9.109375-4.40625-13.640625-2.074219-5.78125 2.96875-11.835938 5.484375-18.105469 7.5-4.855469 1.550781-8.175781 6.011719-8.175781 11.105469v24.171874c0 6.429688-5.207031 11.648438-11.648438 11.648438h-16.71875v-105.007812c30.789063 0 55.753907-24.964844 55.753907-55.753907 0-30.800781-24.964844-55.765625-55.753907-55.765625v-104.992187h16.71875c6.441407 0 11.648438 5.21875 11.648438 11.648437v24.160156c0 5.101563 3.320312 9.566407 8.175781 11.113282 6.269531 2.015625 12.328125 4.535156 18.105469 7.503906 4.53125 2.328125 10.039062 1.527344 13.640625-2.074219l17.089844-17.089843c4.542968-4.554688 11.929687-4.554688 16.472656 0l23.648437 23.648437c4.542969 4.542969 4.542969 11.917969 0 16.472656l-17.089843 17.089844c-3.601563 3.601563-4.402344 9.109375-2.074219 13.640625 2.96875 5.777344 5.488281 11.835938 7.503906 18.101562 1.546875 4.847657 6.011719 8.179688 11.101563 8.179688h24.171874c6.429688 0 11.648438 5.207031 11.648438 11.648438zm0 0" fill="#ff3c7d"/></svg>