<?xml version="1.0" encoding="UTF-8" standalone="no"?>
<svg
   xmlns:dc="http://purl.org/dc/elements/1.1/"
   xmlns:cc="http://creativecommons.org/ns#"
   xmlns:rdf="http://www.w3.org/1999/02/22-rdf-syntax-ns#"
   xmlns:svg="http://www.w3.org/2000/svg"
   xmlns="http://www.w3.org/2000/svg"
   xmlns:sodipodi="http://sodipodi.sourceforge.net/DTD/sodipodi-0.dtd"
   xmlns:inkscape="http://www.inkscape.org/namespaces/inkscape"
   viewBox="0 0 36 36"
   width="36"
   height="36"
   version="1.1"
   id="svg12"
   sodipodi:docname="ruby.svg"
   inkscape:version="1.0.1 (3bc2e813f5, 2020-09-07)">
  <metadata
     id="metadata18">
    <rdf:RDF>
      <cc:Work
         rdf:about="">
        <dc:format>image/svg+xml</dc:format>
        <dc:type
           rdf:resource="http://purl.org/dc/dcmitype/StillImage" />
        <dc:title></dc:title>
      </cc:Work>
    </rdf:RDF>
  </metadata>
  <defs
     id="defs16" />
  <sodipodi:namedview
     pagecolor="#ffffff"
     bordercolor="#666666"
     borderopacity="1"
     objecttolerance="10"
     gridtolerance="10"
     guidetolerance="10"
     inkscape:pageopacity="0"
     inkscape:pageshadow="2"
     inkscape:window-width="1920"
     inkscape:window-height="1009"
     id="namedview14"
     showgrid="false"
     inkscape:zoom="12.271249"
     inkscape:cx="17.551282"
     inkscape:cy="18.68693"
     inkscape:window-x="0"
     inkscape:window-y="0"
     inkscape:window-maximized="1"
     inkscape:current-layer="svg12" />
  <path
     fill="#9b1010"
     d="M 36,8 34,34 8,36 Z"
     id="path2" />
  <path
     fill="#b71c1c"
     d="M 22,22 34,34 36,8 Z"
     id="path4" />
  <path
     fill="#c62828"
     d="M 9.7521626,9.7524505 A 11.664,22.621 44.999 1 0 26.247837,26.24755 11.664,22.621 44.999 1 0 9.7521626,9.7524505 Z"
     id="path6" />
  <path
     fill="#e53935"
     d="m 4,11 7,-7 8,-4 6,4 -3,9 -9,8 -9,3 -4,-6 z"
     id="path8" />
  <path
     fill="#ff5252"
     d="M 25,4 19,0 H 30 Z M 36,9 25,4 22,13 Z M 13,21 26.235,26.235 22,13 Z M 4,24 8,36 13,21 Z M 0,18 v 11 l 4,-5 z"
     id="path10" />
</svg>
