<svg id="Capa_1" enable-background="new 0 0 512 512" height="512" viewBox="0 0 512 512" width="512" xmlns="http://www.w3.org/2000/svg"><g><g><path d="m411.059 228.89h-25.503c-4.183 0-7.574-3.391-7.574-7.574s3.391-7.574 7.574-7.574h20.13l5.365-15.33c1.063-3.037 3.93-5.072 7.149-5.072h23.463c4.183 0 7.574 3.391 7.574 7.574s-3.391 7.574-7.574 7.574h-18.089l-5.365 15.33c-1.064 3.037-3.931 5.072-7.15 5.072z" fill="#e49542"/></g><g><path d="m441.663 318.661h-23.463c-3.218 0-6.086-2.035-7.149-5.072l-5.365-15.33h-20.13c-4.183 0-7.574-3.391-7.574-7.574s3.391-7.574 7.574-7.574h25.503c3.218 0 6.086 2.035 7.149 5.072l5.365 15.33h18.089c4.183 0 7.574 3.391 7.574 7.574.001 4.183-3.39 7.574-7.573 7.574z" fill="#e49542"/></g><g><path d="m474.307 263.574h-88.751c-4.183 0-7.574-3.391-7.574-7.574s3.391-7.574 7.574-7.574h88.751c4.183 0 7.574 3.391 7.574 7.574s-3.391 7.574-7.574 7.574z" fill="#e49542"/></g><g><path d="m221.316 134.018c-4.183 0-7.574-3.391-7.574-7.574v-20.129l-15.33-5.366c-3.038-1.063-5.072-3.93-5.072-7.149v-23.463c0-4.183 3.391-7.574 7.574-7.574s7.574 3.391 7.574 7.574v18.089l15.33 5.366c3.038 1.063 5.072 3.93 5.072 7.149v25.503c0 4.183-3.391 7.574-7.574 7.574z" fill="#e49542"/></g><g><path d="m290.684 134.018c-4.183 0-7.574-3.391-7.574-7.574v-25.503c0-3.219 2.034-6.086 5.072-7.149l15.33-5.366v-18.089c0-4.183 3.391-7.574 7.574-7.574s7.574 3.391 7.574 7.574v23.463c0 3.219-2.034 6.086-5.072 7.149l-15.33 5.366v20.129c0 4.183-3.391 7.574-7.574 7.574z" fill="#e49542"/></g><g><path d="m256 134.018c-4.183 0-7.574-3.391-7.574-7.574v-88.75c0-4.183 3.391-7.574 7.574-7.574s7.574 3.391 7.574 7.574v88.75c0 4.183-3.391 7.574-7.574 7.574z" fill="#e49542"/></g><g><path d="m311.087 449.237c-4.183 0-7.574-3.391-7.574-7.574v-18.089l-15.33-5.366c-3.038-1.063-5.072-3.93-5.072-7.149v-25.503c0-4.183 3.391-7.574 7.574-7.574s7.574 3.391 7.574 7.574v20.129l15.33 5.366c3.038 1.063 5.072 3.93 5.072 7.149v23.463c0 4.183-3.391 7.574-7.574 7.574z" fill="#e49542"/></g><g><path d="m200.913 449.237c-4.183 0-7.574-3.391-7.574-7.574v-23.463c0-3.219 2.034-6.086 5.072-7.149l15.33-5.366v-20.129c0-4.183 3.391-7.574 7.574-7.574s7.574 3.391 7.574 7.574v25.503c0 3.219-2.034 6.086-5.072 7.149l-15.33 5.366v18.089c0 4.183-3.391 7.574-7.574 7.574z" fill="#e49542"/></g><g><path d="m256 481.881c-4.183 0-7.574-3.391-7.574-7.574v-88.75c0-4.183 3.391-7.574 7.574-7.574s7.574 3.391 7.574 7.574v88.75c0 4.183-3.391 7.574-7.574 7.574z" fill="#e49542"/></g><g><path d="m126.444 228.89h-25.503c-3.218 0-6.086-2.035-7.149-5.072l-5.365-15.33h-18.09c-4.183 0-7.574-3.391-7.574-7.574s3.391-7.574 7.574-7.574h23.463c3.218 0 6.086 2.035 7.149 5.072l5.365 15.33h20.13c4.183 0 7.574 3.391 7.574 7.574s-3.391 7.574-7.574 7.574z" fill="#e49542"/></g><g><path d="m93.8 318.661h-23.463c-4.183 0-7.574-3.391-7.574-7.574s3.391-7.574 7.574-7.574h18.089l5.365-15.33c1.063-3.037 3.93-5.072 7.149-5.072h25.503c4.183 0 7.574 3.391 7.574 7.574s-3.391 7.574-7.574 7.574h-20.13l-5.365 15.33c-1.062 3.037-3.929 5.072-7.148 5.072z" fill="#e49542"/></g><g><path d="m126.444 263.574h-88.751c-4.183 0-7.574-3.391-7.574-7.574s3.391-7.574 7.574-7.574h88.751c4.183 0 7.574 3.391 7.574 7.574s-3.391 7.574-7.574 7.574z" fill="#e49542"/></g><g><g><path d="m457.985 222.285c11.784 0 21.371-9.588 21.371-21.372s-9.587-21.371-21.371-21.371-21.371 9.587-21.371 21.371c-.001 11.784 9.587 21.372 21.371 21.372z" fill="#ffe07d"/></g><g><path d="m457.985 289.715c-11.784 0-21.371 9.588-21.371 21.372s9.587 21.371 21.371 21.371 21.371-9.587 21.371-21.371-9.587-21.372-21.371-21.372z" fill="#ffe07d"/></g><g><circle cx="490.629" cy="256" fill="#ffe07d" r="21.372"/></g><g><path d="m200.913 32.644c-11.784 0-21.371 9.588-21.371 21.372s9.587 21.371 21.371 21.371 21.371-9.587 21.371-21.371-9.587-21.372-21.371-21.372z" fill="#ffe07d"/></g><g><path d="m311.087 32.644c-11.784 0-21.371 9.588-21.371 21.372s9.587 21.371 21.371 21.371 21.371-9.587 21.371-21.371-9.587-21.372-21.371-21.372z" fill="#ffe07d"/></g><g><path d="m256 0c-11.784 0-21.371 9.588-21.371 21.372s9.587 21.371 21.371 21.371 21.371-9.587 21.371-21.371-9.587-21.372-21.371-21.372z" fill="#ffe07d"/></g><g><path d="m311.087 436.613c-11.784 0-21.371 9.587-21.371 21.371s9.587 21.372 21.371 21.372 21.371-9.588 21.371-21.372-9.587-21.371-21.371-21.371z" fill="#ffe07d"/></g><g><path d="m200.913 436.613c-11.784 0-21.371 9.587-21.371 21.371s9.587 21.372 21.371 21.372 21.371-9.588 21.371-21.372-9.587-21.371-21.371-21.371z" fill="#ffe07d"/></g><g><path d="m256 469.257c-11.784 0-21.371 9.587-21.371 21.371s9.587 21.372 21.371 21.372 21.371-9.588 21.371-21.372-9.587-21.371-21.371-21.371z" fill="#ffe07d"/></g><g><path d="m54.015 179.542c-11.784 0-21.371 9.587-21.371 21.371s9.587 21.372 21.371 21.372 21.371-9.588 21.371-21.372c.001-11.784-9.587-21.371-21.371-21.371z" fill="#ffe07d"/></g><g><path d="m54.015 289.715c-11.784 0-21.371 9.588-21.371 21.372s9.587 21.371 21.371 21.371 21.371-9.587 21.371-21.371-9.587-21.372-21.371-21.372z" fill="#ffe07d"/></g><g><circle cx="21.371" cy="256" fill="#ffe07d" r="21.372"/></g></g><path d="m344.751 385.556h-177.502c-22.536 0-40.805-18.269-40.805-40.805v-177.502c0-22.536 18.269-40.805 40.805-40.805h177.502c22.536 0 40.805 18.269 40.805 40.805v177.502c0 22.536-18.269 40.805-40.805 40.805z" fill="#95d6a4"/><path d="m344.751 126.444h-31.624c22.536 0 40.805 18.269 40.805 40.805v177.502c0 22.536-18.269 40.805-40.805 40.805h31.624c22.536 0 40.805-18.269 40.805-40.805v-177.502c0-22.536-18.269-40.805-40.805-40.805z" fill="#78c2a4"/><g><g><g><g><path d="m321.376 276.827c5.757-10.954 8.844-23.529 8.38-36.868-1.356-39.051-33.506-70.56-72.575-71.171-41.301-.646-74.983 32.64-74.983 73.793 0 12.354 3.043 23.992 8.412 34.22 3.639 6.931 2.33 15.421-3.205 20.956-3.494 3.494-3.494 9.158 0 12.651l9.154 9.154c3.462 3.462 9.255 3.686 12.571.084 1.573-1.708 4.378-.585 4.378 1.696v12.932c0 4.941 4.005 8.946 8.946 8.946h33.546 33.546c4.941 0 8.946-4.005 8.946-8.946v-12.932c0-2.281 2.805-3.404 4.378-1.696 3.316 3.602 9.109 3.378 12.57-.084l9.154-9.154c3.494-3.493 3.494-9.158 0-12.651-5.527-5.527-6.854-14.01-3.218-20.93z" fill="#f4fbff"/><path d="m321.376 276.827c5.757-10.954 8.844-23.529 8.38-36.868-.455-13.096-4.386-25.334-10.866-35.853.002.245.009.489.009.735 0 56.045-45.433 101.478-101.478 101.478-11.228 0-22.028-1.828-32.124-5.195-1.099 3.142-.404 6.772 2.108 9.284l9.154 9.154c3.462 3.462 9.255 3.686 12.57.084 1.573-1.708 4.378-.585 4.378 1.696v12.932c0 4.941 4.005 8.946 8.946 8.946h33.547 33.546c4.941 0 8.946-4.005 8.946-8.946v-12.932c0-2.281 2.805-3.404 4.378-1.696 3.316 3.602 9.109 3.378 12.57-.084l9.154-9.154c3.494-3.493 3.494-9.158 0-12.651-5.527-5.527-6.854-14.01-3.218-20.93z" fill="#ddeafb"/></g></g></g></g><g fill="#2b3890"><path d="m297.63 268.051c0 8.166-6.62 14.786-14.786 14.786s-14.786-6.62-14.786-14.786 7.175-11.826 14.786-14.786c16.634-6.469 14.786 6.62 14.786 14.786z"/><path d="m214.37 268.051c0 8.166 6.62 14.786 14.786 14.786s14.786-6.62 14.786-14.786-7.175-11.826-14.786-14.786c-16.634-6.469-14.786 6.62-14.786 14.786z"/><path d="m270.282 309.148c0 7.888-6.394 8.569-14.282 8.569s-14.282-.681-14.282-8.569 6.394-19.994 14.282-19.994 14.282 12.107 14.282 19.994z"/></g></g></svg>