<svg height="512" viewBox="0 0 26 58" width="512" xmlns="http://www.w3.org/2000/svg"><g id="Page-1" fill="none" fill-rule="evenodd"><g id="002---Laptop-SSD" fill-rule="nonzero"><path id="Shape" d="m24 1v5h-22v-5c0-.55228475.44771525-1 1-1h20c.5522847 0 1 .44771525 1 1z" fill="#71c285"/><g fill="#f3d55b"><path id="Shape" d="m8 0v2c0 .55228475-.44771525 1-1 1s-1-.44771525-1-1v-2z"/><path id="Shape" d="m12 0v2c0 .55228475-.4477153 1-1 1s-1-.44771525-1-1v-2z"/><path id="Shape" d="m16 0v2c0 .55228475-.4477153 1-1 1s-1-.44771525-1-1v-2z"/><path id="Shape" d="m20 0v2c0 .55228475-.4477153 1-1 1s-1-.44771525-1-1v-2z"/></g><path id="Shape" d="m24 49v-2c0-.5522847.4477153-1 1-1s1-.4477153 1-1v-12c0-.5522847-.4477153-1-1-1s-1-.4477153-1-1v-2c0-.5522847.4477153-1 1-1s1-.4477153 1-1v-12c0-.5522847-.4477153-1-1-1s-1-.4477153-1-1v-2c0-.5522847.4477153-1 1-1s1-.44771525 1-1v-2c0-.55228475-.4477153-1-1-1h-24c-.55228475 0-1 .44771525-1 1v2c0 .55228475.44771525 1 1 1s1 .4477153 1 1v2c0 .5522847-.44771525 1-1 1s-1 .4477153-1 1v12c0 .5522847.44771525 1 1 1s1 .4477153 1 1v2c0 .5522847-.44771525 1-1 1s-1 .4477153-1 1v12c0 .5522847.44771525 1 1 1s1 .4477153 1 1v2c0 .5522847-.44771525 1-1 1s-1 .4477153-1 1v6c0 .5522847.44771525 1 1 1h8c0-2.209139 1.790861-4 4-4s4 1.790861 4 4h8c.5522847 0 1-.4477153 1-1v-6c0-.5522847-.4477153-1-1-1s-1-.4477153-1-1z" fill="#24ae5f"/><rect id="Rectangle-path" fill="#393f4a" height="13" rx="1" width="14" x="6" y="10"/><rect id="Rectangle-path" fill="#393f4a" height="10" rx="1" width="5" x="6" y="27"/><rect id="Rectangle-path" fill="#393f4a" height="10" rx="1" width="5" x="15" y="27"/><rect id="Rectangle-path" fill="#393f4a" height="14" rx="1" transform="matrix(0 -1 1 0 -32.5 58.5)" width="9" x="8.5" y="38.5"/><circle id="Oval" cx="10" cy="14" fill="#7f8284" r="1"/><circle id="Oval" cx="16" cy="14" fill="#7f8284" r="1"/><circle id="Oval" cx="10" cy="19" fill="#7f8284" r="1"/><circle id="Oval" cx="16" cy="19" fill="#7f8284" r="1"/></g></g></svg>