<?xml version="1.0" encoding="iso-8859-1"?>
<!-- Generator: Adobe Illustrator 19.0.0, SVG Export Plug-In . SVG Version: 6.00 Build 0)  -->
<svg version="1.1" id="Capa_1" xmlns="http://www.w3.org/2000/svg" xmlns:xlink="http://www.w3.org/1999/xlink" x="0px" y="0px"
	 viewBox="0 0 512 512" style="enable-background:new 0 0 512 512;" xml:space="preserve">
<path style="fill:#0D70B2;" d="M359.854,45v30c0,8.399-6.599,15-15,15s-15-6.601-15-15V45c0-8.401-6.599-15-15-15h-120
	c-8.401,0-15,6.599-15,15v30c0,8.399-6.599,15-15,15s-15-6.601-15-15V45c0-24.901,20.098-45,45-45h120
	C339.757,0,359.854,20.099,359.854,45z"/>
<path style="fill:#1689FC;" d="M434.854,150h-360c-8.701,0-15.601,7.5-15,16.5l27.598,304.4c1.802,23.099,21.302,41.1,44.7,41.1
	h245.405c23.397,0,42.898-18.001,44.7-40.8l27.597-304.7C450.455,157.5,443.555,150,434.854,150z"/>
<path style="fill:#136EF1;" d="M449.854,166.5l-27.597,304.7c-1.802,22.798-21.302,40.8-44.7,40.8H254.854V150h180
	C443.555,150,450.455,157.5,449.854,166.5z"/>
<g>
	<path style="fill:#C5C9F7;" d="M269.854,225v212c0,8.399-6.599,15-15,15s-15-6.601-15-15V225c0-8.401,6.599-15,15-15
		S269.854,216.599,269.854,225z"/>
	<path style="fill:#C5C9F7;" d="M177.13,452c-7.969,0-14.619-6.27-14.971-14.312l-9.551-212
		c-0.381-8.276,6.006-15.293,14.297-15.674c9.697-0.703,15.293,6.05,15.645,14.297l9.551,212
		c0.381,8.276-6.006,15.293-14.297,15.674C177.569,452,177.335,452,177.13,452z"/>
</g>
<path style="fill:#A8AFF1;" d="M332.579,452c-0.205,0-0.439,0-0.674-0.015c-8.291-0.381-14.678-7.397-14.297-15.674l9.551-212
	c0.352-8.232,6.621-14.883,15.645-14.297c8.291,0.381,14.678,7.397,14.297,15.674l-9.551,212
	C347.198,445.73,340.548,452,332.579,452z"/>
<path style="fill:#0059AA;" d="M314.854,30h-60V0h60c24.902,0,45,20.099,45,45v30c0,8.399-6.599,15-15,15s-15-6.601-15-15V45
	C329.854,36.599,323.255,30,314.854,30z"/>
<path style="fill:#A8AFF1;" d="M269.854,225v212c0,8.399-6.599,15-15,15V210C263.255,210,269.854,216.599,269.854,225z"/>
<path style="fill:#17ACE8;" d="M406,59.878H106c-41.4,0-75,33.6-75,75v30c0,8.399,6.599,15,15,15h420c8.401,0,15-6.601,15-15v-30
	C481,93.478,447.4,59.878,406,59.878z"/>
<path style="fill:#1689FC;" d="M481,134.878v30c0,8.399-6.599,15-15,15H256v-120h150C447.4,59.878,481,93.478,481,134.878z"/>
<g>
</g>
<g>
</g>
<g>
</g>
<g>
</g>
<g>
</g>
<g>
</g>
<g>
</g>
<g>
</g>
<g>
</g>
<g>
</g>
<g>
</g>
<g>
</g>
<g>
</g>
<g>
</g>
<g>
</g>
</svg>
