<svg id="Capa_1" enable-background="new 0 0 512 512" height="512" viewBox="0 0 512 512" width="512" xmlns="http://www.w3.org/2000/svg"><g><g><path d="m319.062 110.876v-105.715c0-2.851-2.311-5.161-5.161-5.161h-115.802c-2.851 0-5.161 2.311-5.161 5.161v105.714l63.062 9z" fill="#eceaec"/><path d="m192.938 129.457 63.062 9 63.062-9v-18.581h-126.124z" fill="#dad8db"/><path d="m346.609 163.448-90.609 9-90.609-9v-28.83c0-2.85 2.311-5.161 5.161-5.161h170.895c2.85 0 5.161 2.311 5.161 5.161v28.83z" fill="#df667c"/><path d="m165.391 182.028 90.609 9 90.609-9v-18.58h-181.218z" fill="#dc4857"/><path d="m196.359 502.419h119.282c24.971 0 30.966-22.863 30.968-39.965v-280.426h-181.218v280.423c0 17.104 5.526 39.968 30.968 39.968zm30.291-50.022c0-2.85 2.311-14.161 5.161-14.161h48.377c2.85 0 5.161 11.311 5.161 14.161v17.412c0 2.851-2.311 5.161-5.161 5.161h-48.377c-2.851 0-5.161-2.311-5.161-5.161z" fill="#434d59"/><g fill="#3b434d"><path d="m315.641 493.419h-119.282c-17.103 0-30.968-13.865-30.968-30.968v18.581c0 17.103 13.865 30.968 30.968 30.968h119.282c17.103 0 30.968-13.865 30.968-30.968v-18.581c0 17.104-13.865 30.968-30.968 30.968z"/><path d="m280.188 428.655h-48.377c-2.851 0-5.161 2.311-5.161 5.161v18.581c0-2.851 2.311-5.161 5.161-5.161h48.377c2.85 0 5.161 2.311 5.161 5.161v-18.581c0-2.85-2.31-5.161-5.161-5.161z"/></g></g><g fill="#454d58"><path d="m237.378 70.961v-23.25c0-4.284-3.473-7.757-7.757-7.757s-7.757 3.473-7.757 7.757v23.25c0 4.284 3.473 7.757 7.757 7.757s7.757-3.473 7.757-7.757z"/><path d="m290.136 70.961v-23.25c0-4.284-3.473-7.757-7.757-7.757s-7.757 3.473-7.757 7.757v23.25c0 4.284 3.473 7.757 7.757 7.757s7.757-3.473 7.757-7.757z"/></g></g></svg>