<svg id="Capa_1" enable-background="new 0 0 512 512" height="512" viewBox="0 0 512 512" width="512" xmlns="http://www.w3.org/2000/svg"><g><g><path d="m105.494 325.474-8.225-249.386c-.252-7.644-6.522-13.711-14.17-13.711s-13.918 6.066-14.17 13.711l-8.225 249.386 22.395 9.29z" fill="#454d58"/><path d="m451.303 325.474-8.225-249.386c-.252-7.644-6.522-13.711-14.17-13.711s-13.918 6.066-14.17 13.711l-8.225 249.386 22.395 9.29z" fill="#454d58"/><path d="m60.09 344.054 23.009 9.291 23.008-9.291-.613-18.58h-44.791z" fill="#3c434c"/><path d="m405.9 344.054 23.008 9.291 23.008-9.291-.613-18.58h-44.79z" fill="#3c434c"/><path d="m20.645 440.333h470.71c20.645 0 20.645-18.534 20.645-29.936v-45.697c0-11.402-9.243-20.645-20.645-20.645h-470.71c-11.402-.001-20.645 9.243-20.645 20.645v45.698c0 11.401 0 29.935 20.645 29.935z" fill="#eceaec"/><path d="m491.355 431.042h-470.71c-11.402 0-20.645-9.243-20.645-20.645v18.581c0 11.402 9.243 20.645 20.645 20.645h470.71c11.402 0 20.645-9.243 20.645-20.645v-18.581c0 11.402-9.243 20.645-20.645 20.645z" fill="#dad8db"/></g><g><g fill="#eacc73"><path d="m51.861 405.872c-4.285 0-7.757 3.473-7.757 7.757s3.472 7.757 7.757 7.757h24.78c4.285 0 7.757-3.473 7.757-7.757s-3.473-7.757-7.757-7.757z"/><path d="m135.139 405.872h-24.781c-4.285 0-7.757 3.473-7.757 7.757s3.472 7.757 7.757 7.757h24.781c4.284 0 7.757-3.473 7.757-7.757s-3.473-7.757-7.757-7.757z"/><path d="m168.855 405.872c-4.285 0-7.757 3.473-7.757 7.757s3.473 7.757 7.757 7.757h24.78c4.285 0 7.757-3.473 7.757-7.757s-3.473-7.757-7.757-7.757z"/><path d="m227.352 405.872c-4.285 0-7.757 3.473-7.757 7.757s3.472 7.757 7.757 7.757h24.78c4.285 0 7.757-3.473 7.757-7.757s-3.473-7.757-7.757-7.757z"/></g><path d="m402.72 421.387c4.285 0 7.757-3.473 7.757-7.757s-3.473-7.757-7.757-7.757h-24.78c-4.285 0-7.757 3.473-7.757 7.757s3.473 7.757 7.757 7.757z" fill="#df667c"/><path d="m460.42 421.387c4.285 0 7.757-3.473 7.757-7.757s-3.473-7.757-7.757-7.757h-24.78c-4.285 0-7.757 3.473-7.757 7.757s3.473 7.757 7.757 7.757z" fill="#eacc73"/><path d="m161.037 181.818c52.364-52.366 137.57-52.364 189.935 0 1.515 1.514 3.501 2.272 5.486 2.272s3.97-.758 5.486-2.272c3.029-3.029 3.029-7.941 0-10.97-58.414-58.414-153.462-58.415-211.877 0-3.029 3.029-3.029 7.941 0 10.97s7.94 3.029 10.97 0z" fill="#b3e59f"/><path d="m332.521 211.24c3.029-3.029 3.029-7.941 0-10.97-42.148-42.147-110.701-42.189-152.904-.129-2.403 2.289-3.145 5.962-1.584 9.085 1.358 2.718 4.099 4.29 6.944 4.29 1.166 0 2.349-.264 3.464-.821.774-.387 1.464-.893 2.053-1.49 36.146-36.108 94.925-36.094 131.055.035 3.03 3.029 7.941 3.029 10.972 0z" fill="#b3e59f"/><path d="m298.165 242.382c1.985 0 3.97-.758 5.485-2.272 3.029-3.029 3.029-7.941 0-10.97-12.726-12.727-29.648-19.736-47.647-19.736-17.998 0-34.919 7.009-47.646 19.736-3.029 3.029-3.029 7.941 0 10.97 3.029 3.03 7.94 3.03 10.971 0 9.796-9.796 22.822-15.191 36.675-15.191 13.855 0 26.879 5.395 36.676 15.191 1.516 1.515 3.5 2.272 5.486 2.272z" fill="#b3e59f"/><path d="m233.649 254.374c-1.468 1.452-2.302 3.437-2.302 5.515-.096 6.874 8.616 10.354 13.287 5.44 3.043-3.022 7.079-4.685 11.37-4.685 4.312 0 8.365 1.679 11.414 4.728 7.515 7.01 17.979-3.463 10.971-10.97-12.335-12.334-32.395-12.343-44.74-.028z" fill="#b3e59f"/></g></g></svg>