<svg id="Capa_1" enable-background="new 0 0 512 512" height="512" viewBox="0 0 512 512" width="512" xmlns="http://www.w3.org/2000/svg"><g><path d="m256 22c-135.31 0-245 109.69-245 245 0 65.72 25.88 125.392 68 169.392l1 .286v-83.741l-.28-.291c-4.333-4.498-6.72-10.409-6.72-16.646v-40c0-13.233 10.767-24 24-24h31.104l.236-.667c4.088-11.563 15.077-19.333 27.343-19.333h200.635c12.266 0 23.255 7.77 27.343 19.333l.236.667h31.103c13.233 0 24 10.767 24 24v40c0 6.237-2.387 12.148-6.72 16.646l-.28.291v83.741l1-.286c42.12-44 68-103.672 68-169.392 0-135.31-109.69-245-245-245z" fill="#444474"/><circle cx="256" cy="120" fill="#e2e2ff" r="119"/><path d="m422 178.5h-62.405c-2.982 5.26-6.349 10.275-10.07 15h72.475c4.136 0 7.5 3.364 7.5 7.5v35c0 4.136-3.364 7.5-7.5 7.5h-12v15h12c12.407 0 22.5-10.093 22.5-22.5v-35c0-12.407-10.093-22.5-22.5-22.5z" fill="#bfbfef"/><g><path d="m105.411 199.763c-7.731 2.653-10.995 5.917-13.647 13.647-.614 1.79-3.16 1.79-3.774 0-2.653-7.731-5.917-10.995-13.647-13.647-1.79-.614-1.79-3.16 0-3.774 7.731-2.653 10.995-5.917 13.647-13.647.614-1.79 3.16-1.79 3.774 0 2.653 7.731 5.917 10.995 13.647 13.647 1.789.615 1.789 3.16 0 3.774z" fill="#fedf30"/></g><g><path d="m434.145 145.727c-4.455 1.741-6.677 3.963-8.418 8.418-.651 1.665-3.05 1.665-3.7 0-1.741-4.455-3.963-6.677-8.418-8.418-1.665-.651-1.665-3.05 0-3.7 4.455-1.741 6.677-3.963 8.418-8.418.651-1.665 3.05-1.665 3.7 0 1.741 4.455 3.963 6.677 8.418 8.418 1.665.65 1.665 3.049 0 3.7z" fill="#fedf30"/></g><g><path d="m471.785 274.367c-4.455 1.741-6.677 3.963-8.418 8.418-.651 1.665-3.05 1.665-3.7 0-1.741-4.455-3.963-6.677-8.418-8.418-1.665-.651-1.665-3.05 0-3.7 4.455-1.741 6.677-3.963 8.418-8.418.651-1.665 3.05-1.665 3.7 0 1.741 4.455 3.963 6.677 8.418 8.418 1.666.651 1.666 3.05 0 3.7z" fill="#fedf30"/></g><g><g fill="#fff"><path d="m315.402 223.134-3.233 1.866h10.831c4.962 0 9 4.038 9 9v18h24.317c12.266 0 23.255 7.77 27.343 19.333l.236.667h27.104v-34c0-16.569-13.431-30-30-30h-44.944c-6.26 5.714-13.162 10.809-20.654 15.134z"/><path d="m128.104 272 .236-.667c4.088-11.563 15.077-19.333 27.343-19.333h24.317v-18c0-4.962 4.038-9 9-9h10.831l-3.233-1.866c-7.492-4.324-14.394-9.42-20.653-15.134h-44.945c-16.569 0-30 13.431-30 30v34z"/></g><g><path d="m127.396 271c2.437-6.891 7.318-12.623 13.604-16.159v-16.841c0-16.569 13.431-30 30-30h-40c-16.569 0-30 13.431-30 30v33z" fill="#ebebff"/></g><g fill="#ebebff"><path d="m415 360h-29.683v115.12c17.489-10.89 33.506-23.919 47.683-38.728v-84.543c-4.401 4.993-10.837 8.151-18 8.151z"/><path d="m126.683 360h-29.683c-7.163 0-13.599-3.158-18-8.151v84.543c14.176 14.809 30.194 27.838 47.683 38.728z"/></g><g fill="#cecefe"><path d="m126.683 281c0-3.513.629-6.881 1.778-10h-31.461c-13.807 0-25 11.193-25 25v40c0 13.807 11.193 25 25 25h29.683z"/><path d="m415 271h-31.461c1.149 3.119 1.778 6.487 1.778 10v80h29.683c13.807 0 25-11.193 25-25v-40c0-13.807-11.193-25-25-25z"/></g><path d="m102 336v-40c0-13.807 11.193-25 25-25h-30c-13.807 0-25 11.193-25 25v40c0 13.807 11.193 25 25 25h30c-13.807 0-25-11.193-25-25z" fill="#bfbfef"/><g fill="#cecefe"><path d="m137 120c0-13.655 2.319-26.776 6.571-39h-3.571c-13.807 0-25 11.193-25 25v38c0 13.807 11.193 25 25 25h7.562c-6.782-14.951-10.562-31.542-10.562-49z"/><path d="m372 81h-3.571c4.253 12.224 6.571 25.345 6.571 39 0 17.458-3.78 34.049-10.562 49h7.562c13.807 0 25-11.193 25-25v-38c0-13.807-11.193-25-25-25z"/></g><path d="m179 234v18h154v-18c0-5.523-4.477-10-10-10h-9.223c-17.119 9.548-36.822 15-57.777 15s-40.657-5.452-57.777-15h-9.223c-5.523 0-10 4.477-10 10z" fill="#cecefe"/><path d="m209.574 230.686c-4.648-1.952-9.148-4.187-13.477-6.686h-7.097c-5.523 0-10 4.477-10 10v17h30v-17c0-1.164.209-2.276.574-3.314z" fill="#bfbfef"/><path d="m266 252v-13.424c-3.298.276-6.632.424-10 .424s-6.702-.148-10-.424v13.424z" fill="#fff"/><g><g><circle cx="256" cy="120" fill="#ebebff" r="120"/></g></g><path d="m166 120c0-61.194 45.806-111.687 105-119.068-4.914-.613-9.92-.932-15-.932-66.274 0-120 53.726-120 120s53.726 120 120 120c5.08 0 10.086-.319 15-.932-59.194-7.382-105-57.874-105-119.068z" fill="#e2e2ff"/><g><g><circle cx="256" cy="120" fill="#fff" r="97"/></g></g><g><g><circle cx="256" cy="120" fill="#5a5a8a" r="82"/></g></g><path d="m204 120c0-40.09 28.927-73.53 67-80.601-4.867-.903-9.875-1.399-15-1.399-45.215 0-82 36.785-82 82s36.785 82 82 82c5.125 0 10.133-.496 15-1.399-38.073-7.071-67-40.511-67-80.601z" fill="#444474"/><g><path d="m356.318 251h-200.636c-16.569 0-30 13.431-30 30v193.485c37.747 23.759 82.423 37.515 130.318 37.515s92.571-13.756 130.318-37.515v-193.485c0-16.569-13.432-30-30-30z" fill="#e2e2ff"/></g><g><path d="m356.318 251h-200.636c-16.569 0-30 13.431-30 30v193.485c37.747 23.759 82.423 37.515 130.318 37.515s92.571-13.756 130.318-37.515v-193.485c0-16.569-13.432-30-30-30z" fill="#e2e2ff"/></g><g><g><g><circle cx="272.405" cy="297.5" fill="#0172fb" r="9.405"/></g></g><g><g><circle cx="302.5" cy="297.5" fill="#0172fb" r="9.405"/></g></g><g><g><circle cx="332.595" cy="297.5" fill="#60b7ff" r="9.405"/></g></g></g><g fill="#fff"><path d="m174.5 432v10.5c0 4.136-3.364 7.5-7.5 7.5h-41.318v15h41.318c12.407 0 22.5-10.093 22.5-22.5v-10.5z"/><path d="m225 450c-4.136 0-7.5-3.364-7.5-7.5v-10.5h-15v10.5c0 12.407 10.093 22.5 22.5 22.5h161.318v-15z"/></g><g><g><path d="m159 428v-140c0-2.761 2.239-5 5-5h64c2.761 0 5 2.239 5 5v140c0 2.761-2.239 5-5 5h-64c-2.761 0-5-2.239-5-5z" fill="#cecefe"/></g></g><path d="m189 428v-83h-10c-2.761 0-5-2.239-5-5v-34c0-2.761 2.239-5 5-5h10v-13c0-2.761 2.239-5 5-5h-30c-2.761 0-5 2.239-5 5v140c0 2.761 2.239 5 5 5h30c-2.761 0-5-2.239-5-5z" fill="#bfbfef"/><g><g><path d="m174 340v-34c0-2.761 2.239-5 5-5h34c2.761 0 5 2.239 5 5v34c0 2.761-2.239 5-5 5h-34c-2.761 0-5-2.239-5-5z" fill="#5a5a8a"/></g></g><path d="m194 340v-34c0-2.761 2.239-5 5-5h-20c-2.761 0-5 2.239-5 5v34c0 2.761 2.239 5 5 5h20c-2.761 0-5-2.239-5-5z" fill="#444474"/><g><g><path d="m337 348h-69c-2.761 0-5-2.239-5-5v-18c0-2.761 2.239-5 5-5h69c2.761 0 5 2.239 5 5v18c0 2.761-2.239 5-5 5z" fill="#fff"/></g></g><g><g><path d="m337 348h-69c-2.761 0-5-2.239-5-5v-18c0-2.761 2.239-5 5-5h69c2.761 0 5 2.239 5 5v18c0 2.761-2.239 5-5 5z" fill="#cecefe"/></g></g><path d="m293 343v-18c0-2.761 2.239-5 5-5h-30c-2.761 0-5 2.239-5 5v18c0 2.761 2.239 5 5 5h30c-2.761 0-5-2.239-5-5z" fill="#bfbfef"/><g><g><path d="m337 388h-69c-2.761 0-5-2.239-5-5v-18c0-2.761 2.239-5 5-5h69c2.761 0 5 2.239 5 5v18c0 2.761-2.239 5-5 5z" fill="#cecefe"/></g></g><path d="m293 383v-18c0-2.761 2.239-5 5-5h-30c-2.761 0-5 2.239-5 5v18c0 2.761 2.239 5 5 5h30c-2.761 0-5-2.239-5-5z" fill="#bfbfef"/><g><g><path d="m337 429h-69c-2.761 0-5-2.239-5-5v-8c0-2.761 2.239-5 5-5h69c2.761 0 5 2.239 5 5v8c0 2.761-2.239 5-5 5z" fill="#5a5a8a"/></g></g><path d="m293 424v-8c0-2.761 2.239-5 5-5h-30c-2.761 0-5 2.239-5 5v8c0 2.761 2.239 5 5 5h30c-2.761 0-5-2.239-5-5z" fill="#444474"/></g><g><path d="m94.086 147.586-4.672-4.672c-.781-.781-.781-2.047 0-2.828l4.672-4.672c.781-.781 2.047-.781 2.828 0l4.672 4.672c.781.781.781 2.047 0 2.828l-4.672 4.672c-.781.781-2.047.781-2.828 0z" fill="#fff"/></g><g><path d="m40.914 231.757-4.672-4.672c-.781-.781-.781-2.047 0-2.828l4.672-4.672c.781-.781 2.047-.781 2.828 0l4.672 4.672c.781.781.781 2.047 0 2.828l-4.672 4.672c-.78.781-2.047.781-2.828 0z" fill="#fff"/></g><g><path d="m469.914 219.757-4.672-4.672c-.781-.781-.781-2.047 0-2.828l4.672-4.672c.781-.781 2.047-.781 2.828 0l4.672 4.672c.781.781.781 2.047 0 2.828l-4.672 4.672c-.78.781-2.047.781-2.828 0z" fill="#fff"/></g><g><path d="m54.257 285.757-4.672-4.672c-.781-.781-.781-2.047 0-2.828l4.672-4.672c.781-.781 2.047-.781 2.828 0l4.672 4.672c.781.781.781 2.047 0 2.828l-4.672 4.672c-.78.781-2.047.781-2.828 0z" fill="#fff"/></g><g><path d="m463.914 342.757-4.672-4.672c-.781-.781-.781-2.047 0-2.828l4.672-4.672c.781-.781 2.047-.781 2.828 0l4.672 4.672c.781.781.781 2.047 0 2.828l-4.672 4.672c-.78.781-2.047.781-2.828 0z" fill="#fff"/></g><g><path d="m55.257 363.757-4.672-4.672c-.781-.781-.781-2.047 0-2.828l4.672-4.672c.781-.781 2.047-.781 2.828 0l4.672 4.672c.781.781.781 2.047 0 2.828l-4.672 4.672c-.78.781-2.047.781-2.828 0z" fill="#fedf30"/></g></g></svg>