<svg id="Capa_1" enable-background="new 0 0 512 512" height="512" viewBox="0 0 512 512" width="512" xmlns="http://www.w3.org/2000/svg"><g><g><path d="m512 256c0 141.387-114.613 256-256 256s-256-114.613-256-256 114.613-256 256-256 256 114.613 256 256zm0 0" fill="#abecfe"/><path d="m512 256c0 26.051-3.891 51.191-11.129 74.871-5.031 16.469-11.672 32.231-19.75 47.109-8.25 15.2-18 29.461-29.051 42.61-.582.691-1.16 1.379-1.75 2.058-46.941 54.704-116.59 89.352-194.32 89.352s-147.379-34.648-194.309-89.352c-.589-.687-1.179-1.378-1.75-2.07-11.062-13.137-20.812-27.398-29.05-42.598-3.289-6.031-6.332-12.21-9.121-18.531-14-31.629-21.77-66.629-21.77-103.449 0-46.219 12.25-89.57 33.68-127 44.121 77.07 127.16 129 222.32 129s178.211-51.93 222.32-129c21.43 37.43 33.68 80.781 33.68 127zm0 0" fill="#70c5e9"/><path d="m481.262 377.699c-7.16 13.223-15.434 25.742-24.723 37.43-8.437 10.633-17.719 20.57-27.719 29.723-45.539 41.699-106.211 67.148-172.82 67.148s-127.281-25.449-172.82-67.148c-10-9.153-19.282-19.09-27.719-29.723-9.289-11.688-17.563-24.207-24.723-37.43zm0 0" fill="#355dd7"/></g><g><path d="m398.342 261.876c-10.688-6.169-22.981-10.504-35.376-12.971 9.1-19.39 11.115-28.77 11.115-50.051 0-109.046-106.181-118.807-106.26-118.854v23.141c.243.178 47.227 11.707 47.227 59.506 0 32.549-26.484 59.82-59.033 59.82s-59.033-27.271-59.033-59.82c0-44.718 40.92-54.896 47.227-59.506v-23.141c-.293.175-106.26 14.317-106.26 118.854 0 17.468 3.805 34.475 11.115 50.051-12.395 2.467-24.804 6.803-35.492 12.971-48.091 27.764-69.965 84.932-53.546 137.901l5.604 13.455 20.016-11.622c.22-2.362-14.476-46.95 27.015-70.889 28.145-16.315 64.895-6.595 81.175 21.596 16.321 28.274 6.653 64.977-21.607 81.266-38.853 22.48-69.224-7.858-75.998-10.815l-19.993 11.611 10.008 10.827c22.762 24.593 54.162 37.446 85.633 37.785 30.056.321 60.987-11.04 84.138-34.153 22.674 22.639 53.006 34.162 82.863 34.162 31.915 0 63.982-12.891 87.042-37.795l8.797-11.53-19.993-11.611-6.353 5.442c-18.99 16.234-46.918 18.598-68.571 6.076-28.28-16.301-37.913-53.016-21.607-81.266 16.28-28.202 53.167-37.841 81.311-21.596 38.654 22.303 27.44 64.542 28.225 71.592l20.016 11.622 4.393-14.159c16.419-52.966-5.707-110.135-53.798-137.899z" fill="#b3ef69"/><path d="m112.658 330.721c14.36-8.324 30.956-9.857 45.935-5.631v-194.967c-12.165 16.833-20.645 39.164-20.645 68.731 0 17.468 3.805 34.474 11.115 50.051-12.395 2.467-24.804 6.803-35.492 12.971-48.091 27.764-69.965 84.932-53.546 137.901l5.604 13.455 20.016-11.622c.219-2.362-14.477-46.95 27.013-70.889z" fill="#d9f484"/><path d="m158.593 439.538c-32.188 9.612-56.407-14.169-62.365-16.77l-19.993 11.611 10.008 10.827c19.552 21.126 45.48 33.579 72.35 36.888z" fill="#d9f484"/><path d="m425.921 445.205 8.797-11.53-19.993-11.611-6.353 5.442c-18.99 16.234-46.918 18.598-68.571 6.076-28.28-16.301-37.913-53.016-21.607-81.266 16.28-28.202 53.167-37.841 81.311-21.596 38.654 22.303 27.44 64.542 28.225 71.592l20.016 11.622 4.393-14.159c16.419-52.968-5.707-110.137-53.799-137.901-10.688-6.169-22.981-10.504-35.376-12.971 9.1-19.39 11.115-28.77 11.115-50.051.002-109.044-106.179-118.805-106.258-118.852v23.141c.243.178 47.227 11.707 47.227 59.506 0 32.549-26.484 59.82-59.033 59.82v226.37c22.676 22.64 53.008 34.163 82.865 34.163 31.914 0 63.982-12.891 87.041-37.795z" fill="#80cf8c"/><circle cx="256.014" cy="305.113" fill="#f9ea85" r="35.42"/><path d="m291.434 305.113c0-19.532-15.888-35.42-35.42-35.42v70.84c19.532 0 35.42-15.888 35.42-35.42z" fill="#efc142"/></g><g fill="#fff"><path d="m475.756 231.244h-1.524c-6.754 0-12.226-5.477-12.226-12.227v-1.523h-8.715v1.523c0 6.75-5.477 12.227-12.227 12.227h-1.527v8.715h1.527c6.75 0 12.227 5.472 12.227 12.226v1.528h8.715v-1.528c0-6.754 5.472-12.226 12.226-12.226h1.524zm0 0"/><path d="m438.89 139.818h-1.524c-6.754 0-12.226-5.477-12.226-12.227v-1.523h-8.715v1.523c0 6.75-5.477 12.227-12.227 12.227h-1.527v8.715h1.527c6.75 0 12.227 5.472 12.227 12.226v1.528h8.715v-1.528c0-6.754 5.472-12.226 12.226-12.226h1.524zm0 0"/><path d="m36.967 239.959h1.524c6.754 0 12.226 5.472 12.226 12.226v1.528h8.715v-1.528c0-6.754 5.477-12.226 12.227-12.226h1.527v-8.715h-1.527c-6.75 0-12.227-5.477-12.227-12.227v-1.523h-8.715v1.523c0 6.75-5.472 12.227-12.226 12.227h-1.524zm0-8.715"/><path d="m73.833 148.533h1.524c6.754 0 12.226 5.472 12.226 12.226v1.528h8.715v-1.528c0-6.754 5.477-12.226 12.227-12.226h1.527v-8.715h-1.527c-6.75 0-12.227-5.477-12.227-12.227v-1.523h-8.715v1.523c0 6.75-5.472 12.227-12.226 12.227h-1.524zm0-8.715"/></g></g></svg>