<svg id="Capa_1" enable-background="new 0 0 510 510" height="512" viewBox="0 0 510 510" width="512" xmlns="http://www.w3.org/2000/svg" xmlns:xlink="http://www.w3.org/1999/xlink"><linearGradient id="lg1"><stop offset="0" stop-color="#f8f6f7"/><stop offset=".1788" stop-color="#f8f6f7"/><stop offset="1" stop-color="#e7e6f5"/></linearGradient><linearGradient id="SVGID_1_" gradientUnits="userSpaceOnUse" x1="48.147" x2="461.853" xlink:href="#lg1" y1="206.853" y2="206.853"/><linearGradient id="SVGID_2_" gradientUnits="userSpaceOnUse" x1="-32.057" x2="521.237" y1="206.853" y2="206.853"><stop offset="0" stop-color="#f8f6f7"/><stop offset="1" stop-color="#d1ceeb"/></linearGradient><linearGradient id="SVGID_3_" gradientUnits="userSpaceOnUse" x1="-36" x2="111.122" xlink:href="#lg1" y1="127.602" y2="127.602"/><linearGradient id="lg2"><stop offset="0" stop-color="#fee903"/><stop offset=".2305" stop-color="#fee505"/><stop offset=".4171" stop-color="#fedb0b"/><stop offset=".5884" stop-color="#feca15"/><stop offset=".7504" stop-color="#feb223"/><stop offset=".9046" stop-color="#fe9435"/><stop offset="1" stop-color="#fe7d43"/></linearGradient><linearGradient id="SVGID_4_" gradientUnits="userSpaceOnUse" x1="1.156" x2="172.535" xlink:href="#lg2" y1="87.782" y2="87.782"/><linearGradient id="SVGID_5_" gradientUnits="userSpaceOnUse" x1="-65.325" x2="184" xlink:href="#lg2" y1="87.782" y2="87.782"/><linearGradient id="lg3"><stop offset="0" stop-color="#fe73c5"/><stop offset=".1257" stop-color="#f771c7"/><stop offset=".3117" stop-color="#e36ecc"/><stop offset=".5339" stop-color="#c369d5"/><stop offset=".6488" stop-color="#af66da"/><stop offset=".7769" stop-color="#a15dc8"/><stop offset="1" stop-color="#814aa0"/></linearGradient><linearGradient id="SVGID_6_" gradientUnits="userSpaceOnUse" x1="28.128" x2="462.271" xlink:href="#lg3" y1="413.706" y2="413.706"/><linearGradient id="SVGID_7_" gradientUnits="userSpaceOnUse" x1="94.333" x2="222.509" xlink:href="#lg3" y1="402.5" y2="402.5"/><linearGradient id="SVGID_8_" gradientUnits="userSpaceOnUse" x1="36.795" x2="420.028" xlink:href="#lg3" y1="413.706" y2="413.706"/><linearGradient id="lg4"><stop offset="0" stop-color="#bd80e1"/><stop offset=".2371" stop-color="#ac71cf"/><stop offset=".7118" stop-color="#814aa0"/><stop offset="1" stop-color="#693685"/></linearGradient><linearGradient id="SVGID_9_" gradientUnits="userSpaceOnUse" x1="70" x2="568.17" xlink:href="#lg4" y1="483.908" y2="483.908"/><linearGradient id="SVGID_10_" gradientUnits="userSpaceOnUse" x1="253.282" x2="462.036" xlink:href="#lg4" y1="483.908" y2="483.908"/><linearGradient id="SVGID_11_" gradientUnits="userSpaceOnUse" x1="400.939" x2="508.106" xlink:href="#lg2" y1="278.948" y2="278.948"/><linearGradient id="SVGID_12_" gradientUnits="userSpaceOnUse" x1="362.241" x2="506.501" xlink:href="#lg2" y1="278.949" y2="278.949"/><linearGradient id="SVGID_13_" gradientUnits="userSpaceOnUse" x1="159.704" x2="230.006" xlink:href="#lg2" y1="185.612" y2="185.612"/><linearGradient id="SVGID_14_" gradientUnits="userSpaceOnUse" x1="426.702" x2="497.004" xlink:href="#lg2" y1="54.892" y2="54.892"/><linearGradient id="SVGID_15_" gradientUnits="userSpaceOnUse" x1="164" x2="344.011" y1="402.5" y2="402.5"><stop offset=".0006098038" stop-color="#ffcebf"/><stop offset="1" stop-color="#f89580"/></linearGradient><linearGradient id="SVGID_16_" gradientUnits="userSpaceOnUse" x1="263" x2="360.867" y1="402.5" y2="402.5"><stop offset="0" stop-color="#f89580"/><stop offset=".9994" stop-color="#c5715a"/></linearGradient><g><circle cx="255" cy="206.853" fill="url(#SVGID_1_)" r="206.853"/><path d="m255 0c-6.752 0-13.424.334-20.01.967 104.852 10.066 186.843 98.396 186.843 205.886 0 4.81-.165 9.582-.489 14.31-.499 7.284-2.996 14.288-7.305 20.181l-.07.096c-8.84 12.05-20.34 22.02-33.64 29.05-6.83 3.61-6.83 13.3 0 16.91 5.53 2.92 10.74 6.35 15.59 10.23 1.192.954 2.361 1.935 3.507 2.943-5.465 10.719-16.48 17.467-28.512 17.467h-290.374c5.63 8.82 11.91 17.18 18.78 25.01 30.35 34.68 72.11 59.13 119.42 67.49 2.672.474 9.61 1.638 17.319 2.311 7.731.674 16.233.856 18.941.856 114.242 0 206.853-92.611 206.853-206.853s-92.611-206.854-206.853-206.854z" fill="url(#SVGID_2_)"/><path d="m53.093 161.749c8.194 9.308 15.327 19.573 21.169 30.631 5.772 10.926 21.268 10.926 27.041 0 14.856-28.12 37.947-51.211 66.067-66.067 10.926-5.772 10.926-21.268 0-27.041-20.593-10.879-38.472-26.19-52.412-44.643-30.504 28.078-52.542 65.202-61.865 107.12z" fill="url(#SVGID_3_)"/><g><path d="m167.369 74.261c-28.12-14.855-51.211-37.947-66.067-66.067-5.772-10.926-21.268-10.926-27.041 0-14.855 28.12-37.947 51.212-66.066 66.067-10.926 5.772-10.926 21.268 0 27.041 28.12 14.855 51.211 37.947 66.067 66.067 5.772 10.926 21.268 10.926 27.041 0 14.856-28.12 37.947-51.211 66.067-66.067 10.925-5.772 10.925-21.268-.001-27.041z" fill="url(#SVGID_4_)"/><path d="m167.369 74.261c-28.109-14.85-51.194-37.93-66.05-66.036-5.757-10.89-21.268-11.005-27.016-.11-.081.154-.163.308-.245.462-3.844 7.224-3.023 16.027 1.983 22.499 13.772 17.806 31.257 32.592 51.307 43.184 10.837 5.725 10.837 21.315 0 27.041-20.05 10.592-37.535 25.378-51.307 43.184-5.006 6.473-5.827 15.276-1.983 22.499.082.154.164.308.245.462 5.748 10.896 21.258 10.781 27.015-.11 14.856-28.106 37.941-51.186 66.05-66.036 10.823-5.715 10.823-21.321.001-27.039z" fill="url(#SVGID_5_)"/></g><path d="m484.989 484.365h-459.978l42.455-120.287c4.448-12.602 16.359-21.03 29.723-21.03h315.622c13.364 0 25.275 8.427 29.723 21.03z" fill="url(#SVGID_6_)"/><path d="m181.14 439h-19.485c-7.985 0-14.457-6.473-14.457-14.457v-44.085c0-7.985 6.473-14.457 14.457-14.457h19.485z" fill="url(#SVGID_7_)"/><path d="m442.534 364.077c-4.448-12.602-16.359-21.03-29.723-21.03h-40.02c13.364 0 25.275 8.427 29.723 21.03l42.455 120.287h40.02z" fill="url(#SVGID_8_)"/><path d="m483.908 510h-457.816c-14.41 0-26.092-11.682-26.092-26.092 0-14.41 11.682-26.092 26.092-26.092h457.816c14.41 0 26.092 11.682 26.092 26.092 0 14.41-11.682 26.092-26.092 26.092z" fill="url(#SVGID_9_)"/><path d="m483.908 457.816h-40.02c14.41 0 26.092 11.682 26.092 26.092 0 14.41-11.682 26.092-26.092 26.092h40.02c14.41 0 26.092-11.682 26.092-26.092 0-14.41-11.682-26.092-26.092-26.092z" fill="url(#SVGID_10_)"/><g><path d="m504.876 270.494c-17.584-9.289-32.024-23.729-41.313-41.313-3.61-6.832-13.3-6.832-16.909 0-9.29 17.584-23.729 32.024-41.313 41.313-6.832 3.61-6.832 13.3 0 16.909 17.584 9.289 32.024 23.729 41.313 41.313 3.61 6.832 13.3 6.832 16.909 0 9.29-17.584 23.729-32.024 41.313-41.313 6.832-3.61 6.832-13.3 0-16.909z" fill="url(#SVGID_11_)"/><path d="m504.875 270.494c-17.584-9.289-32.023-23.729-41.313-41.313-3.594-6.802-13.344-6.736-16.943.064-.051.096-.102.193-.153.289-2.368 4.435-1.855 9.843 1.214 13.826 8.627 11.193 19.598 20.485 32.184 27.135 6.828 3.607 6.828 13.302 0 16.91-12.587 6.649-23.557 15.942-32.184 27.134-3.07 3.982-3.583 9.391-1.214 13.826.051.096.102.192.153.289 3.599 6.8 13.349 6.866 16.943.064 9.29-17.584 23.729-32.023 41.313-41.313 6.82-3.605 6.82-13.308 0-16.911z" fill="url(#SVGID_12_)"/></g><path d="m222.191 178.112h-9.684c-5.607 0-10.153-4.545-10.153-10.153v-9.684c0-4.107-3.164-7.688-7.269-7.811-4.247-.128-7.731 3.278-7.731 7.497v9.999c0 5.607-4.545 10.153-10.153 10.153h-9.684c-4.107 0-7.688 3.164-7.811 7.269-.128 4.247 3.278 7.731 7.497 7.731h9.999c5.607 0 10.153 4.545 10.153 10.153v9.684c0 4.107 3.164 7.688 7.269 7.811 4.247.128 7.731-3.278 7.731-7.497v-9.999c0-5.607 4.545-10.153 10.153-10.153h9.999c4.219 0 7.624-3.483 7.497-7.731-.125-4.104-3.706-7.269-7.813-7.269z" fill="url(#SVGID_13_)"/><path d="m489.19 47.392h-9.684c-5.607 0-10.153-4.545-10.153-10.153v-9.684c0-4.107-3.164-7.688-7.269-7.811-4.247-.128-7.731 3.278-7.731 7.497v9.999c0 5.607-4.545 10.153-10.153 10.153h-9.684c-4.107 0-7.688 3.164-7.811 7.269-.128 4.247 3.278 7.731 7.497 7.731h9.999c5.607 0 10.153 4.545 10.153 10.153v9.684c0 4.107 3.164 7.688 7.269 7.811 4.247.128 7.731-3.278 7.731-7.497v-9.999c0-5.607 4.545-10.153 10.153-10.153h9.999c4.219 0 7.624-3.483 7.497-7.731-.125-4.104-3.707-7.269-7.813-7.269z" fill="url(#SVGID_14_)"/><path d="m328.86 439h-147.72c-7.985 0-14.457-6.473-14.457-14.457v-44.085c0-7.985 6.473-14.457 14.457-14.457h147.72c7.984 0 14.457 6.473 14.457 14.457v44.085c0 7.984-6.473 14.457-14.457 14.457z" fill="url(#SVGID_15_)"/><path d="m328.86 366h-40.02c7.984 0 14.457 6.473 14.457 14.457v44.085c0 7.985-6.473 14.457-14.457 14.457h40.02c7.984 0 14.457-6.473 14.457-14.457v-44.085c0-7.984-6.473-14.457-14.457-14.457z" fill="url(#SVGID_16_)"/></g></svg>