<?xml version="1.0" encoding="iso-8859-1"?>
<!-- Generator: Adobe Illustrator 19.0.0, SVG Export Plug-In . SVG Version: 6.00 Build 0)  -->
<svg version="1.1" id="Capa_1" xmlns="http://www.w3.org/2000/svg" xmlns:xlink="http://www.w3.org/1999/xlink" x="0px" y="0px"
	 viewBox="0 0 512 512" style="enable-background:new 0 0 512 512;" xml:space="preserve">
<polygon style="fill:#1689FC;" points="0,181 256,512 244.763,446.684 189.157,206.636 151,181 126.02,151 51.243,151 "/>
<polygon style="fill:#136EF1;" points="361,181 322.637,207.283 270.38,406.807 256,512 512,181 458.232,151 390.995,151 "/>
<polygon style="fill:#17ACE8;" points="361,181 256,512 151,181 166,151 341.499,151 "/>
<polygon style="fill:#1689FC;" points="361,181 256,512 256,151 341.499,151 "/>
<path style="fill:#1DE8F1;" d="M75,362H60v-15c0-8.291-6.709-15-15-15s-15,6.709-15,15v15H15c-8.291,0-15,6.709-15,15
	s6.709,15,15,15h15v15c0,8.291,6.709,15,15,15s15-6.709,15-15v-15h15c8.291,0,15-6.709,15-15S83.291,362,75,362z"/>
<path style="fill:#1BD9DE;" d="M467,422c-24.814,0-45-20.186-45-45s20.186-45,45-45s45,20.186,45,45S491.814,422,467,422z M467,362
	c-8.276,0-15,6.724-15,15s6.724,15,15,15s15-6.724,15-15S475.276,362,467,362z"/>
<path style="fill:#1DE8F1;" d="M45,90C20.186,90,0,69.814,0,45S20.186,0,45,0s45,20.186,45,45S69.814,90,45,90z M45,30
	c-8.276,0-15,6.724-15,15s6.724,15,15,15s15-6.724,15-15S53.276,30,45,30z"/>
<polygon style="fill:#17ACE8;" points="121,60 0,181 151,181 176.805,133.22 154.46,73.84 "/>
<polygon style="fill:#1689FC;" points="391,60 355.56,81.761 334.196,137.215 361,181 512,181 "/>
<path style="fill:#1BD9DE;" d="M497,30h-15V15c0-8.291-6.709-15-15-15s-15,6.709-15,15v15h-15c-8.291,0-15,6.709-15,15
	s6.709,15,15,15h15v15c0,8.291,6.709,15,15,15s15-6.709,15-15V60h15c8.291,0,15-6.709,15-15S505.291,30,497,30z"/>
<polygon style="fill:#1689FC;" points="121,60 151,181 198.81,160.645 237.028,111.682 256,60 "/>
<polygon style="fill:#136EF1;" points="256,60 243.843,80.392 307.305,153.92 361,181 391,60 "/>
<polygon style="fill:#1DE8F1;" points="361,181 151,181 256,60 "/>
<polygon style="fill:#1BD9DE;" points="361,181 256,181 256,60 "/>
<g>
</g>
<g>
</g>
<g>
</g>
<g>
</g>
<g>
</g>
<g>
</g>
<g>
</g>
<g>
</g>
<g>
</g>
<g>
</g>
<g>
</g>
<g>
</g>
<g>
</g>
<g>
</g>
<g>
</g>
</svg>
