<?xml version="1.0" encoding="iso-8859-1"?>
<!-- Generator: Adobe Illustrator 19.0.0, SVG Export Plug-In . SVG Version: 6.00 Build 0)  -->
<svg version="1.1" id="Capa_1" xmlns="http://www.w3.org/2000/svg" xmlns:xlink="http://www.w3.org/1999/xlink" x="0px" y="0px"
	 viewBox="0 0 512 512" style="enable-background:new 0 0 512 512;" xml:space="preserve">
<g>
	<polygon style="fill:#24AE5F;" points="406.069,79.448 256,79.448 105.931,79.448 4.061,189.793 0,194.207 256,512 512,194.207 	
		"/>
	<g>
		<polygon style="fill:#1B8347;" points="256,79.448 176.552,194.207 105.931,79.448 		"/>
		<polyline style="fill:#1B8347;" points="8.828,194.207 176.552,194.207 200.21,291.31 208.772,326.621 256,512 0,194.207 		"/>
		<polygon style="fill:#1B8347;" points="406.069,79.448 335.448,194.207 256,79.448 		"/>
	</g>
	<polygon style="fill:#4FBA6F;" points="335.448,194.207 176.552,194.207 256,79.448 	"/>
	<polygon style="fill:#1B8347;" points="512,194.207 256,512 303.228,326.621 311.79,291.31 335.448,194.207 	"/>
	<polygon style="fill:#F0C419;" points="435.43,400.322 450.728,432.031 482.436,447.329 450.728,462.636 435.43,494.345 
		420.122,462.636 388.414,447.329 420.122,432.031 	"/>
	<polygon style="fill:#F3D55B;" points="435.43,417.774 445.043,437.716 464.984,447.329 445.043,456.951 435.43,476.893 
		425.807,456.951 405.866,447.329 425.807,437.716 	"/>
	<polygon style="fill:#F0C419;" points="464.984,0 480.291,31.709 512,47.016 480.291,62.314 464.984,94.023 449.686,62.314 
		417.977,47.016 449.686,31.709 	"/>
	<polygon style="fill:#F3D55B;" points="464.984,17.452 474.606,37.394 494.548,47.016 474.606,56.629 464.984,76.57 
		455.371,56.629 435.43,47.016 455.371,37.394 	"/>
	<polygon style="fill:#F0C419;" points="47.016,417.977 62.314,449.686 94.023,464.984 62.314,480.291 47.016,512 31.709,480.291 
		0,464.984 31.709,449.686 	"/>
	<polygon style="fill:#F3D55B;" points="47.016,435.43 56.629,455.371 76.57,464.984 56.629,474.606 47.016,494.548 37.394,474.606 
		17.452,464.984 37.394,455.371 	"/>
</g>
<g>
</g>
<g>
</g>
<g>
</g>
<g>
</g>
<g>
</g>
<g>
</g>
<g>
</g>
<g>
</g>
<g>
</g>
<g>
</g>
<g>
</g>
<g>
</g>
<g>
</g>
<g>
</g>
<g>
</g>
</svg>
