<?xml version="1.0" encoding="UTF-8" standalone="no"?>
<svg
   xmlns:dc="http://purl.org/dc/elements/1.1/"
   xmlns:cc="http://creativecommons.org/ns#"
   xmlns:rdf="http://www.w3.org/1999/02/22-rdf-syntax-ns#"
   xmlns:svg="http://www.w3.org/2000/svg"
   xmlns="http://www.w3.org/2000/svg"
   xmlns:sodipodi="http://sodipodi.sourceforge.net/DTD/sodipodi-0.dtd"
   xmlns:inkscape="http://www.inkscape.org/namespaces/inkscape"
   inkscape:version="1.0 (4035a4fb49, 2020-05-01)"
   sodipodi:docname="magic.svg"
   id="svg28"
   version="1.1"
   width="420pt"
   viewBox="0 0 420 360"
   height="360pt">
  <metadata
     id="metadata34">
    <rdf:RDF>
      <cc:Work
         rdf:about="">
        <dc:format>image/svg+xml</dc:format>
        <dc:type
           rdf:resource="http://purl.org/dc/dcmitype/StillImage" />
        <dc:title></dc:title>
      </cc:Work>
    </rdf:RDF>
  </metadata>
  <defs
     id="defs32" />
  <sodipodi:namedview
     inkscape:current-layer="svg28"
     inkscape:window-maximized="1"
     inkscape:window-y="0"
     inkscape:window-x="0"
     inkscape:cy="315.31107"
     inkscape:cx="135.87164"
     inkscape:zoom="0.61010742"
     fit-margin-bottom="0"
     fit-margin-right="0"
     fit-margin-left="0"
     fit-margin-top="0"
     showgrid="false"
     id="namedview30"
     inkscape:window-height="1009"
     inkscape:window-width="1920"
     inkscape:pageshadow="2"
     inkscape:pageopacity="0"
     guidetolerance="10"
     gridtolerance="10"
     objecttolerance="10"
     borderopacity="1"
     bordercolor="#666666"
     pagecolor="#ffffff" />
  <path
     id="path2"
     fill="#da90f8"
     d="M 336.59766,124.5 315,92.101562 306.59766,149.09766 C 304.80078,161.39844 296.69922,171 285.90234,175.5 v -1.80078 c 0,-24.90235 -12.30078,-48 -33.30078,-62.10156 C 232.19922,98.101562 226.80078,70.199219 240.30078,49.800781 L 273.60156,0 H 245.69922 C 236.39844,0 227.10156,0.902344 218.10156,2.699219 210,4.199219 202.19922,6.300781 195,9.300781 177,15.902344 161.10156,26.398438 147.89844,39 129,57 115.19922,80.101562 108.30078,105.90234 V 16.199219 L 66.89844,78 C 41.10156,117 27.601562,162 27.601562,208.5 27.601562,291 92.10156,357.59766 177,360 h 33.60156 c 83.69922,0 151.5,-67.80078 151.5,-151.5 0,-30 -8.69922,-58.80078 -25.5039,-84 z m 0,0" />
  <path
     id="path4"
     fill="#b760ea"
     d="m 362.10156,208.5 c 0,83.69922 -67.80078,151.5 -151.5,151.5 H 195 V 9.300781 c 7.19922,-3 15,-5.101562 23.10156,-6.601562 C 227.10156,0.902344 236.40234,0 245.69922,0 h 27.90234 l -33.30078,49.800781 c -13.5,20.398438 -8.10156,48.300781 12.29688,61.796879 21,14.10156 33.30078,37.20312 33.30078,62.10156 V 175.5 c 10.80078,-4.5 18.89844,-14.10156 20.69922,-26.40234 L 315,92.101562 336.59766,124.5 c 16.80468,25.19922 25.5039,54 25.5039,84 z m 0,0" />
  <path
     id="path8"
     fill="#ffb6fa"
     d="m 195,180 c -24.90234,0 -45,20.09766 -45,45 0,24.89844 20.09766,45 45,45 24.90234,0 45,-20.10156 45,-45 0,-24.90234 -20.09766,-45 -45,-45 z m 0,0" />
  <path
     id="path10"
     fill="#ffb6fa"
     d="M 0,60 H 30 V 90 H 0 Z m 0,0" />
  <path
     id="path12"
     fill="#ff9ac9"
     d="m 270,60 h 30 v 30 h -30 z m 0,0" />
  <path
     id="path14"
     fill="#ff9ac9"
     d="m 270,240 h 30 v 30 h -30 z m 0,0" />
  <path
     id="path16"
     fill="#ffb6fa"
     d="m 150,120 h 30 v 30 h -30 z m 0,0" />
  <g
     transform="translate(-61)"
     id="g26"
     fill="#ff9ac9">
    <path
       id="path22"
       d="m 301,225 c 0,24.89844 -20.09766,45 -45,45 v -90 c 24.90234,0 45,20.09766 45,45 z m 0,0" />
    <path
       id="path24"
       d="m 436,90 c -24.8125,0 -45,-20.1875 -45,-45 0,-24.8125 20.1875,-45 45,-45 24.8125,0 45,20.1875 45,45 0,24.8125 -20.18359,45 -45,45 z m 0,0" />
  </g>
</svg>
