<?xml version="1.0" encoding="iso-8859-1"?>
<!-- Generator: Adobe Illustrator 19.0.0, SVG Export Plug-In . SVG Version: 6.00 Build 0)  -->
<svg version="1.1" id="Layer_1" xmlns="http://www.w3.org/2000/svg" xmlns:xlink="http://www.w3.org/1999/xlink" x="0px" y="0px"
	 viewBox="0 0 469.203 469.203" style="enable-background:new 0 0 469.203 469.203;" xml:space="preserve">
<g transform="translate(0 -540.36)">
	<g>
		<path style="fill:#29A85E;" d="M0,668.128l88-80h144l88,80l-160,208L0,668.128z"/>
		<path style="fill:#2FC46E;" d="M0,668.128l88,16l72,192L0,668.128z"/>
		<path style="fill:#259855;" d="M88,588.128l72,96l72-96H88z"/>
		<g>
			<path style="fill:#2FC46E;" d="M320,668.128l-88,16l-72,192L320,668.128z"/>
			<path style="fill:#2FC46E;" d="M232,684.128l-36-48l-36,48H232z"/>
			<path style="fill:#2FC46E;" d="M160,684.128l-36-48l-36,48H160z"/>
		</g>
		<path style="fill:#37BE70;" d="M124,636.128l36-48l36,48l-36,48L124,636.128z"/>
	</g>
	<g>
		<path class="spark4" style="fill:#FFFFFF;" d="M75.625,650.297l-0.039,0.039c0.019,0.067,0.038,0.134,0.057,0.201
			c0.014-0.059,0.029-0.119,0.044-0.178L75.625,650.297L75.625,650.297z M75.682,659.87c-1.754,7.796-7.772,13.926-15.535,15.822
			c7.675,1.908,13.631,7.957,15.42,15.66c1.755-7.795,7.774-13.924,15.536-15.819C83.428,673.626,77.471,667.575,75.682,659.87
			L75.682,659.87z M75.608,700.692c-0.027,0.111-0.054,0.222-0.083,0.332l0.1,0.1l0.083-0.083
			C75.674,700.925,75.641,700.809,75.608,700.692z"/>
		<path class="spark3" style="fill:#FFFFFF;" d="M59.855,631.336c-1.754,7.796-7.772,13.926-15.535,15.822c7.675,1.908,13.631,7.957,15.42,15.66
			c1.755-7.795,7.774-13.924,15.536-15.819C67.601,645.092,61.643,639.041,59.855,631.336L59.855,631.336z"/>
	</g>
	<g>
		<path style="fill:#32A964;" d="M224.253,680.564l-88.002,80l56.322,73.219l117.859-153.219H224.253L224.253,680.564z"/>
		<path style="fill:#33995E;" d="M224.253,680.564l-88.002,80l45.1,58.629L232,684.129l19.604-3.564H224.253L224.253,680.564z"/>
		<path style="fill:#15D0E2;" d="M149.203,753.795l88-80h144l88,80l-160,208L149.203,753.795z"/>
		<path style="fill:#0EEAFF;" d="M149.203,753.795l88,16l72,192L149.203,753.795z"/>
		<path style="fill:#13BDCD;" d="M237.203,673.795l72,96l72-96H237.203z"/>
		<g>
			<path style="fill:#0EEAFF;" d="M469.203,753.795l-88,16l-72,192L469.203,753.795z"/>
			<path style="fill:#0EEAFF;" d="M381.203,769.795l-36-48l-36,48H381.203z"/>
			<path style="fill:#0EEAFF;" d="M309.203,769.795l-36-48l-36,48H309.203z"/>
		</g>
		<path style="fill:#1AE0F3;" d="M273.203,721.795l36-48l36,48l-36,48L273.203,721.795z"/>
	</g>
	<g>
		<path class="spark2" style="fill:#FFFFFF;" d="M224.829,735.963l-0.039,0.039c0.019,0.067,0.038,0.134,0.057,0.201
			c0.014-0.059,0.029-0.119,0.044-0.178l-0.061-0.061L224.829,735.963z M224.886,745.537c-1.754,7.796-7.772,13.926-15.535,15.822
			c7.675,1.908,13.631,7.957,15.42,15.66c1.755-7.795,7.774-13.924,15.536-15.819C232.632,759.293,226.674,753.242,224.886,745.537
			L224.886,745.537z M224.812,786.359c-0.027,0.111-0.054,0.222-0.083,0.332l0.1,0.1l0.083-0.083
			C224.878,786.591,224.844,786.475,224.812,786.359z"/>
		<path class="spark1" style="fill:#FFFFFF;" d="M209.059,717.003c-1.754,7.796-7.772,13.926-15.535,15.822c7.675,1.908,13.631,7.957,15.42,15.66
			c1.755-7.795,7.774-13.924,15.536-15.819C216.804,730.758,210.847,724.707,209.059,717.003L209.059,717.003z"/>
	</g>
</g>
<g>
</g>
<g>
</g>
<g>
</g>
<g>
</g>
<g>
</g>
<g>
</g>
<g>
</g>
<g>
</g>
<g>
</g>
<g>
</g>
<g>
</g>
<g>
</g>
<g>
</g>
<g>
</g>
<g>
</g>
</svg>
