<?xml version="1.0" encoding="UTF-8" standalone="no"?>
<svg
   xmlns:osb="http://www.openswatchbook.org/uri/2009/osb"
   xmlns:dc="http://purl.org/dc/elements/1.1/"
   xmlns:cc="http://creativecommons.org/ns#"
   xmlns:rdf="http://www.w3.org/1999/02/22-rdf-syntax-ns#"
   xmlns:svg="http://www.w3.org/2000/svg"
   xmlns="http://www.w3.org/2000/svg"
   xmlns:xlink="http://www.w3.org/1999/xlink"
   xmlns:sodipodi="http://sodipodi.sourceforge.net/DTD/sodipodi-0.dtd"
   xmlns:inkscape="http://www.inkscape.org/namespaces/inkscape"
   inkscape:version="1.0 (4035a4fb49, 2020-05-01)"
   sodipodi:docname="magic-ball.svg"
   version="1.1"
   width="512"
   viewBox="0 0 497 497"
   height="512"
   enable-background="new 0 0 497 497"
   id="Capa_1">
  <metadata
     id="metadata29">
    <rdf:RDF>
      <cc:Work
         rdf:about="">
        <dc:format>image/svg+xml</dc:format>
        <dc:type
           rdf:resource="http://purl.org/dc/dcmitype/StillImage" />
      </cc:Work>
    </rdf:RDF>
  </metadata>
  <defs
     id="defs27">
    <linearGradient
       inkscape:collect="always"
       id="linearGradient2932">
      <stop
         style="stop-color:#ff82ff;stop-opacity:1"
         offset="0"
         id="stop2928" />
      <stop
         style="stop-color:#07ff83;stop-opacity:0"
         offset="1"
         id="stop2930" />
    </linearGradient>
    <linearGradient
       id="linearGradient2922"
       inkscape:collect="always">
      <stop
         id="stop2918"
         offset="0"
         style="stop-color:#ff82ff;stop-opacity:1" />
      <stop
         id="stop2920"
         offset="1"
         style="stop-color:#07ff83;stop-opacity:0" />
    </linearGradient>
    <linearGradient
       osb:paint="solid"
       id="linearGradient2912">
      <stop
         id="stop2910"
         offset="0"
         style="stop-color:#ff00ff;stop-opacity:1;" />
    </linearGradient>
    <linearGradient
       gradientUnits="userSpaceOnUse"
       y2="464.01025"
       x2="406.33911"
       y1="54.825127"
       x1="118.96432"
       id="linearGradient2924"
       xlink:href="#linearGradient2922"
       inkscape:collect="always" />
    <linearGradient
       gradientUnits="userSpaceOnUse"
       y2="464.01025"
       x2="406.33911"
       y1="54.825127"
       x1="118.96432"
       id="linearGradient2926"
       xlink:href="#linearGradient2932"
       inkscape:collect="always" />
  </defs>
  <sodipodi:namedview
     inkscape:current-layer="Capa_1"
     inkscape:window-maximized="1"
     inkscape:window-y="0"
     inkscape:window-x="0"
     inkscape:cy="165.21814"
     inkscape:cx="188.34073"
     inkscape:zoom="2.3008592"
     showgrid="false"
     id="namedview25"
     inkscape:window-height="1009"
     inkscape:window-width="1920"
     inkscape:pageshadow="2"
     inkscape:pageopacity="0"
     guidetolerance="10"
     gridtolerance="10"
     objecttolerance="10"
     borderopacity="1"
     bordercolor="#666666"
     pagecolor="#ffffff" />
  <g
     id="g22">
    <path
       style="fill-opacity:1;opacity:1;fill-rule:nonzero;fill:url(#linearGradient2926)"
       id="path2"
       fill="#e592d0"
       d="m125.384 365.547c-48.85-37.171-80.384-95.927-80.384-162.047 0-112.39 91.11-203.5 203.5-203.5s203.5 91.11 203.5 203.5c0 66.02-31.439 124.697-80.162 161.877l-122.838 10.085z" />
    <path
       style="fill-opacity:1;opacity:1;fill-rule:nonzero;fill:url(#linearGradient2924)"
       id="path4"
       fill="#e172c1"
       d="m406.62 331.62c-10.21 12.58-21.89 23.92-34.78 33.76l-122.84 10.08-123.62-9.91c-48.85-37.17-80.38-95.93-80.38-162.05 0-63.83 29.39-120.8 75.38-158.12-28.37 34.98-45.38 79.56-45.38 128.12 0 61.175 26.99 116.05 69.717 153.354 6.443 5.625 14.541 9.007 23.067 9.69l6.918.555c69.418 5.565 139.173 5.499 208.581-.196l18.557-1.523c1.61-1.23 3.2-2.48 4.78-3.76z" />
    <path
       id="path6"
       fill="#365f7e"
       d="m130 365h238c11.046 0 20 8.954 20 20v46l-137.436 10-140.564-10v-46c0-11.046 8.954-20 20-20z" />
    <path
       id="path8"
       fill="#365f7e"
       d="m100 431h298c11.046 0 20 8.954 20 20v36c0 5.523-4.477 10-10 10h-318c-5.523 0-10-4.477-10-10v-36c0-11.046 8.954-20 20-20z" />
    <path
       id="path10"
       fill="#2c4d66"
       d="m100 487v-31c0-2.761 2.239-5 5-5h313c0-11.05-8.95-20-20-20h-278-20c-11.046 0-20 8.954-20 20v36c0 5.523 4.477 10 10 10h20c-5.52 0-10-4.48-10-10z" />
    <path
       id="path12"
       fill="#f8e837"
       d="m302.603 67.618 13.371 22.429c.719 1.206 1.912 2.055 3.288 2.337l25.577 5.257c3.754.772 5.28 5.307 2.755 8.191l-17.2 19.647c-.925 1.057-1.363 2.454-1.207 3.85l2.904 25.95c.426 3.809-3.416 6.662-6.939 5.152l-24.001-10.286c-1.291-.553-2.755-.538-4.034.042l-23.783 10.781c-3.491 1.583-7.391-1.19-7.044-5.007l2.366-26.005c.127-1.399-.34-2.786-1.286-3.824l-17.603-19.287c-2.584-2.831-1.152-7.397 2.585-8.246l25.463-5.785c1.37-.311 2.545-1.184 3.239-2.405l12.904-22.701c1.897-3.333 6.682-3.382 8.645-.09z" />
    <path
       id="path14"
       fill="#f3d332"
       d="m284.14 124.73-2.74 32.59-8.06 3.65c-3.49 1.58-7.39-1.19-7.05-5.01l2.37-26c.13-1.4-.34-2.79-1.29-3.83l-17.6-19.28c-2.58-2.84-1.15-7.4 2.59-8.25l8.64-1.96 21.81 24.12c.98 1.08 1.46 2.52 1.33 3.97z" />
    <path
       id="path16"
       fill="#f8e837"
       d="m214.243 166.173 9.216 15.46c.496.831 1.318 1.416 2.266 1.611l17.63 3.623c2.588.532 3.639 3.658 1.899 5.646l-11.855 13.542c-.638.728-.94 1.691-.832 2.653l2.002 17.886c.294 2.626-2.354 4.592-4.783 3.551l-16.543-7.09c-.89-.381-1.899-.371-2.781.029l-16.392 7.431c-2.406 1.091-5.094-.82-4.855-3.451l1.631-17.924c.088-.964-.234-1.921-.887-2.636l-12.133-13.294c-1.781-1.951-.794-5.099 1.782-5.684l17.551-3.988c.944-.214 1.754-.816 2.233-1.658l8.894-15.647c1.306-2.295 4.604-2.329 5.957-.06z" />
    <path
       id="path18"
       fill="#f3d332"
       d="m202.5 204.58-1.75 22.91-6.68 3.03c-2.41 1.09-5.09-.82-4.85-3.46l1.63-17.92c.08-.96-.24-1.92-.89-2.64l-12.13-13.29c-1.78-1.95-.8-5.1 1.78-5.68l7.56-1.72 14.36 15.9c.71.78 1.06 1.82.97 2.87z" />
    <path
       id="path20"
       fill="#2c4d66"
       d="m150 365c-11.05 0-20 8.95-20 20v46h-20v-46c0-11.05 8.95-20 20-20z" />
  </g>
</svg>
