<svg height="512" viewBox="0 0 512 512" width="512" xmlns="http://www.w3.org/2000/svg"><g id="flat"><g fill="#fbb540"><path d="m351.642 474.979a44.458 44.458 0 1 1 -59.981-65.52l53.244-46.067-4.038 37.438 83.133-51.277-49.615 72.839 26.908 7z"/><path d="m107.893 213.425a44.458 44.458 0 1 1 -59.981-65.52l53.244-46.066-4.038 37.438 78.882-43.277-45.364 64.839 26.908 7z"/><path d="m172.4 464a88 88 0 0 1 -120.8-128l97.255-89.155-7.467 37.334 83.284-64.179-5.744 44.65 149.072-104.65-135.287 177.312 55.097 4.688z"/></g><circle cx="112" cy="400" fill="#e82f3e" r="56"/><path d="m165.74 415.79a55.881 55.881 0 0 1 -14.53 24.19 16 16 0 1 1 14.53-24.19z" fill="#e82f3e"/><circle cx="96" cy="408" fill="#d32b39" r="16"/><path d="m165.74 415.79a55.881 55.881 0 0 1 -14.53 24.19 16 16 0 1 1 14.53-24.19z" fill="#d32b39"/><path d="m104 400a8 8 0 0 1 -5.657-13.657l16-16a8 8 0 0 1 11.314 11.314l-16 16a7.974 7.974 0 0 1 -5.657 2.343z" fill="#fbd59b"/><path d="m160 416a8 8 0 0 1 -5.657-13.657l48-48a8 8 0 1 1 11.314 11.314l-48 48a7.974 7.974 0 0 1 -5.657 2.343z" fill="#fbd59b"/><path d="m112 360a8 8 0 0 1 -5.657-13.657l48-48a8 8 0 1 1 11.314 11.314l-48 48a7.974 7.974 0 0 1 -5.657 2.343z" fill="#fbd59b"/><path d="m290.65 322.651a8 8 0 0 1 -5.758-13.552l51.082-53a8 8 0 1 1 11.519 11.1l-51.082 53a7.974 7.974 0 0 1 -5.761 2.452z" fill="#d18d28"/><path d="m252.607 204.161a8 8 0 0 1 -5.549-13.763l29.23-28.147a8 8 0 1 1 11.1 11.525l-29.231 28.148a7.972 7.972 0 0 1 -5.55 2.237z" fill="#e82f3e"/><path d="m178.651 344a8 8 0 0 1 -5.657-13.657l29.349-29.349a8 8 0 1 1 11.314 11.314l-29.348 29.349a7.978 7.978 0 0 1 -5.658 2.343z" fill="#fbd59b"/><circle cx="76.457" cy="181.989" fill="#d32b39" r="21.989"/><circle cx="320.151" cy="443.543" fill="#e82f3e" r="19.543"/><path d="m406.4 320a8 8 0 0 1 -5.126-14.146l9.6-8a8 8 0 0 1 10.244 12.292l-9.6 8a7.971 7.971 0 0 1 -5.118 1.854z" fill="#d18d28"/><path d="m464 368a8 8 0 0 1 -5.126-14.146l9.6-8a8 8 0 0 1 10.244 12.292l-9.6 8a7.971 7.971 0 0 1 -5.118 1.854z" fill="#fbb540"/><path d="m432 400a8 8 0 0 1 -5.126-14.146l9.6-8a8 8 0 0 1 10.244 12.292l-9.6 8a7.971 7.971 0 0 1 -5.118 1.854z" fill="#d18d28"/><path d="m368 352a8 8 0 0 1 -5.125-14.146l16-13.333a8 8 0 1 1 10.242 12.291l-16 13.334a7.966 7.966 0 0 1 -5.117 1.854z" fill="#fbb540"/><path d="m480 304a8 8 0 0 1 -5.657-13.657l8-8a8 8 0 0 1 11.314 11.314l-8 8a7.974 7.974 0 0 1 -5.657 2.343z" fill="#fbb540"/><path d="m408 208a8 8 0 0 1 -5.657-13.657l8-8a8 8 0 0 1 11.314 11.314l-8 8a7.974 7.974 0 0 1 -5.657 2.343z" fill="#d18d28"/><path d="m320 144a8 8 0 0 1 -5.657-13.657l8-8a8 8 0 1 1 11.314 11.314l-8 8a7.974 7.974 0 0 1 -5.657 2.343z" fill="#d18d28"/><path d="m448 336a8 8 0 0 1 -5.657-13.657l16-16a8 8 0 0 1 11.314 11.314l-16 16a7.974 7.974 0 0 1 -5.657 2.343z" fill="#e82f3e"/><path d="m368 248a8 8 0 0 1 -5.657-13.657l16-16a8 8 0 0 1 11.314 11.314l-16 16a7.974 7.974 0 0 1 -5.657 2.343z" fill="#fbb540"/><path d="m224 112a8 8 0 0 1 -5.657-13.657l8-8a8 8 0 0 1 11.314 11.314l-8 8a7.974 7.974 0 0 1 -5.657 2.343z" fill="#e82f3e"/><path d="m184 152a8 8 0 0 1 -5.657-13.657l16-16a8 8 0 1 1 11.314 11.314l-16 16a7.974 7.974 0 0 1 -5.657 2.343z" fill="#d18d28"/><path d="m237.337 48a8 8 0 0 1 -5.21-14.074l18.667-16a8 8 0 1 1 10.412 12.148l-18.667 16a7.967 7.967 0 0 1 -5.202 1.926z" fill="#d18d28"/><path d="m200 80a8 8 0 0 1 -5.21-14.074l16-13.715a8 8 0 0 1 10.416 12.149l-16 13.714a7.967 7.967 0 0 1 -5.206 1.926z" fill="#fbb540"/><path d="m156.574 56a8 8 0 0 1 -5.27-14.021l27.428-24a8 8 0 1 1 10.536 12.042l-27.429 24a7.972 7.972 0 0 1 -5.265 1.979z" fill="#d18d28"/><path d="m120 88a8 8 0 0 1 -5.271-14.021l18.287-16a8 8 0 0 1 10.535 12.042l-18.286 16a7.967 7.967 0 0 1 -5.265 1.979z" fill="#e82f3e"/><path d="m436.447 104a8 8 0 0 1 -5.354-13.946l35.555-32a8 8 0 1 1 10.7 11.892l-35.556 32a7.968 7.968 0 0 1 -5.345 2.054z" fill="#fbb540"/><path d="m392 144a8 8 0 0 1 -5.355-13.946l17.778-16a8 8 0 1 1 10.7 11.892l-17.777 16a7.972 7.972 0 0 1 -5.346 2.054z" fill="#e82f3e"/></g></svg>