<svg id="Layer_1" enable-background="new 0 0 497 497" height="512" viewBox="0 0 497 497" width="512" xmlns="http://www.w3.org/2000/svg"><g><g><path d="m285.527 53.194h-73.156v-35.563c0-9.738 7.894-17.631 17.631-17.631h37.894c9.737 0 17.631 7.893 17.631 17.631z" fill="#7d889e"/><g><path d="m287.354 169.905v-60.49h-76.81v60.49c0 2.704-1.808 5.076-4.419 5.78-69.698 18.791-120.985 82.328-120.985 157.83.001 90.29 73.34 163.485 163.809 163.485s163.808-73.195 163.808-163.486c0-75.502-51.287-139.039-120.985-157.83-2.61-.704-4.418-3.076-4.418-5.779z" fill="#cedff8"/><path d="m291.773 175.684c-2.61-.704-4.419-3.076-4.419-5.78v-60.49h-40v60.49c0 2.704 1.808 5.076 4.419 5.78 69.698 18.791 120.985 82.328 120.985 157.83 0 83.533-62.774 152.425-143.808 162.271 6.556.797 13.229 1.215 20 1.215 90.469 0 163.808-73.195 163.808-163.486-.001-75.501-51.288-139.039-120.985-157.83z" fill="#c0d3f0"/><path d="m299.05 109.414h-100.202c-6.093 0-11.033-4.94-11.033-11.033v-33.916c0-6.093 4.94-11.033 11.033-11.033h100.202c6.093 0 11.033 4.94 11.033 11.033v33.917c0 6.093-4.939 11.032-11.033 11.032z" fill="#a1b2ca"/><path d="m299.05 53.432h-40c6.093 0 11.033 4.94 11.033 11.033v33.917c0 6.093-4.94 11.033-11.033 11.033h40c6.093 0 11.033-4.939 11.033-11.033v-33.917c0-6.093-4.939-11.033-11.033-11.033z" fill="#94a7c5"/><g><g><path d="m120.357 296.425c-3.407 11.779-5.234 24.227-5.234 37.102 0 73.764 59.916 133.562 133.826 133.562s133.826-59.798 133.826-133.562c0-12.875-1.828-25.323-5.234-37.102z" fill="#d65bf5"/></g><g fill="#edb0ff"><ellipse cx="169.543" cy="365.713" rx="16.649" ry="16.616"/><ellipse cx="287.086" cy="400.641" rx="25.994" ry="25.943"/><ellipse cx="336.291" cy="342.794" rx="16.649" ry="16.616"/></g></g></g></g><g fill="#ffcc57"><path d="m397.49 72.317 15.356 40.734 40.733 15.356-40.733 15.356-15.356 40.734-15.356-40.734-40.734-15.356 40.734-15.356z"/><path d="m138.577 163.607 13.993 37.12 37.12 13.994-37.12 13.993-13.993 37.12-13.994-37.12-37.12-13.993 37.12-13.994z"/><path d="m84.005 41.643 11.111 29.473 29.474 11.111-29.474 11.112-11.111 29.473-11.111-29.473-29.474-11.112 29.474-11.111z"/></g></g></svg>