<?xml version="1.0" encoding="iso-8859-1"?>
<!-- Generator: Adobe Illustrator 19.0.0, SVG Export Plug-In . SVG Version: 6.00 Build 0)  -->
<svg version="1.1" id="Capa_1" xmlns="http://www.w3.org/2000/svg" xmlns:xlink="http://www.w3.org/1999/xlink" x="0px" y="0px"
	 viewBox="0 0 498.4 498.4" style="enable-background:new 0 0 498.4 498.4;" xml:space="preserve">
<g>
	<path style="fill:#FEE218;" d="M70.976,124.008c0-30.416-18.592-49.024-49.024-49.024c30.432,0,49.024-18.592,49.024-49.024
		c0,30.432,18.592,49.024,49.024,49.024C89.568,75,70.976,93.592,70.976,124.008z"/>
	<path style="fill:#FEE218;" d="M29.904,70.936c0-18.56-11.344-29.904-29.904-29.904c18.56,0,29.904-11.344,29.904-29.904
		c0,18.56,11.344,29.904,29.904,29.904C41.248,41.032,29.904,52.376,29.904,70.936z"/>
</g>
<polygon style="fill:#3789C9;" points="251.84,487.272 498.4,210.44 5.296,210.44 "/>
<polygon style="fill:#4B9FD8;" points="251.84,487.272 374.848,210.44 128.848,210.44 "/>
<polygon style="fill:#2B71B8;" points="93.456,111.448 5.296,210.44 498.4,210.44 410.24,111.448 "/>
<polygon style="fill:#3789C9;" points="93.456,111.448 128.848,210.44 251.84,111.448 374.848,210.44 410.24,111.448 "/>
<g style="opacity:0.3;">
	<path style="fill:#FFFFFF;" d="M415.056,260.072c-6.608-5.856-16.72-5.248-22.592,1.376l-50.432,56.944
		c-5.856,6.624-5.248,16.72,1.376,22.592c6.608,5.856,16.72,5.248,22.592-1.376l50.432-56.944
		C422.288,276.04,421.664,265.928,415.056,260.072z"/>
	<path style="fill:#FFFFFF;" d="M447.344,223.608c-6.608-5.856-16.72-5.248-22.592,1.376l-4.176,4.72
		c-5.872,6.624-5.248,16.736,1.376,22.592c6.608,5.856,16.72,5.248,22.592-1.376l4.176-4.72
		C454.576,239.576,453.968,229.464,447.344,223.608z"/>
</g>
<g style="opacity:0.2;">
	<circle style="fill:#FFFFFF;" cx="128.848" cy="210.44" r="50.992"/>
</g>
<path style="fill:#FEE218;" d="M410.24,160.456c0-30.416-18.592-49.024-49.024-49.024c30.432,0,49.024-18.592,49.024-49.024
	c0,30.432,18.592,49.024,49.024,49.024C428.832,111.448,410.24,130.04,410.24,160.456z"/>
<g>
</g>
<g>
</g>
<g>
</g>
<g>
</g>
<g>
</g>
<g>
</g>
<g>
</g>
<g>
</g>
<g>
</g>
<g>
</g>
<g>
</g>
<g>
</g>
<g>
</g>
<g>
</g>
<g>
</g>
</svg>
