<?xml version="1.0" encoding="iso-8859-1"?>
<!-- Generator: Adobe Illustrator 19.0.0, SVG Export Plug-In . SVG Version: 6.00 Build 0)  -->
<svg version="1.1" id="Capa_1" xmlns="http://www.w3.org/2000/svg" xmlns:xlink="http://www.w3.org/1999/xlink" x="0px" y="0px"
	 viewBox="0 0 512 512" style="enable-background:new 0 0 512 512;" xml:space="preserve">
<path style="fill:#FCBF29;" d="M244.703,506.812L34.651,266.752c-8.481-9.701-1.536-24.879,11.297-24.879h129.934
	c6.462,0,12.191,4.132,14.228,10.257l80.118,240.06C275.384,507.559,255.53,519.147,244.703,506.812z"/>
<path style="fill:#FE9923;" d="M241.772,492.188l80.118-240.06c2.037-6.125,7.766-10.257,14.228-10.257h129.934
	c12.833,0,19.778,15.178,11.297,24.879l-210.053,240.06C256.506,519.105,236.591,507.633,241.772,492.188z"/>
<path style="fill:#FED42D;" d="M336.119,241.873H175.88c-10.204,0-17.405,10.202-14.105,19.804l80.121,240.06
	c2.099,6.603,8.101,10.204,14.103,10.204s12.004-3.601,14.103-10.204C347.522,269.779,366.126,241.873,336.119,241.873z"/>
<path style="fill:#FEA832;" d="M270.102,501.736c-2.099,6.603-8.101,10.204-14.103,10.204V241.872h80.119
	C366.126,241.873,347.522,269.779,270.102,501.736z"/>
<path style="fill:#FED42D;" d="M190.283,252.374l-40.211-120.13c-1.5-5.1-6.301-9.002-11.702-9.901
	c-5.401-0.901-11.103,1.199-14.405,5.701l-90.023,119.83c-2.4,3.301-3.301,7.202-2.7,10.803h159.34
	C191.185,256.575,190.884,254.475,190.283,252.374z"/>
<path style="fill:#FEA832;" d="M478.055,247.874l-90.023-119.83c-3.302-4.502-8.703-6.603-14.405-5.701
	c-5.401,0.899-10.202,4.8-11.702,9.901l-36.91,110.528c-1.5,4.802,0,10.504,3.301,15.905h152.439
	C481.356,255.076,480.455,251.175,478.055,247.874z"/>
<path style="fill:#FCBF29;" d="M269.503,130.444c-0.3-0.899-0.901-1.8-1.5-2.4l-0.901-1.201c-3-3-6.901-4.8-11.103-4.8h-120.03
	c-4.8,0-9.302,2.4-12.302,6.301c-2.702,3.901-3.603,9.003-1.8,13.503l36.908,110.528c0.899,2.702,2.402,4.802,4.201,6.303h20.104
	c0.601-0.601,1.199-1.201,1.8-2.101l71.118-94.625l12.004-15.903C271.304,141.545,271.905,135.546,269.503,130.444z"/>
<path style="fill:#FE9923;" d="M388.332,128.342c-3-3.901-7.502-6.301-12.302-6.301H256c-4.201,0-8.103,1.8-11.103,4.8l-0.901,1.201
	c-0.599,0.599-1.199,1.5-1.5,2.4c-2.402,5.102-1.8,11.103,1.5,15.605L256,161.951l71.118,94.625c0.601,0.899,1.199,1.5,1.8,2.101
	h20.104c1.8-1.5,3.302-3.601,4.201-6.303c0,0,0.3-0.3,0.3-0.601l36.608-109.926C391.935,137.346,391.034,132.244,388.332,128.342z"
	/>
<path style="fill:#FEA832;" d="M351.123,238.572l-83.12-110.528l-0.901-1.201l-3.601-4.8h-15.004l-3.601,4.8l-0.901,1.201
	c-80.119,106.527-89.421,109.326-85.22,124.33c0.3,1.8,1.199,3.901,1.8,6.303h191.148c0.899-1.8,1.5-4.201,1.5-6.303
	c0,0,0.3-0.3,0.3-0.601C354.426,246.673,353.524,241.873,351.123,238.572z"/>
<g>
	<path style="fill:#4DBBEB;" d="M271.004,15.216v60.015c0,9.903-7.502,15.004-15.004,15.004c-7.502,0-15.004-5.1-15.004-15.004
		V15.216c0-9.903,7.502-15.004,15.004-15.004C263.502,0.212,271.004,5.312,271.004,15.216z"/>
	<path style="fill:#4DBBEB;" d="M155.369,85.839L95.354,25.824c-13.948-13.948,7.153-35.28,21.216-21.216l60.015,60.015
		C190.535,78.572,169.433,99.902,155.369,85.839z"/>
</g>
<g>
	<path style="fill:#159CE4;" d="M335.414,64.622l60.015-60.015c13.948-13.948,35.28,7.153,21.216,21.216L356.63,85.839
		C342.681,99.788,321.35,78.687,335.414,64.622z"/>
	<path style="fill:#159CE4;" d="M256,90.235V0.212c7.502,0,15.004,5.1,15.004,15.004v60.015
		C271.004,85.133,263.502,90.235,256,90.235z"/>
</g>
<path style="fill:#FCBF29;" d="M353.524,251.773c0,0.3-0.3,0.601-0.3,0.601c0,2.101-0.601,4.502-1.5,6.303H256V122.043h7.502
	l3.601,4.8l0.901,1.201l83.12,110.528C353.524,241.873,354.426,246.673,353.524,251.773z"/>
<g>
</g>
<g>
</g>
<g>
</g>
<g>
</g>
<g>
</g>
<g>
</g>
<g>
</g>
<g>
</g>
<g>
</g>
<g>
</g>
<g>
</g>
<g>
</g>
<g>
</g>
<g>
</g>
<g>
</g>
</svg>
