<?xml version="1.0" encoding="UTF-8" standalone="no"?>
<svg
   xmlns:dc="http://purl.org/dc/elements/1.1/"
   xmlns:cc="http://creativecommons.org/ns#"
   xmlns:rdf="http://www.w3.org/1999/02/22-rdf-syntax-ns#"
   xmlns:svg="http://www.w3.org/2000/svg"
   xmlns="http://www.w3.org/2000/svg"
   xmlns:sodipodi="http://sodipodi.sourceforge.net/DTD/sodipodi-0.dtd"
   xmlns:inkscape="http://www.inkscape.org/namespaces/inkscape"
   inkscape:version="1.0 (4035a4fb49, 2020-05-01)"
   sodipodi:docname="wizard.svg"
   version="1.1"
   width="512"
   viewBox="0 0 512 512"
   height="512"
   enable-background="new 0 0 512 512"
   id="Capa_1">
  <metadata
     id="metadata85">
    <rdf:RDF>
      <cc:Work
         rdf:about="">
        <dc:format>image/svg+xml</dc:format>
        <dc:type
           rdf:resource="http://purl.org/dc/dcmitype/StillImage" />
      </cc:Work>
    </rdf:RDF>
  </metadata>
  <defs
     id="defs83" />
  <sodipodi:namedview
     inkscape:current-layer="Capa_1"
     inkscape:window-maximized="1"
     inkscape:window-y="0"
     inkscape:window-x="0"
     inkscape:cy="248.65345"
     inkscape:cx="32.50981"
     inkscape:zoom="1.1504296"
     showgrid="false"
     id="namedview81"
     inkscape:window-height="1009"
     inkscape:window-width="1920"
     inkscape:pageshadow="2"
     inkscape:pageopacity="0"
     guidetolerance="10"
     gridtolerance="10"
     objecttolerance="10"
     borderopacity="1"
     bordercolor="#666666"
     pagecolor="#ffffff" />
  <g
     id="g78">
    <g
       id="g4" />
    <g
       id="g8">
      <path
         id="path6"
         fill="#30144a"
         d="m380.66 167.228c-23.134 20.585-58.723 37.606-124.66 37.606s-101.526-17.021-124.66-37.606c-51.234-45.589-54.638 11.432-28.319 58.705 21.031 37.775 80.021 76.913 152.978 76.913s131.947-39.139 152.978-76.913c26.321-47.273 22.917-104.295-28.317-58.705z" />
    </g>
    <g
       id="g12">
      <path
         id="path10"
         fill="#bec8f7"
         d="m386.66 281.298c11.234-18.894-43.83-111.865-43.83-111.865h-86.83-86.83s-55.064 92.972-43.83 111.865c11.234 18.894-51.064 44.992-19.915 83.007h150.575 150.574c31.149-38.015-31.148-64.114-19.914-83.007z" />
    </g>
    <g
       id="g16">
      <path
         id="path14"
         fill="#f9ba8f"
         d="m330.075 183.668s8.897-21.662 24.756-16.633-.383 51.97-31.332 54.928z" />
    </g>
    <g
       id="g20">
      <path
         id="path18"
         fill="#fcad6d"
         d="m181.925 183.668s-8.897-21.662-24.756-16.633.383 51.97 31.332 54.928z" />
    </g>
    <g
       id="g24">
      <path
         id="path22"
         fill="#665364"
         d="m446.662 426.814c-9.708-28.375-20.614-54.825-29.662-62.814-22-19.425-117.305-35.119-117.305-35.119h-43.695-43.695s-95.305 15.694-117.305 35.119c-9.048 7.989-19.954 34.439-29.662 62.814 46.87 52.282 114.919 85.186 190.662 85.186s143.792-32.904 190.662-85.186z" />
    </g>
    <g
       id="g28">
      <path
         id="path26"
         fill="#543e5b"
         d="m387.648 475.567c-97.635-.011-131.648-50.607-131.648-50.607v-96.079h-43.695s-95.305 15.694-117.305 35.119c-9.048 7.989-19.954 34.439-29.662 62.814 46.87 52.282 114.919 85.186 190.662 85.186 48.15 0 93.18-13.313 131.648-36.433z" />
    </g>
    <g
       id="g32">
      <path
         id="path30"
         fill="#543e5b"
         d="m399.18 436.247-11.516 39.331c7.351-4.417 14.467-9.186 21.314-14.296v-23.629c0-5.78-8.174-6.953-9.798-1.406z" />
    </g>
    <g
       id="g36">
      <path
         id="path34"
         fill="#422953"
         d="m103.022 437.651v23.629c6.847 5.111 13.963 9.879 21.314 14.296l-11.516-39.331c-1.624-5.545-9.798-4.372-9.798 1.406z" />
    </g>
    <g
       id="g40">
      <path
         id="path38"
         fill="#f9d0b4"
         d="m337.249 184.456c0 59.83-36.377 129.999-81.249 129.999s-81.249-70.169-81.249-129.999z" />
    </g>
    <g
       id="g44">
      <path
         id="path42"
         fill="#f9ba8f"
         d="m222.24 184.456h-47.489c0 59.83 36.377 129.999 81.249 129.999 8.261 0 16.233-2.385 23.745-6.64-33.288-18.854-57.505-74.544-57.505-123.359z" />
    </g>
    <g
       id="g48">
      <path
         id="path46"
         fill="#e9efff"
         d="m342.83 169.433h-22.128c0 41.862-9.106 51.099-15.319 64.02s6.213 50.696-8.085 55.292c-14.298 4.595-20.426-15.907-41.298-15.907s-27 20.503-41.298 15.907-1.872-42.371-8.085-55.292-15.319-22.158-15.319-64.02h-22.128c0 65.966-24.681 99.099-18.17 116.461s17.714 5.635 18.751 22.988-10.228 29.097 0 43.395 21.462 7.149 24.526 26.553 30.511 46.13 61.723 46.13 58.66-26.726 61.723-46.13 14.298-12.255 24.526-26.553-1.037-26.042 0-43.395 12.24-5.626 18.751-22.988-18.17-50.496-18.17-116.461z" />
    </g>
    <g
       id="g52">
      <path
         id="path50"
         fill="#dae2fe"
         d="m169.17 169.433c0 65.966-24.681 99.099-18.17 116.461s17.714 5.635 18.751 22.988-10.228 29.097 0 43.395 21.462 7.149 24.526 26.553 30.511 46.13 61.723 46.13 58.66-26.726 61.723-46.13c-21.82 23.259-50.255 20.255-58.085-5.617-6.064-20.039-25.021-28.596-41.362-30.128-16.34-1.532-24-15.83-18.667-35.234s-16.567-25.532-24.859-38.809 5.739-69.447 6.249-99.61h-11.829z" />
    </g>
    <g
       id="g56">
      <path
         id="path54"
         fill="#422953"
         d="m256 10c46.021 0 131.298 103.736 120.574 114.532-10.723 10.796-120.574-36.766-120.574-36.766z" />
    </g>
    <g
       id="g60">
      <path
         id="path58"
         fill="#543e5b"
         d="m256 10c-30.03 0-86.249 148.02-86.249 148.02h86.249 86.249s-56.219-148.02-86.249-148.02z" />
    </g>
    <g
       id="g64">
      <path
         id="path62"
         fill="#422953"
         d="m237.148 23.353c-30.07 36.394-67.398 134.667-67.398 134.667h86.25 86.249l-5.759-14.581c.001 0-115.508-96.201-99.342-120.086z" />
    </g>
    <g
       id="g68">
      <path
         id="path66"
         fill="#665364"
         d="m256 124.532c-44.673 0-88.277 30.19-141.666 30.19 4.945 2.712 10.602 6.807 17.006 12.506 23.134 20.585 58.723 37.606 124.66 37.606s101.526-17.021 124.66-37.606c6.404-5.699 12.061-9.794 17.006-12.506-53.389 0-96.993-30.19-141.666-30.19z" />
    </g>
    <g
       id="g72">
      <path
         id="path70"
         fill="#543e5b"
         d="m205.796 134.031c-28.427 8.851-58.025 20.691-91.462 20.691 4.945 2.712 10.602 6.807 17.006 12.506 23.134 20.585 58.723 37.606 124.66 37.606 33.987 0 59.896-4.53 80.207-11.732-87.29-.012-172.972-45.758-130.411-59.071z" />
    </g>
    <g
       id="g76">
      <path
         id="path74"
         fill="#e9efff"
         d="m275.4 222.094c-7.674-.808-13.132 2.269-16.266 4.852-1.815 1.496-4.454 1.496-6.269 0-3.133-2.583-8.592-5.66-16.266-4.852-7.966.839-24.306 15.545-35.465 26.484-3.554 3.484-.416 9.453 4.466 8.482 15.869-3.157 39.346-7.42 50.399-7.42s34.53 4.263 50.399 7.42c4.882.971 8.02-4.998 4.466-8.482-11.158-10.939-27.498-25.645-35.464-26.484z" />
    </g>
  </g>
</svg>
