<svg id="Capa_1" enable-background="new 0 0 512 512" height="512" viewBox="0 0 512 512" width="512" xmlns="http://www.w3.org/2000/svg"><g><g clip-rule="evenodd" fill-rule="evenodd"><path d="m163.009 512c16.327-59.103-29.962-166.765-143.547-178.188-2.296-.227-4.592-.454-6.945-.595-4.563-.255-7.03 2.522-2.834 6.576 1.474 1.417 2.919 2.863 4.337 4.28 56.324 55.928 83.168 97.655 91.219 147.829.538 3.345 1.021 6.718 1.361 10.148.68 7.285 5.244 9.95 10.856 9.95z" fill="#66b394"/><path d="m354.036 512c-16.356-59.103 29.934-166.765 143.518-178.188 2.296-.227 4.621-.454 6.973-.595 4.536-.255 7.002 2.522 2.807 6.576-1.474 1.417-2.892 2.863-4.337 4.28-56.325 55.928-83.141 97.655-91.191 147.829-.539 3.345-1.049 6.718-1.36 10.148-.708 7.285-5.272 9.95-10.857 9.95z" fill="#66b394"/><path d="m226.675 512c18.255-68.401 9.212-208.547-161.943-261.499-2.693-.822-5.216-1.616-7.994-2.381-4.564-1.247-6.718 1.587-3.912 5.585 2.041 2.919 3.798 5.499 5.783 8.334 84.274 122.373 89.235 159.025 104.4 249.962h63.666z" fill="#b3e59f"/><path d="m290.341 512c-18.227-68.401-9.185-208.547 161.972-261.499 2.664-.822 5.216-1.616 7.965-2.381 4.564-1.247 6.747 1.587 3.94 5.585-2.069 2.919-3.827 5.499-5.782 8.334-84.303 122.372-89.263 159.025-104.4 249.961z" fill="#b3e59f"/><path d="m419.46 186.068c4.563 11.197 2.324 24.492-6.747 33.562-12.076 12.076-31.663 12.076-43.711 0-4.422-4.422-7.228-9.836-8.419-15.534-21.004 1.672-52.27-9.156-52.27-34.129 0-28.545 41.527-34.13 71.858-23.188z" fill="#98e5fa"/><path d="m128.767 126.257c5.187 12.699 2.636 27.837-7.654 38.155-13.72 13.691-35.972 13.691-49.663 0-5.017-5.045-8.22-11.197-9.553-17.66-23.868 1.871-59.386-10.403-59.386-38.778 0-32.457 47.168-38.778 81.638-26.334z" fill="#fd91ba"/><path d="m419.46 186.068c11.168 4.592 24.491 2.324 33.562-6.747 12.076-12.076 12.076-31.635 0-43.711-4.422-4.422-9.836-7.228-15.534-8.39 1.644-21.033-9.156-52.271-34.129-52.271-28.544 0-34.129 41.528-23.187 71.831z" fill="#98e5fa"/><path d="m128.767 126.257c12.699 5.188 27.836 2.636 38.154-7.654 13.691-13.72 13.691-35.972 0-49.663-5.046-5.018-11.197-8.221-17.66-9.553 1.871-23.868-10.403-59.387-38.778-59.387-32.428 0-38.778 47.169-26.334 81.639z" fill="#fd91ba"/></g><path d="m424.76 180.768c2.919 2.948 2.919 7.682 0 10.602-2.92 2.949-7.682 2.949-10.602 0l-68.372-68.344h-16.384c-4.139 0-7.483-3.345-7.483-7.484 0-4.11 3.345-7.455 7.483-7.455h12.019v-12.076c0-4.139 3.374-7.483 7.512-7.483 4.139 0 7.484 3.345 7.484 7.483v16.441z" fill="#27a9cc"/><path d="m134.067 120.956c2.948 2.948 2.948 7.682 0 10.602-2.92 2.948-7.654 2.948-10.602 0l-77.952-77.954h-19.049c-4.139 0-7.484-3.345-7.484-7.455 0-4.139 3.345-7.483 7.484-7.483h14.683v-14.712c0-4.139 3.345-7.512 7.512-7.512 4.138 0 7.483 3.373 7.483 7.512v19.077z" fill="#fc636e"/><path clip-rule="evenodd" d="m226.675 512c-9.695-36.369-15.194-77.897-15.194-122.005 0-58.876 10.29-135.497 42.066-191.312 2.977-5.273 7.739-4.139 9.95 0 31.72 59.415 42.066 129.006 42.066 191.312 0 44.107-5.499 85.636-15.222 122.005z" fill="#d6f6b2" fill-rule="evenodd"/><path clip-rule="evenodd" d="m478.023 344.073c-56.353 55.928-83.168 97.655-91.219 147.829-.539 3.345-1.049 6.718-1.36 10.148-.709 7.285-5.244 9.95-10.857 9.95h25.001c5.585 0 10.148-2.665 10.857-9.95.312-3.43.822-6.803 1.36-10.148 8.05-50.174 34.866-91.901 91.191-147.829 1.445-1.417 2.863-2.863 4.337-4.28 4.195-4.054 1.729-6.832-2.807-6.576-2.353.142-4.677.368-6.973.595-4.478.454-8.844 1.049-13.096 1.786.199 1.105-.397 2.551-2.126 4.195-1.473 1.417-2.891 2.863-4.308 4.28z" fill="#5aa687" fill-rule="evenodd"/><path clip-rule="evenodd" d="m379.066 402.099c13.549-36.709 35.915-76.99 79.37-140.061 1.956-2.835 3.713-5.415 5.782-8.334 2.807-3.997.624-6.831-3.94-5.585-2.75.765-5.301 1.559-7.965 2.381-4.847 1.502-9.581 3.061-14.145 4.705-1.644 2.325-3.118 4.479-4.734 6.832-84.302 122.374-89.234 159.027-104.4 249.963h25.001c7.342-44.08 12.275-75.403 25.031-109.901z" fill="#95d6a4" fill-rule="evenodd"/><path clip-rule="evenodd" d="m290.341 512c9.723-36.369 15.222-77.897 15.222-122.005 0-8.135-.199-16.413-.567-24.747-2.495-55.56-13.918-114.918-41.499-166.565-2.211-4.139-6.973-5.273-9.95 0-2.721 4.762-5.301 9.694-7.71 14.769 25.994 55.956 34.725 119.34 34.725 176.543 0 44.107-5.5 85.636-15.222 122.005z" fill="#ccf49f" fill-rule="evenodd"/><path clip-rule="evenodd" d="m226.675 512c-9.695-36.369-15.194-77.897-15.194-122.005 0-7.937.17-16.186.595-24.69-5.924-11.906-13.238-23.669-22.195-34.923-2.381 20.807-3.401 41.075-3.401 59.613 0 44.107 5.499 85.636 15.193 122.005z" fill="#95d6a4" fill-rule="evenodd"/><path clip-rule="evenodd" d="m163.009 512c-7.37-44.08-12.303-75.403-25.059-109.901-11.253-16.214-25.937-31.068-44.079-42.804 28.346 54.794 33.902 91.447 44.135 152.705z" fill="#5aa687" fill-rule="evenodd"/><path clip-rule="evenodd" d="m428.02 135.611c12.076 12.076 12.076 31.635 0 43.711-.822.822-1.672 1.587-2.551 2.268 1.417 1.899 1.814 4.28 1.219 6.463 9.326 1.36 19.162-1.56 26.333-8.731 12.076-12.076 12.076-31.635 0-43.711-4.422-4.422-9.836-7.228-15.534-8.39 1.644-21.033-9.156-52.271-34.129-52.271-4.706 0-8.759 1.105-12.246 3.118 13.068 6.917 19.984 24.18 21.316 39.572.539 6.407-.085 8.731 6.605 11.707 3.261 1.474 6.323 3.572 8.987 6.264z" fill="#8bdef5" fill-rule="evenodd"/><path clip-rule="evenodd" d="m141.919 68.939c13.691 13.691 13.691 35.943 0 49.663-1.928 1.899-3.969 3.544-6.18 4.904.624 1.559.708 3.26.255 4.847 10.885 1.899 22.507-1.361 30.926-9.752 13.691-13.72 13.691-35.972 0-49.663-5.046-5.018-11.197-8.221-17.66-9.553 1.872-23.866-10.402-59.385-38.777-59.385-4.62 0-8.702.964-12.274 2.693 16.469 7.427 24.973 28.885 26.107 47.424.539 9.184.227 8.646 8.107 12.047 3.515 1.503 6.633 3.913 9.496 6.775z" fill="#f585b0" fill-rule="evenodd"/></g></svg>