<svg id="Capa_1" enable-background="new 0 0 512 512" height="512" viewBox="0 0 512 512" width="512" xmlns="http://www.w3.org/2000/svg"><g><path d="m493.512 164.603 6.944-14.466c3.748-7.808.457-17.175-7.35-20.923l-35.572-17.077c-7.807-3.748-17.175-.457-20.923 7.35l-.172.358z" fill="#b3e59f"/><path d="m488.2 175.668 5.312-11.066c-11.819-18.264-28.767-32.77-48.777-41.598-2.715-1.198-5.485-2.246-8.296-3.161l-7.871 16.396z" fill="#95d6a4"/><path d="m507.055 212.909c-9.297-32.204-32.384-58.117-62.32-71.323-11.912-5.255-24.854-7.766-37.874-7.766l-19.4-43.385c-11.635-26.02-37.476-42.772-65.979-42.772h-33.049c-27.335 0-52.324 15.443-64.549 39.892l-1.362 2.724c-11.978 23.954-36.462 39.085-63.244 39.085h-38.721c-53.267 0-99.571 34.335-115.948 83.545l269.778 9.29z" fill="#a6aec4"/><path d="m0 422.52c0 23.095 18.722 41.817 41.817 41.817h428.366c23.095 0 41.817-18.722 41.817-41.817v-174.372c0-5.576-.366-11.141-1.088-16.658h-510.912z" fill="#434d59"/><path d="m41.817 455.047h428.366c31.821 0 41.817-28.013 41.817-51.107v-155.792c0-5.576-.366-11.141-1.088-16.658h-510.912v172.45c0 23.095 11.039 51.107 41.817 51.107z" fill="#434d59"/><path d="m470.183 445.757h-428.366c-23.095 0-41.817-18.722-41.817-41.817v18.581c0 23.095 18.722 41.817 41.817 41.817h428.366c23.095 0 41.817-18.722 41.817-41.817v-18.581c0 23.095-18.722 41.817-41.817 41.817z" fill="#3b434d"/><path d="m507.055 212.909h-502.447c-1.992 5.986-3.543 12.19-4.608 18.581h510.912c-.71-5.425-1.765-10.805-3.165-16.106-.22-.83-.455-1.653-.692-2.475z" fill="#959db0"/><path d="m459.445 317.868s4.593 9.639 4.593 9.639c10.462 0 22.21-15.752 21.568-25.043-3.682-9.144-12.63-15.601-23.092-15.601-1.677 0-3.314.168-4.898.484l-7.339 18.344s9.168 12.177 9.168 12.177z" fill="#eceaec"/><g><path d="m462.514 318.064c-1.04 0-2.062-.072-3.069-.197 0 0-9.519 9.498-10.116 10.921l8.287 7.371c1.584.316 3.221.484 4.898.484 13.747 0 24.891-11.144 24.891-24.891 0-3.285-.642-6.419-1.799-9.29-3.683 9.145-12.631 15.602-23.092 15.602z" fill="#dad8db"/></g><path d="m154.69 302.464c0 78.369 71.145 152.583 152.294 152.583s152.294-71.647 152.294-152.583c-4.803-79.942-71.145-143.293-152.294-143.293-81.149-.001-147.491 63.351-152.294 143.293z" fill="#dad8db"/><path d="m459.568 311.754c0-3.121-.105-6.216-.29-9.29-4.803 79.942-71.145 143.293-152.294 143.293s-147.491-63.351-152.294-143.293c-.185 3.074-.29 6.17-.29 9.29 0 84.27 68.314 152.583 152.584 152.583s152.584-68.314 152.584-152.583z" fill="#c8c5c9"/><path d="m189.355 302.464c0 62.149 55.591 117.991 117.629 117.991s117.629-55.842 117.629-117.991c-4.737-60.822-55.591-108.702-117.629-108.702s-112.891 47.88-117.629 108.702z" fill="#434d59"/><path d="m424.975 311.754c0-3.127-.124-6.225-.363-9.29-4.738 60.822-55.59 108.701-117.629 108.701-62.038 0-112.891-47.879-117.629-108.701-.239 3.066-.363 6.163-.363 9.29 0 65.165 52.827 117.992 117.992 117.992 65.166-.001 117.992-52.827 117.992-117.992z" fill="#3b434d"/><path d="m268.442 302.464c0 22.793 19.846 39.648 38.542 39.648s38.542-21.753 38.542-39.648c-4.183-17.413-19.846-30.358-38.542-30.358s-34.36 12.944-38.542 30.358z" fill="#a6aec4"/><path d="m346.632 311.754c0-3.201-.389-6.309-1.105-9.29-4.183 17.413-19.846 30.357-38.542 30.357s-34.359-12.945-38.542-30.357c-.716 2.981-1.105 6.089-1.105 9.29 0 21.897 17.751 39.648 39.648 39.648 21.895 0 39.646-17.751 39.646-39.648z" fill="#959db0"/><path d="m93.378 193.902c13.506 0 17.08-12.47 17.08-19.44-3.296-6.047-9.708-10.15-17.08-10.15s-13.784 4.104-17.08 10.15c0 7.389 2.765 19.44 17.08 19.44z" fill="#edc963"/><path d="m341.673 116.311c4.285 0 7.757-3.473 7.757-7.757s-3.473-7.757-7.757-7.757h-78.205c-4.285 0-7.757 3.473-7.757 7.757s3.472 7.757 7.757 7.757z" fill="#434d59"/><path d="m112.818 183.752c0-3.365-.856-6.53-2.361-9.29-3.296 6.047-9.708 10.15-17.08 10.15-7.371 0-13.783-4.103-17.08-10.15-1.505 2.76-2.361 5.925-2.361 9.29 0 10.737 8.704 19.44 19.44 19.44 10.739.001 19.442-8.703 19.442-19.44z" fill="#e7b93e"/></g></svg>