<?xml version="1.0" encoding="iso-8859-1"?>
<!-- Generator: Adobe Illustrator 19.0.0, SVG Export Plug-In . SVG Version: 6.00 Build 0)  -->
<svg version="1.1" id="Capa_1" xmlns="http://www.w3.org/2000/svg" xmlns:xlink="http://www.w3.org/1999/xlink" x="0px" y="0px"
	 viewBox="0 0 512 512" style="enable-background:new 0 0 512 512;" xml:space="preserve">
<path style="fill:#5EAC24;" d="M255.334,124.602c-70.637,70.637-116.177,116.162-141.098,141.087
	c-3.808,3.808-10.208,2.485-12.288-2.485c-12.288-29.461-4.747-68.576,20.501-100.49
	C154.699,122.034,212.978,98.713,255.334,124.602z"/>
<path style="fill:#6DC82A;" d="M236.998,116.634c-70.267,70.248-62.696,62.69-98.581,98.57c-3.808,3.808-10.208,2.485-12.288-2.485
	c-6.229-14.923-7.36-32.32-3.68-50.005C154.678,122.061,202.12,107.024,236.998,116.634z"/>
<g>
	<path style="fill:#5EAC24;" d="M316.112,169.687C316.112,169.687,316.114,169.687,316.112,169.687
		C315.754,169.441,315.762,169.442,316.112,169.687z"/>
	<path style="fill:#5EAC24;" d="M428.08,234.318c-1.152,5.259-7.211,7.712-11.637,4.661
		c-124.391-85.902-49.511-34.2-164.191-113.397c6.709-6.133,15.04-11.019,24.501-14.347c27.754-9.76,65.29-6.197,100.426,18.059
		c12.181,8.416,22.453,18.347,30.581,29.109C425.786,182.212,433.36,210.052,428.08,234.318z"/>
	<path style="fill:#5EAC24;" d="M294.462,123.463c0.019,0.013,0.043,0.029,0.067,0.046l0.004,0.004
		c-0.044-0.03-0.076-0.052-0.103-0.071C294.441,123.45,294.452,123.456,294.462,123.463z"/>
</g>
<path style="fill:#6DC82A;" d="M407.76,158.404c-8.128-10.763-18.4-20.693-30.581-29.109
	c-35.136-24.256-72.672-27.818-100.426-18.059c6.388,4.409,114.321,78.949,119.071,82.229c4.427,3.051,10.485,0.597,11.637-4.661
	C409.573,179.087,409.627,168.783,407.76,158.404z"/>
<path style="fill:#5EAC24;" d="M258.086,122.767l-1.355-0.672h-0.011c-0.629-0.309-11.136-5.472-25.994-12.768
	c-38.218-18.773-105.194-51.669-106.645-52.373C90.258,40.346,81.426,36.005,79.474,35.045c0,0-0.021-0.011-0.107-0.053
	l-0.011-0.011l-0.053-0.021c-0.011-0.011-0.021-0.011-0.032-0.021c-0.053-0.021-0.149-0.064-0.16-0.075
	c-0.021-0.011-0.043-0.021-0.064-0.032c-0.011-0.011-0.021-0.011-0.032-0.011l-0.032-0.021c-4.821-2.368-5.632-8.864-1.611-12.427
	c2.507-2.219,5.141-4.245,7.872-6.091h0.011c54.581-36.821,150.815,0.149,171.188,68.448v0.011
	C260.219,97.359,260.977,110.18,258.086,122.767z"/>
<path style="fill:#6DC82A;" d="M230.726,109.327c-38.218-18.773-105.194-51.669-106.645-52.373
	C90.258,40.346,81.426,36.005,79.474,35.045c0,0-0.021-0.011-0.107-0.053l-0.011-0.011l-0.053-0.021
	c-0.011-0.011-0.021-0.011-0.032-0.021c-0.053-0.021-0.149-0.064-0.16-0.075c-0.021-0.011-0.043-0.021-0.064-0.032
	c-0.011-0.011-0.021-0.011-0.032-0.011l-0.032-0.021c-4.821-2.368-5.632-8.864-1.611-12.427c2.507-2.219,5.141-4.245,7.872-6.091
	h0.011c54.581-12.299,125.589,23.008,142.74,80.533v0.011C229.244,100.975,230.161,105.146,230.726,109.327z"/>
<path style="fill:#5EAC24;" d="M433.114,31.994c-0.309,0.16-1.451,0.736-3.317,1.696c-20.096,10.261-123.722,63.2-161.162,82.325
	c-7.253,3.701-12.021,6.144-13.216,6.752c-8.843-33.92,11.253-82.047,62.506-108.213c42.368-21.643,89.226-18.464,116.607,4.992
	C438.618,23.045,437.904,29.552,433.114,31.994z"/>
<path style="fill:#6DC82A;" d="M429.797,33.69c-20.096,10.261-123.722,63.2-161.162,82.325
	c5.792-27.733,26.464-57.312,62.805-75.861C365.467,22.768,402.395,21.402,429.797,33.69z"/>
<g>
	<path style="fill:#7ED63E;" d="M147.633,232.292l-11.328,11.328l-12.32-13.461c-2.987-3.264-2.763-8.32,0.501-11.307
		c3.253-2.987,8.309-2.763,11.296,0.501L147.633,232.292z"/>
	<path style="fill:#7ED63E;" d="M184.977,194.958l-11.317,11.307l-29.77-28.65c-3.179-3.061-3.275-8.128-0.213-11.307
		c3.061-3.189,8.128-3.285,11.307-0.213L184.977,194.958z"/>
	<path style="fill:#7ED63E;" d="M137.01,31.759l-12.832,25.237l-14.368-7.051l12.949-25.44c2.005-3.936,6.816-5.504,10.752-3.499
		C137.447,23.002,139.015,27.824,137.01,31.759z"/>
	<path style="fill:#7ED63E;" d="M191.665,57.391l-16.331,24.725l-14.475-7.104l17.461-26.443c2.432-3.691,7.392-4.704,11.083-2.261
		C193.095,48.741,194.108,53.701,191.665,57.391z"/>
	<path style="fill:#7ED63E;" d="M355.995,71.386l-14.251,7.285L326.15,48.517c-2.027-3.925-0.491-8.747,3.435-10.784
		c3.925-2.027,8.747-0.491,10.784,3.435L355.995,71.386z"/>
	<path style="fill:#7ED63E;" d="M399.717,49.05l-14.251,7.285l-10.016-21.237c-1.888-3.989-0.181-8.757,3.819-10.645
		c3.989-1.888,8.768-0.171,10.645,3.819L399.717,49.05z"/>
	<path style="fill:#7ED63E;" d="M374.725,168.217l-20.757,27.616l-13.173-9.099l21.141-28.128c2.656-3.531,7.669-4.245,11.2-1.589
		C376.667,159.673,377.381,164.687,374.725,168.217z"/>
	<path style="fill:#7ED63E;" d="M399.845,203.62l-11.488,15.957l-13.163-9.088l11.659-16.213c2.581-3.595,7.573-4.405,11.168-1.824
		C401.605,195.033,402.416,200.025,399.845,203.62z"/>
</g>
<path style="fill:#EE8700;" d="M287.121,202.628c0,6.773-0.075,13.589-0.213,20.437c-0.117,5.312-0.277,10.645-0.48,16
	c-1.579,42.357-5.845,85.749-12.555,127.733c-0.853,5.355-1.749,10.688-2.688,16c-7.595,43.168-17.781,84.479-30.25,121.205h-66.133
	l6.037-15.52c5.931-15.243,11.509-31.445,16.693-48.352c1.621-5.259,3.2-10.603,4.736-16c9.312-32.608,17.195-67.434,23.381-102.847
	c0.928-5.323,1.813-10.656,2.667-16c10.613-66.56,15.125-134.26,11.765-192.265l-1.589-9.056h40.501l2.72,3.819
	C285.361,137.476,287.121,169.508,287.121,202.628z"/>
<path style="fill:#CC7400;" d="M287.121,202.628c0,6.773-0.075,13.589-0.213,20.437c-0.117,5.312-0.277,10.645-0.48,16
	c-1.579,42.357-5.845,85.749-12.555,127.733c-0.853,5.355-1.749,10.688-2.688,16c-7.595,43.168-17.781,84.479-30.25,121.205h-38.4
	l6.037-15.52c5.931-15.243,11.509-31.445,16.693-48.352c1.621-5.259,3.2-10.603,4.736-16c9.312-32.608,17.195-67.434,23.381-102.847
	c0.928-5.323,1.813-10.656,2.667-16c10.613-66.56,15.125-134.26,11.765-192.265l-1.589-9.056h12.768l2.72,3.819
	C285.361,137.476,287.121,169.508,287.121,202.628z"/>
<g>
	<path style="fill:#884D00;" d="M286.907,223.065c-0.117,5.312-0.277,10.645-0.48,16H262.95c-4.416,0-8-3.584-8-8s3.584-8,8-8
		H286.907z"/>
	<path style="fill:#884D00;" d="M252.465,313.283c0,4.427-3.584,8-8,8h-18.816c0.928-5.323,1.813-10.656,2.667-16h16.149
		C248.881,305.283,252.465,308.867,252.465,313.283z"/>
	<path style="fill:#884D00;" d="M273.873,366.797c-0.853,5.355-1.749,10.688-2.688,16h-16.928c-4.416,0-8-3.584-8-8s3.584-8,8-8
		H273.873z"/>
	<path style="fill:#884D00;" d="M228.732,432.13c0,4.416-3.584,8-8,8h-23.2c1.621-5.259,3.2-10.603,4.736-16h18.464
		C225.148,424.13,228.732,427.714,228.732,432.13z"/>
</g>
<path style="fill:#FFA733;" d="M384.658,512h-284.64c-4.419,0-8-3.582-8-8c0-4.418,3.581-8,8-8h284.64c4.419,0,8,3.582,8,8
	C392.658,508.418,389.076,512,384.658,512z"/>
<path style="fill:#47821C;" d="M262.235,165.188c0,2.955-0.363,5.824-1.056,8.555c-3.819,15.189-17.568,26.421-33.93,26.421
	c-19.317,0-34.976-15.659-34.976-34.976c0-10.261,4.416-19.488,11.456-25.898c6.219-5.632,14.464-9.077,23.52-9.077
	C246.566,130.212,262.235,145.871,262.235,165.188z"/>
<path style="fill:#4E901E;" d="M262.235,165.188c0,2.955-0.363,5.824-1.056,8.555c-6.219,5.643-14.475,9.088-23.531,9.088
	c-19.317,0-34.976-15.659-34.976-34.976c0-2.955,0.363-5.824,1.056-8.565c6.219-5.632,14.464-9.077,23.52-9.077
	C246.566,130.212,262.235,145.871,262.235,165.188z"/>
<path style="fill:#6DC82A;" d="M325.787,165.188c0,19.317-15.659,34.976-34.976,34.976c-14.133,0-26.304-8.384-31.818-20.448
	c-2.027-4.427-3.157-9.344-3.157-14.528c0-19.317,15.659-34.976,34.976-34.976c8.555,0,16.405,3.072,22.485,8.181
	C320.934,144.815,325.787,154.436,325.787,165.188z"/>
<path style="fill:#7ED63E;" d="M316.454,152.921c0,19.317-15.659,34.976-34.976,34.976c-8.565,0-16.405-3.072-22.485-8.181
	c-2.027-4.427-3.157-9.344-3.157-14.528c0-19.317,15.659-34.976,34.976-34.976c8.555,0,16.405,3.072,22.485,8.181
	C315.323,142.82,316.454,147.737,316.454,152.921z"/>
<path style="fill:#91DC5A;" d="M295.078,119.172c0,5.824-1.419,11.317-3.947,16.149c-5.835,11.189-17.536,18.827-31.029,18.827
	c-19.328,0-34.986-15.659-34.986-34.976c0-11.477,5.525-21.664,14.069-28.053c5.835-4.341,13.077-6.923,20.917-6.923
	C279.419,84.196,295.078,99.855,295.078,119.172z"/>
<path style="fill:#A4E276;" d="M295.078,119.172c0,5.824-1.419,11.317-3.947,16.149c-5.835,4.352-13.056,6.923-20.896,6.923
	c-19.328,0-34.986-15.659-34.986-34.986c0-5.824,1.419-11.307,3.936-16.139c5.835-4.341,13.077-6.923,20.917-6.923
	C279.419,84.196,295.078,99.855,295.078,119.172z"/>
<g>
</g>
<g>
</g>
<g>
</g>
<g>
</g>
<g>
</g>
<g>
</g>
<g>
</g>
<g>
</g>
<g>
</g>
<g>
</g>
<g>
</g>
<g>
</g>
<g>
</g>
<g>
</g>
<g>
</g>
</svg>
