<svg id="Flat" height="512" viewBox="0 0 512 512" width="512" xmlns="http://www.w3.org/2000/svg"><path d="m240 400h32v56h-32z" fill="#9aa3a8"/><path d="m408 344a7.976 7.976 0 0 1 -5.657-2.343l-264-264a8 8 0 0 1 11.314-11.314l264 264a8 8 0 0 1 -5.657 13.657z" fill="#9aa3a8"/><path d="m447.57 311.57a207.811 207.811 0 0 1 -175.57 96.43c-114.88 0-208-93.12-208-208a207.811 207.811 0 0 1 96.43-175.57l23.29 23.29a176.014 176.014 0 1 0 240.56 240.56z" fill="#d0d2d4"/><circle cx="272" cy="200" fill="#3397e8" r="144"/><g fill="#b1bd70"><path d="m240 248h-103.81a144.754 144.754 0 0 1 0-96h71.81a16 16 0 1 1 0 32 16 16 0 0 0 0 32h32a16 16 0 1 1 0 32z"/><path d="m280 104a15.979 15.979 0 0 1 16-16h66.51a144.238 144.238 0 0 1 29.23 32h-95.74a16 16 0 0 1 -16-16z"/><path d="m416 200a143.3 143.3 0 0 1 -14.98 64h-49.02a16 16 0 1 1 0-32 16 16 0 0 0 0-32h-48a16 16 0 1 1 0-32h108.43a144.171 144.171 0 0 1 3.57 32z"/></g><path d="m344 488h-176a32 32 0 0 1 32-32h112a32 32 0 0 1 32 32z" fill="#d0d2d4"/><path d="m304 296a15.979 15.979 0 0 1 -16 16h-32a16 16 0 1 1 0-32h32a16 16 0 0 1 16 16z" fill="#b1bd70"/></svg>