<svg id="Layer_1" enable-background="new 0 0 513.088 513.088" height="512" viewBox="0 0 513.088 513.088" width="512" xmlns="http://www.w3.org/2000/svg"><g><path clip-rule="evenodd" d="m488.237 293.417h-464.17v-100.086h382.723c44.982 0 81.447 36.465 81.447 81.447z" fill="#f4f4f6" fill-rule="evenodd"/><path clip-rule="evenodd" d="m406.79 193.331h-150.785v100.085h232.232v-18.638c0-44.982-36.465-81.447-81.447-81.447z" fill="#e2e2ea" fill-rule="evenodd"/><path d="m379.088 166.927h-334c-24.813 0-45 20.187-45 45v183c0 24.813 20.187 45 45 45h423c24.813 0 45-20.187 45-45v-94c0-73.888-60.112-134-134-134zm12 30.697c47.442 5.476 85.264 42.999 91.189 90.304h-91.189zm-30-.697v91h-90s-.027-90.507-.076-91zm-119.924 0c-.049.494-.076 91-.076 91h-111v-89.5c0-.506-.027-1.006-.076-1.5zm-211.076 15c0-8.271 6.729-15 15-15h55.076c-.049.494-.076.994-.076 1.5v89.5h-70z" fill="#00dd7b"/><path d="m379.088 166.927h-123.083v273h212.083c24.813 0 45-20.187 45-45v-94c0-73.888-60.112-134-134-134zm-18 121.001h-90s-.027-90.507-.076-91h90.076zm30 0v-90.304c47.442 5.476 85.264 42.999 91.189 90.304z" fill="#00ab94"/><g><path d="m497.01 512.544h-482.01c-8.284 0-15-6.716-15-15s6.716-15 15-15h482.01c8.284 0 15 6.716 15 15s-6.716 15-15 15z" fill="#595454"/></g><ellipse clip-rule="evenodd" cx="402.088" cy="434.427" fill="#454040" fill-rule="evenodd" rx="33" ry="33" transform="matrix(.973 -.23 .23 .973 -89.054 104.002)"/><path d="m402.088 482.427c-26.467 0-48-21.533-48-48s21.533-48 48-48 48 21.533 48 48-21.533 48-48 48zm0-66c-9.925 0-18 8.075-18 18s8.075 18 18 18 18-8.075 18-18-8.075-18-18-18z" fill="#2e2e2e"/><ellipse clip-rule="evenodd" cx="110.088" cy="434.427" fill="#595454" fill-rule="evenodd" rx="33" ry="33" transform="matrix(.973 -.23 .23 .973 -96.866 36.914)"/><path d="m110.088 482.427c-26.467 0-48-21.533-48-48s21.533-48 48-48 48 21.533 48 48-21.533 48-48 48zm0-66c-9.925 0-18 8.075-18 18s8.075 18 18 18 18-8.075 18-18-8.075-18-18-18z" fill="#454040"/><g clip-rule="evenodd" fill-rule="evenodd"><path d="m332.088 30.544c8.262 0 15-6.738 15-15s-6.738-15-15-15-15 6.738-15 15 6.739 15 15 15z" fill="#e2e2ea"/><path d="m15.088 30.544c8.262 0 15-6.738 15-15s-6.738-15-15-15-15 6.738-15 15c0 8.262 6.738 15 15 15z" fill="#f4f4f6"/><path d="m409.088 122.544c8.262 0 15-6.738 15-15s-6.738-15-15-15-15 6.738-15 15 6.738 15 15 15z" fill="#e2e2ea"/><path d="m482.088 56.544c8.262 0 15-6.738 15-15s-6.738-15-15-15-15 6.738-15 15 6.738 15 15 15z" fill="#e2e2ea"/><path d="m84.088 140.544c8.262 0 15-6.738 15-15s-6.738-15-15-15-15 6.738-15 15 6.738 15 15 15z" fill="#f4f4f6"/><path d="m154.032 30.544c8.262 0 15-6.738 15-15s-6.738-15-15-15-15 6.738-15 15 6.738 15 15 15z" fill="#f4f4f6"/><ellipse cx="231.641" cy="104.246" fill="#f4f4f6" rx="15" ry="15" transform="matrix(.973 -.23 .23 .973 -17.754 56.009)"/></g><g><path clip-rule="evenodd" d="m497.088 171.544c8.262 0 15-6.738 15-15s-6.738-15-15-15-15 6.738-15 15 6.738 15 15 15z" fill="#e6e6e6" fill-rule="evenodd"/></g><path d="m497.01 482.544h-241.005v30h241.005c8.284 0 15-6.716 15-15s-6.716-15-15-15z" fill="#454040"/></g></svg>