<?xml version="1.0"?>
<svg xmlns="http://www.w3.org/2000/svg" xmlns:xlink="http://www.w3.org/1999/xlink" id="Gradient" viewBox="0 0 512 512" width="512" height="512"><defs><linearGradient id="linear-gradient" x1="255.785" y1="496" x2="255.785" y2="16.43" gradientUnits="userSpaceOnUse"><stop offset="0" stop-color="#12c2e9"/><stop offset="0.5" stop-color="#c471ed"/><stop offset="1" stop-color="#f64f59"/></linearGradient></defs><path d="M453.227,305.913l-23.291-23.29a8,8,0,0,0-12.574,1.64,167.216,167.216,0,0,1-21.083,28.7l-11.345-11.344A151.394,151.394,0,0,0,424,200c0-83.814-68.187-152-152-152A151.393,151.393,0,0,0,170.38,87.065L159.035,75.721a167.171,167.171,0,0,1,28.7-21.083,8,8,0,0,0,1.639-12.576l-23.29-23.29a8,8,0,0,0-9.953-1.091A216.064,216.064,0,0,0,232,412.31V448H200a40.045,40.045,0,0,0-40,40,8,8,0,0,0,8,8H344a8,8,0,0,0,8-8,40.045,40.045,0,0,0-40-40H280V415.841a215.088,215.088,0,0,0,174.318-99.975A8,8,0,0,0,453.227,305.913ZM147.739,87.053l11.327,11.326A151.394,151.394,0,0,0,120,200c0,83.814,68.187,152,152,152a151.393,151.393,0,0,0,101.62-39.065l11.327,11.326A168.543,168.543,0,0,1,272,368c-92.636,0-168-75.364-168-168A168.541,168.541,0,0,1,147.739,87.053ZM208,224h32a8,8,0,1,1,0,16H142.006a136.2,136.2,0,0,1,0-80H208a8,8,0,1,1,0,16,24,24,0,0,0,0,48Zm187.929,32H352a8,8,0,1,1,0-16,24,24,0,0,0,0-48H304a8,8,0,1,1,0-16H405.879a136.2,136.2,0,0,1-9.95,80ZM375.6,112H296a8,8,0,1,1,0-16h63.529A137.219,137.219,0,0,1,375.6,112ZM272,64a135.153,135.153,0,0,1,63.942,16H296a24,24,0,0,0,0,48h91.325a135.37,135.37,0,0,1,14.669,32H304a24,24,0,0,0,0,48h48a8,8,0,1,1,0,16,24,24,0,0,0,0,48h35.325a135.951,135.951,0,0,1-239.254-16H240a24,24,0,0,0,0-48H208a8,8,0,1,1,0-16,24,24,0,0,0,0-48H148.071A136.193,136.193,0,0,1,272,64Zm62.629,416H177.371A24.042,24.042,0,0,1,200,464H312A24.042,24.042,0,0,1,334.629,480ZM248,448V414.674q7.941.873,16,1.165V448Zm24-48C161.72,400,72,310.28,72,200A199.167,199.167,0,0,1,159.384,34.7l11.539,11.539A183.852,183.852,0,0,0,88,200c0,101.458,82.542,184,184,184a183.849,183.849,0,0,0,153.763-82.923L437.3,312.616A199.163,199.163,0,0,1,272,400ZM239.012,279.033A24.01,24.01,0,0,0,256,320h32a24,24,0,0,0,0-48H256A23.906,23.906,0,0,0,239.012,279.033ZM296,296a7.977,7.977,0,0,1-8,8H256a8,8,0,1,1,0-16h32A8.009,8.009,0,0,1,296,296Z" style="fill:url(#linear-gradient)"/></svg>
