<svg height="470pt" viewBox="0 -11 470.79122 470" width="470pt" xmlns="http://www.w3.org/2000/svg"><path d="m138.578125 174.476562c8.449219-47.84375 54.070313-79.785156 101.917969-71.359374 35.039062 6.160156 60.640625 36.71875 69.039062 69.039062 6.507813-9.375 14.539063-17.597656 23.761719-24.320312 2.101563-10.960938 2.695313-22.160157 1.761719-33.28125-4.261719-48.414063-46.941406-84.222657-95.363282-80-35.4375 3.121093-63.597656 31.359374-74.796874 62.800781-16.480469-29.039063-49.203126-51.917969-84.5625-48.800781-23.25 2.015624-44.742188 13.1875-59.75 31.058593-15.003907 17.871094-22.289063 40.976563-20.25 64.222657 9.761718 111.601562 186.160156 200.558593 186.160156 200.558593s3.359375-2.558593 9.121094-7.117187c-.082032-.082032 0-.082032 0-.082032-34.640626-46.71875-66.800782-107.441406-57.039063-162.71875zm0 0" fill="#ff6243"/><path d="m24.335938 143.835938c-4.042969-46.296876 28.675781-87.734376 74.648437-94.535157-6.160156-1.03125-12.425781-1.28125-18.648437-.746093-23.25 2.015624-44.742188 13.1875-59.75 31.058593-15.003907 17.871094-22.289063 40.976563-20.25 64.222657 9.761718 111.601562 186.160156 200.558593 186.160156 200.558593s3.359375-2.558593 9.121094-7.117187c-.082032-.082032 0-.082032 0-.082032-.375-.511718-.746094-1.039062-1.121094-1.550781-43.664063-25-162.207032-100.847656-170.160156-191.808593zm0 0" fill="#ff5023"/><path d="m188.898438 97.355469c10.75-30.175781 37.140624-57.34375 70.582031-62.238281-6.550781-.929688-13.1875-1.121094-19.785157-.5625-27.339843 3.390624-51.511718 19.398437-65.300781 43.25 5.59375 5.914062 10.464844 12.476562 14.503907 19.550781zm0 0" fill="#ff5023"/><path d="m264.496094 103.117188c-9.097656-1.59375-18.390625-1.742188-27.535156-.441407 1.175781.160157 2.351562.230469 3.535156.441407 35.039062 6.160156 60.640625 36.71875 69.039062 69.039062 4.835938-6.992188 10.535156-13.34375 16.960938-18.90625-11.496094-25.632812-34.523438-44.253906-62-50.132812zm0 0" fill="#ff5023"/><path d="m398.097656 130.875c-23.011718-3.457031-46.433594 2.675781-64.800781 16.960938-9.222656 6.722656-17.253906 14.945312-23.761719 24.320312-8.398437-32.320312-34-62.878906-69.039062-69.039062-47.847656-8.425782-93.46875 23.515624-101.917969 71.359374-9.761719 55.277344 22.398437 116 57.039063 162.71875 0 0-.082032 0 0 .082032 21.171874 28.472656 44.894531 54.953125 70.878906 79.117187 0 0 183.519531-73.277343 202.960937-183.519531 8.429688-47.863281-23.507812-93.511719-71.359375-102zm0 0" fill="#ff7956"/><g fill="#ff9811"><path d="m66.496094 328.394531c-2.675782.027344-5.183594-1.296875-6.667969-3.523437-1.488281-2.230469-1.746094-5.054688-.691406-7.515625.726562-2.007813 2.308593-3.59375 4.320312-4.320313 1.945313-.808594 4.132813-.808594 6.078125 0 .980469.390625 1.875.957032 2.640625 1.679688.722657.765625 1.292969 1.660156 1.679688 2.640625 1.277343 2.976562.613281 6.429687-1.679688 8.71875-.777343.707031-1.671875 1.273437-2.640625 1.679687-.960937.410156-1.992187.628906-3.039062.640625zm0 0"/><path d="m442.496094 56.394531c-2.128906.023438-4.175782-.8125-5.679688-2.316406-1.503906-1.507813-2.339844-3.554687-2.320312-5.683594.027344-2.117187.855468-4.148437 2.320312-5.679687.378906-.339844.777344-.660156 1.191406-.960938.449219-.300781.9375-.542968 1.449219-.71875.453125-.230468.9375-.390625 1.441407-.480468 1.023437-.238282 2.085937-.238282 3.109374 0 .535157.074218 1.050782.238281 1.527344.480468.492188.160156.953125.40625 1.363282.71875.457031.277344.886718.601563 1.277343.960938 1.460938 1.535156 2.292969 3.5625 2.320313 5.679687.023437 2.128907-.8125 4.175781-2.320313 5.683594-1.503906 1.503906-3.550781 2.339844-5.679687 2.316406zm0 0"/><path d="m410.496094 104.394531c-2.128906.023438-4.175782-.8125-5.679688-2.316406-1.503906-1.507813-2.339844-3.554687-2.320312-5.683594.027344-2.117187.855468-4.148437 2.320312-5.679687.765625-.722656 1.660156-1.292969 2.640625-1.679688 1.429688-.636718 3.023438-.804687 4.550781-.480468.535157.074218 1.050782.238281 1.527344.480468.492188.160156.953125.40625 1.363282.71875.46875.320313.878906.640625 1.277343.960938 1.460938 1.535156 2.292969 3.5625 2.320313 5.679687.023437 2.128907-.8125 4.175781-2.320313 5.683594-1.503906 1.503906-3.550781 2.339844-5.679687 2.316406zm0 0"/><path d="m130.496094 448.394531c-2.128906.019531-4.175782-.816406-5.679688-2.320312-.703125-.777344-1.273437-1.671875-1.679687-2.636719-.449219-.949219-.667969-1.992188-.640625-3.042969.011718-1.042969.230468-2.078125.640625-3.039062.40625-.96875.972656-1.863281 1.679687-2.640625 2.300782-2.269532 5.742188-2.933594 8.71875-1.679688.980469.390625 1.875.957032 2.640625 1.679688.707031.777344 1.273438 1.671875 1.679688 2.640625.855469 1.9375.855469 4.144531 0 6.082031-.40625.964844-.972657 1.859375-1.679688 2.636719-1.503906 1.503906-3.550781 2.339843-5.679687 2.320312zm0 0"/><path d="m66.496094 368.394531h-8v-8c0-4.417969-3.582032-8-8-8-4.417969 0-8 3.582031-8 8v8h-8c-4.417969 0-8 3.582031-8 8s3.582031 8 8 8h8v8c0 4.417969 3.582031 8 8 8 4.417968 0 8-3.582031 8-8v-8h8c4.417968 0 8-3.582031 8-8s-3.582032-8-8-8zm0 0"/><path d="m394.496094 16.394531h-8v-8c0-4.417969-3.582032-8-8-8-4.417969 0-8 3.582031-8 8v8h-8c-4.417969 0-8 3.582031-8 8s3.582031 8 8 8h8v8c0 4.417969 3.582031 8 8 8 4.417968 0 8-3.582031 8-8v-8h8c4.417968 0 8-3.582031 8-8s-3.582032-8-8-8zm0 0"/></g></svg>