<?xml version="1.0" encoding="iso-8859-1"?>
<!-- Generator: Adobe Illustrator 19.0.0, SVG Export Plug-In . SVG Version: 6.00 Build 0)  -->
<svg version="1.1" id="Layer_1" xmlns="http://www.w3.org/2000/svg" xmlns:xlink="http://www.w3.org/1999/xlink" x="0px" y="0px"
	 viewBox="0 0 513.067 513.067" style="enable-background:new 0 0 513.067 513.067;" xml:space="preserve">
<path style="fill:#415A6B;" d="M440,35.2H73.067c-9.6,0-18.133-7.467-18.133-18.133l0,0C54.933,7.467,63.467,0,73.067,0H440
	c9.6,0,18.133,7.467,18.133,18.133l0,0C458.133,27.733,449.6,35.2,440,35.2z"/>
<rect x="101.867" y="35.2" style="fill:#344A5E;" width="310.4" height="35.2"/>
<path style="fill:#415A6B;" d="M73.067,476.8H440c9.6,0,18.133,7.467,18.133,18.133l0,0c0,9.6-7.467,18.133-18.133,18.133H73.067
	c-9.6,0-18.133-7.467-18.133-18.133l0,0C54.933,484.267,63.467,476.8,73.067,476.8z"/>
<rect x="101.867" y="440.533" style="fill:#344A5E;" width="310.4" height="35.2"/>
<path style="fill:#E8EAE9;" d="M286.4,256c44.8,27.733,124.8,85.333,124.8,152.533v32H101.867v-32c0-67.2,80-124.8,124.8-152.533
	c-45.867-27.733-124.8-85.333-124.8-152.533v-32h310.4v32C412.267,170.667,332.267,228.267,286.4,256z"/>
<path style="fill:#FFD15C;" d="M386.667,440.533L386.667,440.533h-259.2c0-46.933,49.067-89.6,86.4-115.2
	c19.2-13.867,30.933-35.2,30.933-58.667V230.4l-1.067-1.067c-33.067-20.267-58.667-40.533-77.867-61.867h182.4
	c-19.2,20.267-44.8,41.6-77.867,61.867l-2.133,1.067v36.267c0,23.467,11.733,45.867,30.933,58.667
	C337.6,350.933,386.667,393.6,386.667,440.533z"/>
<g>
</g>
<g>
</g>
<g>
</g>
<g>
</g>
<g>
</g>
<g>
</g>
<g>
</g>
<g>
</g>
<g>
</g>
<g>
</g>
<g>
</g>
<g>
</g>
<g>
</g>
<g>
</g>
<g>
</g>
</svg>
