<svg id="Layer_1" enable-background="new 0 0 512.001 512.001" height="512" viewBox="0 0 512.001 512.001" width="512" xmlns="http://www.w3.org/2000/svg"><g><g><path d="m15.45 267.379h139.509v125.34h-139.509z" fill="#ff4656"/><path d="m154.959 267.379v125.34h-139.509v-18h93.23c8.43 0 15.28-6.84 15.28-15.28v-92.06z" fill="#d93c49"/><g><g><path d="m264.459 319.149h107.58v73.57h-107.58z" fill="#f9d11f"/><path d="m372.038 319.149v73.57h-107.58v-18h69.95c8.43 0 15.28-6.84 15.28-15.28v-40.29z" fill="#ffa402"/><g fill="#fdeda5"><path d="m334.215 337.149c-4.142 0-7.5 3.358-7.5 7.5v15c0 4.142 3.358 7.5 7.5 7.5s7.5-3.358 7.5-7.5v-15c0-4.142-3.358-7.5-7.5-7.5z"/><path d="m310.589 344.649v48.07c0 4.14-3.36 7.5-7.5 7.5s-7.5-3.36-7.5-7.5v-48.07c0-4.14 3.36-7.5 7.5-7.5s7.5 3.361 7.5 7.5z"/></g><path d="m310.589 374.72v18c0 4.14-3.36 7.5-7.5 7.5s-7.5-3.36-7.5-7.5v-18z" fill="#fbdf63"/></g><g fill="#415e6f"><path d="m303.088 296.648c-4.142 0-7.5 3.358-7.5 7.5v15c0 4.142 3.358 7.5 7.5 7.5s7.5-3.358 7.5-7.5v-15c0-4.142-3.358-7.5-7.5-7.5z"/><path d="m265.696 311.648h106.348v15h-106.348z"/></g></g><g><path d="m357.042 267.379h139.509v125.34h-139.509z" fill="#d65b43"/><path d="m496.552 267.379v125.34h-139.51v-18h103.23c8.43 0 15.28-6.84 15.28-15.28v-92.06z" fill="#b2382b"/><g fill="#415e6f"><g><path d="m457.875 234.874c4.142 0 7.5 3.358 7.5 7.5v25c0 4.142-3.358 7.5-7.5 7.5s-7.5-3.358-7.5-7.5v-25c0-4.142 3.358-7.5 7.5-7.5z"/><path d="m425.846 244.874c4.142 0 7.5 3.358 7.5 7.5v15c0 4.142-3.358 7.5-7.5 7.5s-7.5-3.358-7.5-7.5v-15c0-4.142 3.358-7.5 7.5-7.5z"/></g><path d="m348.544 259.836h155.954c4.142 0 7.5 3.358 7.5 7.5s-3.358 7.5-7.5 7.5h-155.954c-4.142 0-7.5-3.358-7.5-7.5s3.357-7.5 7.5-7.5z"/></g></g><g><g fill="#415e6f"><path d="m46.173 234.874c-4.142 0-7.5 3.358-7.5 7.5v25c0 4.142 3.358 7.5 7.5 7.5s7.5-3.358 7.5-7.5v-25c0-4.142-3.358-7.5-7.5-7.5z"/><path d="m78.201 244.874c-4.142 0-7.5 3.358-7.5 7.5v15c0 4.142 3.358 7.5 7.5 7.5s7.5-3.358 7.5-7.5v-15c0-4.142-3.358-7.5-7.5-7.5z"/></g><path d="m147.454 259.875h-139.954c-4.142 0-7.5 3.358-7.5 7.5s3.358 7.5 7.5 7.5h139.955c4.142 0 7.5-3.358 7.5-7.5s-3.358-7.5-7.501-7.5z" fill="#415e6f"/><g><g fill="#fdeda5"><path d="m46.173 292.148c-4.142 0-7.5 3.358-7.5 7.5v15c0 4.142 3.358 7.5 7.5 7.5s7.5-3.358 7.5-7.5v-15c0-4.142-3.358-7.5-7.5-7.5z"/><path d="m78.201 292.148c-4.142 0-7.5 3.358-7.5 7.5v15c0 4.142 3.358 7.5 7.5 7.5s7.5-3.358 7.5-7.5v-15c0-4.142-3.358-7.5-7.5-7.5z"/><path d="m109.328 292.148c-4.142 0-7.5 3.358-7.5 7.5v15c0 4.142 3.358 7.5 7.5 7.5s7.5-3.358 7.5-7.5v-15c0-4.142-3.358-7.5-7.5-7.5z"/><path d="m53.67 344.649v48.07c0 4.14-3.36 7.5-7.5 7.5s-7.5-3.36-7.5-7.5v-48.07c0-4.14 3.36-7.5 7.5-7.5s7.5 3.361 7.5 7.5z"/></g><path d="m53.67 374.72v18c0 4.14-3.36 7.5-7.5 7.5s-7.5-3.36-7.5-7.5v-18z" fill="#fbdf63"/><path d="m78.201 337.149c-4.142 0-7.5 3.358-7.5 7.5v15c0 4.142 3.358 7.5 7.5 7.5s7.5-3.358 7.5-7.5v-15c0-4.142-3.358-7.5-7.5-7.5z" fill="#fdeda5"/><path d="m109.328 337.149c-4.142 0-7.5 3.358-7.5 7.5v15c0 4.142 3.358 7.5 7.5 7.5s7.5-3.358 7.5-7.5v-15c0-4.142-3.358-7.5-7.5-7.5z" fill="#fdeda5"/></g></g><g fill="#fdeda5"><path d="m457.875 292.148c-4.142 0-7.5 3.358-7.5 7.5v15c0 4.142 3.358 7.5 7.5 7.5s7.5-3.358 7.5-7.5v-15c0-4.142-3.358-7.5-7.5-7.5z"/><path d="m425.846 292.148c-4.142 0-7.5 3.358-7.5 7.5v15c0 4.142 3.358 7.5 7.5 7.5s7.5-3.358 7.5-7.5v-15c0-4.142-3.358-7.5-7.5-7.5z"/><path d="m394.72 292.148c-4.142 0-7.5 3.358-7.5 7.5v15c0 4.142 3.358 7.5 7.5 7.5s7.5-3.358 7.5-7.5v-15c0-4.142-3.358-7.5-7.5-7.5z"/><path d="m457.875 337.149c-4.142 0-7.5 3.358-7.5 7.5v15c0 4.142 3.358 7.5 7.5 7.5s7.5-3.358 7.5-7.5v-15c0-4.142-3.358-7.5-7.5-7.5z"/><path d="m425.846 337.149c-4.142 0-7.5 3.358-7.5 7.5v15c0 4.142 3.358 7.5 7.5 7.5s7.5-3.358 7.5-7.5v-15c0-4.142-3.358-7.5-7.5-7.5z"/><path d="m394.72 337.149c-4.142 0-7.5 3.358-7.5 7.5v48.07c0 4.142 3.358 7.5 7.5 7.5s7.5-3.358 7.5-7.5v-48.07c0-4.142-3.358-7.5-7.5-7.5z"/></g><path d="m402.22 374.72v18c0 4.14-3.36 7.5-7.5 7.5s-7.5-3.36-7.5-7.5v-18z" fill="#fbdf63"/><g><path d="m139.955 222.374h139.507v170.346h-139.507z" fill="#14bb87"/><path d="m279.461 222.374v170.346h-139.509v-18h102.23c8.43 0 15.28-6.84 15.28-15.28v-137.066z" fill="#13a279"/><path d="m287.409 214.874h-155.402c-4.142 0-7.5 3.358-7.5 7.5s3.358 7.5 7.5 7.5h155.402c4.142 0 7.5-3.358 7.5-7.5s-3.358-7.5-7.5-7.5z" fill="#415e6f"/><g fill="#fdeda5"><path d="m178.13 247.147c-4.142 0-7.5 3.358-7.5 7.5v15c0 4.142 3.358 7.5 7.5 7.5s7.5-3.358 7.5-7.5v-15c0-4.142-3.358-7.5-7.5-7.5z"/><path d="m210.159 247.147c-4.142 0-7.5 3.358-7.5 7.5v15c0 4.142 3.358 7.5 7.5 7.5s7.5-3.358 7.5-7.5v-15c0-4.142-3.358-7.5-7.5-7.5z"/><path d="m241.286 247.147c-4.142 0-7.5 3.358-7.5 7.5v15c0 4.142 3.358 7.5 7.5 7.5s7.5-3.358 7.5-7.5v-15c0-4.142-3.358-7.5-7.5-7.5z"/><path d="m178.13 292.148c-4.142 0-7.5 3.358-7.5 7.5v15c0 4.142 3.358 7.5 7.5 7.5s7.5-3.358 7.5-7.5v-15c0-4.142-3.358-7.5-7.5-7.5z"/><path d="m210.159 292.148c-4.142 0-7.5 3.358-7.5 7.5v15c0 4.142 3.358 7.5 7.5 7.5s7.5-3.358 7.5-7.5v-15c0-4.142-3.358-7.5-7.5-7.5z"/><path d="m241.286 292.148c-4.142 0-7.5 3.358-7.5 7.5v15c0 4.142 3.358 7.5 7.5 7.5s7.5-3.358 7.5-7.5v-15c0-4.142-3.358-7.5-7.5-7.5z"/><path d="m185.629 344.649v48.07c0 4.14-3.36 7.5-7.5 7.5s-7.5-3.36-7.5-7.5v-48.07c0-4.14 3.36-7.5 7.5-7.5s7.5 3.361 7.5 7.5z"/><path d="m210.159 337.149c-4.142 0-7.5 3.358-7.5 7.5v15c0 4.142 3.358 7.5 7.5 7.5s7.5-3.358 7.5-7.5v-15c0-4.142-3.358-7.5-7.5-7.5z"/><path d="m241.286 337.149c-4.142 0-7.5 3.358-7.5 7.5v15c0 4.142 3.358 7.5 7.5 7.5s7.5-3.358 7.5-7.5v-15c0-4.142-3.358-7.5-7.5-7.5z"/></g><path d="m185.629 374.72v18c0 4.14-3.36 7.5-7.5 7.5s-7.5-3.36-7.5-7.5v-18z" fill="#fbdf63"/></g><g fill="#415e6f"><path d="m241.286 189.873c-4.142 0-7.5 3.358-7.5 7.5v25c0 4.142 3.358 7.5 7.5 7.5s7.5-3.358 7.5-7.5v-25c0-4.142-3.358-7.5-7.5-7.5z"/><path d="m209.257 199.873c-4.142 0-7.5 3.358-7.5 7.5v15c0 4.142 3.358 7.5 7.5 7.5s7.5-3.358 7.5-7.5v-15c0-4.142-3.358-7.5-7.5-7.5z"/></g></g><path d="m512 392.86v42.05h-512v-42.05c0-4.14 3.36-7.5 7.5-7.5h497c4.14 0 7.5 3.36 7.5 7.5z" fill="#415e6f"/><path d="m512 392.86v42.05h-15.45v-49.55h7.95c4.14 0 7.5 3.36 7.5 7.5z" fill="#003343"/><path d="m512 434.91v69.59c0 4.14-3.36 7.5-7.5 7.5h-497c-4.14 0-7.5-3.36-7.5-7.5v-69.59c0-4.14 3.36-7.5 7.5-7.5 7.79 0 11.28-2.7 16.12-6.44 5.51-4.27 12.38-9.58 25.29-9.58 12.92 0 19.78 5.31 25.3 9.58 4.83 3.74 8.33 6.44 16.12 6.44s11.28-2.7 16.12-6.44c5.51-4.27 12.38-9.58 25.29-9.58 12.92 0 19.78 5.31 25.3 9.58 4.83 3.74 8.33 6.44 16.12 6.44s11.28-2.7 16.12-6.44c5.51-4.27 12.38-9.58 25.3-9.58 12.91 0 19.77 5.31 25.29 9.58 4.83 3.74 8.33 6.44 16.12 6.44s11.28-2.7 16.12-6.44c5.51-4.27 12.38-9.58 25.29-9.58 12.92 0 19.78 5.31 25.3 9.58 4.83 3.74 8.33 6.44 16.12 6.44s11.28-2.7 16.12-6.44c5.52-4.27 12.38-9.58 25.3-9.58 12.91 0 19.78 5.31 25.29 9.58 4.84 3.74 8.33 6.44 16.12 6.44 7.8 0 11.29-2.7 16.13-6.44 5.51-4.27 12.38-9.58 25.3-9.58 12.91 0 19.78 5.31 25.3 9.58 2.8 2.17 5.16 3.99 8.17 5.14 2.17.83 4.68 1.3 7.95 1.3 4.14 0 7.5 3.36 7.5 7.5z" fill="#4dd4f7"/><g fill="#415e6f"><path d="m329.222 136.643c-6.459 0-12.335 2.548-16.676 6.693-4.341-4.145-10.217-6.693-16.676-6.693-4.143 0-7.5 3.358-7.5 7.5s3.357 7.5 7.5 7.5c5.06 0 9.176 4.125 9.176 9.195 0 4.142 3.357 7.5 7.5 7.5s7.5-3.358 7.5-7.5c0-5.07 4.116-9.195 9.176-9.195 4.143 0 7.5-3.358 7.5-7.5s-3.358-7.5-7.5-7.5z"/><path d="m400.884 19.684c-6.459 0-12.335 2.548-16.676 6.692-4.341-4.144-10.217-6.692-16.676-6.692-4.143 0-7.5 3.358-7.5 7.5s3.357 7.5 7.5 7.5c5.06 0 9.176 4.125 9.176 9.195 0 4.142 3.357 7.5 7.5 7.5s7.5-3.358 7.5-7.5c0-5.07 4.116-9.195 9.176-9.195 4.143 0 7.5-3.358 7.5-7.5s-3.358-7.5-7.5-7.5z"/><path d="m150.989 19.684c-6.459 0-12.335 2.548-16.676 6.693-4.341-4.145-10.217-6.693-16.677-6.693-4.143 0-7.5 3.358-7.5 7.5s3.357 7.5 7.5 7.5c5.061 0 9.177 4.125 9.177 9.195 0 4.142 3.357 7.5 7.5 7.5s7.5-3.358 7.5-7.5c0-5.07 4.116-9.195 9.176-9.195 4.143 0 7.5-3.358 7.5-7.5s-3.357-7.5-7.5-7.5z"/></g><g fill="#00c2f3"><path d="m119.327 469.964c-7.791 0-11.284-2.702-16.118-6.441-5.516-4.267-12.38-9.577-25.296-9.577s-19.78 5.31-25.296 9.577c-4.834 3.739-8.326 6.441-16.117 6.441-4.143 0-7.5 3.358-7.5 7.5s3.357 7.5 7.5 7.5c12.915 0 19.779-5.31 25.295-9.577 4.834-3.74 8.327-6.441 16.118-6.441s11.284 2.702 16.118 6.441c5.516 4.267 12.38 9.577 25.296 9.577 4.143 0 7.5-3.358 7.5-7.5s-3.357-7.5-7.5-7.5z"/><path d="m475.5 469.964c-7.791 0-11.284-2.702-16.118-6.441-5.516-4.267-12.38-9.577-25.296-9.577-12.915 0-19.779 5.31-25.295 9.577-4.834 3.74-8.327 6.441-16.118 6.441-4.143 0-7.5 3.358-7.5 7.5s3.357 7.5 7.5 7.5c12.916 0 19.78-5.31 25.296-9.577 4.834-3.739 8.326-6.441 16.117-6.441s11.284 2.702 16.118 6.441c5.516 4.267 12.38 9.577 25.296 9.577 4.143 0 7.5-3.358 7.5-7.5s-3.357-7.5-7.5-7.5z"/><path d="m297.4 455.43c-7.791 0-11.284-2.702-16.118-6.441-5.516-4.267-12.38-9.577-25.296-9.577s-19.78 5.31-25.296 9.577c-4.834 3.739-8.326 6.441-16.117 6.441-4.143 0-7.5 3.358-7.5 7.5s3.357 7.5 7.5 7.5c12.915 0 19.779-5.31 25.295-9.576 4.834-3.74 8.327-6.441 16.118-6.441s11.284 2.702 16.118 6.441c5.516 4.267 12.38 9.577 25.296 9.577 4.143 0 7.5-3.358 7.5-7.5s-3.357-7.501-7.5-7.501z"/></g><g><path d="m278.5 51.679c0 12.407-10.1 22.495-22.499 22.495-3.01 0-5.88-.59-8.5-1.67-8.21-3.359-14-11.427-14-20.826 0-9.398 5.79-17.466 14-20.826 2.62-1.08 5.49-1.67 8.5-1.67 12.399.002 22.499 10.09 22.499 22.497z" fill="#f9d11f"/><g fill="#ffa402"><path d="m278.5 51.679c0 12.407-10.1 22.495-22.499 22.495-3.01 0-5.88-.59-8.5-1.67 8.2-3.359 14-11.427 14-20.826 0-9.398-5.8-17.466-14-20.826 2.62-1.08 5.49-1.67 8.5-1.67 12.399.002 22.499 10.09 22.499 22.497z"/><circle cx="211.401" cy="51.68" r="7.499"/><circle cx="300.589" cy="51.679" r="7.499"/><circle cx="255.993" cy="7.499" r="7.499"/><circle cx="255.995" cy="96.669" r="7.499"/><circle cx="224.607" cy="20.008" r="7.499"/><path d="m282.371 77.757c-2.929 2.928-2.929 7.676 0 10.604s7.677 2.928 10.606 0 2.929-7.676 0-10.604-7.677-2.928-10.606 0z"/><circle cx="287.386" cy="20.292" r="7.499"/><circle cx="224.322" cy="83.346" r="7.499"/></g></g><g><path d="m128.007 128.518c0 9.458-7.67 17.126-17.13 17.126h-87.358c-9.14 0-17.06-5.209-20.95-12.827-1.639-3.209-2.569-6.838-2.569-10.688 0-12.987 10.53-23.515 23.519-23.515 2.95 0 5.75.56 8.35 1.55 4.44-14.297 17.76-24.675 33.519-24.675h.45c19.16.24 34.629 15.857 34.629 35.072 0 1.56-.11 3.099-.31 4.599 2.94-2.349 6.66-3.769 10.72-3.769 9.46.001 17.13 7.669 17.13 17.127z" fill="#e7f3f7"/><path d="m128.007 128.518c0 9.458-7.67 17.126-17.13 17.126h-87.358c-9.14 0-17.06-5.209-20.95-12.827h54.099c16.24 0 29.399-13.167 29.399-29.394 0-13.037-8.48-24.085-20.229-27.934 19.16.24 34.629 15.857 34.629 35.072 0 1.56-.11 3.099-.31 4.599 2.94-2.349 6.66-3.769 10.72-3.769 9.46.001 17.13 7.669 17.13 17.127z" fill="#cbe6ef"/></g><g><path d="m512.001 128.518c0 9.458-7.67 17.126-17.13 17.126h-87.358c-9.14 0-17.06-5.209-20.95-12.827-1.64-3.209-2.57-6.839-2.57-10.688 0-12.987 10.53-23.515 23.519-23.515 2.95 0 5.75.56 8.35 1.55 4.44-14.297 17.76-24.675 33.519-24.675h.45c19.16.24 34.629 15.857 34.629 35.072 0 1.56-.11 3.099-.31 4.599 2.94-2.349 6.66-3.769 10.72-3.769 9.461.001 17.131 7.669 17.131 17.127z" fill="#e7f3f7"/><path d="m512.001 128.518c0 9.458-7.67 17.126-17.13 17.126h-87.358c-9.14 0-17.06-5.209-20.95-12.827h54.099c16.24 0 29.399-13.167 29.399-29.394 0-13.037-8.48-24.085-20.229-27.934 19.16.24 34.629 15.857 34.629 35.072 0 1.56-.11 3.099-.31 4.599 2.94-2.349 6.66-3.769 10.72-3.769 9.46.001 17.13 7.669 17.13 17.127z" fill="#cbe6ef"/></g><path d="m512 434.91v69.59c0 4.14-3.36 7.5-7.5 7.5h-497c-4.14 0-7.5-3.36-7.5-7.5v-7.5h475.77c11.48 0 20.78-9.31 20.78-20.78v-50.11c2.17.83 4.68 1.3 7.95 1.3 4.14 0 7.5 3.36 7.5 7.5z" fill="#00c2f3"/></g></svg>