<svg id="Layer_1" enable-background="new 0 0 512 512" height="512" viewBox="0 0 512 512" width="512" xmlns="http://www.w3.org/2000/svg"><g><path d="m235.266 303.138v168.791 31.606c0 2.763 2.243 5.006 5.006 5.006h31.036c2.763 0 5.006-2.243 5.006-5.006v-31.606-168.791z" fill="#c0694e"/><path d="m429.827 207.83c0-33.435-25.383-60.939-57.929-64.3.355-2.691.558-5.43.558-8.217 0-20.826-10.25-39.246-25.969-50.529.715-3.773 1.105-7.662 1.105-11.643 0-34.337-27.836-62.173-62.173-62.173-25.421 0-47.265 15.265-56.902 37.122-6.219-2.088-12.869-3.236-19.79-3.236-34.337 0-62.172 27.835-62.172 62.173 0 13.959 4.601 26.843 12.368 37.22-4.052-.799-8.235-1.233-12.522-1.233-35.704 0-64.648 28.944-64.648 64.647 0 28.666 18.665 52.959 44.499 61.428-.405 3.077-.635 6.209-.635 9.396 0 39.46 31.989 71.449 71.449 71.449 24.339 0 45.823-12.18 58.724-30.766 12.901 18.586 34.385 30.766 58.724 30.766 39.46 0 71.449-31.989 71.449-71.449 0-3.131-.224-6.209-.614-9.234 25.823-8.476 44.478-32.763 44.478-61.421z" fill="#81e279"/><path d="m333.26 471.928h-126.617c.996-2.957 1.543-6.12 1.543-9.413 0-16.287-13.203-29.49-29.49-29.49-5.896 0-11.384 1.737-15.991 4.718-3.797-21.719-22.734-38.232-45.54-38.232s-41.743 16.513-45.54 38.232c-4.608-2.981-10.095-4.718-15.991-4.718-16.287 0-29.49 13.203-29.49 29.49 0 3.293.548 6.456 1.543 9.413h-2.377c-10.11 0-18.306 8.196-18.306 18.306 0 10.11 8.196 18.306 18.306 18.306h307.95c10.11 0 18.306-8.196 18.306-18.306 0-10.11-8.196-18.306-18.306-18.306z" fill="#37c045"/><g><g fill="#37c045"><path d="m162.283 199.963c-4.147 0-7.509 3.362-7.509 7.509 0 5.243-4.266 9.509-9.509 9.509s-9.51-4.266-9.51-9.509c0-4.147-3.361-7.509-7.509-7.509-4.147 0-7.509 3.362-7.509 7.509 0 13.524 11.003 24.527 24.527 24.527 24.005 0 31.788-32.036 17.019-32.036z"/><path d="m207.971 243.736c-4.147 0-7.509 3.362-7.509 7.509 0 5.243-4.267 9.509-9.51 9.509s-9.51-4.266-9.51-9.509c0-4.147-3.361-7.509-7.509-7.509-14.782 0-6.933 32.035 17.019 32.035 24.006 0 31.789-32.035 17.019-32.035z"/><path d="m310.349 78.881c-4.147 0-7.509 3.362-7.509 7.509 0 5.243-4.266 9.509-9.509 9.509s-9.51-4.266-9.51-9.509c0-4.147-3.361-7.509-7.509-7.509-14.782 0-6.933 32.035 17.019 32.035 24.004 0 31.787-32.035 17.018-32.035z"/><path d="m337.924 267.583c-4.147 0-7.509 3.362-7.509 7.509 0 5.243-4.266 9.509-9.509 9.509s-9.51-4.266-9.51-9.509c0-4.147-3.361-7.509-7.509-7.509-14.782 0-6.933 32.035 17.019 32.035 24.004 0 31.787-32.035 17.018-32.035z"/><path d="m381.299 189.047c-4.147 0-7.509 3.362-7.509 7.509 0 5.243-4.267 9.509-9.51 9.509s-9.509-4.266-9.509-9.509c0-4.147-3.361-7.509-7.509-7.509-14.782 0-6.941 32.035 17.018 32.035 24.006.001 31.789-32.035 17.019-32.035z"/><path d="m272.327 126.383c-4.147 0-7.509 3.362-7.509 7.509 0 5.243-4.266 9.509-9.509 9.509s-9.51-4.266-9.51-9.509c0-4.147-3.361-7.509-7.509-7.509-14.782 0-6.933 32.035 17.019 32.035 24.004.001 31.786-32.035 17.018-32.035z"/></g></g><path d="m146.553 471.928h158.382c-.996-2.957-1.543-6.12-1.543-9.413 0-16.287 13.203-29.49 29.49-29.49 5.896 0 11.384 1.737 15.991 4.718 3.797-21.719 22.734-38.232 45.54-38.232s41.743 16.513 45.54 38.232c4.608-2.981 10.095-4.718 15.991-4.718 16.287 0 29.49 13.203 29.49 29.49 0 3.293-.548 6.456-1.543 9.413h2.377c10.11 0 18.306 8.196 18.306 18.306 0 10.11-8.196 18.306-18.306 18.306h-339.715c-10.11 0-18.306-8.196-18.306-18.306 0-10.11 8.196-18.306 18.306-18.306z" fill="#81e279"/><path d="m181.594 107.028c0 9.522 2.144 18.545 5.97 26.611 2.067 4.358-1.168 9.376-5.992 9.371h-.129c-35.711 0-64.655 28.943-64.655 64.654 0 25.435 14.703 47.424 36.063 57.973 4.845 2.393 7.816 7.349 7.808 12.753v.095c0 33.409 22.936 61.481 53.932 69.28-5.606 1.422-11.483 2.173-17.53 2.173-39.456 0-71.442-31.997-71.442-71.452 0-3.184.23-6.317.631-9.401-25.83-8.47-44.501-32.758-44.501-61.421 0-35.711 28.944-64.654 64.655-64.654 4.285 0 8.47.441 12.514 1.231-8.646-11.558-13.376-26.236-12.181-42.04 2.285-30.22 26.532-54.615 56.734-57.126 7.948-.661 15.621.196 22.765 2.294-25.801 7.559-44.642 31.407-44.642 59.659z" fill="#70cc66"/><path d="m265.871 43.393c-1.433 2.624-4.428 3.953-7.332 3.241-4.736-1.16-9.685-1.777-14.774-1.777-5.016 0-9.881.591-14.547 1.712 9.952-21.044 31.366-35.601 56.195-35.601 6.077 0 11.954.871 17.51 2.503-15.948 4.685-29.232 15.6-37.052 29.922z" fill="#70cc66"/><path d="m134.69 402.949c-13.73 5.625-24.15 17.671-27.538 32.397-.265 1.152-1.544 1.712-2.586 1.155-4.139-2.213-8.872-3.477-13.896-3.477-16.279 0-29.484 13.205-29.484 29.494 0 2.478.312 4.882.888 7.178.284 1.133-.551 2.232-1.719 2.232-10.112 0-18.311 8.2-18.311 18.301 0 5.056 2.052 9.631 5.366 12.945s7.889 5.366 12.945 5.366h-35.04c-5.056 0-9.631-2.052-12.945-5.366s-5.366-7.889-5.366-12.945c0-10.102 8.199-18.301 18.311-18.301h2.373c-.991-2.953-1.542-6.117-1.542-9.411 0-16.289 13.205-29.494 29.484-29.494 5.897 0 11.393 1.742 15.998 4.715 3.794-21.715 22.736-38.224 45.542-38.224 6.207.001 12.124 1.223 17.52 3.435z" fill="#31a43a"/><path d="m168.649 477.295c-3.314 3.314-5.366 7.879-5.366 12.935 0 10.112 8.2 18.311 18.311 18.311h-35.04c-10.112 0-18.311-8.199-18.311-18.311 0-5.056 2.052-9.621 5.366-12.935s7.889-5.366 12.945-5.366h35.04c-5.056 0-9.631 2.052-12.945 5.366z" fill="#70cc66"/><path d="m411.939 402.949c-12.686 5.197-22.546 15.876-26.645 29.085-.834 2.688-3.779 4.16-6.391 3.11-3.396-1.365-7.102-2.121-10.985-2.121-16.279 0-29.484 13.205-29.484 29.494 0 1.34.091 2.659.266 3.95.393 2.9-1.921 5.461-4.847 5.461h-28.917c-.991-2.953-1.542-6.117-1.542-9.411 0-16.289 13.205-29.494 29.484-29.494 5.897 0 11.383 1.742 15.998 4.715 3.794-21.715 22.726-38.224 45.532-38.224 6.208.001 12.125 1.223 17.531 3.435z" fill="#70cc66"/><g fill="#c2bdc5"><path d="m504.491 3.459h-9.081c-10.58 0-20.032 4.9-26.221 12.545-6.189-7.645-15.641-12.545-26.221-12.545h-9.081c-4.147 0-7.509 3.362-7.509 7.509s3.361 7.509 7.509 7.509h9.081c7.647 0 14.228 4.616 17.127 11.203h-.407c-4.147 0-7.509 3.362-7.509 7.509s3.361 7.509 7.509 7.509h19.001c4.147 0 7.509-3.362 7.509-7.509s-3.361-7.509-7.509-7.509h-.408c2.9-6.587 9.481-11.203 17.128-11.203h9.081c4.147 0 7.509-3.362 7.509-7.509s-3.36-7.509-7.508-7.509z"/><path d="m451.902 61.169h-9.081c-10.58 0-20.032 4.9-26.221 12.545-6.189-7.645-15.642-12.545-26.221-12.545h-9.081c-4.147 0-7.509 3.362-7.509 7.509s3.361 7.509 7.509 7.509h9.081c7.647 0 14.229 4.616 17.128 11.204h-.407c-4.147 0-7.509 3.362-7.509 7.509s3.361 7.509 7.509 7.509h19.001c4.147 0 7.509-3.362 7.509-7.509s-3.361-7.509-7.509-7.509h-.407c2.899-6.588 9.48-11.204 17.127-11.204h9.081c4.147 0 7.509-3.362 7.509-7.509s-3.361-7.509-7.509-7.509z"/><path d="m52.311 44.697c4.147 0 7.509-3.362 7.509-7.509s-3.361-7.509-7.509-7.509h-.408c2.9-6.587 9.481-11.203 17.128-11.203h9.081c4.147 0 7.509-3.362 7.509-7.509s-3.361-7.509-7.509-7.509h-9.081c-10.58 0-20.032 4.9-26.221 12.545-6.188-7.644-15.641-12.544-26.221-12.544h-9.08c-4.148 0-7.509 3.362-7.509 7.509s3.361 7.509 7.509 7.509h9.081c7.647 0 14.228 4.616 17.127 11.203h-.407c-4.147 0-7.509 3.362-7.509 7.509s3.361 7.509 7.509 7.509h19.001z"/><path d="m117.054 87.39h-9.082c-10.579 0-20.032 4.9-26.221 12.545-6.188-7.645-15.641-12.545-26.22-12.545h-9.081c-4.147 0-7.509 3.362-7.509 7.509s3.361 7.509 7.509 7.509h9.081c7.647 0 14.228 4.616 17.127 11.203h-.407c-4.147 0-7.509 3.362-7.509 7.509s3.361 7.509 7.509 7.509h19.001c4.147 0 7.509-3.362 7.509-7.509s-3.361-7.509-7.509-7.509h-.408c2.9-6.587 9.481-11.203 17.127-11.203h9.082c4.147 0 7.509-3.362 7.509-7.509s-3.361-7.509-7.508-7.509z"/></g></g></svg>