<svg id="Capa_1" enable-background="new 0 0 512 512" height="512" viewBox="0 0 512 512" width="512" xmlns="http://www.w3.org/2000/svg"><g><path d="m493.234 83.425h-26.618c-3.203 0-5.84-2.778-5.868-6.265-.51-4.961-2.749-9.439-6.009-12.671-3.345-3.289-7.768-5.301-12.643-5.301h-15.648c-3.26 0-5.867-2.834-5.867-6.321 0-5.584-2.127-10.658-5.528-14.315-3.401-3.685-8.106-5.981-13.237-5.981h-23.104c-5.159 0-9.836 2.296-13.238 5.981-3.401 3.657-5.527 8.731-5.527 14.315 0 3.487-2.636 6.321-5.867 6.321h-7.427c-4.876 0-9.326 2.013-12.643 5.301-3.402 3.345-5.642 7.994-6.066 13.153-.283 3.288-2.835 5.783-5.84 5.754l-3.911.028c-5.159 0-9.837 2.296-13.238 5.981-3.43 3.657-5.527 8.731-5.527 14.315 0 5.557 2.098 10.63 5.527 14.316 3.401 3.685 8.079 5.952 13.238 5.952h175.041c5.159 0 9.836-2.268 13.267-5.952 3.401-3.686 5.499-8.759 5.499-14.316 0-5.584-2.098-10.658-5.499-14.315-3.431-3.684-8.107-5.98-13.267-5.98z" fill="#d2f6ff"/><path d="m370.209 281.767c0 4.139-3.373 7.512-7.512 7.512s-7.483-3.374-7.483-7.512v-38.693l-13.748 13.748c-2.92 2.919-7.654 2.919-10.602 0-2.92-2.948-2.92-7.682 0-10.63l24.35-24.322v-15.874l-7.314 7.313c-2.92 2.92-7.683 2.92-10.602 0-2.92-2.919-2.92-7.682 0-10.602l17.915-17.915v-11.226l-.879.879c-2.948 2.92-7.682 2.92-10.602 0-2.948-2.92-2.948-7.682 0-10.602l13.635-13.635c1.389-1.445 3.316-2.24 5.329-2.24 2.041 0 3.94.794 5.357 2.211l13.635 13.663c2.92 2.92 2.92 7.682 0 10.602s-7.683 2.92-10.602 0l-.879-.879v11.226l17.916 17.915c2.92 2.92 2.92 7.682 0 10.602-2.948 2.92-7.683 2.92-10.603 0l-7.313-7.313v15.874l24.322 24.322c2.948 2.948 2.948 7.682 0 10.63-2.92 2.919-7.653 2.919-10.602 0l-13.721-13.748v38.694zm65.623-31.777c-2.92 2.92-7.682 2.92-10.602 0-2.92-2.919-2.92-7.682 0-10.602l22.45-22.451v-13.237l-5.868 5.868c-2.947 2.948-7.682 2.948-10.602 0-2.947-2.919-2.947-7.653 0-10.602l16.47-16.47v-8.929c-2.948 2.835-7.625 2.807-10.517-.085-2.92-2.948-2.92-7.682 0-10.602l12.671-12.699c1.417-1.417 3.316-2.211 5.357-2.211 2.013 0 3.94.794 5.329 2.24l12.672 12.671c2.92 2.92 2.92 7.653 0 10.602-2.892 2.892-7.569 2.92-10.518.085v8.929l16.499 16.47c2.92 2.948 2.92 7.682 0 10.602-2.948 2.948-7.682 2.948-10.63 0l-5.869-5.868v13.238l22.451 22.451c2.948 2.92 2.948 7.682 0 10.602-2.919 2.92-7.682 2.92-10.602 0l-11.85-11.849v34.668c0 4.139-3.345 7.512-7.483 7.512-4.167 0-7.512-3.374-7.512-7.512v-34.668z" fill="#66b394"/><path d="m90.993 365.674c0 4.139-3.373 7.512-7.512 7.512s-7.483-3.373-7.483-7.512v-67.04c0-4.167 3.345-7.512 7.483-7.512 4.139 0 7.512 3.345 7.512 7.512z" fill="#917d52"/><path d="m190.718 376.021c0 4.138-3.374 7.512-7.513 7.512-4.138 0-7.483-3.374-7.483-7.512v-80.477c0-4.138 3.345-7.483 7.483-7.483 4.139 0 7.513 3.345 7.513 7.483z" fill="#917d52"/><g clip-rule="evenodd" fill-rule="evenodd"><path d="m183.205 0c46.376 0 83.963 166.594 83.963 212.46 0 45.893-37.587 83.084-83.963 83.084-46.347 0-83.935-37.191-83.935-83.084.001-45.866 37.588-212.46 83.935-212.46z" fill="#66b394"/><path d="m83.481 68.118c33.223 0 60.152 26.589 60.152 59.386 0 7.086-1.275 13.862-3.572 20.183-1.786 4.904-1.927 5.924 2.013 9.808 15.364 14.938 24.889 35.717 24.889 58.706 0 45.525-37.361 82.432-83.482 82.432-46.091 0-83.481-36.907-83.481-82.432 0-22.847 9.411-43.484 24.577-58.423 4.422-4.337 4.337-4.564 2.239-10.347-2.239-6.236-3.458-12.926-3.458-19.928 0-32.797 26.901-59.385 60.123-59.385z" fill="#95d6a4"/><path d="m512 442.068v-71.037-88.612c0-6.067-4.649-7.994-9.694-8.363-12.728-.879-25.654-1.332-38.779-1.332-122.23 0-228.191 39.94-280.321 98.307v86.004h328.794z" fill="#95d6a4"/><path d="m0 504.46v-106.018c0-5.754 1.673-9.071 6.01-12.161.567-.397 1.247-.822 1.899-1.247 13.635-8.703 45.723-24.35 102.757-26.589 79.682-3.147 111.657 43.512 192.9 63.128 81.243 19.617 208.434 20.495 208.434 20.495v62.391c0 7.115-2.439 7.54-7.54 7.54h-496.891c-6.293.001-7.569-1.898-7.569-7.539z" fill="#b3e59f"/><path d="m170.705 3.969c40.451 25.541 71.462 166.821 71.462 208.491 0 35.405-22.366 65.622-53.859 77.585-3.968 1.531-8.107 2.75-12.359 3.657-1.729.369-3.487.68-5.244.935 1.672.255 3.345.454 5.017.595 2.466.198 4.961.312 7.483.312 2.523 0 5.046-.113 7.513-.312 42.832-3.77 76.45-39.374 76.45-82.772 0-45.866-37.587-212.46-83.963-212.46-4.252 0-8.418 1.389-12.5 3.969z" fill="#5aa687"/><path d="m166.963 216.201c0-22.989-9.524-43.768-24.889-58.706-3.94-3.884-3.798-4.904-2.013-9.808 8.023-21.969 2.154-46.716-14.825-62.902-10.8-10.318-25.54-16.668-41.755-16.668-4.28 0-8.476.454-12.501 1.276 22.422 4.705 40.224 21.713 45.809 43.512 2.919 11.423 2.325 23.697-1.729 34.781-1.786 4.904-1.928 5.924 2.041 9.808 15.335 14.938 24.86 35.717 24.86 58.706 0 41.046-30.529 75.516-70.98 81.497 1.645.255 3.317.454 5.018.595 2.466.227 4.961.34 7.483.34 45.553.001 83.481-36.367 83.481-82.431z" fill="#78c2a4"/><path d="m0 486.998v17.462c0 5.641 1.276 7.54 7.569 7.54h496.891c5.102 0 7.54-.425 7.54-7.54v-17.462c-170.647 0-341.324 0-512 0z" fill="#95d6a4"/><path d="m303.566 421.574c81.243 19.616 208.434 20.494 208.434 20.494v-25.002s-127.191-.851-208.434-20.495c-43.343-10.46-72.682-28.63-102.729-42.833-3.544 3.062-6.917 6.18-10.12 9.383-2.608 2.58-5.103 5.216-7.513 7.909 2.523.992 5.018 2.041 7.513 3.118 33.789 14.628 64.631 35.775 112.849 47.426z" fill="#78c2a4"/><path d="m318.193 123.989h175.041c5.159 0 9.836-2.268 13.267-5.952 3.401-3.686 5.499-8.759 5.499-14.316 0-4.705-1.503-9.043-4.025-12.501-.454.624-.964 1.247-1.474 1.814-3.431 3.685-8.107 5.953-13.267 5.953h-175.041c-5.159 0-9.837-2.268-13.238-5.953-.538-.567-1.049-1.19-1.502-1.814-2.522 3.458-4.025 7.795-4.025 12.501 0 5.557 2.098 10.63 5.527 14.316 3.401 3.684 8.079 5.952 13.238 5.952z" fill="#b8f0ff"/></g></g></svg>