<svg height="512" viewBox="0 0 512 512" width="512" xmlns="http://www.w3.org/2000/svg"><g id="flat"><path d="m440 496a8 8 0 0 1 -8-8v-48a8 8 0 0 1 16 0v48a8 8 0 0 1 -8 8z" fill="#5f4623"/><path d="m312 496a8 8 0 0 1 -8-8v-48a8 8 0 0 1 16 0v48a8 8 0 0 1 -8 8z" fill="#5f4623"/><circle cx="256" cy="88" fill="#fbb540" r="64"/><rect fill="#029532" height="248" rx="48" width="96" x="264" y="192"/><rect fill="#027e2a" height="200" rx="48" width="96" x="392" y="240"/><path d="m128 496a8 8 0 0 1 -8-8v-48a8 8 0 0 1 16 0v48a8 8 0 0 1 -8 8z" fill="#5f4623"/><path d="m120 152-56 184h24l-48 104h160l-48-104h24z" fill="#029532"/><path d="m432 368h-129.371a23.949 23.949 0 0 0 1.371-8 24 24 0 0 0 -24-24h56a16 16 0 0 0 16-16 16 16 0 0 0 -16-16h72a16 16 0 0 0 16-16 16 16 0 0 0 -16-16h-176a16 16 0 0 0 -16 16 16 16 0 0 0 16 16h-72a16 16 0 0 0 -16 16 16 16 0 0 0 16 16h-56a24 24 0 0 0 -24 24 23.949 23.949 0 0 0 1.371 8h-37.371a20 20 0 0 0 -20 20 20 20 0 0 0 20 20h136a20 20 0 0 0 20-20 20.04 20.04 0 0 0 -.4-4h56.4a16 16 0 0 0 16 16h160a16 16 0 0 0 16-16 16 16 0 0 0 -16-16z" fill="#eaeae8"/><path d="m48 272h88a16 16 0 0 0 16-16 15.9 15.9 0 0 0 -2.158-8h46.158a20 20 0 0 0 20-20 20 20 0 0 0 -20-20h-112a20 20 0 0 0 -20 20 19.885 19.885 0 0 0 4.027 12h-20.027a16 16 0 0 0 -16 16 16 16 0 0 0 16 16z" fill="#eaeae8"/><path d="m488 496h-464a8 8 0 0 1 0-16h464a8 8 0 0 1 0 16z" fill="#027e2a"/><g fill="#eaeae8"><path d="m400 64h-96a16 16 0 0 0 -16 16 16 16 0 0 0 16 16h-32a16 16 0 0 0 -16 16 16 16 0 0 0 16 16h72a16 16 0 0 0 16-16 16 16 0 0 0 -16-16h56a16 16 0 0 0 16-16 16 16 0 0 0 -16-16z"/><rect height="32" rx="16" width="112" x="112" y="72"/><path d="m464 144h-48a16 16 0 0 0 -16 16 15.9 15.9 0 0 0 2.158 8h-10.158a16 16 0 0 0 -16 16 16 16 0 0 0 16 16h48a16 16 0 0 0 16-16 15.9 15.9 0 0 0 -2.158-8h10.158a16 16 0 0 0 16-16 16 16 0 0 0 -16-16z"/></g></g></svg>