<svg id="Layer_1" enable-background="new 0 0 512 512" height="512" viewBox="0 0 512 512" width="512" xmlns="http://www.w3.org/2000/svg"><g><path d="m60.88 451.124c-81.095-81.09-81.252-212.628.001-293.874 20.971-20.972 45.573-36.899 73.124-47.339 6.358-2.409 13.538-.243 17.501 5.28 3.963 5.521 3.718 13.02-.598 18.271-52.319 63.654-48.461 157.757 10.707 216.923 59.305 59.303 153.428 62.894 216.925 10.707 5.251-4.318 12.75-4.562 18.271-.599 5.522 3.964 7.689 11.146 5.28 17.502-10.441 27.555-26.368 52.158-47.338 73.129-81.096 81.098-212.638 81.238-293.873 0z" fill="#fadc5c"/><path d="m60.88 451.124 100.735-100.739c59.305 59.303 153.428 62.894 216.925 10.707 5.251-4.318 12.75-4.562 18.271-.599 5.522 3.964 7.689 11.146 5.28 17.502-10.441 27.555-26.368 52.158-47.338 73.129-81.096 81.098-212.638 81.238-293.873 0z" fill="#fdb442"/><path d="m308.929 193.564c-3.257-1.086-20.445-5.241-35.095-19.665-14.425-14.65-18.58-31.838-19.665-35.095-2.037-6.132-7.773-10.271-14.235-10.271s-12.198 4.139-14.235 10.271c-1.086 3.257-5.241 20.445-19.665 35.095-14.65 14.425-31.838 18.579-35.095 19.665-6.132 2.037-10.271 7.773-10.271 14.235s4.139 12.198 10.271 14.235c3.257 1.086 20.445 5.241 35.095 19.665 14.425 14.65 18.58 31.838 19.665 35.095 2.037 6.132 7.773 10.271 14.235 10.271s12.198-4.139 14.235-10.271c1.086-3.257 5.241-20.445 19.665-35.095 14.65-14.425 31.838-18.579 35.095-19.665 6.132-2.037 10.271-7.773 10.271-14.235s-4.139-12.198-10.271-14.235z" fill="#f7ef9a"/><path d="m308.929 193.564c-3.257-1.086-20.445-5.241-35.095-19.665-14.425-14.65-18.58-31.838-19.665-35.095-2.037-6.132-7.773-10.271-14.235-10.271v158.532c6.462 0 12.198-4.139 14.235-10.271 1.086-3.257 5.241-20.445 19.665-35.095 14.65-14.425 31.838-18.579 35.095-19.665 6.132-2.037 10.271-7.773 10.271-14.235s-4.139-12.198-10.271-14.235z" fill="#fadc5c"/><path d="m437.463 65.031c-3.257-1.086-20.445-5.241-35.095-19.665-14.425-14.65-18.58-31.838-19.665-35.095-2.037-6.132-7.773-10.271-14.235-10.271s-12.198 4.139-14.235 10.271c-1.086 3.257-5.241 20.445-19.665 35.095-14.65 14.425-31.838 18.579-35.095 19.665-6.132 2.037-10.271 7.773-10.271 14.235s4.139 12.198 10.271 14.235c3.257 1.086 20.445 5.241 35.095 19.665 14.425 14.65 18.58 31.838 19.665 35.095 2.037 6.132 7.773 10.271 14.235 10.271s12.198-4.139 14.235-10.271c1.086-3.257 5.241-20.445 19.665-35.095 14.65-14.425 31.838-18.579 35.095-19.665 6.132-2.037 10.271-7.773 10.271-14.235s-4.139-12.198-10.271-14.235z" fill="#f7ef9a"/><path d="m437.463 65.031c-3.257-1.086-20.445-5.241-35.095-19.665-14.425-14.65-18.58-31.838-19.665-35.095-2.037-6.132-7.773-10.271-14.235-10.271v158.532c6.462 0 12.198-4.139 14.235-10.271 1.086-3.257 5.241-20.445 19.665-35.095 14.65-14.425 31.838-18.579 35.095-19.665 6.132-2.037 10.271-7.773 10.271-14.235s-4.139-12.198-10.271-14.235z" fill="#fadc5c"/><path d="m501.729 241.765c-3.257-1.086-20.445-5.241-35.095-19.665-14.425-14.65-18.58-31.838-19.665-35.095-2.037-6.132-7.773-10.271-14.235-10.271s-12.198 4.139-14.235 10.271c-1.086 3.257-5.241 20.445-19.665 35.095-14.65 14.425-31.838 18.579-35.095 19.665-6.132 2.037-10.271 7.773-10.271 14.235s4.139 12.198 10.271 14.235c3.257 1.086 20.445 5.241 35.095 19.665 14.425 14.65 18.58 31.838 19.665 35.095 2.037 6.132 7.773 10.271 14.235 10.271s12.198-4.139 14.235-10.271c1.086-3.257 5.241-20.445 19.665-35.095 14.65-14.425 31.838-18.579 35.095-19.665 6.132-2.037 10.271-7.773 10.271-14.235s-4.139-12.198-10.271-14.235z" fill="#f7ef9a"/><path d="m501.729 241.765c-3.257-1.086-20.445-5.241-35.095-19.665-14.425-14.65-18.58-31.838-19.665-35.095-2.037-6.132-7.773-10.271-14.235-10.271v158.532c6.462 0 12.198-4.139 14.235-10.271 1.086-3.257 5.241-20.445 19.665-35.095 14.65-14.425 31.838-18.579 35.095-19.665 6.132-2.037 10.271-7.773 10.271-14.235s-4.139-12.198-10.271-14.235z" fill="#fadc5c"/></g></svg>