<svg id="Capa_1" enable-background="new 0 0 512 512" height="512" viewBox="0 0 512 512" width="512" xmlns="http://www.w3.org/2000/svg"><g><path d="m417 60c-8.284 0-15-6.716-15-15v-30c0-8.284 6.716-15 15-15s15 6.716 15 15v30c0 8.284-6.716 15-15 15z" fill="#ff9d21"/><path d="m432 45v-30c0-8.284-6.716-15-15-15v60c8.284 0 15-6.716 15-15z" fill="#ff7038"/><path d="m417 190c-8.284 0-15-6.716-15-15v-30c0-8.284 6.716-15 15-15s15 6.716 15 15v30c0 8.284-6.716 15-15 15z" fill="#ff9d21"/><path d="m432 175v-30c0-8.284-6.716-15-15-15v60c8.284 0 15-6.716 15-15z" fill="#ff7038"/><path d="m497 110h-30c-8.284 0-15-6.716-15-15s6.716-15 15-15h30c8.284 0 15 6.716 15 15s-6.716 15-15 15z" fill="#ff7038"/><g fill="#ff9d21"><path d="m367 110h-30c-8.284 0-15-6.716-15-15s6.716-15 15-15h30c8.284 0 15 6.716 15 15s-6.716 15-15 15z"/><path d="m360.432 166.568c-3.839 0-7.678-1.464-10.606-4.394-5.858-5.858-5.858-15.355 0-21.213l21.213-21.213c5.857-5.858 15.355-5.858 21.213 0s5.858 15.355 0 21.213l-21.213 21.213c-2.93 2.93-6.768 4.394-10.607 4.394z"/><path d="m381.645 74.645c-3.839 0-7.678-1.464-10.606-4.394l-21.213-21.213c-5.858-5.858-5.858-15.355 0-21.213 5.857-5.858 15.355-5.858 21.213 0l21.213 21.213c5.858 5.858 5.858 15.355 0 21.213-2.93 2.929-6.769 4.394-10.607 4.394z"/></g><path d="m473.568 166.568c-3.839 0-7.678-1.464-10.606-4.394l-21.213-21.213c-5.858-5.858-5.858-15.355 0-21.213 5.857-5.858 15.355-5.858 21.213 0l21.213 21.213c5.858 5.858 5.858 15.355 0 21.213-2.929 2.93-6.768 4.394-10.607 4.394z" fill="#ff7038"/><path d="m452.355 74.645c-3.839 0-7.678-1.464-10.606-4.394-5.858-5.858-5.858-15.355 0-21.213l21.213-21.213c5.857-5.858 15.355-5.858 21.213 0s5.858 15.355 0 21.213l-21.213 21.213c-2.929 2.929-6.768 4.394-10.607 4.394z" fill="#ff7038"/><path d="m417 160c-35.841 0-65-29.159-65-65s29.159-65 65-65 65 29.159 65 65-29.159 65-65 65z" fill="#ffde46"/><path d="m482 95c0-35.841-29.159-65-65-65v130c35.841 0 65-29.159 65-65z" fill="#ff9d21"/><path d="m441 425h30v72h-30z" fill="#ff7038"/><path d="m241 425h30v72h-30z" fill="#ff9d21"/><path d="m431 375h30v50h-30z" fill="#ff7038"/><path d="m251 375h30v50h-30z" fill="#ff9d21"/><path d="m211 180c-8.284 0-15 6.716-15 15v50c0 13.785-11.215 25-25 25h-20v30h20c30.327 0 55-24.673 55-55v-50c0-8.284-6.716-15-15-15z" fill="#734536"/><path d="m131 330c-13.785 0-25-11.215-25-25v-30c0-8.284-6.716-15-15-15s-15 6.716-15 15v30c0 30.327 24.673 55 55 55h20v-30z" fill="#9d5e4a"/><path d="m151 180c-8.284 0-15 6.716-15 15v302h30v-302c0-8.284-6.716-15-15-15z" fill="#9d5e4a"/><path d="m166 497v-302c0-8.284-6.716-15-15-15v317z" fill="#734536"/><path d="m80 234c-44.112 0-80-35.888-80-80 0-34.144 21.368-63.806 52.454-75.127l-1.362-12.21c-.061-.552-.092-1.107-.092-1.663 0-35.841 29.159-65 65-65 14.796 0 28.745 4.943 40.044 13.918 13.875-10.9 31.773-15.851 49.701-13.197 25.97 3.842 46.889 22.892 53.296 48.532 1.279 5.121 1.933 10.268 1.959 15.399 11.893 4.402 22.586 11.799 30.954 21.556 11.637 13.57 18.046 30.897 18.046 48.792 0 41.355-33.645 75-75 75h-97.875c-15.006 15.336-35.444 24-57.125 24z" fill="#beda4b"/><path d="m261 64.653c-.027-5.132-.68-10.278-1.959-15.399-6.407-25.64-27.326-44.69-53.296-48.532-17.928-2.654-35.826 2.297-49.701 13.197-1.626-1.292-3.313-2.49-5.044-3.612v199.693h84c41.355 0 75-33.645 75-75 0-17.895-6.409-35.222-18.045-48.791-8.369-9.757-19.062-17.154-30.955-21.556z" fill="#14cd6e"/><path d="m476 390h-240c-4.619 0-8.98-2.128-11.823-5.769-2.842-3.641-3.849-8.388-2.729-12.869l20-80c1.669-6.677 7.669-11.362 14.552-11.362h200c6.883 0 12.883 4.685 14.552 11.362l20 80c1.12 4.481.113 9.229-2.729 12.869-2.843 3.641-7.204 5.769-11.823 5.769z" fill="#f5f0eb"/><path d="m470.552 291.362c-1.669-6.677-7.669-11.362-14.552-11.362h-100v110h120c4.619 0 8.98-2.128 11.823-5.769 2.842-3.641 3.849-8.388 2.729-12.869z" fill="#ebe1dc"/><path d="m486 440h-260c-8.284 0-15-6.716-15-15s6.716-15 15-15h260c8.284 0 15 6.716 15 15s-6.716 15-15 15z" fill="#f5f0eb"/><path d="m486 410h-130v30h130c8.284 0 15-6.716 15-15s-6.716-15-15-15z" fill="#ebe1dc"/><path d="m497 512h-482c-8.284 0-15-6.716-15-15s6.716-15 15-15h482c8.284 0 15 6.716 15 15s-6.716 15-15 15z" fill="#beda4b"/><path d="m496.971 482h-240.971v30h240.971c8.301 0 15.029-6.716 15.029-15s-6.729-15-15.029-15z" fill="#14cd6e"/></g></svg>