<svg height="512" viewBox="0 0 512 512" width="512" xmlns="http://www.w3.org/2000/svg"><g id="flat"><circle cx="352" cy="96" fill="#fbb540" r="32"/><g fill="#533222"><path d="m344 432a8 8 0 0 1 -8-8v-32a8 8 0 0 1 16 0v32a8 8 0 0 1 -8 8z"/><path d="m432 432a8 8 0 0 1 -8-8v-32a8 8 0 0 1 16 0v32a8 8 0 0 1 -8 8z"/><path d="m312 496a8 8 0 0 1 -8-8v-32a8 8 0 0 1 16 0v32a8 8 0 0 1 -8 8z"/><path d="m448 496a8 8 0 0 1 -8-8v-32a8 8 0 0 1 16 0v32a8 8 0 0 1 -8 8z"/></g><path d="m322 344h124a10 10 0 0 1 10 10v14a0 0 0 0 1 0 0h-144a0 0 0 0 1 0 0v-14a10 10 0 0 1 10-10z" fill="#834b10"/><path d="m312 368h144a0 0 0 0 1 0 0v14a10 10 0 0 1 -10 10h-124a10 10 0 0 1 -10-10v-14a0 0 0 0 1 0 0z" fill="#683b0d"/><path d="m280 184a63.742 63.742 0 0 0 -16.06-42.379 63.99 63.99 0 0 0 -56.25-61.145 63.987 63.987 0 0 0 -111.38 0 63.99 63.99 0 0 0 -56.25 61.145 63.956 63.956 0 0 0 7.99 92.362 63.969 63.969 0 0 0 103.95 47.96 63.969 63.969 0 0 0 103.95-47.96 63.867 63.867 0 0 0 24.05-49.983z" fill="#fd9226"/><path d="m153.344 177.771a8 8 0 0 0 11.094 2.218l29.984-19.989h21.578a8 8 0 0 0 0-16h-12.9l4.49-13.47a8 8 0 0 0 -15.18-5.06l-7.132 21.4-29.716 19.81a7.99 7.99 0 0 0 -3.562 6.6 7.99 7.99 0 0 0 -3.562-6.6l-29.716-19.81-7.132-21.4a8 8 0 0 0 -15.18 5.06l4.49 13.47h-12.9a8 8 0 0 0 0 16h21.578l29.984 19.989a8 8 0 0 0 12.438-6.678 7.969 7.969 0 0 0 1.344 4.46z" fill="#683b0d"/><path d="m235.578 208.845-8.845-4.423 4.422-8.844a8 8 0 0 0 -14.31-7.156l-6.808 13.615-52.378 26.19a8 8 0 1 0 7.156 14.31l51.185-25.593 12.422 6.211a8 8 0 0 0 7.156-14.31z" fill="#683b0d"/><path d="m144.424 227.268-50.461-25.231-6.808-13.615a8 8 0 1 0 -14.31 7.156l4.422 8.844-8.845 4.423a8 8 0 1 0 7.156 14.31l12.422-6.211 49.268 24.634a8 8 0 0 0 7.156-14.31z" fill="#683b0d"/><path d="m237.234 425.388a40 40 0 0 0 -76.3 6 27.736 27.736 0 0 0 -8.934 20.428v36.184h120v-18a46.014 46.014 0 0 0 -34.766-44.612z" fill="#027e2a"/><path d="m168 488h-32v-257.031q0-14.961 1.355-29.877l5.921-65.125a8.76 8.76 0 0 1 8.724-7.967 8.76 8.76 0 0 1 8.724 7.967l5.921 65.125q1.355 14.901 1.355 29.877z" fill="#683b0d"/><path d="m146 432h-11.67a44 44 0 0 0 -83.038-4.708 44.007 44.007 0 0 0 -27.292 40.708v20h152v-26a30 30 0 0 0 -30-30z" fill="#029532"/><circle cx="64" cy="456" fill="#02cb44" r="8"/><circle cx="96" cy="432" fill="#02cb44" r="8"/><circle cx="120" cy="456" fill="#02cb44" r="8"/><circle cx="200" cy="440" fill="#029532" r="8"/><circle cx="232" cy="456" fill="#029532" r="8"/><path d="m208 264a7.974 7.974 0 0 1 -5.657-2.343l-8-8a8 8 0 0 1 11.314-11.314l8 8a8 8 0 0 1 -5.657 13.657z" fill="#fd7422"/><path d="m344 288a7.974 7.974 0 0 1 -5.657-2.343l-8-8a8 8 0 0 1 11.314-11.314l8 8a8 8 0 0 1 -5.657 13.657z" fill="#fd7422"/><path d="m432 264a7.974 7.974 0 0 1 -5.657-2.343l-8-8a8 8 0 0 1 11.314-11.314l8 8a8 8 0 0 1 -5.657 13.657z" fill="#fd7422"/><path d="m72 344a7.974 7.974 0 0 1 -5.657-2.343l-8-8a8 8 0 0 1 11.314-11.314l8 8a8 8 0 0 1 -5.657 13.657z" fill="#e82f3e"/><path d="m288 312a7.974 7.974 0 0 1 -5.657-2.343l-8-8a8 8 0 0 1 11.314-11.314l8 8a8 8 0 0 1 -5.657 13.657z" fill="#e82f3e"/><path d="m216 360a8 8 0 0 1 -5.657-13.657l8-8a8 8 0 1 1 11.314 11.314l-8 8a7.974 7.974 0 0 1 -5.657 2.343z" fill="#fd7422"/><path d="m264 400a8 8 0 0 1 -5.657-13.657l8-8a8 8 0 0 1 11.314 11.314l-8 8a7.974 7.974 0 0 1 -5.657 2.343z" fill="#e82f3e"/><path d="m376 248a8 8 0 0 1 -5.657-13.657l8-8a8 8 0 0 1 11.314 11.314l-8 8a7.974 7.974 0 0 1 -5.657 2.343z" fill="#e82f3e"/><path d="m40 392a8 8 0 0 1 -5.657-13.657l8-8a8 8 0 0 1 11.314 11.314l-8 8a7.974 7.974 0 0 1 -5.657 2.343z" fill="#fd7422"/><path d="m416 312a7.974 7.974 0 0 1 -5.657-2.343l-8-8a8 8 0 0 1 11.314-11.314l8 8a8 8 0 0 1 -5.657 13.657z" fill="#e82f3e"/><path d="m480 328a7.974 7.974 0 0 1 -5.657-2.343l-8-8a8 8 0 0 1 11.314-11.314l8 8a8 8 0 0 1 -5.657 13.657z" fill="#fd7422"/><path d="m328 224a7.974 7.974 0 0 1 -5.657-2.343l-8-8a8 8 0 0 1 11.314-11.314l8 8a8 8 0 0 1 -5.657 13.657z" fill="#fd7422"/><path d="m160 104a7.974 7.974 0 0 1 -5.657-2.343l-8-8a8 8 0 0 1 11.314-11.314l8 8a8 8 0 0 1 -5.657 13.657z" fill="#e82f3e"/><path d="m64 176a7.974 7.974 0 0 1 -5.657-2.343l-8-8a8 8 0 0 1 11.314-11.314l8 8a8 8 0 0 1 -5.657 13.657z" fill="#fd7422"/><path d="m468 152h-14a33.347 33.347 0 0 0 -46.942-23.459 40 40 0 1 0 -32.391 63.459h93.333a20 20 0 0 0 20-20 20 20 0 0 0 -20-20z" fill="#eaeae8"/><path d="m374.667 168h-8a8 8 0 1 1 0-16h8a8 8 0 0 1 0 16z" fill="#cbcbcb"/><path d="m422.667 168h-16a8 8 0 1 1 0-16h16a8 8 0 0 1 0 16z" fill="#cbcbcb"/><g fill="#ea9d2d"><path d="m352 48a8 8 0 0 1 -8-8v-16a8 8 0 0 1 16 0v16a8 8 0 0 1 -8 8z"/><path d="m312.4 64.4a7.979 7.979 0 0 1 -5.657-2.342l-11.312-11.313a8 8 0 1 1 11.314-11.314l11.315 11.314a8 8 0 0 1 -5.66 13.655z"/><path d="m296 104h-16a8 8 0 0 1 0-16h16a8 8 0 0 1 0 16z"/><path d="m424 104h-16a8 8 0 0 1 0-16h16a8 8 0 0 1 0 16z"/><path d="m301.088 154.912a8 8 0 0 1 -5.657-13.657l11.314-11.315a8 8 0 1 1 11.315 11.315l-11.315 11.314a7.974 7.974 0 0 1 -5.657 2.343z"/><path d="m391.6 64.4a8 8 0 0 1 -5.658-13.657l11.315-11.314a8 8 0 1 1 11.314 11.314l-11.316 11.317a7.979 7.979 0 0 1 -5.655 2.34z"/></g><rect fill="#834b10" height="32" rx="16" width="176" x="296" y="424"/><path d="m488 496h-464a8 8 0 0 1 0-16h464a8 8 0 0 1 0 16z" fill="#026a23"/></g></svg>