<?xml version="1.0" encoding="iso-8859-1"?>
<!-- Generator: Adobe Illustrator 19.0.0, SVG Export Plug-In . SVG Version: 6.00 Build 0)  -->
<svg version="1.1" id="Capa_1" xmlns="http://www.w3.org/2000/svg" xmlns:xlink="http://www.w3.org/1999/xlink" x="0px" y="0px"
	 viewBox="0 0 512 512" style="enable-background:new 0 0 512 512;" xml:space="preserve">
<path style="fill:#3D9AE2;" d="M511.338,80.114c-0.611,1.645,0.486-1.314-5.039,13.659c-4.76,12.904-14.425,39.084-34.313,92.944
	c-89.309-72.657,37.17,30.202-55.371-45.044l63.008-74.246c2.39-2.825,6.085-4.201,9.748-3.632l13.649,2.152
	C509.651,66.993,513.656,73.833,511.338,80.114z"/>
<path style="fill:#1E81CE;" d="M498.269,92.511c-3.663-0.579-7.357,0.797-9.748,3.622l-52.225,61.549
	c3.112,2.536-5.404-4.396,35.69,29.036c19.889-53.86,29.553-80.04,34.313-92.944L498.269,92.511z"/>
<path style="fill:#5AAAE7;" d="M169.451,168.559c-0.004-0.003-0.007-0.005-0.008-0.007c0.002,0.001,0.006,0.005,0.011,0.009
	C169.453,168.56,169.452,168.56,169.451,168.559L169.451,168.559z"/>
<path style="fill:#1E81CE;" d="M391.179,286.263c-1.014-0.9-2.059-1.832-3.125-2.794c-32.378-28.829-87.025-77.485-108.228-96.359
	c-12.459-11.103-30.961-14.653-47.445-17.25l-26.904-6.912l-31.623-8.133c-5.06-0.797-8.475,10.627-4.419,13.732
	c0,0,0.01,0,0.01,0.01c0.01,0,0.01,0,0.01,0.01v-0.01c0,0.01,0.01,0.01,0.01,0.01s0,0.01,0.01,0.01c0.01,0.01,0.01,0.01,0.021,0.01
	c0,0.01,0.01,0.01,0.01,0.01c0,0.01,0.01,0.01,0.01,0.01s0.01,0,0.01,0.01c0,0,0,0,0.01,0c1.118,0.859,14.011,10.648,129.969,98.718
	c18.202,13.825,39.736,22.61,62.418,25.466l24.855,3.135C392.204,296.611,395.256,289.896,391.179,286.263z"/>
<g>
	<path style="fill:#5AAAE7;" d="M169.443,168.552C169.441,168.551,169.441,168.551,169.443,168.552L169.443,168.552z"/>
	<polygon style="fill:#5AAAE7;" points="169.508,168.602 169.519,168.611 169.509,168.602 	"/>
</g>
<path style="fill:#3D9AE2;" d="M279.826,187.111c-12.459-11.103-30.961-14.653-47.445-17.25l-26.904-6.912
	c8.516,6.457,36.424,27.66,126.43,96.007c16.515,12.542,35.783,20.944,56.147,24.514
	C355.676,254.64,301.029,205.985,279.826,187.111z"/>
<path style="fill:#5AAAE7;" d="M201.835,160.17C201.834,160.168,201.834,160.168,201.835,160.17L201.835,160.17z"/>
<path style="fill:#1E81CE;" d="M357.321,78.79c-13.287,5.857-120.935,53.333-134.222,59.2c-13.183,5.826-27.763,7.73-41.991,5.484
	l-50.673-7.968c-4.367-0.693-4.915-6.778-0.735-8.237c0.414-0.145,54.637-19.04,100.539-35.038
	c27.608-9.623,52.205-18.202,60.276-21.016c20.872-9.199,37.49-8.164,50.135-6.147c6.54,1.035,12.003,2.339,16.453,2.618
	C361.688,68.411,361.853,76.782,357.321,78.79z"/>
<path style="fill:#3D9AE2;" d="M340.651,65.068c-25.497,11.238-48.521,21.399-54.223,23.914
	c-13.183,5.826-27.753,7.719-41.981,5.484l-14.208-2.235c27.608-9.623,52.205-18.202,60.276-21.016
	C311.387,62.016,328.006,63.051,340.651,65.068z"/>
<path style="fill:#5AAAE7;" d="M484.889,151.762l-6.043,16.225l-6.767,18.181c-1.024,6.519-5.878,12.645-13.69,14.094
	c-87.812,9.623-89.105,10.493-100.529,8.734l-340.081-52.37c-4.988-0.786-9.085-3.115-12.076-6.302
	c-6.198-6.592-7.709-16.867-2.711-24.793c1.304-2.09,3.084-4.025,5.35-5.671c4.077-2.98,4.543-2.245,13.907-6.509
	c4.077-1.852,9.83-4.657,18.305-9.127c3.073-1.614,6.519-3.456,10.358-5.557c16.018-8.785,37.956-8.558,56.085-5.702l9.893,1.542
	L484.889,151.762z"/>
<path style="fill:#78B9EB;" d="M484.889,151.762l-6.043,16.225c-0.176,0.031-0.352,0.072-0.538,0.103
	c-87.812,9.623-89.105,10.493-100.529,8.734l-340.081-52.37c-4.988-0.786-9.085-3.115-12.076-6.302
	c-1.356-1.449-2.494-3.073-3.373-4.801c4.077-1.852,9.83-4.657,18.305-9.127c3.073-1.614,6.519-3.456,10.358-5.557
	c16.018-8.785,37.956-8.558,56.085-5.702l9.893,1.542L484.889,151.762z"/>
<g>
	<path style="fill:#C2DFF6;" d="M229.867,149.786c0,5.515-2.991,10.337-7.45,12.914c-2.194,1.273-4.739,1.997-7.461,1.997
		c-8.237,0-14.922-6.674-14.922-14.911s6.685-14.911,14.922-14.911c2.721,0,5.267,0.724,7.461,1.997
		C226.876,139.449,229.867,144.271,229.867,149.786z"/>
	<path style="fill:#C2DFF6;" d="M292.192,159.306c0,5.515-2.991,10.337-7.45,12.914c-2.194,1.273-4.739,1.997-7.461,1.997
		c-8.237,0-14.922-6.674-14.922-14.911c0-8.237,6.685-14.922,14.922-14.922c2.721,0,5.267,0.724,7.461,2.007
		C289.201,148.969,292.192,153.791,292.192,159.306z"/>
	<path style="fill:#C2DFF6;" d="M354.517,168.816c0,5.515-3.001,10.337-7.461,12.914c-2.194,1.273-4.739,1.997-7.461,1.997
		c-8.237,0-14.911-6.674-14.911-14.911s6.674-14.911,14.911-14.911c2.721,0,5.267,0.724,7.461,1.997
		C351.516,158.478,354.517,163.3,354.517,168.816z"/>
</g>
<g>
	<path style="fill:#D1E7F8;" d="M229.867,149.786c0,5.515-2.991,10.337-7.45,12.914c-4.46-2.577-7.461-7.388-7.461-12.914
		c0-5.526,3.001-10.337,7.461-12.914C226.876,139.449,229.867,144.271,229.867,149.786z"/>
	<path style="fill:#D1E7F8;" d="M292.192,159.306c0,5.515-2.991,10.337-7.45,12.914c-4.46-2.577-7.461-7.388-7.461-12.914
		c0-5.526,3.001-10.348,7.461-12.914C289.201,148.969,292.192,153.791,292.192,159.306z"/>
	<path style="fill:#D1E7F8;" d="M354.517,168.816c0,5.515-3.001,10.337-7.461,12.914c-4.46-2.577-7.461-7.399-7.461-12.914
		s3.001-10.337,7.461-12.914C351.516,158.478,354.517,163.3,354.517,168.816z"/>
	<path style="fill:#D1E7F8;" d="M96.618,125.727c0,1.531-0.269,3.104-0.828,4.657c-2.266,6.291-8.744,10.037-15.346,8.858
		L2.991,125.531c1.304-2.09,3.084-4.025,5.35-5.671c5.847-4.274,4.274-0.9,32.213-15.636l44.785,7.989
		C92.075,113.434,96.618,119.301,96.618,125.727z"/>
</g>
<g>
	<path style="fill:#96C8EF;" d="M478.66,370.371c14.902,14.902,4.194,40.336-16.691,40.336H350.533
		c-6.498,0-12.407-2.659-16.691-6.943c-14.782-14.782-4.378-39.948,16.277-40.315h-49.204c-12.923,0-23.634-10.565-23.634-23.634
		c0-12.997,10.627-23.634,23.634-23.634h44.609c-9.51-3.039-16.474-12.006-16.474-22.517c0-12.997,10.638-23.634,23.645-23.634
		h111.425c13.007,0,23.634,10.638,23.634,23.634c0,13.007-10.627,23.645-23.634,23.645h-44.609c4.76,1.531,8.878,4.532,11.807,8.465
		c11.456,15.381,0.549,37.332-18.564,37.656h49.214C468.467,363.427,474.376,366.087,478.66,370.371z"/>
	<path style="fill:#96C8EF;" d="M283.748,421.437c0,14.797-12.107,26.894-26.894,26.894h-41.909
		c-13.99,0-25.549-10.834-26.77-24.514c-0.01-0.031-0.01-0.052-0.01-0.083c-0.579,0.031-1.159,0.083-1.749,0.083h-62.904
		c-7.399,0-14.114-3.022-18.988-7.895c-4.884-4.874-7.906-11.6-7.906-18.999c0-14.787,12.107-26.894,26.894-26.894h62.904
		c14.021,0,25.601,10.876,26.78,24.607c0.579-0.041,1.159-0.093,1.749-0.093h41.909C271.641,394.543,283.748,406.65,283.748,421.437
		z"/>
</g>
<path style="fill:#C2DFF6;" d="M283.661,419.254c1.262,15.772-11.299,29.077-26.806,29.077h-12.003
	c-12.079,0-22.359-8.083-25.712-19.104c-0.978-3.213-3.946-5.402-7.303-5.406c-6.469-0.007-21.552-0.035-58.418-0.005
	c-7.399,0-14.114-3.022-18.988-7.895c-5.031-5.021-8.086-12.008-7.897-19.67c0.362-14.684,12.766-26.222,27.454-26.222h32.431
	c14.021,0,25.601,10.876,26.78,24.607c0.579-0.041,1.159-0.093,1.749-0.093h28.146c0,0.031,0.01,0.062,0.01,0.093
	c0.579-0.041,1.159-0.093,1.749-0.093h11.459C270.416,394.543,282.535,405.193,283.661,419.254z"/>
<path style="fill:#D1E7F8;" d="M96.618,125.727c0,1.531-0.269,3.104-0.828,4.657c-2.266,6.291-8.744,10.037-15.346,8.858
	l-38.939-6.892l-38.515-6.819c1.304-2.09,3.084-4.025,5.35-5.671c5.847-4.274,4.274-0.9,32.213-15.636l42.043,7.502l2.742,0.486
	C92.075,113.434,96.618,119.301,96.618,125.727z"/>
<g>
	<path style="fill:#B3D8F4;" d="M82.597,111.727L41.505,132.35l-38.515-6.819c1.304-2.09,3.084-4.025,5.35-5.671
		c5.847-4.274,4.274-0.9,32.213-15.636L82.597,111.727z"/>
	<path style="fill:#B3D8F4;" d="M463.566,317.307c12.255,0,22.886-9.109,24.075-21.306c1.368-14.035-9.74-25.973-23.521-25.973
		h-75.053c-20.925,0-31.663,25.542-16.597,40.428c2.134,2.109,0.735,5.723-2.265,5.723h-32.918
		c-20.902,0-31.585,25.432-16.691,40.325c4.284,4.284,10.193,6.943,16.691,6.943h41.955c0.691,0,0.924,0.953,0.317,1.149
		c-15.841,5.099-22.361,26.151-9.345,39.167c4.284,4.284,10.193,6.943,16.691,6.943h75.063c20.885,0,31.593-25.434,16.691-40.336
		c-4.284-4.284-10.193-6.943-16.691-6.943h-43.847c-0.4,0-0.47-0.576-0.081-0.672c15.721-3.825,23.628-23.086,13.277-36.984
		c-2.556-3.431-6.017-6.154-10.021-7.81c-0.342-0.142-0.241-0.655,0.13-0.655H463.566z"/>
</g>
<g>
</g>
<g>
</g>
<g>
</g>
<g>
</g>
<g>
</g>
<g>
</g>
<g>
</g>
<g>
</g>
<g>
</g>
<g>
</g>
<g>
</g>
<g>
</g>
<g>
</g>
<g>
</g>
<g>
</g>
</svg>
