<svg xmlns="http://www.w3.org/2000/svg" height="512pt" version="1.1" viewBox="0 0 512 512" width="512pt">
<g id="surface1">
<path d="M 0 256 C 0 286.808594 5.4375 316.34375 15.429688 343.707031 C 18.4375 351.933594 21.84375 359.964844 25.648438 367.773438 C 26.835938 370.234375 28.0625 372.664062 29.335938 375.066406 C 29.453125 375.292969 29.574219 375.511719 29.695312 375.742188 C 30.042969 376.410156 30.402344 377.085938 30.769531 377.753906 C 32.074219 380.175781 33.429688 382.574219 34.816406 384.957031 C 36.199219 387.328125 37.625 389.667969 39.089844 391.988281 C 40.683594 394.519531 42.304688 397.019531 43.980469 399.480469 C 44.617188 400.414062 45.253906 401.332031 45.890625 402.257812 C 45.890625 402.269531 45.902344 402.269531 45.910156 402.277344 L 45.910156 402.289062 C 46.648438 403.34375 47.386719 404.390625 48.140625 405.4375 C 51.699219 410.398438 55.441406 415.21875 59.359375 419.902344 C 62.574219 423.777344 65.921875 427.5625 69.390625 431.238281 C 74.886719 437.09375 80.664062 442.691406 86.699219 448 C 86.800781 448.089844 86.898438 448.179688 87 448.269531 C 90.328125 451.199219 93.734375 454.046875 97.210938 456.796875 C 97.746094 457.226562 98.285156 457.644531 98.824219 458.0625 C 99.96875 458.957031 101.125 459.84375 102.289062 460.722656 C 107.609375 464.726562 113.097656 468.53125 118.734375 472.117188 C 119.652344 472.695312 120.570312 473.273438 121.484375 473.839844 C 122.5 474.46875 123.515625 475.085938 124.53125 475.703125 C 125.746094 476.429688 126.964844 477.148438 128.1875 477.855469 C 129.007812 478.335938 129.820312 478.800781 130.648438 479.261719 C 132.292969 480.1875 133.957031 481.09375 135.621094 481.988281 C 137.292969 482.886719 138.976562 483.753906 140.660156 484.609375 C 142.351562 485.46875 144.058594 486.304688 145.769531 487.121094 C 146.339844 487.390625 146.90625 487.667969 147.484375 487.925781 C 148.050781 488.195312 148.617188 488.453125 149.195312 488.722656 C 149.953125 489.074219 150.710938 489.421875 151.476562 489.761719 C 152.402344 490.179688 153.328125 490.585938 154.265625 490.984375 C 155.621094 491.582031 156.996094 492.160156 158.371094 492.726562 C 160.273438 493.515625 162.183594 494.28125 164.117188 495.019531 C 165.859375 495.6875 167.613281 496.34375 169.378906 496.972656 C 169.757812 497.109375 170.125 497.238281 170.503906 497.367188 C 175.59375 499.183594 180.753906 500.824219 185.984375 502.308594 C 187.007812 502.597656 188.046875 502.886719 189.082031 503.167969 C 190.855469 503.644531 192.628906 504.101562 194.398438 504.542969 C 195.324219 504.769531 196.253906 505 197.179688 505.210938 C 197.777344 505.347656 198.375 505.488281 198.980469 505.628906 C 199.617188 505.777344 200.257812 505.914062 200.90625 506.054688 C 202 506.292969 203.097656 506.523438 204.183594 506.753906 C 206.371094 507.210938 208.574219 507.628906 210.785156 508.015625 C 211.890625 508.214844 212.996094 508.40625 214.113281 508.585938 C 215.167969 508.765625 216.226562 508.933594 217.289062 509.09375 C 218.457031 509.273438 219.632812 509.441406 220.796875 509.601562 C 222.550781 509.839844 224.3125 510.070312 226.074219 510.269531 C 226.894531 510.367188 227.699219 510.457031 228.515625 510.535156 C 229.671875 510.664062 230.828125 510.785156 231.984375 510.886719 C 232.75 510.964844 233.507812 511.023438 234.265625 511.085938 C 234.355469 511.09375 234.441406 511.105469 234.53125 511.105469 C 235.019531 511.144531 235.519531 511.183594 236.007812 511.222656 C 237.03125 511.304688 238.058594 511.375 239.085938 511.441406 C 239.195312 511.464844 239.304688 511.464844 239.402344 511.464844 C 240.179688 511.511719 240.957031 511.5625 241.746094 511.601562 C 242.171875 511.632812 242.601562 511.652344 243.03125 511.671875 C 243.597656 511.703125 244.164062 511.734375 244.742188 511.753906 C 245.230469 511.78125 245.710938 511.804688 246.1875 511.8125 C 247.023438 511.84375 247.871094 511.871094 248.71875 511.894531 C 249.824219 511.933594 250.929688 511.953125 252.035156 511.964844 C 252.570312 511.972656 253.121094 511.984375 253.65625 511.984375 C 254.4375 512 255.214844 512 256 512 C 257.472656 512 258.949219 511.988281 260.414062 511.960938 C 260.941406 511.949219 261.46875 511.941406 261.988281 511.929688 C 262.316406 511.921875 262.652344 511.921875 262.984375 511.898438 C 263.671875 511.890625 264.347656 511.871094 265.035156 511.839844 C 266.160156 511.800781 267.285156 511.761719 268.410156 511.699219 C 269.300781 511.660156 270.183594 511.609375 271.082031 511.5625 C 273.074219 511.449219 275.066406 511.3125 277.046875 511.144531 C 278.035156 511.0625 279.03125 510.984375 280.015625 510.882812 C 281.589844 510.742188 283.152344 510.585938 284.726562 510.394531 C 285.863281 510.265625 286.996094 510.136719 288.125 509.996094 C 290.386719 509.71875 292.636719 509.398438 294.867188 509.0625 C 296.171875 508.863281 297.476562 508.652344 298.773438 508.433594 C 300.90625 508.085938 303.027344 507.695312 305.148438 507.289062 C 305.765625 507.167969 306.371094 507.050781 306.980469 506.921875 C 307.429688 506.828125 307.878906 506.742188 308.335938 506.640625 C 308.734375 506.5625 309.132812 506.480469 309.519531 506.390625 C 310.179688 506.261719 310.824219 506.113281 311.484375 505.972656 C 313.386719 505.554688 315.277344 505.105469 317.171875 504.640625 C 318.265625 504.378906 319.371094 504.101562 320.457031 503.8125 C 321.234375 503.613281 322.003906 503.414062 322.769531 503.203125 C 323.703125 502.953125 324.640625 502.695312 325.578125 502.425781 C 326.046875 502.296875 326.523438 502.15625 327.003906 502.019531 C 327.71875 501.820312 328.425781 501.601562 329.132812 501.390625 C 331.804688 500.605469 334.453125 499.777344 337.074219 498.890625 C 337.988281 498.59375 338.894531 498.28125 339.800781 497.964844 C 340.308594 497.796875 340.828125 497.617188 341.335938 497.425781 C 342.300781 497.089844 343.277344 496.738281 344.246094 496.382812 C 344.863281 496.152344 345.46875 495.921875 346.089844 495.695312 C 346.835938 495.414062 347.582031 495.136719 348.320312 494.847656 C 350.847656 493.871094 353.347656 492.855469 355.839844 491.800781 C 357.003906 491.300781 358.179688 490.804688 359.335938 490.285156 C 360.492188 489.777344 361.648438 489.25 362.800781 488.722656 C 363.378906 488.453125 363.949219 488.191406 364.515625 487.925781 C 365.09375 487.664062 365.660156 487.386719 366.226562 487.117188 C 367.941406 486.300781 369.644531 485.464844 371.339844 484.605469 C 373.023438 483.75 374.703125 482.882812 376.378906 481.988281 C 378.042969 481.089844 379.703125 480.183594 381.347656 479.257812 C 382.175781 478.800781 382.992188 478.332031 383.808594 477.851562 C 385.035156 477.144531 386.25 476.429688 387.464844 475.699219 C 388.480469 475.082031 389.496094 474.464844 390.511719 473.839844 C 391.429688 473.269531 392.347656 472.691406 393.261719 472.113281 C 398.898438 468.527344 404.386719 464.722656 409.707031 460.71875 C 410.871094 459.84375 412.027344 458.957031 413.175781 458.058594 C 413.710938 457.640625 414.25 457.222656 414.789062 456.792969 C 418.265625 454.046875 421.671875 451.195312 424.996094 448.265625 C 425.046875 448.21875 425.109375 448.175781 425.15625 448.128906 C 428.882812 444.859375 432.496094 441.472656 436.023438 437.988281 C 438.972656 435.078125 441.851562 432.089844 444.640625 429.03125 C 448.027344 425.355469 451.304688 421.582031 454.441406 417.714844 C 454.582031 417.558594 454.703125 417.40625 454.820312 417.257812 C 455.160156 416.828125 455.507812 416.410156 455.847656 415.984375 C 456.195312 415.566406 456.535156 415.136719 456.863281 414.707031 C 459.265625 411.671875 461.597656 408.582031 463.855469 405.433594 C 464.613281 404.386719 465.351562 403.34375 466.089844 402.285156 L 466.089844 402.277344 C 466.097656 402.265625 466.109375 402.265625 466.109375 402.257812 C 468.449219 398.890625 470.71875 395.472656 472.910156 391.984375 C 474.375 389.664062 475.800781 387.324219 477.183594 384.953125 C 478.570312 382.570312 479.921875 380.171875 481.226562 377.75 C 481.597656 377.085938 481.953125 376.40625 482.304688 375.738281 C 482.421875 375.511719 482.542969 375.289062 482.660156 375.0625 C 483.527344 373.4375 484.363281 371.796875 485.191406 370.132812 C 489.453125 361.585938 493.261719 352.757812 496.566406 343.703125 C 506.5625 316.34375 512 286.808594 512 256 C 512 253.886719 511.96875 251.777344 511.921875 249.675781 C 511.910156 249.039062 511.890625 248.398438 511.871094 247.761719 C 511.851562 247.203125 511.828125 246.65625 511.808594 246.109375 C 511.78125 245.203125 511.738281 244.296875 511.691406 243.390625 C 511.640625 242.34375 511.589844 241.308594 511.519531 240.261719 C 511.492188 239.792969 511.460938 239.316406 511.433594 238.839844 C 511.382812 237.992188 511.320312 237.144531 511.253906 236.308594 C 511.171875 235.222656 511.085938 234.136719 510.984375 233.0625 C 510.894531 231.984375 510.785156 230.910156 510.675781 229.835938 C 510.566406 228.757812 510.457031 227.683594 510.324219 226.605469 C 510.234375 225.769531 510.136719 224.933594 510.027344 224.097656 C 509.96875 223.589844 509.90625 223.089844 509.839844 222.582031 C 509.757812 221.976562 509.679688 221.359375 509.589844 220.75 C 509.539062 220.382812 509.488281 220.011719 509.441406 219.632812 C 509.320312 218.785156 509.191406 217.949219 509.0625 217.105469 C 509.0625 217.0625 509.050781 217.015625 509.039062 216.976562 C 508.882812 215.929688 508.722656 214.894531 508.542969 213.847656 C 508.382812 212.890625 508.222656 211.925781 508.054688 210.96875 C 508.015625 210.789062 507.984375 210.609375 507.957031 210.429688 C 507.785156 209.464844 507.605469 208.507812 507.417969 207.539062 C 507.230469 206.566406 507.039062 205.597656 506.839844 204.621094 C 506.402344 202.46875 505.933594 200.320312 505.445312 198.1875 C 504.96875 196.125 504.46875 194.074219 503.941406 192.03125 C 501.910156 184.113281 499.496094 176.34375 496.738281 168.742188 C 496.398438 167.796875 496.050781 166.859375 495.703125 165.933594 C 495.414062 165.15625 495.113281 164.390625 494.816406 163.621094 C 494.726562 163.363281 494.628906 163.105469 494.527344 162.855469 C 494.199219 162.019531 493.867188 161.183594 493.53125 160.355469 C 455.640625 66.351562 363.570312 0 256 0 C 148.429688 0 56.359375 66.351562 18.46875 160.355469 C 18.128906 161.179688 17.800781 162.015625 17.472656 162.855469 C 17.371094 163.101562 17.273438 163.363281 17.183594 163.621094 C 16.882812 164.386719 16.585938 165.15625 16.296875 165.933594 C 15.945312 166.859375 15.597656 167.796875 15.261719 168.742188 C 12.5 176.339844 10.089844 184.109375 8.058594 192.03125 C 7.53125 194.070312 7.03125 196.125 6.554688 198.1875 C 6.066406 200.316406 5.597656 202.46875 5.160156 204.621094 C 4.960938 205.597656 4.769531 206.5625 4.582031 207.539062 C 4.390625 208.507812 4.210938 209.460938 4.042969 210.429688 C 4.011719 210.609375 3.984375 210.789062 3.941406 210.96875 C 3.773438 211.921875 3.613281 212.890625 3.453125 213.847656 C 3.277344 214.890625 3.117188 215.929688 2.957031 216.972656 C 2.945312 217.015625 2.9375 217.0625 2.9375 217.101562 C 2.808594 217.949219 2.679688 218.785156 2.558594 219.632812 C 2.507812 220.011719 2.457031 220.378906 2.410156 220.75 C 2.320312 221.355469 2.238281 221.972656 2.160156 222.582031 C 2.089844 223.089844 2.03125 223.589844 1.972656 224.097656 C 1.859375 224.933594 1.761719 225.769531 1.671875 226.605469 C 1.542969 227.683594 1.433594 228.757812 1.324219 229.832031 C 1.214844 230.910156 1.105469 231.984375 1.015625 233.058594 C 0.914062 234.136719 0.824219 235.222656 0.746094 236.308594 C 0.675781 237.144531 0.617188 237.992188 0.566406 238.835938 C 0.535156 239.316406 0.507812 239.792969 0.476562 240.261719 C 0.40625 241.308594 0.355469 242.34375 0.308594 243.390625 C 0.257812 244.296875 0.21875 245.203125 0.1875 246.109375 C 0.167969 246.65625 0.148438 247.203125 0.128906 247.761719 C 0.109375 248.398438 0.0898438 249.035156 0.078125 249.675781 C 0.03125 251.777344 0 253.886719 0 256 Z M 0 256 " style=" stroke:none;fill-rule:nonzero;fill:rgb(55.686275%,30.980392%,82.352941%);fill-opacity:1;" />
<path d="M 0 256 C 0 286.808594 5.4375 316.34375 15.429688 343.707031 C 18.4375 351.933594 21.84375 359.964844 25.648438 367.773438 C 26.835938 370.234375 28.0625 372.664062 29.335938 375.066406 L 29.347656 375.066406 C 29.464844 375.292969 29.574219 375.511719 29.695312 375.742188 C 30.042969 376.410156 30.402344 377.085938 30.769531 377.753906 C 32.074219 380.175781 33.429688 382.574219 34.816406 384.957031 C 36.199219 387.328125 37.625 389.667969 39.089844 391.988281 C 40.683594 394.519531 42.304688 397.019531 43.980469 399.480469 C 44.617188 400.414062 45.253906 401.332031 45.890625 402.257812 L 45.902344 402.257812 C 45.902344 402.269531 45.910156 402.269531 45.910156 402.277344 L 45.910156 402.289062 L 45.921875 402.289062 C 46.648438 403.34375 47.394531 404.390625 48.140625 405.4375 C 51.699219 410.398438 55.441406 415.21875 59.359375 419.902344 C 62.574219 423.777344 65.921875 427.5625 69.390625 431.238281 C 74.886719 437.09375 80.664062 442.691406 86.699219 448 C 86.800781 448.089844 86.898438 448.179688 87 448.269531 C 90.328125 451.199219 93.734375 454.046875 97.210938 456.796875 C 97.746094 457.226562 98.285156 457.644531 98.824219 458.0625 C 99.96875 458.957031 101.125 459.84375 102.289062 460.722656 C 107.609375 464.726562 113.097656 468.53125 118.734375 472.117188 C 119.652344 472.695312 120.570312 473.273438 121.484375 473.839844 C 122.5 474.46875 123.515625 475.085938 124.53125 475.703125 C 125.746094 476.429688 126.964844 477.148438 128.1875 477.855469 C 129.007812 478.335938 129.820312 478.800781 130.648438 479.261719 C 132.292969 480.1875 133.957031 481.09375 135.621094 481.988281 C 137.292969 482.886719 138.976562 483.753906 140.660156 484.609375 C 142.351562 485.46875 144.058594 486.304688 145.769531 487.121094 C 146.339844 487.390625 146.90625 487.667969 147.484375 487.925781 C 148.050781 488.195312 148.617188 488.453125 149.195312 488.722656 C 149.953125 489.074219 150.710938 489.421875 151.476562 489.761719 C 152.402344 490.179688 153.328125 490.585938 154.265625 490.984375 C 155.621094 491.582031 156.996094 492.160156 158.371094 492.726562 C 160.273438 493.515625 162.183594 494.28125 164.117188 495.019531 C 165.859375 495.6875 167.613281 496.34375 169.378906 496.972656 C 169.757812 497.109375 170.125 497.238281 170.503906 497.367188 C 175.59375 499.183594 180.753906 500.824219 185.984375 502.308594 C 187.007812 502.597656 188.046875 502.886719 189.082031 503.167969 C 190.855469 503.644531 192.628906 504.101562 194.398438 504.542969 C 195.324219 504.769531 196.253906 505 197.179688 505.210938 C 197.777344 505.347656 198.375 505.488281 198.980469 505.628906 C 199.617188 505.777344 200.257812 505.914062 200.90625 506.054688 C 202 506.292969 203.097656 506.523438 204.183594 506.753906 C 206.371094 507.210938 208.574219 507.628906 210.785156 508.015625 C 211.890625 508.214844 212.996094 508.40625 214.113281 508.585938 C 215.167969 508.765625 216.226562 508.933594 217.289062 509.09375 C 218.457031 509.273438 219.632812 509.441406 220.796875 509.601562 C 222.550781 509.839844 224.3125 510.070312 226.074219 510.269531 C 226.894531 510.367188 227.699219 510.457031 228.515625 510.535156 C 229.671875 510.664062 230.828125 510.785156 231.984375 510.886719 C 232.75 510.964844 233.507812 511.023438 234.265625 511.085938 C 234.355469 511.09375 234.441406 511.105469 234.53125 511.105469 C 235.019531 511.144531 235.519531 511.183594 236.007812 511.222656 C 237.03125 511.304688 238.058594 511.375 239.085938 511.441406 C 239.195312 511.464844 239.304688 511.464844 239.402344 511.464844 C 240.179688 511.511719 240.957031 511.5625 241.746094 511.601562 C 242.171875 511.632812 242.601562 511.652344 243.03125 511.671875 C 243.597656 511.703125 244.164062 511.734375 244.742188 511.753906 C 245.230469 511.78125 245.710938 511.804688 246.1875 511.8125 C 247.023438 511.84375 247.871094 511.871094 248.71875 511.894531 C 249.824219 511.933594 250.929688 511.953125 252.035156 511.964844 C 252.570312 511.972656 253.121094 511.984375 253.65625 511.984375 C 254.4375 512 255.214844 512 256 512 C 257.472656 512 258.949219 511.988281 260.414062 511.960938 C 260.941406 511.949219 261.46875 511.941406 261.988281 511.929688 C 262.316406 511.921875 262.652344 511.921875 262.984375 511.898438 C 263.671875 511.890625 264.347656 511.871094 265.035156 511.839844 C 266.160156 511.800781 267.285156 511.761719 268.410156 511.699219 C 269.300781 511.660156 270.183594 511.609375 271.082031 511.5625 C 273.074219 511.449219 275.066406 511.3125 277.046875 511.144531 C 278.035156 511.0625 279.03125 510.984375 280.015625 510.882812 C 281.589844 510.742188 283.152344 510.585938 284.726562 510.394531 C 285.863281 510.265625 286.996094 510.136719 288.125 509.996094 C 290.386719 509.71875 292.636719 509.398438 294.867188 509.0625 C 296.171875 508.863281 297.476562 508.652344 298.773438 508.433594 C 300.90625 508.085938 303.027344 507.695312 305.148438 507.289062 C 305.765625 507.167969 306.371094 507.050781 306.980469 506.921875 C 307.429688 506.828125 307.878906 506.742188 308.335938 506.640625 C 308.734375 506.5625 309.132812 506.480469 309.519531 506.390625 C 310.179688 506.261719 310.824219 506.113281 311.484375 505.972656 C 313.386719 505.554688 315.277344 505.105469 317.171875 504.640625 C 318.265625 504.378906 319.371094 504.101562 320.457031 503.8125 C 321.234375 503.613281 322.003906 503.414062 322.769531 503.203125 C 323.703125 502.953125 324.640625 502.695312 325.578125 502.425781 C 326.046875 502.296875 326.523438 502.15625 327.003906 502.019531 C 327.71875 501.820312 328.425781 501.601562 329.132812 501.390625 C 331.804688 500.605469 334.453125 499.777344 337.074219 498.890625 C 337.988281 498.59375 338.894531 498.28125 339.800781 497.964844 C 340.308594 497.796875 340.828125 497.617188 341.335938 497.425781 C 342.300781 497.089844 343.277344 496.738281 344.246094 496.382812 C 344.863281 496.152344 345.46875 495.921875 346.089844 495.695312 C 346.835938 495.414062 347.582031 495.136719 348.320312 494.847656 C 350.847656 493.871094 353.347656 492.855469 355.839844 491.800781 C 357.003906 491.300781 358.179688 490.804688 359.335938 490.285156 C 360.492188 489.777344 361.648438 489.25 362.800781 488.722656 C 363.378906 488.453125 363.949219 488.191406 364.515625 487.925781 C 365.09375 487.664062 365.660156 487.386719 366.226562 487.117188 C 367.941406 486.300781 369.644531 485.464844 371.339844 484.605469 C 373.023438 483.75 374.703125 482.882812 376.378906 481.988281 C 378.042969 481.089844 379.703125 480.183594 381.347656 479.257812 C 382.175781 478.800781 382.992188 478.332031 383.808594 477.851562 C 385.035156 477.144531 386.25 476.429688 387.464844 475.699219 C 388.480469 475.082031 389.496094 474.464844 390.511719 473.839844 C 391.429688 473.269531 392.347656 472.691406 393.261719 472.113281 C 398.898438 468.527344 404.386719 464.722656 409.707031 460.71875 C 410.871094 459.84375 412.027344 458.957031 413.175781 458.058594 C 413.710938 457.640625 414.25 457.222656 414.789062 456.792969 C 418.265625 454.046875 421.671875 451.195312 424.996094 448.265625 C 425.046875 448.21875 425.109375 448.175781 425.15625 448.128906 C 428.882812 444.859375 432.496094 441.472656 436.023438 437.988281 C 438.972656 435.078125 441.851562 432.089844 444.640625 429.03125 C 448.027344 425.355469 451.304688 421.582031 454.441406 417.714844 C 454.574219 417.566406 454.703125 417.40625 454.8125 417.246094 C 455.160156 416.828125 455.5 416.410156 455.847656 415.984375 C 456.195312 415.566406 456.535156 415.136719 456.863281 414.707031 C 459.265625 411.671875 461.597656 408.582031 463.855469 405.433594 C 464.605469 404.386719 465.351562 403.34375 466.078125 402.285156 L 466.089844 402.285156 L 466.089844 402.277344 C 466.089844 402.265625 466.097656 402.265625 466.097656 402.257812 L 466.109375 402.257812 C 468.449219 398.890625 470.71875 395.472656 472.910156 391.984375 C 474.375 389.664062 475.800781 387.324219 477.183594 384.953125 C 478.570312 382.570312 479.921875 380.171875 481.226562 377.75 C 481.597656 377.085938 481.953125 376.40625 482.304688 375.738281 C 482.421875 375.511719 482.53125 375.289062 482.652344 375.0625 L 482.660156 375.0625 C 483.527344 373.4375 484.363281 371.796875 485.191406 370.132812 C 489.453125 361.585938 493.261719 352.757812 496.566406 343.703125 C 506.5625 316.34375 512 286.808594 512 256 C 512 253.886719 511.96875 251.777344 511.921875 249.675781 C 511.910156 249.039062 511.890625 248.398438 511.871094 247.761719 C 511.851562 247.203125 511.828125 246.65625 511.808594 246.109375 C 511.78125 245.203125 511.738281 244.296875 511.691406 243.390625 C 511.640625 242.34375 511.589844 241.308594 511.519531 240.261719 C 511.492188 239.792969 511.460938 239.316406 511.433594 238.839844 C 511.382812 237.992188 511.320312 237.144531 511.253906 236.308594 C 511.171875 235.222656 511.085938 234.136719 510.984375 233.0625 C 510.894531 231.984375 510.785156 230.910156 510.675781 229.835938 C 510.566406 228.757812 510.457031 227.683594 510.324219 226.605469 C 510.234375 225.769531 510.136719 224.933594 510.027344 224.097656 C 509.96875 223.589844 509.90625 223.089844 509.839844 222.582031 C 509.757812 221.976562 509.679688 221.359375 509.589844 220.75 C 509.539062 220.382812 509.488281 220.011719 509.441406 219.632812 C 509.320312 218.785156 509.191406 217.949219 509.0625 217.105469 C 509.0625 217.0625 509.050781 217.015625 509.039062 216.976562 C 508.882812 215.929688 508.722656 214.894531 508.542969 213.847656 C 508.382812 212.890625 508.222656 211.925781 508.054688 210.96875 C 508.015625 210.789062 507.984375 210.609375 507.957031 210.429688 C 507.785156 209.464844 507.605469 208.507812 507.417969 207.539062 C 507.230469 206.566406 507.039062 205.597656 506.839844 204.621094 C 506.402344 202.46875 505.933594 200.320312 505.445312 198.1875 C 504.976562 196.125 504.46875 194.074219 503.941406 192.03125 C 501.910156 184.113281 499.496094 176.34375 496.738281 168.742188 C 496.398438 167.796875 496.050781 166.859375 495.703125 165.933594 C 495.414062 165.15625 495.113281 164.390625 494.816406 163.621094 C 494.726562 163.363281 494.628906 163.105469 494.527344 162.855469 C 494.199219 162.019531 493.867188 161.183594 493.53125 160.355469 C 486.289062 178.34375 477.054688 195.339844 466.089844 211.027344 C 454.292969 227.972656 440.476562 243.429688 424.996094 257.015625 C 417.695312 263.441406 410.035156 269.449219 402.039062 275.007812 C 387.644531 285.039062 372.164062 293.625 355.828125 300.546875 C 352.730469 301.863281 349.601562 303.117188 346.433594 304.3125 C 343.84375 305.289062 341.234375 306.234375 338.605469 307.121094 C 312.695312 315.957031 284.914062 320.746094 256 320.746094 C 255.230469 320.746094 254.484375 320.746094 253.726562 320.726562 L 253.71875 320.726562 C 232.410156 320.550781 211.730469 317.761719 191.988281 312.679688 C 178.074219 309.09375 164.625 304.371094 151.734375 298.613281 C 147.074219 296.542969 142.492188 294.320312 137.988281 291.96875 C 137.769531 291.871094 137.5625 291.75 137.351562 291.640625 L 137.34375 291.640625 C 127.023438 286.242188 117.140625 280.144531 107.71875 273.433594 C 100.527344 268.320312 93.613281 262.835938 87 257.015625 C 71.519531 243.429688 57.703125 227.96875 45.910156 211.027344 C 34.941406 195.335938 25.710938 178.34375 18.46875 160.355469 C 18.128906 161.179688 17.800781 162.015625 17.472656 162.855469 C 17.371094 163.101562 17.273438 163.363281 17.183594 163.621094 C 16.882812 164.386719 16.585938 165.15625 16.296875 165.933594 C 15.945312 166.859375 15.597656 167.796875 15.257812 168.742188 C 12.5 176.339844 10.089844 184.109375 8.058594 192.03125 C 7.527344 194.070312 7.019531 196.125 6.554688 198.1875 C 6.066406 200.316406 5.597656 202.46875 5.15625 204.621094 C 4.960938 205.597656 4.769531 206.5625 4.578125 207.539062 C 4.390625 208.507812 4.210938 209.460938 4.042969 210.429688 C 4.011719 210.609375 3.980469 210.789062 3.941406 210.96875 C 3.773438 211.921875 3.613281 212.890625 3.453125 213.847656 C 3.273438 214.890625 3.113281 215.929688 2.957031 216.972656 C 2.945312 217.015625 2.9375 217.0625 2.9375 217.101562 C 2.804688 217.949219 2.675781 218.785156 2.558594 219.632812 C 2.507812 220.011719 2.457031 220.378906 2.40625 220.75 C 2.316406 221.355469 2.238281 221.972656 2.160156 222.582031 C 2.089844 223.089844 2.027344 223.589844 1.96875 224.097656 C 1.859375 224.933594 1.761719 225.769531 1.671875 226.605469 C 1.539062 227.683594 1.433594 228.757812 1.320312 229.832031 C 1.210938 230.910156 1.101562 231.984375 1.011719 233.058594 C 0.914062 234.136719 0.824219 235.222656 0.742188 236.308594 C 0.675781 237.144531 0.613281 237.992188 0.566406 238.835938 C 0.535156 239.316406 0.503906 239.792969 0.476562 240.261719 C 0.40625 241.308594 0.355469 242.34375 0.304688 243.390625 C 0.257812 244.296875 0.214844 245.203125 0.1875 246.109375 C 0.167969 246.65625 0.148438 247.203125 0.128906 247.761719 C 0.105469 248.398438 0.0859375 249.035156 0.078125 249.675781 C 0.03125 251.777344 0 253.886719 0 256 Z M 0 256 " style=" stroke:none;fill-rule:nonzero;fill:rgb(35.686275%,20.392157%,60%);fill-opacity:1;" />
<path d="M 25.648438 367.769531 C 26.839844 370.230469 28.058594 372.660156 29.339844 375.058594 L 346.441406 375.058594 L 346.441406 192.25 L 162.121094 192.25 C 153.289062 207.148438 144.050781 221.761719 134.378906 236.070312 C 125.808594 248.761719 116.910156 261.21875 107.71875 273.429688 C 85.980469 302.269531 62.5 329.730469 37.378906 355.660156 Z M 25.648438 367.769531 " style=" stroke:none;fill-rule:nonzero;fill:rgb(91.764706%,50.980392%,30.588235%);fill-opacity:1;" />
<path d="M 25.648438 367.769531 C 26.839844 370.230469 28.058594 372.660156 29.339844 375.058594 L 111.261719 375.058594 L 129.679688 356.050781 C 165.570312 319 198.140625 278.820312 227.050781 235.980469 C 236.710938 221.699219 245.941406 207.109375 254.75 192.25 L 162.121094 192.25 C 153.289062 207.148438 144.050781 221.761719 134.378906 236.070312 C 125.808594 248.761719 116.910156 261.21875 107.71875 273.429688 C 85.980469 302.269531 62.5 329.730469 37.378906 355.660156 Z M 25.648438 367.769531 " style=" stroke:none;fill-rule:nonzero;fill:rgb(98.039216%,60.392157%,38.823529%);fill-opacity:1;" />
<path d="M 43.980469 399.480469 C 42.300781 397.019531 40.679688 394.519531 39.089844 391.988281 C 37.621094 389.671875 36.199219 387.328125 34.808594 384.960938 C 33.429688 382.578125 32.070312 380.179688 30.769531 377.75 C 30.398438 377.089844 30.039062 376.410156 29.691406 375.738281 C 29.570312 375.511719 29.449219 375.289062 29.339844 375.058594 L 346.441406 375.058594 L 346.441406 402.261719 L 45.890625 402.261719 Z M 43.980469 399.480469 " style=" stroke:none;fill-rule:nonzero;fill:rgb(77.254902%,34.509804%,20.784314%);fill-opacity:1;" />
<path d="M 202.917969 375.066406 L 482.664062 375.066406 C 483.53125 373.441406 484.367188 371.796875 485.195312 370.132812 L 471.179688 355.660156 C 462.503906 346.695312 453.996094 337.550781 445.726562 328.21875 C 430.46875 311.066406 415.894531 293.3125 402.039062 275.007812 C 385.601562 253.320312 370.191406 230.847656 355.828125 207.679688 C 355.242188 206.761719 354.664062 205.835938 354.097656 204.898438 C 351.496094 200.707031 348.945312 196.492188 346.4375 192.257812 C 343.894531 196.523438 341.335938 200.785156 338.726562 205.007812 C 338.6875 205.058594 338.644531 205.128906 338.605469 205.1875 C 323.207031 230.210938 306.570312 254.40625 288.789062 277.703125 C 277.566406 292.429688 265.871094 306.769531 253.726562 320.726562 L 253.71875 320.726562 C 251.546875 323.238281 249.355469 325.738281 247.144531 328.21875 C 238.867188 337.550781 230.367188 346.695312 221.703125 355.660156 Z M 202.917969 375.066406 " style=" stroke:none;fill-rule:nonzero;fill:rgb(77.254902%,34.509804%,20.784314%);fill-opacity:1;" />
<path d="M 202.917969 375.066406 L 202.917969 402.257812 L 466.109375 402.257812 C 468.449219 398.890625 470.722656 395.476562 472.910156 391.988281 C 474.375 389.667969 475.800781 387.328125 477.183594 384.957031 C 478.570312 382.574219 479.925781 380.175781 481.230469 377.753906 C 481.597656 377.085938 481.957031 376.410156 482.304688 375.742188 C 482.425781 375.511719 482.542969 375.292969 482.664062 375.066406 Z M 202.917969 375.066406 " style=" stroke:none;fill-rule:nonzero;fill:rgb(47.843137%,17.647059%,10.196078%);fill-opacity:1;" />
<path d="M 338.609375 205.191406 L 338.609375 402.265625 L 355.828125 402.265625 L 355.828125 207.679688 C 355.242188 206.761719 354.667969 205.832031 354.09375 204.902344 C 351.5 200.703125 348.953125 196.488281 346.4375 192.253906 C 343.902344 196.523438 341.34375 200.78125 338.726562 205.007812 C 338.691406 205.0625 338.644531 205.132812 338.609375 205.191406 Z M 338.609375 205.191406 " style=" stroke:none;fill-rule:nonzero;fill:rgb(47.843137%,17.647059%,10.196078%);fill-opacity:1;" />
<path d="M 136.78125 314.628906 L 190.097656 314.628906 L 195.535156 309.019531 C 202.441406 301.886719 208.921875 294.355469 214.945312 286.46875 C 220.96875 278.574219 226.539062 270.324219 231.617188 261.75 L 178.300781 261.75 C 168.140625 278.894531 156.03125 294.757812 142.21875 309.019531 Z M 136.78125 314.628906 " style=" stroke:none;fill-rule:nonzero;fill:rgb(47.843137%,17.647059%,10.196078%);fill-opacity:1;" />
<path d="M 136.78125 291.96875 L 190.097656 291.96875 L 195.535156 288.761719 C 202.441406 284.6875 208.921875 280.382812 214.945312 275.875 C 220.96875 271.367188 226.539062 266.652344 231.617188 261.753906 L 178.300781 261.753906 C 168.140625 271.550781 156.03125 280.613281 142.21875 288.761719 Z M 136.78125 291.96875 " style=" stroke:none;fill-rule:nonzero;fill:rgb(77.254902%,34.509804%,20.784314%);fill-opacity:1;" />
<path d="M 45.910156 402.289062 C 46.648438 403.34375 47.386719 404.390625 48.140625 405.4375 C 51.699219 410.398438 55.441406 415.21875 59.359375 419.902344 C 62.574219 423.777344 65.921875 427.5625 69.390625 431.238281 C 74.886719 437.09375 80.664062 442.691406 86.699219 448 C 86.800781 448.089844 86.898438 448.179688 87 448.269531 C 90.328125 451.199219 93.734375 454.046875 97.210938 456.796875 C 97.746094 457.226562 98.285156 457.644531 98.824219 458.0625 C 99.96875 458.957031 101.125 459.84375 102.289062 460.722656 C 107.609375 464.726562 113.097656 468.53125 118.734375 472.117188 C 119.652344 472.695312 120.570312 473.273438 121.484375 473.839844 C 122.5 474.46875 123.515625 475.085938 124.53125 475.703125 C 125.746094 476.429688 126.964844 477.148438 128.1875 477.855469 C 129.007812 478.335938 129.820312 478.800781 130.648438 479.261719 C 132.292969 480.1875 133.957031 481.09375 135.621094 481.988281 C 137.292969 482.886719 138.976562 483.753906 140.660156 484.609375 C 142.351562 485.46875 144.058594 486.304688 145.769531 487.121094 C 146.339844 487.390625 146.90625 487.667969 147.484375 487.925781 C 148.050781 488.195312 148.617188 488.453125 149.195312 488.722656 C 149.953125 489.074219 150.710938 489.421875 151.476562 489.761719 C 152.402344 490.179688 153.328125 490.585938 154.265625 490.984375 C 155.621094 491.582031 156.996094 492.160156 158.371094 492.726562 C 160.273438 493.515625 162.183594 494.28125 164.117188 495.019531 C 165.859375 495.6875 167.613281 496.34375 169.378906 496.972656 C 169.757812 497.109375 170.125 497.238281 170.503906 497.367188 C 175.59375 499.183594 180.753906 500.824219 185.984375 502.308594 C 187.007812 502.597656 188.046875 502.886719 189.082031 503.167969 C 190.855469 503.644531 192.628906 504.101562 194.398438 504.542969 C 195.324219 504.769531 196.253906 505 197.179688 505.210938 C 197.777344 505.347656 198.375 505.488281 198.980469 505.628906 C 199.617188 505.777344 200.257812 505.914062 200.90625 506.054688 C 202 506.292969 203.097656 506.523438 204.183594 506.753906 C 206.371094 507.210938 208.574219 507.628906 210.785156 508.015625 C 211.890625 508.214844 212.996094 508.40625 214.113281 508.585938 C 215.167969 508.765625 216.226562 508.933594 217.289062 509.09375 C 218.457031 509.273438 219.632812 509.441406 220.796875 509.601562 C 222.550781 509.839844 224.3125 510.070312 226.074219 510.269531 C 226.894531 510.367188 227.699219 510.457031 228.515625 510.535156 C 229.671875 510.664062 230.828125 510.785156 231.984375 510.886719 C 232.75 510.964844 233.507812 511.023438 234.265625 511.085938 C 234.355469 511.09375 234.441406 511.105469 234.53125 511.105469 C 235.019531 511.144531 235.519531 511.183594 236.007812 511.222656 C 237.03125 511.304688 238.058594 511.375 239.085938 511.441406 C 239.195312 511.464844 239.304688 511.464844 239.402344 511.464844 C 240.179688 511.511719 240.957031 511.5625 241.746094 511.601562 C 242.171875 511.632812 242.601562 511.652344 243.03125 511.671875 C 243.597656 511.703125 244.164062 511.734375 244.742188 511.753906 C 245.230469 511.78125 245.710938 511.804688 246.1875 511.8125 C 247.023438 511.84375 247.871094 511.871094 248.71875 511.894531 C 249.824219 511.933594 250.929688 511.953125 252.035156 511.964844 C 252.570312 511.972656 253.121094 511.984375 253.65625 511.984375 C 254.4375 512 255.214844 512 256 512 C 257.472656 512 258.949219 511.988281 260.414062 511.960938 C 260.941406 511.949219 261.46875 511.941406 261.988281 511.929688 C 262.316406 511.921875 262.652344 511.921875 262.984375 511.898438 C 263.671875 511.890625 264.347656 511.871094 265.035156 511.839844 C 266.160156 511.800781 267.285156 511.761719 268.410156 511.699219 C 269.300781 511.660156 270.183594 511.609375 271.082031 511.5625 C 273.074219 511.449219 275.066406 511.3125 277.046875 511.144531 C 278.035156 511.0625 279.03125 510.984375 280.015625 510.882812 C 281.589844 510.742188 283.152344 510.585938 284.726562 510.394531 C 285.863281 510.265625 286.996094 510.136719 288.125 509.996094 C 290.386719 509.71875 292.636719 509.398438 294.867188 509.0625 C 296.171875 508.863281 297.476562 508.652344 298.773438 508.433594 C 300.90625 508.085938 303.027344 507.695312 305.148438 507.289062 C 305.765625 507.167969 306.371094 507.050781 306.980469 506.921875 C 307.429688 506.828125 307.878906 506.742188 308.335938 506.640625 C 308.734375 506.5625 309.132812 506.480469 309.519531 506.390625 C 310.179688 506.261719 310.824219 506.113281 311.484375 505.972656 C 313.386719 505.554688 315.277344 505.105469 317.171875 504.640625 C 318.265625 504.378906 319.371094 504.101562 320.457031 503.8125 C 321.234375 503.613281 322.003906 503.414062 322.769531 503.203125 C 323.703125 502.953125 324.640625 502.695312 325.578125 502.425781 C 326.046875 502.296875 326.523438 502.15625 327.003906 502.019531 C 327.71875 501.820312 328.425781 501.601562 329.132812 501.390625 C 331.804688 500.605469 334.453125 499.777344 337.074219 498.890625 C 337.988281 498.59375 338.894531 498.28125 339.800781 497.964844 C 340.308594 497.796875 340.828125 497.617188 341.335938 497.425781 C 342.300781 497.089844 343.277344 496.738281 344.246094 496.382812 C 344.863281 496.152344 345.46875 495.921875 346.089844 495.695312 C 346.835938 495.414062 347.582031 495.136719 348.320312 494.847656 C 350.847656 493.871094 353.347656 492.855469 355.839844 491.800781 C 357.003906 491.300781 358.179688 490.804688 359.335938 490.285156 C 360.492188 489.777344 361.648438 489.25 362.800781 488.722656 C 363.378906 488.453125 363.949219 488.191406 364.515625 487.925781 C 365.09375 487.664062 365.660156 487.386719 366.226562 487.117188 C 367.941406 486.300781 369.644531 485.464844 371.339844 484.605469 C 373.023438 483.75 374.703125 482.882812 376.378906 481.988281 C 378.042969 481.089844 379.703125 480.183594 381.347656 479.257812 C 382.175781 478.800781 382.992188 478.332031 383.808594 477.851562 C 385.035156 477.144531 386.25 476.429688 387.464844 475.699219 C 388.480469 475.082031 389.496094 474.464844 390.511719 473.839844 C 391.429688 473.269531 392.347656 472.691406 393.261719 472.113281 C 398.898438 468.527344 404.386719 464.722656 409.707031 460.71875 C 410.871094 459.84375 412.027344 458.957031 413.175781 458.058594 C 413.710938 457.640625 414.25 457.222656 414.789062 456.792969 C 418.265625 454.046875 421.671875 451.195312 424.996094 448.265625 C 425.046875 448.21875 425.109375 448.175781 425.15625 448.128906 C 428.882812 444.859375 432.496094 441.472656 436.023438 437.988281 C 438.972656 435.078125 441.851562 432.089844 444.640625 429.03125 C 448.027344 425.355469 451.304688 421.582031 454.441406 417.714844 C 454.582031 417.558594 454.703125 417.40625 454.820312 417.257812 C 455.160156 416.828125 455.507812 416.410156 455.847656 415.984375 C 456.195312 415.566406 456.535156 415.136719 456.863281 414.707031 C 459.265625 411.671875 461.597656 408.582031 463.855469 405.433594 C 464.613281 404.386719 465.351562 403.34375 466.089844 402.285156 L 45.910156 402.285156 Z M 45.910156 402.289062 " style=" stroke:none;fill-rule:nonzero;fill:rgb(0%,62.745098%,25.882353%);fill-opacity:1;" />
<path d="M 87 448.269531 C 90.328125 451.195312 93.734375 454.046875 97.210938 456.796875 C 97.746094 457.222656 98.285156 457.644531 98.824219 458.0625 C 99.96875 458.957031 101.125 459.84375 102.289062 460.722656 C 107.609375 464.726562 113.097656 468.53125 118.734375 472.117188 C 119.652344 472.695312 120.570312 473.273438 121.484375 473.839844 C 122.5 474.46875 123.515625 475.085938 124.53125 475.703125 C 125.746094 476.429688 126.964844 477.148438 128.1875 477.855469 C 129.007812 478.332031 129.820312 478.800781 130.648438 479.261719 C 132.292969 480.1875 133.957031 481.09375 135.621094 481.988281 C 137.292969 482.886719 138.976562 483.753906 140.660156 484.609375 C 142.351562 485.464844 144.058594 486.300781 145.769531 487.117188 C 146.339844 487.386719 146.90625 487.667969 147.484375 487.925781 C 148.050781 488.195312 148.617188 488.453125 149.195312 488.722656 C 149.953125 489.070312 150.710938 489.421875 151.476562 489.757812 C 152.402344 490.175781 153.328125 490.585938 154.265625 490.984375 C 155.621094 491.582031 156.996094 492.160156 158.371094 492.726562 C 160.273438 493.515625 162.183594 494.28125 164.117188 495.019531 C 165.859375 495.6875 167.613281 496.34375 169.378906 496.96875 C 169.757812 497.109375 170.125 497.238281 170.503906 497.367188 C 175.59375 499.179688 180.753906 500.824219 185.984375 502.308594 C 187.007812 502.597656 188.046875 502.886719 189.082031 503.164062 C 190.855469 503.644531 192.628906 504.101562 194.398438 504.539062 C 195.324219 504.769531 196.253906 505 197.179688 505.207031 C 197.777344 505.347656 198.375 505.488281 198.980469 505.625 C 199.617188 505.773438 200.257812 505.914062 200.90625 506.054688 C 202 506.292969 203.097656 506.523438 204.183594 506.75 C 206.371094 507.210938 208.574219 507.628906 210.785156 508.015625 C 211.890625 508.214844 212.996094 508.40625 214.113281 508.585938 C 215.167969 508.761719 216.226562 508.933594 217.289062 509.09375 C 218.457031 509.269531 219.632812 509.441406 220.796875 509.601562 C 222.550781 509.839844 224.3125 510.066406 226.074219 510.265625 C 226.894531 510.367188 227.699219 510.457031 228.515625 510.535156 C 229.671875 510.664062 230.828125 510.785156 231.984375 510.886719 C 232.75 510.964844 233.507812 511.023438 234.265625 511.085938 C 234.355469 511.09375 234.441406 511.105469 234.53125 511.105469 C 235.019531 511.144531 235.519531 511.183594 236.007812 511.222656 C 237.03125 511.304688 238.058594 511.371094 239.085938 511.441406 C 239.195312 511.460938 239.304688 511.460938 239.402344 511.460938 C 240.179688 511.511719 240.957031 511.5625 241.746094 511.601562 C 242.171875 511.632812 242.601562 511.652344 243.03125 511.671875 C 243.597656 511.703125 244.164062 511.730469 244.742188 511.753906 C 245.230469 511.78125 245.710938 511.800781 246.1875 511.8125 C 247.023438 511.84375 247.871094 511.871094 248.71875 511.890625 C 249.824219 511.933594 250.929688 511.953125 252.035156 511.960938 C 252.570312 511.972656 253.121094 511.980469 253.65625 511.980469 C 254.4375 512 255.214844 512 256 512 C 257.472656 512 258.949219 511.988281 260.414062 511.960938 C 260.941406 511.949219 261.46875 511.941406 261.988281 511.929688 C 262.316406 511.921875 262.652344 511.921875 262.984375 511.898438 C 263.671875 511.890625 264.347656 511.871094 265.035156 511.839844 C 266.160156 511.800781 267.285156 511.761719 268.410156 511.699219 C 269.300781 511.660156 270.183594 511.609375 271.082031 511.5625 C 273.074219 511.449219 275.066406 511.3125 277.046875 511.144531 C 278.035156 511.0625 279.03125 510.984375 280.015625 510.882812 C 281.589844 510.742188 283.152344 510.585938 284.726562 510.394531 C 285.863281 510.265625 286.996094 510.136719 288.125 509.996094 C 290.386719 509.71875 292.625 509.410156 294.867188 509.0625 C 296.171875 508.863281 297.476562 508.652344 298.773438 508.433594 C 300.90625 508.085938 303.027344 507.695312 305.148438 507.289062 C 305.765625 507.167969 306.371094 507.050781 306.980469 506.921875 C 307.429688 506.828125 307.878906 506.742188 308.335938 506.640625 C 308.734375 506.5625 309.132812 506.480469 309.519531 506.390625 C 310.179688 506.261719 310.824219 506.113281 311.484375 505.972656 C 313.386719 505.554688 315.277344 505.105469 317.171875 504.640625 C 318.265625 504.378906 319.371094 504.101562 320.457031 503.8125 C 321.234375 503.613281 322.003906 503.414062 322.769531 503.203125 C 323.703125 502.953125 324.640625 502.695312 325.578125 502.425781 C 326.046875 502.296875 326.523438 502.15625 327.003906 502.019531 C 327.71875 501.820312 328.425781 501.601562 329.132812 501.390625 C 331.804688 500.605469 334.453125 499.777344 337.074219 498.890625 C 337.988281 498.59375 338.894531 498.28125 339.800781 497.964844 C 340.308594 497.796875 340.828125 497.617188 341.335938 497.425781 C 342.300781 497.089844 343.277344 496.738281 344.246094 496.382812 C 344.863281 496.152344 345.46875 495.921875 346.089844 495.695312 C 346.835938 495.414062 347.582031 495.136719 348.320312 494.847656 C 350.847656 493.871094 353.347656 492.855469 355.839844 491.800781 C 357.003906 491.300781 358.179688 490.804688 359.335938 490.285156 C 360.492188 489.777344 361.648438 489.25 362.800781 488.722656 C 363.378906 488.453125 363.949219 488.191406 364.515625 487.925781 C 365.09375 487.664062 365.660156 487.386719 366.226562 487.117188 C 367.941406 486.300781 369.644531 485.464844 371.339844 484.605469 C 373.023438 483.75 374.703125 482.882812 376.378906 481.988281 C 378.042969 481.089844 379.703125 480.183594 381.347656 479.257812 C 382.175781 478.800781 382.992188 478.332031 383.808594 477.851562 C 385.035156 477.144531 386.25 476.429688 387.464844 475.699219 C 388.480469 475.082031 389.496094 474.464844 390.511719 473.839844 C 391.429688 473.269531 392.347656 472.691406 393.261719 472.113281 C 398.898438 468.527344 404.386719 464.722656 409.707031 460.71875 C 410.871094 459.84375 412.027344 458.957031 413.175781 458.058594 C 413.710938 457.640625 414.25 457.222656 414.789062 456.792969 C 418.265625 454.046875 421.671875 451.195312 424.996094 448.265625 L 87 448.265625 Z M 87 448.269531 " style=" stroke:none;fill-rule:nonzero;fill:rgb(47.843137%,17.647059%,10.196078%);fill-opacity:1;" />
<path d="M 158.371094 492.726562 C 160.273438 493.511719 162.1875 494.277344 164.117188 495.015625 C 165.863281 495.683594 167.613281 496.339844 169.378906 496.96875 C 169.757812 497.105469 170.125 497.238281 170.503906 497.367188 C 175.59375 499.179688 180.753906 500.824219 185.984375 502.308594 C 187.011719 502.597656 188.046875 502.886719 189.082031 503.164062 C 190.855469 503.640625 192.628906 504.101562 194.402344 504.539062 C 195.328125 504.769531 196.253906 504.996094 197.179688 505.207031 C 197.777344 505.34375 198.375 505.484375 198.984375 505.625 C 199.621094 505.773438 200.257812 505.914062 200.90625 506.050781 C 202.003906 506.289062 203.097656 506.519531 204.183594 506.75 C 206.375 507.207031 208.574219 507.625 210.785156 508.015625 C 211.894531 508.214844 212.996094 508.402344 214.113281 508.582031 C 215.171875 508.761719 216.226562 508.929688 217.292969 509.089844 C 218.457031 509.269531 219.632812 509.4375 220.796875 509.597656 C 222.550781 509.835938 224.3125 510.066406 226.078125 510.265625 C 226.894531 510.363281 227.699219 510.453125 228.519531 510.535156 C 229.675781 510.664062 230.828125 510.78125 231.984375 510.882812 C 232.75 510.960938 233.507812 511.023438 234.265625 511.082031 C 234.355469 511.09375 234.445312 511.101562 234.535156 511.101562 C 235.023438 511.140625 235.519531 511.183594 236.007812 511.222656 C 237.035156 511.300781 238.058594 511.371094 239.085938 511.441406 C 239.195312 511.460938 239.304688 511.460938 239.40625 511.460938 C 240.183594 511.511719 240.960938 511.558594 241.746094 511.601562 C 242.175781 511.628906 242.601562 511.648438 243.03125 511.671875 C 243.597656 511.699219 244.167969 511.730469 244.742188 511.75 C 245.230469 511.78125 245.710938 511.800781 246.1875 511.808594 C 247.023438 511.839844 247.871094 511.871094 248.71875 511.890625 C 249.824219 511.929688 250.929688 511.949219 252.035156 511.960938 C 252.574219 511.96875 253.121094 511.980469 253.660156 511.980469 C 254.4375 512 255.214844 512 256 512 C 257.472656 512 258.949219 511.988281 260.414062 511.960938 C 260.941406 511.949219 261.46875 511.941406 261.988281 511.929688 C 262.316406 511.921875 262.652344 511.921875 262.984375 511.898438 C 263.671875 511.890625 264.347656 511.871094 265.035156 511.839844 C 266.160156 511.800781 267.285156 511.761719 268.410156 511.699219 C 269.300781 511.660156 270.183594 511.609375 271.082031 511.5625 C 273.074219 511.449219 275.066406 511.3125 277.046875 511.144531 C 278.035156 511.0625 279.03125 510.984375 280.015625 510.882812 C 281.589844 510.742188 283.152344 510.585938 284.726562 510.394531 C 285.863281 510.265625 286.996094 510.136719 288.125 509.996094 C 290.386719 509.71875 292.625 509.410156 294.867188 509.0625 C 296.171875 508.863281 297.476562 508.652344 298.773438 508.433594 C 300.90625 508.085938 303.027344 507.695312 305.148438 507.289062 C 305.765625 507.167969 306.371094 507.050781 306.980469 506.921875 C 307.429688 506.828125 307.878906 506.742188 308.335938 506.640625 C 308.734375 506.5625 309.132812 506.480469 309.519531 506.390625 C 310.179688 506.261719 310.824219 506.113281 311.484375 505.972656 C 313.386719 505.554688 315.277344 505.105469 317.171875 504.640625 C 318.265625 504.378906 319.371094 504.101562 320.457031 503.8125 C 321.234375 503.613281 322.003906 503.414062 322.769531 503.203125 C 323.703125 502.953125 324.640625 502.695312 325.578125 502.425781 C 326.046875 502.296875 326.523438 502.15625 327.003906 502.019531 C 327.71875 501.820312 328.425781 501.601562 329.132812 501.390625 C 331.804688 500.605469 334.453125 499.777344 337.074219 498.890625 C 337.988281 498.59375 338.894531 498.28125 339.800781 497.964844 C 340.308594 497.796875 340.828125 497.617188 341.335938 497.425781 C 342.300781 497.089844 343.277344 496.738281 344.246094 496.382812 C 344.863281 496.152344 345.46875 495.921875 346.089844 495.695312 C 346.835938 495.414062 347.582031 495.136719 348.320312 494.847656 C 340.828125 484.257812 328.496094 477.335938 314.539062 477.335938 C 310.757812 477.335938 307.101562 477.851562 303.625 478.808594 C 300.664062 466.566406 293.683594 455.898438 284.171875 448.269531 C 274.589844 440.597656 262.433594 436.007812 249.207031 436.007812 C 235.980469 436.007812 223.824219 440.589844 214.242188 448.269531 C 205.03125 455.628906 198.207031 465.859375 195.089844 477.59375 C 193.59375 477.425781 192.082031 477.335938 190.535156 477.335938 C 177.535156 477.335938 165.941406 483.34375 158.371094 492.726562 Z M 158.371094 492.726562 " style=" stroke:none;fill-rule:nonzero;fill:rgb(42.352941%,86.27451%,17.647059%);fill-opacity:1;" />
<path d="M 194.402344 504.539062 C 195.328125 504.769531 196.253906 504.996094 197.179688 505.207031 C 197.777344 505.34375 198.375 505.484375 198.984375 505.625 C 199.621094 505.773438 200.257812 505.914062 200.90625 506.050781 C 202.003906 506.289062 203.097656 506.519531 204.183594 506.75 C 206.375 507.207031 208.574219 507.625 210.785156 508.015625 C 211.894531 508.214844 212.996094 508.402344 214.113281 508.582031 C 215.171875 508.761719 216.226562 508.929688 217.292969 509.089844 C 218.457031 509.269531 219.632812 509.4375 220.796875 509.597656 C 222.550781 509.835938 224.3125 510.066406 226.078125 510.265625 C 226.894531 510.363281 227.699219 510.453125 228.519531 510.535156 C 229.675781 510.664062 230.828125 510.78125 231.984375 510.882812 C 232.75 510.960938 233.507812 511.023438 234.265625 511.082031 C 234.355469 511.09375 234.445312 511.101562 234.535156 511.101562 C 235.023438 511.140625 235.519531 511.183594 236.007812 511.222656 C 237.035156 511.300781 238.058594 511.371094 239.085938 511.441406 C 239.195312 511.460938 239.304688 511.460938 239.40625 511.460938 C 240.183594 511.511719 240.960938 511.558594 241.746094 511.601562 C 242.175781 511.628906 242.601562 511.648438 243.03125 511.671875 C 243.597656 511.699219 244.167969 511.730469 244.742188 511.75 C 245.230469 511.78125 245.710938 511.800781 246.1875 511.808594 C 247.023438 511.839844 247.871094 511.871094 248.71875 511.890625 C 249.824219 511.929688 250.929688 511.949219 252.035156 511.960938 C 252.574219 511.96875 253.121094 511.980469 253.660156 511.980469 C 254.4375 512 255.214844 512 256 512 C 257.472656 512 258.949219 511.988281 260.414062 511.960938 C 260.941406 511.949219 261.46875 511.941406 261.988281 511.929688 C 262.316406 511.921875 262.652344 511.921875 262.984375 511.898438 C 263.671875 511.890625 264.347656 511.871094 265.035156 511.839844 C 266.160156 511.800781 267.285156 511.761719 268.410156 511.699219 C 269.300781 511.660156 270.183594 511.609375 271.082031 511.5625 C 273.074219 511.449219 275.066406 511.3125 277.046875 511.144531 C 278.035156 511.0625 279.03125 510.984375 280.015625 510.882812 C 281.589844 510.742188 283.152344 510.585938 284.726562 510.394531 C 285.863281 510.265625 286.996094 510.136719 288.125 509.996094 C 290.386719 509.71875 292.625 509.410156 294.867188 509.0625 C 296.171875 508.863281 297.476562 508.652344 298.773438 508.433594 C 300.90625 508.085938 303.027344 507.695312 305.148438 507.289062 C 305.765625 507.167969 306.371094 507.050781 306.980469 506.921875 C 307.429688 506.828125 307.878906 506.742188 308.335938 506.640625 C 308.734375 506.5625 309.132812 506.480469 309.519531 506.390625 C 310.179688 506.261719 310.824219 506.113281 311.484375 505.972656 C 307.367188 498.09375 299.109375 492.714844 289.597656 492.714844 C 287.339844 492.714844 285.15625 493.023438 283.074219 493.59375 C 279.527344 478.910156 266.320312 468.003906 250.539062 468.003906 C 235.039062 468.003906 221.992188 478.550781 218.195312 492.867188 C 217.300781 492.765625 216.394531 492.714844 215.476562 492.714844 C 206.554688 492.714844 198.734375 497.445312 194.402344 504.539062 Z M 194.402344 504.539062 " style=" stroke:none;fill-rule:nonzero;fill:rgb(0%,62.745098%,25.882353%);fill-opacity:1;" />
<path d="M 220.796875 509.597656 C 222.550781 509.839844 224.3125 510.066406 226.078125 510.265625 C 226.894531 510.367188 227.699219 510.453125 228.519531 510.535156 C 229.675781 510.664062 230.828125 510.785156 231.984375 510.882812 C 232.75 510.964844 233.507812 511.023438 234.265625 511.082031 C 234.355469 511.09375 234.445312 511.101562 234.535156 511.101562 C 235.023438 511.144531 235.519531 511.183594 236.007812 511.222656 C 237.035156 511.300781 238.058594 511.371094 239.085938 511.441406 C 239.195312 511.460938 239.304688 511.460938 239.40625 511.460938 C 240.183594 511.511719 240.960938 511.5625 241.746094 511.601562 C 242.175781 511.632812 242.601562 511.652344 243.03125 511.671875 C 243.597656 511.699219 244.167969 511.730469 244.742188 511.75 C 245.230469 511.78125 245.710938 511.800781 246.1875 511.8125 C 247.023438 511.839844 247.871094 511.871094 248.71875 511.890625 C 249.824219 511.929688 250.929688 511.949219 252.035156 511.960938 C 252.574219 511.972656 253.121094 511.980469 253.660156 511.980469 C 254.4375 512 255.214844 512 256 512 C 257.472656 512 258.949219 511.988281 260.414062 511.960938 C 260.941406 511.949219 261.46875 511.941406 261.988281 511.929688 C 262.316406 511.921875 262.652344 511.921875 262.984375 511.898438 C 263.671875 511.890625 264.347656 511.871094 265.035156 511.839844 C 266.160156 511.800781 267.285156 511.761719 268.410156 511.699219 C 269.300781 511.660156 270.183594 511.609375 271.082031 511.5625 C 273.074219 511.449219 275.066406 511.3125 277.046875 511.144531 C 278.035156 511.0625 279.03125 510.984375 280.015625 510.882812 C 281.589844 510.742188 283.152344 510.585938 284.726562 510.394531 C 282.484375 506.0625 277.972656 503.09375 272.753906 503.09375 C 271.519531 503.09375 270.324219 503.261719 269.199219 503.570312 C 267.257812 495.574219 260.054688 489.625 251.445312 489.625 C 242.988281 489.625 235.878906 495.375 233.804688 503.183594 C 233.316406 503.121094 232.828125 503.09375 232.320312 503.09375 C 227.433594 503.09375 223.15625 505.703125 220.796875 509.597656 Z M 220.796875 509.597656 " style=" stroke:none;fill-rule:nonzero;fill:rgb(1.176471%,44.705882%,18.823529%);fill-opacity:1;" />
<path d="M 325.460938 448.128906 L 425.160156 448.128906 C 428.886719 444.863281 432.5 441.476562 436.027344 437.988281 C 438.976562 435.078125 441.855469 432.09375 444.644531 429.035156 C 448.03125 425.359375 451.308594 421.582031 454.445312 417.71875 C 454.585938 417.558594 454.703125 417.410156 454.824219 417.261719 L 454.816406 417.25 C 453.511719 411.832031 451.257812 406.78125 448.230469 402.289062 C 448.242188 402.277344 448.230469 402.269531 448.210938 402.257812 C 439.792969 389.695312 425.46875 381.429688 409.203125 381.429688 C 392.945312 381.429688 378.613281 389.695312 370.183594 402.257812 C 370.183594 402.269531 370.175781 402.277344 370.164062 402.289062 C 367.335938 406.519531 365.164062 411.234375 363.828125 416.292969 C 362.574219 416.164062 361.300781 416.085938 360.015625 416.085938 C 341.753906 416.085938 326.792969 430.210938 325.460938 448.128906 Z M 325.460938 448.128906 " style=" stroke:none;fill-rule:nonzero;fill:rgb(42.352941%,86.27451%,17.647059%);fill-opacity:1;" />
<path d="M 360.273438 448.128906 L 425.160156 448.128906 C 428.886719 444.863281 432.5 441.476562 436.027344 437.988281 C 438.976562 435.078125 441.855469 432.09375 444.644531 429.035156 C 444.125 428.992188 443.609375 428.972656 443.078125 428.972656 C 441.1875 428.972656 439.355469 429.234375 437.609375 429.710938 C 434.632812 417.398438 423.554688 408.253906 410.328125 408.253906 C 397.328125 408.253906 386.390625 417.101562 383.203125 429.101562 C 382.457031 429.023438 381.699219 428.972656 380.921875 428.972656 C 370.003906 428.972656 361.070312 437.421875 360.273438 448.128906 Z M 360.273438 448.128906 " style=" stroke:none;fill-rule:nonzero;fill:rgb(0%,62.745098%,25.882353%);fill-opacity:1;" />
<path d="M 43.980469 399.480469 C 52.558594 388.421875 65.980469 381.300781 81.070312 381.300781 C 97.390625 381.300781 111.761719 389.621094 120.160156 402.261719 C 120.179688 402.269531 120.179688 402.28125 120.179688 402.289062 C 123.171875 406.769531 125.398438 411.789062 126.710938 417.179688 C 129.621094 416.378906 132.691406 415.960938 135.859375 415.960938 C 154.121094 415.960938 169.078125 430.078125 170.410156 448 L 86.699219 448 C 80.660156 442.691406 74.890625 437.089844 69.390625 431.238281 C 65.921875 427.558594 62.578125 423.769531 59.359375 419.898438 C 55.441406 415.21875 51.699219 410.398438 48.140625 405.441406 C 47.761719 404.921875 47.390625 404.390625 47.019531 403.859375 C 46.648438 403.339844 46.28125 402.820312 45.910156 402.289062 L 45.910156 402.28125 C 45.898438 402.269531 45.890625 402.269531 45.890625 402.261719 Z M 43.980469 399.480469 " style=" stroke:none;fill-rule:nonzero;fill:rgb(42.352941%,86.27451%,17.647059%);fill-opacity:1;" />
<path d="M 59.359375 419.898438 C 62.574219 423.773438 65.921875 427.558594 69.390625 431.234375 C 74.886719 437.09375 80.664062 442.691406 86.699219 448 L 135.601562 448 C 134.804688 437.292969 125.867188 428.84375 114.949219 428.84375 C 113.058594 428.84375 111.226562 429.105469 109.480469 429.582031 C 106.503906 417.269531 95.425781 408.125 82.199219 408.125 C 72.777344 408.125 64.4375 412.769531 59.359375 419.898438 Z M 59.359375 419.898438 " style=" stroke:none;fill-rule:nonzero;fill:rgb(0%,62.745098%,25.882353%);fill-opacity:1;" />
<path d="M 69.390625 431.234375 C 74.886719 437.09375 80.664062 442.691406 86.699219 448 L 114.5625 448 C 114.085938 441.644531 108.785156 436.632812 102.308594 436.632812 C 101.183594 436.632812 100.097656 436.792969 99.0625 437.070312 C 97.300781 429.769531 90.726562 424.34375 82.875 424.34375 C 77.328125 424.34375 72.417969 427.0625 69.390625 431.234375 Z M 69.390625 431.234375 " style=" stroke:none;fill-rule:nonzero;fill:rgb(1.176471%,44.705882%,18.823529%);fill-opacity:1;" />
<path d="M 381.140625 448.128906 L 425.160156 448.128906 C 428.882812 444.863281 432.5 441.476562 436.027344 437.988281 C 434.371094 437.171875 432.511719 436.703125 430.539062 436.703125 C 429.410156 436.703125 428.316406 436.863281 427.269531 437.140625 C 425.496094 429.800781 418.894531 424.34375 411.003906 424.34375 C 403.242188 424.34375 396.71875 429.621094 394.828125 436.78125 C 394.378906 436.734375 393.921875 436.703125 393.460938 436.703125 C 386.949219 436.703125 381.617188 441.742188 381.140625 448.128906 Z M 381.140625 448.128906 " style=" stroke:none;fill-rule:nonzero;fill:rgb(1.176471%,44.705882%,18.823529%);fill-opacity:1;" />
<path d="M 280.832031 151.113281 L 279.949219 151.113281 C 276.035156 151.113281 272.859375 147.9375 272.859375 144.023438 L 272.859375 143.140625 L 267.808594 143.140625 L 267.808594 144.023438 C 267.808594 147.9375 264.632812 151.113281 260.71875 151.113281 L 259.835938 151.113281 L 259.835938 156.167969 L 260.71875 156.167969 C 264.632812 156.167969 267.808594 159.339844 267.808594 163.257812 L 267.808594 164.140625 L 272.859375 164.140625 L 272.859375 163.257812 C 272.859375 159.339844 276.035156 156.167969 279.949219 156.167969 L 280.832031 156.167969 Z M 280.832031 151.113281 " style=" stroke:none;fill-rule:nonzero;fill:rgb(100%,100%,100%);fill-opacity:1;" />
<path d="M 379.382812 72.945312 L 378.5 72.945312 C 374.585938 72.945312 371.410156 69.773438 371.410156 65.855469 L 371.410156 64.972656 L 366.359375 64.972656 L 366.359375 65.855469 C 366.359375 69.773438 363.183594 72.945312 359.269531 72.945312 L 358.386719 72.945312 L 358.386719 78 L 359.269531 78 C 363.183594 78 366.359375 81.175781 366.359375 85.089844 L 366.359375 85.972656 L 371.410156 85.972656 L 371.410156 85.089844 C 371.410156 81.175781 374.585938 78 378.5 78 L 379.382812 78 Z M 379.382812 72.945312 " style=" stroke:none;fill-rule:nonzero;fill:rgb(100%,100%,100%);fill-opacity:1;" />
<path d="M 423 164.472656 L 422.117188 164.472656 C 418.199219 164.472656 415.027344 161.300781 415.027344 157.382812 L 415.027344 156.5 L 409.972656 156.5 L 409.972656 157.382812 C 409.972656 161.300781 406.800781 164.472656 402.882812 164.472656 L 402 164.472656 L 402 169.527344 L 402.882812 169.527344 C 406.800781 169.527344 409.972656 172.699219 409.972656 176.613281 L 409.972656 177.5 L 415.027344 177.5 L 415.027344 176.613281 C 415.027344 172.699219 418.199219 169.527344 422.117188 169.527344 L 423 169.527344 Z M 423 164.472656 " style=" stroke:none;fill-rule:nonzero;fill:rgb(100%,100%,100%);fill-opacity:1;" />
<path d="M 478.5 246.140625 L 477.617188 246.140625 C 473.699219 246.140625 470.527344 242.964844 470.527344 239.050781 L 470.527344 238.167969 L 465.472656 238.167969 L 465.472656 239.050781 C 465.472656 242.964844 462.300781 246.140625 458.382812 246.140625 L 457.5 246.140625 L 457.5 251.195312 L 458.382812 251.195312 C 462.300781 251.195312 465.472656 254.367188 465.472656 258.28125 L 465.472656 259.167969 L 470.527344 259.167969 L 470.527344 258.28125 C 470.527344 254.367188 473.699219 251.195312 477.617188 251.195312 L 478.5 251.195312 Z M 478.5 246.140625 " style=" stroke:none;fill-rule:nonzero;fill:rgb(100%,100%,100%);fill-opacity:1;" />
<path d="M 188.167969 72.308594 L 187.28125 72.308594 C 183.367188 72.308594 180.195312 69.132812 180.195312 65.21875 L 180.195312 64.335938 L 175.140625 64.335938 L 175.140625 65.21875 C 175.140625 69.132812 171.96875 72.308594 168.050781 72.308594 L 167.167969 72.308594 L 167.167969 77.359375 L 168.050781 77.359375 C 171.96875 77.359375 175.140625 80.535156 175.140625 84.449219 L 175.140625 85.335938 L 180.195312 85.335938 L 180.195312 84.449219 C 180.195312 80.535156 183.367188 77.359375 187.28125 77.359375 L 188.167969 77.359375 Z M 188.167969 72.308594 " style=" stroke:none;fill-rule:nonzero;fill:rgb(100%,100%,100%);fill-opacity:1;" />
<path d="M 116.332031 156.472656 L 115.449219 156.472656 C 111.535156 156.472656 108.359375 153.300781 108.359375 149.382812 L 108.359375 148.5 L 103.304688 148.5 L 103.304688 149.382812 C 103.304688 153.300781 100.132812 156.472656 96.21875 156.472656 L 95.332031 156.472656 L 95.332031 161.527344 L 96.21875 161.527344 C 100.132812 161.527344 103.304688 164.699219 103.304688 168.613281 L 103.304688 169.5 L 108.359375 169.5 L 108.359375 168.613281 C 108.359375 164.699219 111.535156 161.527344 115.449219 161.527344 L 116.332031 161.527344 Z M 116.332031 156.472656 " style=" stroke:none;fill-rule:nonzero;fill:rgb(100%,100%,100%);fill-opacity:1;" />
<path d="M 50.832031 238.308594 L 49.949219 238.308594 C 46.035156 238.308594 42.859375 235.132812 42.859375 231.21875 L 42.859375 230.335938 L 37.804688 230.335938 L 37.804688 231.21875 C 37.804688 235.132812 34.632812 238.308594 30.71875 238.308594 L 29.832031 238.308594 L 29.832031 243.359375 L 30.71875 243.359375 C 34.632812 243.359375 37.804688 246.535156 37.804688 250.449219 L 37.804688 251.332031 L 42.859375 251.332031 L 42.859375 250.449219 C 42.859375 246.535156 46.035156 243.359375 49.949219 243.359375 L 50.832031 243.359375 Z M 50.832031 238.308594 " style=" stroke:none;fill-rule:nonzero;fill:rgb(100%,100%,100%);fill-opacity:1;" />
</g>
</svg>