<?xml version="1.0" encoding="iso-8859-1"?>
<!-- Generator: Adobe Illustrator 19.0.0, SVG Export Plug-In . SVG Version: 6.00 Build 0)  -->
<svg version="1.1" id="Capa_1" xmlns="http://www.w3.org/2000/svg" xmlns:xlink="http://www.w3.org/1999/xlink" x="0px" y="0px"
	 viewBox="0 0 461.389 461.389" style="enable-background:new 0 0 461.389 461.389;" xml:space="preserve">
<path style="fill:#8ACED8;" d="M448.8,214.206l-8.8-17.512l-4.096,8.192c-7.417,14.837-20.281,26.234-35.904,31.808H266.016
	c-26.448-0.412-48.513,20.111-50.016,46.52c-0.817,26.497,20,48.64,46.497,49.457c0.501,0.015,1.002,0.023,1.503,0.023h144
	c20.073-6.124,36.93-19.9,46.928-38.352c0.56-1.16,0.848-2.352,1.456-3.488C464,276.694,464,244.694,448.8,214.206z"/>
<path style="fill:#EAC25E;" d="M216,380.694l-40-24H0v48h176l40,16h208c8.837,0,16-7.163,16-16v-8c0-8.837-7.163-16-16-16H216z"/>
<path style="fill:#DEB859;" d="M176,356.694l40,24v40l-40-16V356.694z"/>
<path style="fill:#EBEBEB;" d="M416,380.694h-32v-64c0-8.837,7.163-16,16-16s16,7.163,16,16V380.694z"/>
<path style="fill:#DBDBDB;" d="M368,300.694c8.837,0,16,7.163,16,16v64l0,0h-32l0,0v-64C352,307.858,359.163,300.694,368,300.694z"
	/>
<path style="fill:#EBEBEB;" d="M336,300.694c8.837,0,16,7.163,16,16v64l0,0h-32l0,0v-64C320,307.858,327.163,300.694,336,300.694z"
	/>
<path style="fill:#DBDBDB;" d="M304,300.694c8.837,0,16,7.163,16,16v64l0,0h-32l0,0v-64C288,307.858,295.163,300.694,304,300.694z"
	/>
<path style="fill:#EBEBEB;" d="M272,300.694c8.837,0,16,7.163,16,16v64l0,0h-32l0,0v-64C256,307.858,263.163,300.694,272,300.694z"
	/>
<g>
	<path style="fill:#69B0BB;" d="M248,292.55h-0.256c-4.291-0.07-7.736-3.564-7.744-7.856c0-8.304,6.688-24,32-24h16
		c4.418,0,8,3.582,8,8s-3.582,8-8,8h-16c-14.72,0-15.912,6.856-16,8.224C255.733,289.16,252.25,292.484,248,292.55z"/>
	<path style="fill:#69B0BB;" d="M408,276.694h-16c-4.418,0-8-3.582-8-8s3.582-8,8-8h16c14.72,0,15.912-6.856,16-8.224
		c0.421-4.267,3.969-7.543,8.256-7.624c4.288,0.07,7.731,3.559,7.744,7.848C440,260.998,433.312,276.694,408,276.694z"/>
</g>
<path style="fill:#F9E0A0;" d="M216,216.694l-16-32l-32-16l32-16l16-32l16,32l32,16l-32,16L216,216.694z"/>
<path style="fill:#F4CA62;" d="M128,136.694l-16-32l-32-16l32-16l16-32l16,32l32,16l-32,16L128,136.694z"/>
<g>
</g>
<g>
</g>
<g>
</g>
<g>
</g>
<g>
</g>
<g>
</g>
<g>
</g>
<g>
</g>
<g>
</g>
<g>
</g>
<g>
</g>
<g>
</g>
<g>
</g>
<g>
</g>
<g>
</g>
</svg>
