<svg id="Capa_1" enable-background="new 0 0 512 512" height="512" viewBox="0 0 512 512" width="512" xmlns="http://www.w3.org/2000/svg"><g><path d="m447.48 219.577h-14.57c-5.747 0-10.407-4.659-10.407-10.407v-52.033c0-57.474-46.591-104.065-104.065-104.065h-124.877c-57.474 0-104.065 46.592-104.065 104.065v52.033c0 5.747-4.659 10.407-10.407 10.407h-14.569c-22.989 0-41.626 18.637-41.626 41.626v104.065h466.211v-104.065c.001-22.989-18.636-41.626-41.625-41.626z" fill="#df75a5"/><path d="m284.301 365.268h186.909c-9.529-42.816-47.81-74.927-93.455-74.927s-83.924 32.111-93.454 74.927z" fill="#dd5790"/><path d="m227.699 365.268h-186.91c9.529-42.816 47.81-74.927 93.455-74.927s83.925 32.111 93.455 74.927z" fill="#dd5790"/><path d="m501.593 406.894h-491.186c-5.748 0-10.407-4.659-10.407-10.406v-20.813c0-5.747 4.659-10.407 10.407-10.407h491.187c5.747 0 10.406 4.659 10.406 10.407v20.813c0 5.747-4.659 10.406-10.407 10.406z" fill="#ffe07d"/><path d="m218.537 86.374h-24.976c-39.082 0-70.764 31.682-70.764 70.764v41.626c0 11.495 9.318 20.813 20.813 20.813h74.927c11.495 0 20.813-9.318 20.813-20.813v-91.577c0-11.495-9.319-20.813-20.813-20.813z" fill="#e4fbef"/><path d="m318.439 86.374h-24.976c-11.495 0-20.813 9.318-20.813 20.813v91.577c0 11.495 9.318 20.813 20.813 20.813h74.927c11.495 0 20.813-9.318 20.813-20.813v-41.626c0-39.082-31.682-70.764-70.764-70.764z" fill="#e4fbef"/><path d="m218.537 86.374h-24.976c-.232 0-.461.015-.693.018 11.333.188 20.466 9.418 20.466 20.796v91.577c0 11.495-9.318 20.813-20.813 20.813h26.016c11.495 0 20.813-9.318 20.813-20.813v-91.577c0-11.496-9.319-20.814-20.813-20.814z" fill="#d3effb"/><path d="m318.439 86.374h-24.976c-.117 0-.23.016-.347.018 38.761.374 70.071 31.897 70.071 70.747v41.626c0 11.495-9.318 20.813-20.813 20.813h26.016c11.495 0 20.813-9.318 20.813-20.813v-41.626c0-39.083-31.682-70.765-70.764-70.765z" fill="#d3effb"/><circle cx="377.756" cy="386.081" fill="#30579d" r="72.846"/><path d="m420.253 326.934c8.611 11.963 13.698 26.632 13.698 42.497 0 40.231-32.614 72.846-72.846 72.846-15.865 0-30.534-5.088-42.497-13.698 13.225 18.373 34.781 30.349 59.147 30.349 40.231 0 72.846-32.614 72.846-72.846.001-24.367-11.975-45.923-30.348-59.148z" fill="#26457d"/><circle cx="377.756" cy="386.081" fill="#e4fbef" r="31.22"/><circle cx="134.244" cy="386.081" fill="#30579d" r="72.846"/><path d="m176.741 326.934c8.611 11.963 13.698 26.632 13.698 42.497 0 40.231-32.614 72.846-72.846 72.846-15.865 0-30.534-5.088-42.497-13.698 13.225 18.373 34.781 30.349 59.147 30.349 40.231 0 72.846-32.614 72.846-72.846 0-24.367-11.975-45.923-30.348-59.148z" fill="#26457d"/><circle cx="134.244" cy="386.081" fill="#e4fbef" r="31.22"/><g><path d="m307.434 266.848h-27.057c-4.268 0-7.726-3.459-7.726-7.726s3.459-7.726 7.726-7.726h27.057c4.268 0 7.726 3.459 7.726 7.726s-3.458 7.726-7.726 7.726z" fill="#30579d"/></g><g><path d="m231.623 266.848h-27.057c-4.268 0-7.726-3.459-7.726-7.726s3.459-7.726 7.726-7.726h27.057c4.268 0 7.726 3.459 7.726 7.726s-3.458 7.726-7.726 7.726z" fill="#30579d"/></g></g></svg>