<?xml version="1.0" encoding="iso-8859-1"?>
<!-- Generator: Adobe Illustrator 19.0.0, SVG Export Plug-In . SVG Version: 6.00 Build 0)  -->
<svg version="1.1" id="Capa_1" xmlns="http://www.w3.org/2000/svg" xmlns:xlink="http://www.w3.org/1999/xlink" x="0px" y="0px"
	 viewBox="0 0 511.993 511.993" style="enable-background:new 0 0 511.993 511.993;" xml:space="preserve">
<line style="fill:none;stroke:#000000;stroke-width:9;stroke-linejoin:round;stroke-miterlimit:10;" x1="488.482" y1="257.879" x2="488.482" y2="257.879"/>
<polyline style="fill:#2F2F37;" points="95.783,399.572 40.751,488.737 380.693,482.467 333.324,399.572 "/>
<polyline style="fill:#9FA4AA;" points="427.74,213.501 427.74,329.215 452.463,329.215 452.463,213.501 452.463,161.162 
	452.463,132.482 427.74,132.482 427.74,161.162 "/>
<polyline style="fill:#899096;" points="427.74,213.501 427.74,329.215 439.905,329.215 439.905,213.501 439.905,161.162 
	439.905,132.482 427.74,132.482 427.74,161.162 "/>
<rect x="377.325" y="160.034" style="fill:#596468;" width="134.667" height="50.239"/>
<polyline style="fill:#E6EAF5;" points="462.022,321.466 508.793,321.466 508.793,509.576 359.16,363.107 359.16,321.466 
	427.307,321.466 "/>
<g>
	<polygon style="fill:#BCC3C9;" points="508.793,461.438 508.793,509.577 359.16,363.107 359.16,321.466 	"/>
	<polygon style="fill:#BCC3C9;" points="131.762,365.285 104.428,410.676 44.889,509.535 0,509.535 80.614,403.853 110.039,365.285 
			"/>
	<polygon style="fill:#BCC3C9;" points="427.178,509.535 382.289,509.535 322.698,410.686 295.332,365.285 317.139,365.285 
		346.584,403.884 	"/>
</g>
<g>
	<polygon style="fill:#515B65;" points="309.269,388.288 329.79,422.32 329.277,422.661 97.301,422.661 117.481,389.058 
		308.071,389.058 	"/>
	<polygon style="fill:#515B65;" points="75.925,458.231 348.943,458.231 350.738,457.12 382.29,509.535 44.973,509.535 	"/>
</g>
<g>
	<path style="fill:#A0A9AF;" d="M110.039,365.285h21.724l-27.335,45.391c-8.652-0.303-16.76-2.748-23.813-6.823L110.039,365.285z"/>
	<path style="fill:#A0A9AF;" d="M346.584,403.884c-7.074,4.075-15.203,6.51-23.887,6.802l-27.366-45.401h21.807L346.584,403.884z"/>
</g>
<path style="fill:#4F5F5F;" d="M252.032,2.415h-19.806h-37.188H175.23c-21.864,0-36.554,12.794-36.554,31.835v3.74
	c0,3.909,3.169,7.077,7.077,7.077c3.909,0,7.077-3.169,7.077-7.077v-3.74c0-4.147,1.615-17.68,22.399-17.68h12.729v16.018
	c0,11.205,8.752,20.4,19.779,21.119v15.383c0,3.909,3.169,7.077,7.077,7.077s7.077-3.169,7.077-7.077V53.417
	c9.885-1.779,17.409-10.439,17.409-20.828V16.571h12.729c12.351,0,22.399,10.048,22.399,22.399v3.74
	c0,3.909,3.169,7.077,7.077,7.077c3.909,0,7.077-3.169,7.077-7.077v-3.74C288.586,18.813,272.187,2.415,252.032,2.415z
	 M225.148,32.589c0,3.867-3.146,7.014-7.014,7.014h-9.004c-3.867,0-7.014-3.146-7.014-7.014V16.571h23.033V32.589z"/>
<path style="fill:#F2B400;" d="M298.734,391.91H128.528c-28.406,0-51.432-23.028-51.432-51.432V120.523
	c0-28.406,23.028-51.432,51.432-51.432h170.206c28.406,0,51.432,23.028,51.432,51.432v219.953
	C350.166,368.882,327.14,391.91,298.734,391.91z"/>
<path style="fill:#D39702;" d="M102.573,345.461V115.54c0-25.653,20.796-46.449,46.449-46.449h-25.478
	c-25.653,0-46.449,20.796-46.449,46.449v229.921c0,25.652,20.796,46.449,46.449,46.449h25.478
	C123.369,391.91,102.573,371.114,102.573,345.461z"/>
<polyline style="fill:#A0D9F2;" points="241.938,131.375 321.206,131.375 321.206,267.262 106.061,267.262 106.061,131.375 
	185.319,131.375 "/>
<path style="fill:#D39702;" d="M321.206,274.339H106.062c-3.909,0-7.077-3.169-7.077-7.077V131.375c0-3.909,3.169-7.077,7.077-7.077
	h79.257v14.155h-72.18v121.731h200.989V138.453h-72.189v-14.155h79.267c3.909,0,7.077,3.169,7.077,7.077v135.887
	C328.283,271.17,325.115,274.339,321.206,274.339z"/>
<circle style="fill:#FFFFFF;" cx="213.631" cy="131.372" r="28.306"/>
<path style="fill:#4F5F5F;" d="M213.631,166.763c-19.512,0-35.386-15.874-35.386-35.386s15.874-35.386,35.386-35.386
	s35.386,15.874,35.386,35.386S233.143,166.763,213.631,166.763z M213.631,110.146c-11.707,0-21.231,9.524-21.231,21.231
	s9.524,21.231,21.231,21.231s21.23-9.524,21.23-21.231S225.338,110.146,213.631,110.146z"/>
<path style="fill:#EAEAEA;" d="M151.741,321.988H115.8c-5.378,0-9.739-4.36-9.739-9.739v-8.827c0-5.378,4.36-9.738,9.739-9.738
	h35.941c5.378,0,9.739,4.36,9.739,9.738v8.827C161.478,317.627,157.119,321.988,151.741,321.988z"/>
<path style="fill:#2F2F37;" d="M235.812,353.597h-44.362c-12.374,0-22.404,10.031-22.404,22.404v15.908h89.171v-15.908
	C258.217,363.628,248.186,353.597,235.812,353.597z"/>
<path style="fill:#EAEAEA;" d="M321.209,302.483v10.71c0,4.86-3.945,8.795-8.795,8.795h-37.831c-4.86,0-8.795-3.935-8.795-8.795
	v-10.71c0-4.86,3.935-8.795,8.795-8.795h37.831C317.264,293.688,321.209,297.623,321.209,302.483z"/>
<g>
	<path style="fill:#FFFFFF;" d="M321.209,302.483v10.71c0,4.86-3.945,8.795-8.795,8.795h-21.355c-4.86,0-8.795-3.935-8.795-8.795
		v-10.71c0-4.86,3.935-8.795,8.795-8.795h21.355C317.264,293.688,321.209,297.623,321.209,302.483z"/>
	<path style="fill:#FFFFFF;" d="M161.48,302.483v10.71c0,4.86-3.945,8.795-8.795,8.795H131.33c-4.86,0-8.795-3.935-8.795-8.795
		v-10.71c0-4.86,3.935-8.795,8.795-8.795h21.355C157.535,293.688,161.48,297.623,161.48,302.483z"/>
</g>
<g>
</g>
<g>
</g>
<g>
</g>
<g>
</g>
<g>
</g>
<g>
</g>
<g>
</g>
<g>
</g>
<g>
</g>
<g>
</g>
<g>
</g>
<g>
</g>
<g>
</g>
<g>
</g>
<g>
</g>
</svg>
