<svg id="Capa_1" enable-background="new 0 0 512 512" height="512" viewBox="0 0 512 512" width="512" xmlns="http://www.w3.org/2000/svg"><g><path clip-rule="evenodd" d="m105.818 355.369c31.664 0 57.488-25.824 57.488-57.487s-25.824-57.486-57.488-57.486c-31.663 0-57.487 25.823-57.487 57.486s25.825 57.487 57.487 57.487z" fill="#d6f6b2" fill-rule="evenodd"/><path clip-rule="evenodd" d="m138.304 297.882c0 27.439-19.248 50.4-44.986 56.126 4.025.879 8.192 1.361 12.5 1.361 31.748 0 57.488-25.739 57.488-57.487s-25.739-57.486-57.488-57.486c-4.309 0-8.476.482-12.5 1.36 25.739 5.726 44.986 28.686 44.986 56.126z" fill="#ccf49f" fill-rule="evenodd"/><path d="m78.322 314.266c-2.948-2.948-2.948-7.682 0-10.63 2.92-2.92 7.654-2.92 10.602 0l4.082 4.11c4.025 4.025 5.301 3.203 5.301-2.211v-7.654c0-4.139 3.374-7.512 7.512-7.512 4.139 0 7.484 3.373 7.484 7.512v112.11c0 4.139-3.345 7.512-7.484 7.512-4.138 0-7.512-3.373-7.512-7.512v-68.23c0-5.273-1.757-9.269-5.301-12.812z" fill="#917d52"/><path clip-rule="evenodd" d="m418.909 355.369c26.504 0 48.133-21.629 48.133-48.132s-21.629-48.104-48.133-48.104-48.104 21.6-48.104 48.104 21.6 48.132 48.104 48.132z" fill="#78c2a4" fill-rule="evenodd"/><path clip-rule="evenodd" d="m418.909 259.132c26.589 0 48.133 21.544 48.133 48.104 0 26.589-21.544 48.132-48.133 48.132-4.309 0-8.504-.595-12.501-1.644 20.523-5.528 35.632-24.236 35.632-46.488s-15.109-40.96-35.632-46.488c3.997-1.049 8.193-1.616 12.501-1.616z" fill="#66b394" fill-rule="evenodd"/><path d="m397.706 323.451c-2.92-2.92-2.92-7.682 0-10.602 2.948-2.92 8.022-3.232 10.63 0 2.976 3.685 3.09 2.778 3.09-4.394v-1.219c0-4.139 3.345-7.512 7.483-7.512 4.167 0 7.512 3.373 7.512 7.512v102.756c0 4.139-3.345 7.512-7.512 7.512-4.139 0-7.483-3.373-7.483-7.512v-65.338c0-5.301-1.701-9.213-5.301-12.813z" fill="#917d52"/><path clip-rule="evenodd" d="m266.006 355.369c31.607 0 57.374-38.75 57.374-86.23s-25.767-86.202-57.374-86.202-57.374 38.721-57.374 86.202c.001 47.48 25.767 86.23 57.374 86.23z" fill="#95d6a4" fill-rule="evenodd"/><path clip-rule="evenodd" d="m266.006 182.937c31.692 0 57.374 38.608 57.374 86.202 0 47.622-25.682 86.23-57.374 86.23-4.28 0-8.475-.737-12.501-2.069 25.682-8.56 44.873-43.001 44.873-84.161s-19.191-75.572-44.873-84.132c4.026-1.361 8.221-2.07 12.501-2.07z" fill="#78c2a4" fill-rule="evenodd"/><path d="m258.495 269.139c0-4.139 3.373-7.483 7.512-7.483s7.512 3.345 7.512 7.483v23.613c0 5.811 1.077 6.406 5.301 2.183l9.893-9.893c2.919-2.919 7.682-2.919 10.602 0 2.919 2.948 2.919 7.682 0 10.602l-20.495 20.523c-3.458 3.458-5.301 7.427-5.301 12.784v81.042c0 4.139-3.373 7.512-7.512 7.512s-7.512-3.373-7.512-7.512z" fill="#917d52"/><g clip-rule="evenodd" fill-rule="evenodd"><path d="m37.843 485.706h436.313c20.807 0 37.843-17.036 37.843-37.871 0-20.806-17.037-37.842-37.843-37.842h-436.313c-20.806-.001-37.843 17.035-37.843 37.842 0 20.834 17.037 37.871 37.843 37.871z" fill="#b3e59f"/><path d="m353.541 158.304c36.341 0 65.992-29.65 65.992-66.019 0-36.34-29.651-65.991-65.992-65.991-36.34 0-65.991 29.65-65.991 65.991 0 36.369 29.651 66.019 65.991 66.019z" fill="#fcbf66"/><path d="m353.541 26.294c36.454 0 65.992 29.566 65.992 65.991 0 36.454-29.538 66.019-65.992 66.019-4.28 0-8.447-.425-12.501-1.191 30.473-5.839 53.49-32.626 53.49-64.828 0-32.173-23.018-58.961-53.49-64.8 4.054-.765 8.221-1.191 12.501-1.191z" fill="#f7b551"/></g><path d="m74.07 56.994c-4.138 0-7.483-3.373-7.483-7.512s3.345-7.483 7.483-7.483c13.096 0 25.229 4.252 35.094 11.424 5.726 4.195 10.687 9.354 14.626 15.25 3.912-5.896 8.873-11.055 14.599-15.25 9.893-7.172 21.997-11.424 35.093-11.424 4.139 0 7.512 3.345 7.512 7.483 0 4.139-3.373 7.512-7.512 7.512-9.864 0-18.964 3.146-26.306 8.504-7.54 5.5-13.323 13.323-16.271 22.451-.681 2.211-2.438 4.11-4.847 4.876-3.912 1.247-8.136-.907-9.383-4.847-2.948-9.128-8.731-16.951-16.3-22.479-7.341-5.359-16.44-8.505-26.305-8.505z" fill="#27a9cc"/><path d="m178.5 126.811c-4.139 0-7.512-3.373-7.512-7.512s3.373-7.483 7.512-7.483c8.957 0 17.291 2.891 24.066 7.852 2.892 2.097 5.528 4.592 7.767 7.398 2.268-2.806 4.876-5.301 7.795-7.398 6.775-4.961 15.109-7.852 24.067-7.852 4.139 0 7.483 3.345 7.483 7.483s-3.345 7.512-7.483 7.512c-5.754 0-11.027 1.815-15.279 4.932-4.394 3.175-7.739 7.71-9.439 12.983-.708 2.239-2.438 4.11-4.847 4.904-3.94 1.247-8.135-.907-9.411-4.847-1.701-5.301-5.045-9.865-9.439-13.04-4.254-3.117-9.526-4.932-15.28-4.932z" fill="#27a9cc"/><path d="m34.555 161.195c-4.167 0-7.512-3.345-7.512-7.483s3.345-7.512 7.512-7.512c11.027 0 21.26 3.6 29.594 9.666 4.309 3.146 8.079 6.945 11.226 11.253 3.118-4.309 6.888-8.107 11.197-11.253 8.334-6.066 18.567-9.666 29.623-9.666 4.139 0 7.483 3.373 7.483 7.512s-3.345 7.483-7.483 7.483c-7.824 0-15.024 2.495-20.835 6.747-5.981 4.337-10.545 10.545-12.87 17.745-.708 2.24-2.437 4.11-4.847 4.876-3.94 1.248-8.135-.907-9.411-4.847-2.296-7.2-6.889-13.408-12.87-17.773-5.812-4.253-13.012-6.748-20.807-6.748z" fill="#27a9cc"/><path clip-rule="evenodd" d="m487.366 126.641c13.749 1.474 24.634 13.067 24.634 27.184 0 14.996-12.274 27.27-27.27 27.27h-114.549c-14.996 0-27.298-12.274-27.298-27.27 0-12.076 7.994-22.677 19.531-26.164 5.386-1.644 5.5-1.077 4.762-7.087-.227-1.786-.369-3.571-.369-5.414 0-22.025 17.858-39.912 39.912-39.912 15.817 0 29.424 9.099 35.887 22.422 2.126 4.365 3.118 3.997 6.662 1.418 3.628-2.608 7.994-4.167 12.784-4.167 11.934 0 21.629 9.666 21.629 21.6 0 1.445-.113 2.835-.425 4.195-.85 4.054.34 5.528 4.11 5.925z" fill="#d2f6ff" fill-rule="evenodd"/><path clip-rule="evenodd" d="m0 447.835c0 20.835 17.037 37.871 37.843 37.871h436.313c20.807 0 37.843-17.036 37.843-37.871 0-4.365-.737-8.561-2.126-12.472-5.188 14.712-19.276 25.342-35.717 25.342h-436.313c-16.441 0-30.501-10.63-35.717-25.342-1.36 3.911-2.126 8.106-2.126 12.472z" fill="#95d6a4" fill-rule="evenodd"/><path clip-rule="evenodd" d="m342.883 153.825c0 14.996 12.302 27.27 27.298 27.27h114.549c14.996 0 27.27-12.274 27.27-27.27 0-4.507-1.105-8.759-3.061-12.5-4.564 8.759-13.72 14.768-24.208 14.768h-114.55c-10.517 0-19.673-6.009-24.237-14.768-1.956 3.77-3.061 8.022-3.061 12.5z" fill="#b8f0ff" fill-rule="evenodd"/></g></svg>