<?xml version="1.0" encoding="iso-8859-1"?>
<!-- Generator: Adobe Illustrator 19.0.0, SVG Export Plug-In . SVG Version: 6.00 Build 0)  -->
<svg version="1.1" id="Capa_1" xmlns="http://www.w3.org/2000/svg" xmlns:xlink="http://www.w3.org/1999/xlink" x="0px" y="0px"
	 viewBox="0 0 477.664 477.664" style="enable-background:new 0 0 477.664 477.664;" xml:space="preserve">
<path style="fill:#06AAE9;" d="M230.832,132.595c0,70.104-52.208,141.864-112,141.864s-112-71.76-112-141.864
	S44.168,5.659,115.096,5.659S230.832,62.459,230.832,132.595L230.832,132.595z"/>
<path style="fill:#FF7BAC;" d="M470.832,216.811c0,68.048-48.48,137.648-104,137.648s-104-69.6-104-137.648
	S297.496,93.659,363.368,93.659S470.832,148.795,470.832,216.811z"/>
<g>
	<path style="fill:#F2F2F2;" d="M110.832,477.659c-0.619-0.003-1.236-0.073-1.84-0.208c-4.293-1.01-6.959-5.304-5.96-9.6l8.6-36.72
		c4.189-17.879,3.732-36.532-1.328-54.184c-5.034-17.661-6.094-36.217-3.104-54.336l3.856-14.968
		c1.198-4.253,5.616-6.729,9.869-5.532c4.122,1.161,6.599,5.363,5.619,9.532l-3.712,14.296c-2.461,15.552-1.489,31.455,2.848,46.592
		c5.813,20.282,6.339,41.714,1.528,62.256l-8.616,36.704C117.744,475.095,114.535,477.646,110.832,477.659L110.832,477.659z"/>
	<path style="fill:#F2F2F2;" d="M369.232,477.659c-3.969-0.002-7.336-2.913-7.912-6.84c-0.687-4.689-1.692-9.327-3.008-13.88
		c-5.034-17.661-6.094-36.217-3.104-54.336l3.856-14.968c1.011-4.301,5.318-6.968,9.619-5.956c4.301,1.011,6.968,5.318,5.956,9.619
		c-0.027,0.113-0.056,0.226-0.087,0.338l-3.72,14.304c-2.461,15.552-1.489,31.455,2.848,46.592c1.513,5.249,2.671,10.595,3.464,16
		c0.643,4.371-2.379,8.436-6.75,9.08c-0.001,0-0.001,0-0.002,0C370.007,477.658,369.62,477.674,369.232,477.659L369.232,477.659z"/>
</g>
<g>
	<path style="fill:#F8CF26;" d="M6.832,277.659h16v24h-16V277.659z"/>
	<path style="fill:#F8CF26;" d="M278.832,381.659h16v24h-16V381.659z"/>
</g>
<path style="fill:#93CAE2;" d="M446.832,21.659h16v24h-16V21.659z"/>
<path style="fill:#ED1C24;" d="M249.179,15.998L265.176,0l11.314,11.314l-15.998,15.998L249.179,15.998z"/>
<path style="fill:#93CAE2;" d="M193.182,315.313L204.496,304l15.998,15.998l-11.314,11.314L193.182,315.313z"/>
<path style="fill:#ED1C24;" d="M441.177,392.002l15.998-15.998l11.314,11.314l-15.998,15.998L441.177,392.002z"/>
<g>
	<path style="fill:#7AC943;" d="M329.176,51.317l11.314-11.314l15.998,15.998l-11.314,11.314L329.176,51.317z"/>
	<path style="fill:#7AC943;" d="M25.206,411.318l11.314-11.314l15.998,15.998l-11.314,11.314L25.206,411.318z"/>
</g>
<g>
	<path style="fill:#F2F2F2;" d="M118.832,77.707l15.112,47.952h48.888l-39.552,29.64l15.104,47.952l-39.552-29.64l-39.552,29.64
		l15.104-47.952l-39.552-29.64h48.888L118.832,77.707z"/>
	<path style="fill:#F2F2F2;" d="M366.832,285.659l51.656-46.216c13.379-12.922,16.255-33.287,6.976-49.408
		c-7.326-14.575-25.08-20.451-39.655-13.125c-1.169,0.587-2.297,1.252-3.377,1.989l-15.6,10.76l-15.6-10.768
		c-13.476-9.191-31.852-5.718-41.043,7.759c-0.737,1.081-1.401,2.209-1.989,3.377c-9.278,16.119-6.406,36.483,6.968,49.408
		L366.832,285.659z"/>
</g>
<path style="fill:#FF7BAC;" d="M366.832,357.659l-17.504,8.752c-7.068,3.538-9.931,12.135-6.393,19.204
	c0.264,0.529,0.562,1.04,0.889,1.532c4.003,6.004,11.849,8.089,18.304,4.864l4.704-2.352l4.704,2.352
	c6.455,3.225,14.301,1.14,18.304-4.864c4.384-6.577,2.605-15.463-3.972-19.847c-0.492-0.328-1.003-0.625-1.532-0.889
	L366.832,357.659z"/>
<path style="fill:#06AAE9;" d="M117.416,277.659l-17.496,8.752c-7.068,3.528-9.939,12.118-6.411,19.186
	c0.267,0.535,0.567,1.053,0.899,1.55c4.006,6.005,11.855,8.09,18.312,4.864l4.696-2.352l4.704,2.352
	c6.455,3.228,14.303,1.143,18.304-4.864c4.384-6.577,2.605-15.463-3.972-19.847c-0.492-0.328-1.003-0.625-1.532-0.889
	L117.416,277.659z"/>
<g>
</g>
<g>
</g>
<g>
</g>
<g>
</g>
<g>
</g>
<g>
</g>
<g>
</g>
<g>
</g>
<g>
</g>
<g>
</g>
<g>
</g>
<g>
</g>
<g>
</g>
<g>
</g>
<g>
</g>
</svg>
