<svg id="Layer_1" enable-background="new 0 0 510 510" height="512" viewBox="0 0 510 510" width="512" xmlns="http://www.w3.org/2000/svg"><g><g><path d="m374 321.143s-221.814 13.346-224 12.198l-19.994-12.905-70.006 29.564v55l43.667 10 46.333-10 165 10 135-10v-55z" fill="#ffe7dd"/><path d="m205.729 127.19-25.728 19.751-30.001 18.059-25-17.167-25.053-9.799c-25.013 24.648-37.81 54.38-39.693 92.006l44.746 10 45-10 121 10 179-10z" fill="#ffe278"/><path d="m150 20.382v.017c-6.473 7.349-11.189 16.28-13.459 26.142l6.953 8.818 6.506-10.359c6.146 0 12.079.933 17.667 2.658 4.716-10.401 15.189-17.658 27.333-17.658v-30c-17.91 0-34.002 7.895-45 20.382z" fill="#c6ea4b"/><path d="m0 405v15c0 49.626 40.374 90 90 90h330c49.626 0 90-40.374 90-90v-15z" fill="#f4f1f1"/><path d="m60.254 230.04c-.362 6.152-.254-2.31-.254 119.96h15c19.542 0 29.955-6.941 38.322-12.519 6.757-4.505 11.222-7.481 21.682-7.481 6.756 0 11.009 1.247 14.996 3.341 9.854 5.174 19.877 16.659 45.007 16.659 19.542 0 29.954-6.941 38.32-12.52 6.757-4.505 11.222-7.48 21.68-7.48 10.459 0 14.923 2.976 21.68 7.48 8.366 5.578 18.778 12.52 38.319 12.52s29.953-6.941 38.319-12.52c6.756-4.505 11.22-7.48 21.677-7.48 10.458 0 14.922 2.976 21.679 7.48 8.366 5.579 18.778 12.52 38.319 12.52h15v-119.96z" fill="#ff8b8b"/><circle cx="150" cy="105" fill="#be4dd8" r="60"/><path d="m255 238.718 16 1.322 179-10-195-82.105z" fill="#ffc178"/><path d="m255 328.119v83.245l60 3.636 135-10v-55l-76-28.857s-60.765 3.656-119 6.976z" fill="#ffdfb9"/><path d="m255 330h.007c10.459 0 14.923 2.976 21.68 7.48 8.366 5.578 18.778 12.52 38.319 12.52s29.953-6.941 38.319-12.52c6.756-4.505 11.22-7.48 21.677-7.48 10.458 0 14.922 2.976 21.679 7.48 8.366 5.579 18.778 12.52 38.319 12.52h15v-119.96h-195z" fill="#ff6378"/><path d="m255 405v105h165c49.626 0 90-40.374 90-90v-15z" fill="#e7dfdd"/></g></g></svg>