<?xml version="1.0" encoding="iso-8859-1"?>
<!-- Generator: Adobe Illustrator 19.0.0, SVG Export Plug-In . SVG Version: 6.00 Build 0)  -->
<svg version="1.1" id="Capa_1" xmlns="http://www.w3.org/2000/svg" xmlns:xlink="http://www.w3.org/1999/xlink" x="0px" y="0px"
	 viewBox="0 0 480 480" style="enable-background:new 0 0 480 480;" xml:space="preserve">
<path style="fill:#FF7BAC;" d="M48,356.664h384V468H48V356.664z"/>
<path style="fill:#E6E6E6;" d="M240,84c-4.418,0-8-3.582-8-8V47c0-4.418,3.582-8,8-8s8,3.582,8,8v29C248,80.418,244.418,84,240,84z"
	/>
<path style="fill:#FF7BAC;" d="M400,204v96H80v-96H400z"/>
<path style="fill:#06AAE9;" d="M224,76h32v80h-32V76z"/>
<path style="fill:#ED1C24;" d="M240,4l-15.264,25.44c-4.909,8.155-2.533,18.728,5.392,24c5.978,3.985,13.766,3.985,19.744,0
	c7.925-5.272,10.301-15.845,5.392-24L240,4z"/>
<g>
	<path style="fill:#F2F2F2;" d="M64,188v56c0,8.837,7.163,16,16,16s16-7.163,16-16v-32c0,8.837,7.163,16,16,16s16-7.163,16-16v32
		c0,8.837,7.163,16,16,16s16-7.163,16-16v-40c0,8.837,7.163,16,16,16s16-7.163,16-16v40c0,8.837,7.163,16,16,16s16-7.163,16-16v-32
		c0,8.837,7.163,16,16,16c8.837,0,16-7.163,16-16v32c0,8.837,7.163,16,16,16s16-7.163,16-16v-40c0,8.837,7.163,16,16,16
		s16-7.163,16-16v40c0,8.837,7.163,16,16,16s16-7.163,16-16v-32c0,8.837,7.163,16,16,16s16-7.163,16-16v32c0,8.837,7.163,16,16,16
		s16-7.163,16-16v-56c0-17.673-14.327-32-32-32H96C78.327,156,64,170.327,64,188z"/>
	<path style="fill:#F2F2F2;" d="M416,300H64c-17.673,0-32,14.327-32,32v56c0,8.837,7.163,16,16,16s16-7.163,16-16v-32
		c0,8.837,7.163,16,16,16s16-7.163,16-16v32c0,8.837,7.163,16,16,16s16-7.163,16-16v-32c0,8.837,7.163,16,16,16s16-7.163,16-16v32
		c0,8.837,7.163,16,16,16s16-7.163,16-16v-32c0,8.837,7.163,16,16,16s16-7.163,16-16v32c0,8.837,7.163,16,16,16
		c8.837,0,16-7.163,16-16v-32c0,8.837,7.163,16,16,16s16-7.163,16-16v32c0,8.837,7.163,16,16,16s16-7.163,16-16v-32
		c0,8.837,7.163,16,16,16s16-7.163,16-16v32c0,8.837,7.163,16,16,16s16-7.163,16-16v-32c0,8.837,7.163,16,16,16s16-7.163,16-16v32
		c0,8.837,7.163,16,16,16s16-7.163,16-16v-56C448,314.327,433.673,300,416,300z"/>
</g>
<path style="fill:#29485A;" d="M472,476H8c-4.418,0-8-3.582-8-8s3.582-8,8-8h464c4.418,0,8,3.582,8,8S476.418,476,472,476z"/>
<g>
</g>
<g>
</g>
<g>
</g>
<g>
</g>
<g>
</g>
<g>
</g>
<g>
</g>
<g>
</g>
<g>
</g>
<g>
</g>
<g>
</g>
<g>
</g>
<g>
</g>
<g>
</g>
<g>
</g>
</svg>
