<?xml version="1.0" encoding="iso-8859-1"?>
<!-- Generator: Adobe Illustrator 19.0.0, SVG Export Plug-In . SVG Version: 6.00 Build 0)  -->
<svg version="1.1" id="Capa_1" xmlns="http://www.w3.org/2000/svg" xmlns:xlink="http://www.w3.org/1999/xlink" x="0px" y="0px"
	 viewBox="0 0 472.608 472.608" style="enable-background:new 0 0 472.608 472.608;" xml:space="preserve">
<g>
	<path style="fill:#A2DAE7;" d="M114.952,255.808c-46.35-12.815-73.535-60.778-60.719-107.127c1.364-4.933,3.16-9.736,5.367-14.353
		L116.304,24l120,32l-11.456,124c-4.488,47.883-46.943,83.062-94.826,78.574C124.927,258.097,119.884,257.171,114.952,255.808
		L114.952,255.808z"/>
	<path style="fill:#A2DAE7;" d="M132.304,416.608l-120-32c4.353-17.402,21.988-27.981,39.39-23.628
		c0.161,0.04,0.321,0.082,0.482,0.124l57.24,15.264c17.134,4.577,27.431,22.049,23.136,39.256L132.304,416.608z"/>
	<path style="fill:#A2DAE7;" d="M97.896,375.216l-30.848-8.52l41.008-145.96l30.84,8.52L97.896,375.216z"/>
	<path style="fill:#A2DAE7;" d="M357.656,319.808C404.008,307,431.2,259.042,418.393,212.691c-1.367-4.948-3.169-9.765-5.385-14.395
		L356.304,88l-120,32l11.456,124c4.488,47.883,46.943,83.062,94.826,78.574C347.681,322.097,352.724,321.171,357.656,319.808
		L357.656,319.808z"/>
	<path style="fill:#A2DAE7;" d="M340.304,472.608l120-31.392c-4.353-17.402-21.988-27.981-39.39-23.628
		c-0.161,0.04-0.321,0.082-0.482,0.124l-57.24,15.264c-17.137,4.573-27.436,22.049-23.136,39.256L340.304,472.608z"/>
	<path style="fill:#A2DAE7;" d="M374.712,431.824l30.848-8.52l-41.008-138.568l-30.84,8.52L374.712,431.824z"/>
</g>
<g>
	<path style="fill:#FFDDA6;" d="M254.648,34.34l24.002-24.002l11.314,11.314l-24.002,24.002L254.648,34.34z"/>
	<path style="fill:#FFDDA6;" d="M276.304,56h32v16h-32V56z"/>
	<path style="fill:#FFDDA6;" d="M220.304,0h16v32h-16V0z"/>
	<path style="fill:#FFDDA6;" d="M404.304,32.608h16v24h-16V32.608z"/>
	<path style="fill:#FFDDA6;" d="M380.304,56.608h24v16h-24V56.608z"/>
	<path style="fill:#FFDDA6;" d="M404.304,72.608h16v24h-16V72.608z"/>
	<path style="fill:#FFDDA6;" d="M420.304,56.608h24v16h-24V56.608z"/>
	<path style="fill:#FFDDA6;" d="M36.304,0.608h16v24h-16V0.608z"/>
	<path style="fill:#FFDDA6;" d="M12.304,24.608h24v16h-24V24.608z"/>
	<path style="fill:#FFDDA6;" d="M36.304,40.608h16v24h-16V40.608z"/>
	<path style="fill:#FFDDA6;" d="M52.304,24.608h24v16h-24V24.608z"/>
</g>
<g>
	<path style="fill:#FC5B68;" d="M222.08,172.872c-21.733-13.041-47.548-17.511-72.4-12.536
		c-26.494,5.297-54.008-0.147-76.488-15.136l-14.176-9.448c-19.984,43.71-0.75,95.345,42.961,115.329
		c4.193,1.917,8.532,3.498,12.975,4.727c46.356,12.809,94.318-14.387,107.127-60.742c1.366-4.944,2.293-9.999,2.769-15.106
		l0.472-5.176L222.08,172.872z"/>
	<path style="fill:#FC5B68;" d="M338.928,216.336c-24.852-4.975-50.667-0.505-72.4,12.536l-19.104,11.464l0.336,3.656
		c4.483,47.884,46.935,83.066,94.819,78.583c5.097-0.477,10.143-1.403,15.077-2.767c46.306-12.805,73.464-60.725,60.659-107.031
		c-1.038-3.755-2.328-7.435-3.859-11.017C392.152,216.301,365.041,221.533,338.928,216.336L338.928,216.336z"/>
</g>
<g>
	<path style="fill:#F04855;" d="M203.92,164.336c-33.034,36.223-76.455,61.35-124.32,71.944
		c10.073,9.214,22.189,15.907,35.352,19.528c46.356,12.809,94.318-14.387,107.127-60.742c1.366-4.944,2.293-9.999,2.769-15.106
		l0.472-5.176l-3.2-1.944C216.348,169.413,210.252,166.565,203.92,164.336L203.92,164.336z"/>
	<path style="fill:#F04855;" d="M414.432,201.792c-8.076,5.238-16.85,9.31-26.064,12.096c-21.984,58.936-59.824,86.4-94.848,98.84
		c19.661,10.556,42.64,13.104,64.136,7.112c46.303-12.817,73.449-60.744,60.632-107.047
		C417.25,209.044,415.962,205.369,414.432,201.792L414.432,201.792z"/>
</g>
<g>
</g>
<g>
</g>
<g>
</g>
<g>
</g>
<g>
</g>
<g>
</g>
<g>
</g>
<g>
</g>
<g>
</g>
<g>
</g>
<g>
</g>
<g>
</g>
<g>
</g>
<g>
</g>
<g>
</g>
</svg>
