<svg height="492pt" viewBox="-1 0 491 492" width="492pt" xmlns="http://www.w3.org/2000/svg"><path d="m272.605469 149.425781h-56.210938l-51.894531 240.574219h160zm0 0" fill="#f9cfcf"/><path d="m278.59375 177.179688-34.292969 45.21875-33.894531-45.21875-39.195312 181.710937 8.800781 31.109375h130.695312l7.082031-31.109375zm0 0" fill="#f9a7a7"/><path d="m83.921875 72.515625-57.746094-57.179687h-8.191406v8.148437l57.742187 57.179687h8.195313zm0 0" fill="#b9befc"/><path d="m103.59375 80.664062 57.746094-57.179687v-8.148437h-8.195313l-57.742187 57.179687v8.148437zm0 0" fill="#b9befc"/><path d="m172.820312 15.335938v8.148437l57.746094 57.179687h8.191406v-8.148437l-57.742187-57.179687zm0 0" fill="#b9befc"/><path d="m258.433594 80.664062 57.746094-57.179687v-8.148437h-8.195313l-57.742187 57.179687v8.148437zm0 0" fill="#b9befc"/><path d="m327.660156 15.335938v8.148437l57.746094 57.179687h8.191406v-8.148437l-57.742187-57.179687zm0 0" fill="#b9befc"/><path d="m471.015625 15.335938h-8.191406l-57.742188 57.179687v8.148437h8.191407l57.742187-57.179687zm0 0" fill="#b9befc"/><path d="m19.984375 92c-7.4375 0-13.484375-5.980469-13.484375-13.335938v-61.328124c0-7.355469 6.046875-13.335938 13.484375-13.335938h449.03125c7.4375 0 13.484375 5.980469 13.484375 13.335938v61.332031c0 7.351562-6.046875 13.335937-13.484375 13.335937h-449.03125zm385.097656-11.335938h65.933594v-65.328124h-65.933594zm-77.421875 0h65.9375v-65.328124h-65.9375zm-77.417968 0h65.9375v-65.328124h-65.9375zm-77.421876 0h65.9375v-65.328124h-65.9375zm-77.417968 0h65.9375v-65.328124h-65.9375zm-77.417969 0h65.9375v-65.328124h-65.9375zm0 0" fill="#b9befc"/><path d="m469.015625 96h-449.03125c-9.640625 0-17.484375-7.777344-17.484375-17.335938v-61.328124c0-9.558594 7.84375-17.335938 17.484375-17.335938h449.03125c9.640625 0 17.484375 7.777344 17.484375 17.335938v61.328124c0 9.558594-7.84375 17.335938-17.484375 17.335938zm-449.03125-88c-5.230469 0-9.484375 4.1875-9.484375 9.335938v61.328124c0 5.148438 4.253906 9.335938 9.484375 9.335938h449.03125c5.230469 0 9.484375-4.1875 9.484375-9.335938v-61.328124c0-5.148438-4.253906-9.335938-9.484375-9.335938zm0 0" fill="#3762cc"/><path d="m175.492188 131.132812-50.753907 23.667969 46.472657 204.089844 39.195312-181.710937zm0 0" fill="#f9cfcf"/><path d="m313.507812 131.132812-34.914062 46.046876 39.195312 181.710937 46.472657-204.089844zm0 0" fill="#f9cfcf"/><path d="m257.023438 108.230469h-25.289063v-11.558594c0-4.789063 3.882813-8.671875 8.671875-8.671875h7.949219c4.785156 0 8.667969 3.882812 8.667969 8.671875zm0 0" fill="#a4c9ff"/><path d="m348.058594 132.957031-7.457032-3.539062-23.679687-11.234375c-1.457031-.691406-3.316406.246094-4.160156 2.085937l-2.402344 5.234375c-.84375 1.84375-.351563 3.894532 1.101563 4.585938l23.683593 11.234375 7.457031 3.539062 23.679688 11.234375c1.453125.691406 3.316406-.246094 4.160156-2.085937l2.402344-5.234375c.84375-1.84375.351562-3.898438-1.105469-4.585938zm0 0" fill="#ffea92"/><path d="m367.4375 111.371094-22.917969-10.683594 4.882813-10.480469c2.027344-4.339843 7.183594-6.21875 11.523437-4.191406l7.203125 3.355469c4.339844 2.023437 6.21875 7.183594 4.191406 11.523437zm0 0" fill="#a4c9ff"/><path d="m140.570312 132.1875 7.421876-3.460938 23.574218-10.992187c1.449219-.671875 3.351563.351563 4.253906 2.285156l2.566407 5.5c.902343 1.933594.460937 4.050781-.984375 4.722657l-23.574219 10.992187-7.421875 3.460937-23.574219 10.992188c-1.445312.675781-3.351562-.347656-4.253906-2.285156l-2.5625-5.496094c-.902344-1.9375-.464844-4.050781.980469-4.726562zm0 0" fill="#ffea92"/><path d="m121.5625 111.371094 22.917969-10.683594-4.882813-10.480469c-2.027344-4.339843-7.183594-6.21875-11.523437-4.191406l-7.203125 3.355469c-4.339844 2.023437-6.21875 7.183594-4.191406 11.523437zm0 0" fill="#a4c9ff"/><path d="m340.605469 129.585938 7.421875 3.460937 22.738281 10.601563c1.871094-10.855469.746094-22.023438-3.328125-32.277344l-7.640625-3.5625-7.421875-3.457032-7.640625-3.5625c-10.472656 3.46875-19.753906 9.785157-26.867187 18.195313zm0 0" fill="#a4c9ff"/><path d="m140.570312 132.1875 7.421876-3.460938 22.492187-10.488281c-7.027344-8.035156-16.058594-14.085937-26.21875-17.453125l-7.640625 3.5625-7.421875 3.460938-7.640625 3.5625c-3.953125 9.945312-5.125 20.753906-3.484375 31.304687zm0 0" fill="#a4c9ff"/><path d="m273.492188 149.425781h-58.382813c-2.210937 0-4-1.789062-4-4v-5.5c0-2.210937 1.789063-4 4-4h58.382813c2.210937 0 4 1.789063 4 4v5.5c0 2.210938-1.789063 4-4 4zm0 0" fill="#ffea92"/><path d="m273.492188 135.925781c.050781 0 .097656.011719.148437.011719-2.90625-10.574219-8.625-20.167969-16.617187-27.707031h-25.046876c-7.988281 7.535156-13.707031 17.125-16.613281 27.695312zm0 0" fill="#a4c9ff"/><g fill="#3762cc"><path d="m257.023438 112.230469h-25.289063c-2.207031 0-4-1.792969-4-4v-11.558594c0-6.988281 5.6875-12.671875 12.671875-12.671875h7.949219c6.984375 0 12.667969 5.683594 12.667969 12.671875v11.558594c0 2.210937-1.792969 4-4 4zm-21.289063-8h17.289063v-7.558594c0-2.578125-2.09375-4.671875-4.667969-4.671875h-7.949219c-2.578125 0-4.671875 2.09375-4.671875 4.671875zm0 0"/><path d="m367.300781 160.328125c-.941406 0-1.871093-.207031-2.734375-.613281l-54.820312-26.007813c-3.472656-1.652343-4.800782-5.984375-3.023438-9.867187l2.402344-5.234375c.910156-1.988281 2.535156-3.53125 4.460938-4.234375 1.6875-.613282 3.480468-.542969 5.046874.199218l31.140626 14.773438 23.679687 11.234375c3.476563 1.648437 4.804687 5.980469 3.023437 9.867187l-2.398437 5.234376c-.914063 1.992187-2.539063 3.53125-4.464844 4.230468-.757812.28125-1.542969.417969-2.3125.417969zm-53.1875-33.40625 52.835938 25.066406 2.140625-4.625-52.835938-25.070312zm0 0"/><path d="m367.433594 115.371094c-.566406 0-1.140625-.121094-1.691406-.375l-22.917969-10.6875c-2-.933594-2.867188-3.3125-1.933594-5.316406l4.886719-10.476563c2.949218-6.332031 10.503906-9.082031 16.835937-6.128906l7.203125 3.359375c6.332032 2.953125 9.082032 10.507812 6.128906 16.839844l-4.886718 10.472656c-.675782 1.457031-2.117188 2.3125-3.625 2.3125zm-17.597656-16.621094 15.667968 7.304688 3.195313-6.851563c1.085937-2.332031.074219-5.117187-2.257813-6.207031l-7.207031-3.359375c-2.335937-1.089844-5.117187-.074219-6.207031 2.261719zm0 0"/><path d="m121.878906 159.894531c-1.101562 0-2.222656-.28125-3.269531-.84375-1.558594-.835937-2.855469-2.242187-3.65625-3.953125l-2.5625-5.5c-1.863281-4-.582031-8.410156 2.917969-10.042968l54.566406-25.445313c1.84375-.863281 4-.761719 5.914062.261719 1.558594.835937 2.859376 2.242187 3.65625 3.957031l2.566407 5.496094c.796875 1.714843 1.039062 3.613281.679687 5.34375-.445312 2.125-1.757812 3.839843-3.601562 4.699219l-54.566406 25.445312c-.835938.390625-1.734376.582031-2.644532.582031zm-2.183594-13.558593 2.453126 5.257812 52.554687-24.507812-2.453125-5.257813zm0 0"/><path d="m121.566406 115.371094c-1.503906 0-2.949218-.855469-3.625-2.308594l-4.886718-10.476562c-2.953126-6.332032-.203126-13.882813 6.128906-16.835938l7.203125-3.359375c6.332031-2.953125 13.882812-.203125 16.835937 6.125l4.886719 10.476563c.933594 2.003906.066406 4.382812-1.933594 5.316406l-22.917969 10.6875c-.550781.253906-1.125.375-1.691406.375zm10.164063-26.167969c-.660157 0-1.328125.140625-1.964844.433594l-7.203125 3.359375c-2.335938 1.089844-3.347656 3.875-2.257812 6.207031l3.195312 6.851563 15.667969-7.304688-3.195313-6.851562c-.792968-1.695313-2.480468-2.695313-4.242187-2.695313zm0 0"/><path d="m370.765625 147.648438c-.578125 0-1.152344-.125-1.691406-.375l-52.894531-24.664063c-1.132813-.527344-1.953126-1.550781-2.21875-2.765625-.265626-1.21875.050781-2.492188.855468-3.445312 7.621094-9.011719 17.535156-15.722657 28.664063-19.410157.96875-.324219 2.023437-.257812 2.949219.171875l22.699218 10.582032c.921875.433593 1.648438 1.203124 2.027344 2.148437 4.328125 10.898437 5.558594 22.804687 3.554688 34.4375-.210938 1.226563-.984376 2.289063-2.089844 2.867187-.582032.300782-1.21875.453126-1.855469.453126zm-46.230469-29.96875 17.761719 8.28125 25.179687 11.746093c.613282-7.949219-.472656-15.921875-3.203124-23.394531l-19.757813-9.210938c-7.476563 2.707032-14.285156 7.003907-19.980469 12.578126zm0 0"/><path d="m118.082031 146.675781c-.648437 0-1.296875-.160156-1.882812-.472656-1.109375-.589844-1.875-1.671875-2.070313-2.914063-1.753906-11.304687-.472656-22.851562 3.71875-33.394531.375-.949219 1.101563-1.71875 2.027344-2.148437l22.699219-10.585938c.925781-.429687 1.980469-.492187 2.949219-.171875 10.769531 3.570313 20.441406 10.007813 27.972656 18.621094.828125.945313 1.164062 2.226563.902344 3.457031-.257813 1.230469-1.082032 2.269532-2.222657 2.796875l-29.910156 13.949219-22.492187 10.488281c-.539063.25-1.117188.375-1.691407.375zm6.640625-32.367187c-2.601562 7.140625-3.707031 14.757812-3.261718 22.378906l42.261718-19.710938c-5.546875-5.234374-12.097656-9.289062-19.238281-11.878906zm15.847656 17.878906h.023438zm0 0"/><path d="m273.492188 153.425781h-58.382813c-4.410156 0-8-3.585937-8-8v-5.5c0-4.414062 3.589844-8 8-8h58.382813c4.414062 0 8 3.585938 8 8v5.5c0 4.414063-3.585938 8-8 8zm-58.382813-13.5v5.5h58.390625l-.003906-5.5zm0 0"/><path d="m273.640625 139.9375c-.105469 0-.207031 0-.335937-.011719h-57.9375c-1.25 0-2.425782-.585937-3.183594-1.578125-.753906-.992187-1.003906-2.28125-.671875-3.484375 3.113281-11.328125 9.242187-21.542969 17.722656-29.542969.742187-.703124 1.722656-1.089843 2.746094-1.089843h25.046875c1.019531 0 2 .390625 2.746094 1.089843 8.484374 8.003907 14.613281 18.226563 17.726562 29.558594.339844 1.230469.066406 2.546875-.722656 3.546875-.765625.957031-1.917969 1.511719-3.136719 1.511719zm-52.765625-8.011719h47.253906c-2.808594-7.402343-7.140625-14.117187-12.726562-19.695312h-21.804688c-5.585937 5.574219-9.917968 12.292969-12.722656 19.695312zm0 0"/></g><path d="m474.039062 390h-84.167968c-5.777344 0-10.464844-4.683594-10.464844-10.460938v-189.078124c0-5.777344 4.6875-10.460938 10.464844-10.460938h84.167968c5.777344 0 10.460938 4.683594 10.460938 10.460938v189.074218c0 5.78125-4.683594 10.464844-10.460938 10.464844zm0 0" fill="#4671c6"/><path d="m466.4375 240.230469c0 19.042969-15.4375 34.484375-34.484375 34.484375-19.042969 0-34.484375-15.441406-34.484375-34.484375 0-19.046875 15.441406-34.484375 34.484375-34.484375 19.046875 0 34.484375 15.4375 34.484375 34.484375zm0 0" fill="#a4c9ff"/><path d="m471.363281 331.628906c0 21.765625-17.644531 39.410156-39.410156 39.410156s-39.410156-17.644531-39.410156-39.410156 17.644531-39.410156 39.410156-39.410156 39.410156 17.644531 39.410156 39.410156zm0 0" fill="#a4c9ff"/><path d="m461.90625 331.628906c0 16.542969-13.410156 29.953125-29.953125 29.953125s-29.949219-13.410156-29.949219-29.953125c0-16.539062 13.40625-29.949218 29.949219-29.949218s29.953125 13.410156 29.953125 29.949218zm0 0" fill="#f9a7a7"/><path d="m447.71875 331.628906c0 8.707032-7.058594 15.765625-15.765625 15.765625s-15.761719-7.058593-15.761719-15.765625c0-8.707031 7.054688-15.761718 15.761719-15.761718s15.765625 7.054687 15.765625 15.761718zm0 0" fill="#f9cfcf"/><path d="m99.128906 390h-84.167968c-5.777344 0-10.460938-4.683594-10.460938-10.460938v-189.078124c0-5.777344 4.683594-10.460938 10.460938-10.460938h84.167968c5.777344 0 10.464844 4.683594 10.464844 10.460938v189.074218c0 5.78125-4.6875 10.464844-10.464844 10.464844zm0 0" fill="#4671c6"/><path d="m91.53125 240.230469c0 19.042969-15.441406 34.484375-34.484375 34.484375-19.046875 0-34.484375-15.441406-34.484375-34.484375 0-19.046875 15.4375-34.484375 34.484375-34.484375 19.042969 0 34.484375 15.4375 34.484375 34.484375zm0 0" fill="#a4c9ff"/><path d="m82.316406 240.226562c0 13.957032-11.3125 25.273438-25.269531 25.273438s-25.273437-11.316406-25.273437-25.273438c0-13.957031 11.316406-25.269531 25.273437-25.269531s25.269531 11.3125 25.269531 25.269531zm0 0" fill="#f9a7a7"/><path d="m67.882812 240.226562c0 5.988282-4.851562 10.839844-10.835937 10.839844-5.988281 0-10.839844-4.851562-10.839844-10.839844 0-5.984374 4.851563-10.835937 10.839844-10.835937 5.984375 0 10.835937 4.851563 10.835937 10.835937zm0 0" fill="#f9cfcf"/><path d="m96.457031 331.628906c0 21.765625-17.644531 39.410156-39.410156 39.410156s-39.410156-17.644531-39.410156-39.410156 17.644531-39.410156 39.410156-39.410156 39.410156 17.644531 39.410156 39.410156zm0 0" fill="#a4c9ff"/><path d="m86.996094 331.628906c0 16.542969-13.40625 29.953125-29.949219 29.953125s-29.953125-13.410156-29.953125-29.953125c0-16.539062 13.410156-29.949218 29.953125-29.949218s29.949219 13.410156 29.949219 29.949218zm0 0" fill="#f9a7a7"/><path d="m72.808594 331.628906c0 8.707032-7.054688 15.765625-15.761719 15.765625s-15.765625-7.058593-15.765625-15.765625c0-8.707031 7.058594-15.761718 15.765625-15.761718s15.761719 7.054687 15.761719 15.761718zm0 0" fill="#f9cfcf"/><path d="m457.226562 240.226562c0 13.957032-11.316406 25.273438-25.273437 25.273438s-25.269531-11.316406-25.269531-25.273438c0-13.957031 11.3125-25.269531 25.269531-25.269531s25.273437 11.3125 25.273437 25.269531zm0 0" fill="#f9a7a7"/><path d="m442.792969 240.226562c0 5.988282-4.851563 10.839844-10.839844 10.839844-5.984375 0-10.835937-4.851562-10.835937-10.839844 0-5.984374 4.851562-10.835937 10.835937-10.835937 5.988281 0 10.839844 4.851563 10.839844 10.835937zm0 0" fill="#f9cfcf"/><path d="m246.835938 249.878906h-4.671876c-7.09375 0-12.839843-5.75-12.839843-12.839844v-21.011718c0-7.09375 5.75-12.839844 12.839843-12.839844h4.671876c7.089843 0 12.839843 5.75 12.839843 12.839844v21.011718c0 7.089844-5.75 12.839844-12.839843 12.839844zm0 0" fill="#e0ebfc"/><path d="m242.164062 228.863281c1.292969 0 2.335938-1.046875 2.335938-2.332031 0-1.289062-1.046875-2.335938-2.335938-2.335938h-12.839843v3.503907l1.167969 1.167969h11.671874zm0 0" fill="#a4c9ff"/><path d="m244.5 216.023438c0-1.289063-1.046875-2.332032-2.335938-2.332032h-12.617187c-.140625.757813-.222656 1.535156-.222656 2.332032v2.335937h12.839843c1.289063 0 2.335938-1.046875 2.335938-2.335937zm0 0" fill="#a4c9ff"/><path d="m240.796875 256.128906v129.390625c0 2.472657 2.007813 4.480469 4.480469 4.480469 2.476562 0 4.480468-2.007812 4.480468-4.480469v-129.390625zm0 0" fill="#e0ebfc"/><path d="m242.164062 239.371094c1.292969 0 2.335938-1.046875 2.335938-2.335938 0-1.289062-1.046875-2.332031-2.335938-2.332031h-12.839843v2.332031c0 .800782.082031 1.578125.222656 2.335938zm0 0" fill="#a4c9ff"/><path d="m246.835938 249.878906h-4.671876c-2.261718 0-4.382812-.589844-6.226562-1.613281v4.109375c0 2.074219 1.679688 3.753906 3.753906 3.753906h11.171875c2.074219 0 3.753907-1.679687 3.753907-3.75v-4.738281h-.542969c-2.058594 1.40625-4.550781 2.238281-7.238281 2.238281zm0 0" fill="#a4c9ff"/><path d="m431.953125 278.710938c-21.21875 0-38.484375-17.261719-38.484375-38.484376 0-21.21875 17.265625-38.484374 38.484375-38.484374 21.222656 0 38.484375 17.265624 38.484375 38.484374 0 21.222657-17.261719 38.484376-38.484375 38.484376zm0-68.964844c-16.808594 0-30.484375 13.675781-30.484375 30.484375 0 16.808593 13.675781 30.484375 30.484375 30.484375 16.8125 0 30.484375-13.675782 30.484375-30.484375 0-16.808594-13.675781-30.484375-30.484375-30.484375zm0 0" fill="#3762cc"/><path d="m431.953125 375.039062c-23.933594 0-43.410156-19.472656-43.410156-43.410156 0-23.933594 19.476562-43.410156 43.410156-43.410156 23.9375 0 43.410156 19.476562 43.410156 43.410156 0 23.9375-19.472656 43.410156-43.410156 43.410156zm0-78.820312c-19.523437 0-35.410156 15.886719-35.410156 35.410156 0 19.527344 15.886719 35.410156 35.410156 35.410156 19.527344 0 35.410156-15.882812 35.410156-35.410156 0-19.523437-15.886719-35.410156-35.410156-35.410156zm0 0" fill="#3762cc"/><path d="m57.046875 278.710938c-21.222656 0-38.484375-17.261719-38.484375-38.484376 0-21.21875 17.261719-38.484374 38.484375-38.484374 21.21875 0 38.484375 17.265624 38.484375 38.484374 0 21.222657-17.265625 38.484376-38.484375 38.484376zm0-68.964844c-16.8125 0-30.484375 13.675781-30.484375 30.484375 0 16.808593 13.671875 30.484375 30.484375 30.484375 16.808594 0 30.484375-13.675782 30.484375-30.484375 0-16.808594-13.675781-30.484375-30.484375-30.484375zm0 0" fill="#3762cc"/><path d="m57.046875 375.039062c-23.9375 0-43.410156-19.472656-43.410156-43.410156 0-23.933594 19.472656-43.410156 43.410156-43.410156 23.933594 0 43.410156 19.476562 43.410156 43.410156 0 23.9375-19.476562 43.410156-43.410156 43.410156zm0-78.820312c-19.527344 0-35.410156 15.886719-35.410156 35.410156 0 19.527344 15.882812 35.410156 35.410156 35.410156 19.523437 0 35.410156-15.882812 35.410156-35.410156 0-19.523437-15.886719-35.410156-35.410156-35.410156zm0 0" fill="#3762cc"/><path d="m474.039062 394h-84.167968c-7.972656 0-14.460938-6.488281-14.460938-14.460938v-189.078124c0-7.972657 6.488282-14.460938 14.460938-14.460938h84.167968c7.972657 0 14.460938 6.488281 14.460938 14.460938v189.074218c0 7.976563-6.488281 14.464844-14.460938 14.464844zm-84.167968-210c-3.566406 0-6.464844 2.898438-6.464844 6.460938v189.074218c0 3.566406 2.902344 6.460938 6.464844 6.460938h84.164062c3.566406 0 6.460938-2.898438 6.460938-6.460938v-189.074218c0-3.5625-2.898438-6.460938-6.460938-6.460938zm0 0" fill="#3762cc"/><path d="m99.128906 394h-84.167968c-7.972657 0-14.460938-6.488281-14.460938-14.460938v-189.078124c0-7.972657 6.488281-14.460938 14.460938-14.460938h84.167968c7.972656 0 14.460938 6.488281 14.460938 14.460938v189.074218c.003906 7.976563-6.484375 14.464844-14.460938 14.464844zm-84.167968-210c-3.5625 0-6.460938 2.898438-6.460938 6.460938v189.074218c0 3.566406 2.898438 6.460938 6.460938 6.460938h84.167968c3.5625 0 6.460938-2.898438 6.460938-6.460938v-189.074218c0-3.5625-2.898438-6.460938-6.460938-6.460938zm0 0" fill="#3762cc"/><path d="m240.796875 348.101562-21.613281 36.945313c-1.046875 1.789063-.074219 3.910156 2.167968 4.746094 2.242188.832031 4.90625.058593 5.953126-1.730469l13.492187-23.066406zm0 0" fill="#e0ebfc"/><path d="m271.371094 385.042969-21.613282-36.945313v16.898438l13.496094 23.066406c1.042969 1.789062 3.710938 2.558594 5.953125 1.726562 2.242188-.832031 3.210938-2.957031 2.164063-4.746093zm0 0" fill="#e0ebfc"/><path d="m476.5 488h-464c-4.417969 0-8-3.582031-8-8v-82c0-4.417969 3.582031-8 8-8h464c4.417969 0 8 3.582031 8 8v82c0 4.417969-3.582031 8-8 8zm0 0" fill="#6bdddd"/><path d="m476.5 492h-464c-6.617188 0-12-5.382812-12-12v-82c0-6.617188 5.382812-12 12-12h464c6.617188 0 12 5.382812 12 12v82c0 6.617188-5.382812 12-12 12zm-464-98c-2.207031 0-4 1.792969-4 4v82c0 2.207031 1.792969 4 4 4h464c2.207031 0 4-1.792969 4-4v-82c0-2.207031-1.792969-4-4-4zm0 0" fill="#3762cc"/></svg>