<svg id="Capa_1" enable-background="new 0 0 512 512" height="512" viewBox="0 0 512 512" width="512" xmlns="http://www.w3.org/2000/svg"><g><path d="m512 256c0 14.923-9.428 28.837-11.917 43.047-2.559 14.614 1.505 30.902-3.457 44.533-5.051 13.873-18.68 23.725-25.977 36.337-7.366 12.731-9.132 29.443-18.537 40.639-9.432 11.229-25.596 15.851-36.824 25.283-11.196 9.404-18.537 24.534-31.268 31.9-12.613 7.297-29.369 6.138-43.242 11.189-13.631 4.962-25.704 16.665-40.317 19.224-14.21 2.489-29.537-4.344-44.46-4.344s-30.25 6.833-44.46 4.344c-14.614-2.559-26.687-14.262-40.318-19.224-13.873-5.051-30.63-3.892-43.242-11.189-12.731-7.366-20.072-22.496-31.268-31.9-11.229-9.432-27.393-14.054-36.824-25.283-9.404-11.196-11.17-27.908-18.536-40.639-7.297-12.613-20.927-22.464-25.977-36.337-4.962-13.631-.898-29.919-3.457-44.533-2.491-14.21-11.919-28.124-11.919-43.047s9.428-28.837 11.917-43.047c2.559-14.614-1.505-30.902 3.457-44.533 5.051-13.873 18.68-23.725 25.977-36.337 7.366-12.731 9.132-29.443 18.537-40.639 9.432-11.23 25.596-15.852 36.825-25.284 11.196-9.404 18.537-24.534 31.268-31.9 12.613-7.297 29.369-6.138 43.242-11.189 13.631-4.962 25.704-16.665 40.317-19.224 14.21-2.489 29.537 4.344 44.46 4.344s30.25-6.833 44.46-4.344c14.614 2.559 26.687 14.262 40.318 19.224 13.873 5.051 30.63 3.892 43.242 11.189 12.731 7.366 20.072 22.496 31.268 31.9 11.229 9.432 27.393 14.054 36.824 25.283 9.404 11.196 11.17 27.908 18.536 40.639 7.297 12.613 20.926 22.464 25.977 36.337 4.962 13.631.898 29.919 3.457 44.533 2.49 14.211 11.918 28.125 11.918 43.048z" fill="#f1d59d"/><path d="m512 256c0-14.923-9.428-28.837-11.917-43.047-2.559-14.614 1.505-30.902-3.457-44.533-5.051-13.873-18.68-23.725-25.977-36.337-7.366-12.731-9.132-29.443-18.536-40.639-5.45-6.489-13.149-10.772-20.844-15.052 20.134 36.933 31.579 79.285 31.579 124.312 0 143.647-116.449 260.096-260.096 260.096-54.221 0-104.562-16.6-146.233-44.983 1.011 1.66 2.118 3.251 3.368 4.739 9.432 11.229 25.596 15.851 36.824 25.283 11.196 9.405 18.537 24.534 31.268 31.9 12.613 7.297 29.369 6.138 43.242 11.189 13.631 4.962 25.704 16.665 40.318 19.224 14.21 2.489 29.537-4.344 44.46-4.344s30.25 6.833 44.46 4.344c14.614-2.559 26.686-14.262 40.317-19.224 13.873-5.051 30.63-3.891 43.242-11.189 12.731-7.366 20.072-22.495 31.268-31.9 11.229-9.431 27.393-14.054 36.824-25.283 9.404-11.196 11.171-27.908 18.537-40.639 7.297-12.613 20.927-22.464 25.977-36.337 4.962-13.631.898-29.92 3.457-44.534 2.491-14.209 11.919-28.123 11.919-43.046z" fill="#efcb84"/><g><path d="m310.272 265.728c0 18.946-25.598 34.304-44.544 34.304s-34.304-15.358-34.304-34.304 15.358-44.544 34.304-44.544 44.544 25.599 44.544 44.544z" fill="#df75a5"/><path d="m295.882 237.155c-1.122 24.169-21.067 43.421-45.514 43.421-5.986 0-11.697-1.166-16.934-3.264 4.752 13.245 17.414 22.72 32.294 22.72 18.946 0 44.544-15.358 44.544-34.304 0-9.188-6.028-19.934-14.39-28.573z" fill="#dd5790"/></g><g><path d="m369.664 398.848c0 18.946-15.358 34.304-34.304 34.304s-44.544-15.358-44.544-34.304 25.598-44.544 44.544-44.544 34.304 25.599 34.304 44.544z" fill="#a2f4c1"/><path d="m357.904 367.205c.327 2.137.497 4.326.497 6.555 0 23.753-19.255 43.008-43.008 43.008-7.527 0-14.599-1.939-20.754-5.337 7.834 12.717 26.22 21.721 40.722 21.721 18.945 0 34.304-15.359 34.304-34.304-.001-10.313-4.558-22.589-11.761-31.643z" fill="#86f1a7"/></g><g><path d="m236.544 133.632c0 18.946-15.358 34.304-34.304 34.304s-44.544-15.358-44.544-34.304 25.598-44.544 44.544-44.544 34.304 25.598 34.304 44.544z" fill="#ac80dd"/><path d="m226.225 103.888c-1.482 28.792-24.016 52.008-52.506 54.583 8.63 5.861 19.351 9.466 28.521 9.466 18.946 0 34.304-15.359 34.304-34.304 0-9.608-3.954-20.922-10.319-29.745z" fill="#9d66d5"/></g><g><path d="m145.408 314.88c0 18.946-15.358 34.304-34.304 34.304s-44.544-15.358-44.544-34.304 25.598-44.544 44.544-44.544 34.304 25.599 34.304 44.544z" fill="#ac80dd"/><path d="m134.952 284.95c.141 1.424.216 2.868.216 4.33 0 24.035-19.485 43.52-43.52 43.52-7.811 0-15.134-2.068-21.471-5.671 7.715 12.894 26.299 22.055 40.927 22.055 18.946 0 34.304-15.358 34.304-34.304 0-9.675-4.012-21.08-10.456-29.93z" fill="#9d66d5"/></g><g><path d="m424.96 170.496c0 18.946-15.358 34.304-34.304 34.304s-44.544-15.358-44.544-34.304 25.598-44.544 44.544-44.544 34.304 25.598 34.304 44.544z" fill="#e7a561"/><path d="m414.588 140.679c-1.781 26.094-23.498 46.713-50.044 46.713-4.417 0-8.699-.576-12.781-1.648 8.607 11.292 25.426 19.056 38.893 19.056 18.945 0 34.304-15.359 34.304-34.304 0-9.634-3.977-20.983-10.372-29.817z" fill="#e49542"/></g><g fill="#dab46b"><circle cx="295.936" cy="145.408" r="10.24"/><circle cx="226.304" cy="360.448" r="10.24"/><circle cx="382.976" cy="281.6" r="10.24"/><circle cx="420.864" cy="351.232" r="10.24"/><circle cx="250.88" cy="443.392" r="10.24"/><circle cx="462.848" cy="262.144" r="10.24"/><circle cx="323.584" cy="70.656" r="10.24"/><circle cx="96.256" cy="133.12" r="10.24"/><circle cx="136.192" cy="206.848" r="10.24"/><circle cx="150.528" cy="406.528" r="10.24"/></g></g></svg>