<svg id="Capa_1" enable-background="new 0 0 497 497" height="512" viewBox="0 0 497 497" width="512" xmlns="http://www.w3.org/2000/svg"><g><g><path d="m409.269 359.044h-51.499v-31.539h51.499c5.138 0 10.215-.824 15.089-2.45 15.759-5.255 27.464-18.04 31.312-34.201l9.373-39.367c1.049-4.405.041-8.97-2.766-12.523-2.807-3.554-7.014-5.592-11.542-5.592h-60.298v-31.539h60.298c14.239 0 27.466 6.408 36.292 17.582 8.825 11.173 11.996 25.526 8.698 39.377l-9.373 39.367c-6.392 26.846-25.837 48.085-52.016 56.814-8.098 2.702-16.531 4.071-25.067 4.071z" fill="#ddeafb"/></g><path d="m487.027 219.416c-8.826-11.174-22.053-17.582-36.292-17.582h-16.822c14.239 0 27.466 6.408 36.292 17.582 8.825 11.173 11.996 25.526 8.698 39.377l-9.373 39.367c-6.392 26.846-25.837 48.085-52.016 56.814-8.097 2.7-16.531 4.07-25.066 4.07h16.822c8.535 0 16.969-1.369 25.066-4.07 26.179-8.73 45.625-29.969 52.016-56.814l9.373-39.367c3.298-13.852.128-28.204-8.698-39.377z" fill="#cbe2ff"/><path d="m413.73 184.699-10.49 106.52c-5.77 58.64-55.09 103.34-114.01 103.34l-51.971 5.797-59.359-5.797c-57.58 0-106.22-42.74-113.61-99.84l-14.18-109.38c-1.62-12.55 8.15-23.66 20.79-23.66h321.97c12.39 0 22.08 10.69 20.86 23.02z" fill="#ddeafb"/><path d="m392.87 161.676h-30.391c12.391 0 22.078 10.688 20.864 23.02l-10.49 106.525c-5.775 58.642-55.09 103.34-114.016 103.34h30.391c58.925 0 108.241-44.698 114.016-103.34l10.49-106.525c1.214-12.331-8.473-23.02-20.864-23.02z" fill="#cbe2ff"/><g><path d="m313.7 161.679v75.34c0 4.15-3.36 7.5-7.5 7.5s-7.5-3.35-7.5-7.5v-75.34z" fill="#d8ab8c"/></g><path d="m306.198 289.406c-12.961 0-23.469-10.507-23.469-23.469v-30.269c0-3.337 2.705-6.042 6.042-6.042h34.853c3.337 0 6.042 2.705 6.042 6.042v30.269c0 12.961-10.507 23.469-23.468 23.469z" fill="#5f99d7"/><path d="m299.88 229.625 1.447.306c2.839.6 4.87 3.106 4.87 6.007v29.999c0 8.685-4.722 16.263-11.734 20.321 3.747 2.169 8.146 3.338 12.835 3.122 12.618-.579 22.368-11.369 22.368-24v-29.712c0-3.337-2.705-6.042-6.042-6.042h-23.744z" fill="#3c87d0"/><path d="m440.166 438.437h-403.814c-20.076 0-36.352-16.275-36.352-36.352 0-4.155 3.369-7.524 7.524-7.524h461.47c4.155 0 7.524 3.369 7.524 7.524 0 20.077-16.275 36.352-36.352 36.352z" fill="#cbe2ff"/><g><path d="m117.13 257.171c6.882-4.412 16.066-1.951 19.82 5.311 2.49 4.817 7.558 7.743 12.974 7.491 8.165-.38 14.889 6.344 14.509 14.509-.252 5.417 2.674 10.484 7.491 12.974 7.261 3.754 9.722 12.938 5.311 19.82-2.927 4.565-2.927 10.416 0 14.981 4.412 6.882 1.951 16.066-5.311 19.82-4.817 2.49-7.743 7.558-7.491 12.974.38 8.165-6.344 14.889-14.509 14.509-5.417-.252-10.484 2.674-12.974 7.491-3.754 7.261-12.938 9.722-19.82 5.311-4.565-2.927-10.416-2.927-14.981 0-6.882 4.412-16.066 1.951-19.82-5.311-2.49-4.817-7.558-7.743-12.974-7.491-8.165.38-14.889-6.344-14.509-14.509.252-5.417-2.674-10.484-7.491-12.974-7.261-3.754-9.722-12.938-5.311-19.82 2.927-4.565 2.927-10.416 0-14.981-4.412-6.882-1.951-16.066 5.311-19.82 4.817-2.49 7.743-7.558 7.491-12.974-.38-8.165 6.344-14.889 14.509-14.509 5.417.252 10.484-2.674 12.974-7.491 3.754-7.261 12.938-9.722 19.82-5.311 4.565 2.927 10.416 2.927 14.981 0z" fill="#fdb441"/></g><g><path d="m177.235 332.258c-2.927-4.565-2.927-10.416 0-14.981 4.412-6.881 1.951-16.066-5.311-19.82-4.817-2.49-7.743-7.557-7.491-12.974.38-8.165-6.344-14.889-14.509-14.509-5.417.252-10.484-2.674-12.974-7.491-3.754-7.261-12.938-9.722-19.82-5.311-3.307 2.12-7.288 2.696-10.968 1.744 1.036 1.011 1.931 2.204 2.636 3.567 2.49 4.817 7.558 7.743 12.974 7.491 8.165-.38 14.889 6.344 14.509 14.509-.252 5.417 2.674 10.484 7.491 12.974 7.261 3.754 9.722 12.938 5.311 19.82-2.927 4.565-2.927 10.416 0 14.981 4.412 6.882 1.951 16.066-5.311 19.82-4.817 2.49-7.743 7.557-7.491 12.974.38 8.165-6.344 14.889-14.509 14.509-5.417-.252-10.484 2.674-12.974 7.491-.704 1.363-1.6 2.556-2.636 3.567 3.679-.952 7.66-.376 10.968 1.744 6.882 4.412 16.066 1.951 19.82-5.311 2.49-4.817 7.558-7.743 12.974-7.491 8.165.38 14.889-6.344 14.509-14.509-.252-5.417 2.674-10.484 7.491-12.974 7.262-3.754 9.723-12.939 5.311-19.82z" fill="#fea613"/></g><g fill="#d8ab8c"><circle cx="85.051" cy="324.225" r="7.382"/><circle cx="110.182" cy="349.355" r="7.382"/><circle cx="109.097" cy="300.179" r="7.382"/><circle cx="134.228" cy="325.309" r="7.382"/></g><g><g><path d="m208.747 118.94c-4.142 0-7.5-3.358-7.5-7.5v-29.683c0-4.142 3.358-7.5 7.5-7.5s7.5 3.358 7.5 7.5v29.683c0 4.142-3.358 7.5-7.5 7.5z" fill="#bed8fb"/></g><g><path d="m241.5 118.94c-4.142 0-7.5-3.358-7.5-7.5v-45.377c0-4.142 3.358-7.5 7.5-7.5s7.5 3.358 7.5 7.5v45.377c0 4.142-3.358 7.5-7.5 7.5z" fill="#bed8fb"/></g><g><path d="m274.253 118.94c-4.142 0-7.5-3.358-7.5-7.5v-29.683c0-4.142 3.358-7.5 7.5-7.5s7.5 3.358 7.5 7.5v29.683c0 4.142-3.357 7.5-7.5 7.5z" fill="#bed8fb"/></g></g><path d="m440.166 438.437h-403.814c-20.076 0-36.352-16.275-36.352-36.352 0-4.155 3.369-7.524 7.524-7.524h461.47c4.155 0 7.524 3.369 7.524 7.524 0 20.077-16.275 36.352-36.352 36.352z" fill="#7a6d79"/><path d="m468.994 394.561h-38.604c4.155 0 7.524 3.369 7.524 7.524 0 20.077-16.276 36.352-36.352 36.352h38.605c20.077 0 36.352-16.276 36.352-36.352-.001-4.156-3.369-7.524-7.525-7.524z" fill="#685e68"/></g></svg>