<?xml version="1.0" encoding="iso-8859-1"?>
<!-- Generator: Adobe Illustrator 19.0.0, SVG Export Plug-In . SVG Version: 6.00 Build 0)  -->
<svg version="1.1" id="Capa_1" xmlns="http://www.w3.org/2000/svg" xmlns:xlink="http://www.w3.org/1999/xlink" x="0px" y="0px"
	 viewBox="0 0 494.192 494.192" style="enable-background:new 0 0 494.192 494.192;" xml:space="preserve">
<g>
	<circle style="fill:#FBDC76;" cx="475" cy="334.812" r="19.192"/>
	<circle style="fill:#FBDC76;" cx="227" cy="430.812" r="20"/>
	<circle style="fill:#FBDC76;" cx="35" cy="414.812" r="20"/>
	<circle style="fill:#FBDC76;" cx="19" cy="142.812" r="19"/>
	<circle style="fill:#FBDC76;" cx="251" cy="22.812" r="19.432"/>
</g>
<circle style="fill:#93CAE2;" cx="399" cy="370.812" r="48"/>
<circle style="fill:#06AAE9;" cx="399" cy="370.812" r="29.496"/>
<circle style="fill:#93CAE2;" cx="103" cy="74.812" r="62.624"/>
<circle style="fill:#3FA9F5;" cx="103" cy="74.812" r="40"/>
<circle style="fill:#FBCD85;" cx="143" cy="274.812" r="136"/>
<g>
	<circle style="fill:#FBB03B;" cx="143" cy="274.812" r="63.336"/>
	<circle style="fill:#FBB03B;" cx="143" cy="274.812" r="63.336"/>
</g>
<circle style="fill:#FF787D;" cx="327" cy="178.812" r="156"/>
<circle style="fill:#ED1C24;" cx="327" cy="178.812" r="88"/>
<path style="fill:#F15A24;" d="M165.632,260.18c-4.418-0.001-7.999-3.583-7.998-8.002c0-2.121,0.843-4.154,2.342-5.654L182.6,223.9
	c3.178-3.069,8.243-2.981,11.312,0.197c2.994,3.1,2.994,8.015,0,11.115l-22.624,22.624
	C169.788,259.336,167.754,260.18,165.632,260.18L165.632,260.18z"/>
<g>
	<circle style="fill:#C1272D;" cx="327" cy="178.812" r="16"/>
	<path style="fill:#C1272D;" d="M327,146.812c-4.418,0-8-3.582-8-8v-40c0-4.418,3.582-8,8-8s8,3.582,8,8v40
		C335,143.23,331.418,146.812,327,146.812z"/>
	<path style="fill:#C1272D;" d="M327,74.812c-4.418,0-8-3.582-8-8v-48c0-4.418,3.582-8,8-8s8,3.582,8,8v48
		C335,71.23,331.418,74.812,327,74.812z"/>
	<path style="fill:#C1272D;" d="M355.288,158.524c-4.418-0.001-7.999-3.583-7.998-8.002c0-2.121,0.843-4.155,2.342-5.654
		l28.28-28.28c3.069-3.178,8.134-3.266,11.312-0.196c3.178,3.069,3.266,8.134,0.196,11.312c-0.064,0.067-0.13,0.132-0.196,0.196
		l-28.28,28.28C359.444,157.68,357.41,158.524,355.288,158.524L355.288,158.524z"/>
	<path style="fill:#C1272D;" d="M406.2,107.612c-4.418-0.001-7.999-3.583-7.998-8.002c0-2.121,0.843-4.154,2.342-5.654
		l33.944-33.944c3.178-3.07,8.242-2.982,11.312,0.196c2.995,3.1,2.995,8.016,0,11.116l-33.944,33.944
		C410.356,106.768,408.322,107.612,406.2,107.612z"/>
	<path style="fill:#C1272D;" d="M407,186.812h-40c-4.418,0-8-3.582-8-8s3.582-8,8-8h40c4.418,0,8,3.582,8,8
		S411.418,186.812,407,186.812z"/>
	<path style="fill:#C1272D;" d="M479,178.812h-40"/>
	<path style="fill:#C1272D;" d="M479,186.812h-40c-4.418,0-8-3.582-8-8s3.582-8,8-8h40c4.418,0,8,3.582,8,8
		S483.418,186.812,479,186.812z"/>
	<path style="fill:#C1272D;" d="M383.568,235.38l-28.28-28.28"/>
	<path style="fill:#C1272D;" d="M383.568,243.38c-2.122,0-4.156-0.844-5.656-2.344l-28.28-28.28
		c-3.069-3.178-2.982-8.243,0.196-11.312c3.1-2.994,8.015-2.994,11.116,0l28.28,28.28c3.124,3.125,3.123,8.19-0.002,11.314
		C387.723,242.537,385.689,243.38,383.568,243.38L383.568,243.38z"/>
	<path style="fill:#C1272D;" d="M440.136,291.948l-33.944-33.944"/>
	<path style="fill:#C1272D;" d="M440.136,299.948c-2.122,0-4.156-0.844-5.656-2.344l-33.944-33.944
		c-3.07-3.178-2.982-8.242,0.196-11.312c3.1-2.995,8.016-2.995,11.116,0l33.944,33.944c3.124,3.125,3.123,8.19-0.002,11.314
		C444.29,299.105,442.257,299.948,440.136,299.948z"/>
	<path style="fill:#C1272D;" d="M327,482.812v-264"/>
	<path style="fill:#C1272D;" d="M327,490.812c-4.418,0-8-3.582-8-8v-264c0-4.418,3.582-8,8-8s8,3.582,8,8v264
		C335,487.23,331.418,490.812,327,490.812z"/>
	<path style="fill:#C1272D;" d="M270.432,235.38l28.28-28.28"/>
	<path style="fill:#C1272D;" d="M270.432,243.38c-4.418-0.001-7.999-3.583-7.998-8.002c0-2.121,0.843-4.155,2.342-5.654l28.28-28.28
		c3.178-3.07,8.242-2.982,11.312,0.196c2.994,3.1,2.994,8.015,0,11.116l-28.28,28.28C274.588,242.536,272.554,243.38,270.432,243.38
		L270.432,243.38z"/>
	<path style="fill:#C1272D;" d="M213.056,299.948c-4.418-0.001-7.999-3.583-7.998-8.002c0-2.121,0.843-4.154,2.342-5.654
		l33.944-33.944c3.178-3.07,8.242-2.982,11.312,0.196c2.995,3.1,2.995,8.016,0,11.116l-33.944,33.944
		C217.212,299.104,215.178,299.948,213.056,299.948z"/>
	<path style="fill:#C1272D;" d="M247,178.812h40"/>
	<path style="fill:#C1272D;" d="M287,186.812h-40c-4.418,0-8-3.582-8-8s3.582-8,8-8h40c4.418,0,8,3.582,8,8
		S291.418,186.812,287,186.812z"/>
	<path style="fill:#C1272D;" d="M167,178.812h48"/>
	<path style="fill:#C1272D;" d="M215,186.812h-48c-4.418,0-8-3.582-8-8s3.582-8,8-8h48c4.418,0,8,3.582,8,8
		S219.418,186.812,215,186.812z"/>
	<path style="fill:#C1272D;" d="M298.712,158.524c-2.122,0-4.156-0.844-5.656-2.344l-28.28-28.28
		c-3.178-3.07-3.266-8.134-0.196-11.312c3.07-3.178,8.134-3.266,11.312-0.196c0.067,0.064,0.132,0.13,0.196,0.196l28.28,28.28
		c3.124,3.125,3.123,8.19-0.002,11.314C302.867,157.681,300.833,158.524,298.712,158.524L298.712,158.524z"/>
	<path style="fill:#C1272D;" d="M247.8,107.612c-2.122,0-4.156-0.844-5.656-2.344l-33.936-33.936
		c-3.069-3.178-2.981-8.243,0.197-11.312c3.1-2.994,8.015-2.994,11.115,0l33.944,33.944c3.119,3.129,3.111,8.194-0.018,11.314
		C251.947,106.772,249.917,107.612,247.8,107.612z"/>
</g>
<path style="fill:#F15A24;" d="M143,250.812c-4.418,0-8-3.582-8-8v-32c0-4.418,3.582-8,8-8s8,3.582,8,8v32
	C151,247.23,147.418,250.812,143,250.812z"/>
<g>
	<path style="fill:#FBB03B;" d="M143,186.812c-4.418,0-8-3.582-8-8v-32c0-4.418,3.582-8,8-8s8,3.582,8,8v32
		C151,183.23,147.418,186.812,143,186.812z"/>
	<path style="fill:#FBB03B;" d="M210.88,214.932c-4.418-0.001-7.999-3.583-7.998-8.002c0-2.121,0.843-4.155,2.342-5.654l4.12-4.12
		c3.178-3.069,8.243-2.981,11.312,0.197c2.994,3.1,2.994,8.015,0,11.115l-4.12,4.12C215.036,214.088,213.002,214.932,210.88,214.932
		L210.88,214.932z"/>
</g>
<g>
	<path style="fill:#F15A24;" d="M191,282.812h-16c-4.418,0-8-3.582-8-8s3.582-8,8-8h16c4.418,0,8,3.582,8,8
		S195.418,282.812,191,282.812z"/>
	<path style="fill:#F15A24;" d="M188.256,328.068c-2.122,0-4.156-0.844-5.656-2.344L159.976,303.1
		c-3.07-3.178-2.982-8.242,0.196-11.312c3.1-2.994,8.015-2.994,11.116,0l22.624,22.624c3.124,3.125,3.123,8.19-0.002,11.314
		C192.41,327.225,190.377,328.068,188.256,328.068L188.256,328.068z"/>
</g>
<path style="fill:#FBB03B;" d="M233.504,373.316c-2.12,0.002-4.155-0.839-5.656-2.336l-22.624-22.632
	c-3.07-3.178-2.982-8.242,0.196-11.312c3.1-2.994,8.015-2.994,11.116,0l22.632,22.624c3.124,3.125,3.123,8.19-0.002,11.314
	C237.665,372.475,235.628,373.318,233.504,373.316z"/>
<g>
	<path style="fill:#F15A24;" d="M143,490.812c-4.418,0-8-3.582-8-8v-176c0-4.418,3.582-8,8-8s8,3.582,8,8v176
		C151,487.23,147.418,490.812,143,490.812z"/>
	<path style="fill:#F15A24;" d="M97.744,328.068c-4.418-0.001-7.999-3.583-7.998-8.002c0-2.121,0.843-4.154,2.342-5.654
		l22.624-22.624c3.178-3.069,8.243-2.982,11.312,0.196c2.994,3.1,2.994,8.015,0,11.116L103.4,325.724
		C101.9,327.224,99.866,328.068,97.744,328.068z"/>
</g>
<path style="fill:#FBB03B;" d="M52.496,373.316c-4.418,0.003-8.003-3.575-8.006-7.994c-0.002-2.124,0.841-4.161,2.342-5.662
	l22.632-22.624c3.07-3.178,8.134-3.266,11.312-0.196c3.178,3.07,3.266,8.134,0.196,11.312c-0.064,0.067-0.13,0.132-0.196,0.196
	L58.152,370.98C56.651,372.477,54.616,373.318,52.496,373.316z"/>
<path style="fill:#F15A24;" d="M111,282.812H79c-4.418,0-8-3.582-8-8s3.582-8,8-8h32c4.418,0,8,3.582,8,8
	S115.418,282.812,111,282.812z"/>
<path style="fill:#FBB03B;" d="M47,282.812H15c-4.418,0-8-3.582-8-8s3.582-8,8-8h32c4.418,0,8,3.582,8,8S51.418,282.812,47,282.812z
	"/>
<path style="fill:#F15A24;" d="M120.368,260.18c-2.122,0-4.156-0.844-5.656-2.344l-22.624-22.624
	c-3.069-3.178-2.981-8.243,0.197-11.312c3.1-2.994,8.015-2.994,11.115,0l22.624,22.624c3.124,3.125,3.123,8.19-0.002,11.314
	C124.522,259.337,122.489,260.18,120.368,260.18L120.368,260.18z"/>
<path style="fill:#FBB03B;" d="M75.12,214.932c-2.122,0-4.156-0.844-5.656-2.344l-22.632-22.624c-3.126-3.126-3.126-8.194,0-11.32
	c3.126-3.126,8.194-3.126,11.32,0l22.624,22.632c3.124,3.125,3.123,8.19-0.002,11.314C79.275,214.089,77.241,214.932,75.12,214.932
	L75.12,214.932z"/>
<path style="fill:#F15A24;" d="M143,290.812c-8.837,0-16-7.163-16-16s7.163-16,16-16s16,7.163,16,16S151.837,290.812,143,290.812z"
	/>
<g>
	<path style="fill:#E6E6E6;" d="M159,66.812h-36.688l26.344-26.344c3.178-3.069,3.266-8.134,0.197-11.312
		c-3.069-3.178-8.134-3.266-11.312-0.197c-0.067,0.064-0.132,0.13-0.197,0.197L111,55.5V18.812c0-4.418-3.582-8-8-8s-8,3.582-8,8
		V55.5L68.656,29.156c-3.178-3.069-8.243-2.981-11.312,0.197c-2.994,3.1-2.994,8.015,0,11.115l26.344,26.344H47
		c-4.418,0-8,3.582-8,8c0,4.418,3.582,8,8,8h36.688l-26.344,26.344c-3.178,3.069-3.266,8.134-0.197,11.312
		c3.069,3.178,8.134,3.266,11.312,0.197c0.067-0.064,0.132-0.13,0.197-0.197L95,94.124v76.688c0,4.418,3.582,8,8,8s8-3.582,8-8
		V94.124l26.344,26.344c3.178,3.069,8.243,2.981,11.312-0.197c2.994-3.1,2.994-8.015,0-11.115l-26.344-26.344H159
		c4.418,0,8-3.582,8-8C167,70.394,163.418,66.812,159,66.812z"/>
	<path style="fill:#E6E6E6;" d="M431,410.812c-2.122,0-4.156-0.844-5.656-2.344l-64-64c-3.07-3.178-2.982-8.242,0.196-11.312
		c3.1-2.995,8.016-2.995,11.116,0l64,64c3.124,3.125,3.123,8.19-0.002,11.314C435.155,409.969,433.121,410.812,431,410.812z"/>
</g>
<circle style="fill:#FBDC76;" cx="451" cy="126.812" r="19.192"/>
<path style="fill:#FBB03B;" d="M451,138.812c-6.627,0-12-5.373-12-12c0-6.627,5.373-12,12-12s12,5.373,12,12
	C463,133.439,457.627,138.812,451,138.812z M451,122.812c-2.209,0-4,1.791-4,4s1.791,4,4,4s4-1.791,4-4S453.209,122.812,451,122.812
	z"/>
<path style="fill:#E6E6E6;" d="M367,410.812c-4.418-0.001-7.999-3.583-7.998-8.002c0-2.121,0.843-4.154,2.342-5.654l64-64
	c3.178-3.07,8.242-2.982,11.312,0.196c2.995,3.1,2.995,8.016,0,11.116l-64,64C371.156,409.968,369.122,410.812,367,410.812z"/>
<circle style="fill:#FBDC76;" cx="275" cy="310.812" r="19.192"/>
<g>
	<path style="fill:#FBB03B;" d="M275,322.812c-6.627,0-12-5.373-12-12s5.373-12,12-12s12,5.373,12,12S281.627,322.812,275,322.812z
		 M275,306.812c-2.209,0-4,1.791-4,4s1.791,4,4,4s4-1.791,4-4S277.209,306.812,275,306.812z"/>
	<path style="fill:#FBB03B;" d="M227,442.812c-6.627,0-12-5.373-12-12s5.373-12,12-12s12,5.373,12,12S233.627,442.812,227,442.812z
		 M227,426.812c-2.209,0-4,1.791-4,4s1.791,4,4,4s4-1.791,4-4S229.209,426.812,227,426.812z"/>
	<path style="fill:#FBB03B;" d="M251,34.812c-6.627,0-12-5.373-12-12s5.373-12,12-12s12,5.373,12,12S257.627,34.812,251,34.812z
		 M251,18.812c-2.209,0-4,1.791-4,4s1.791,4,4,4s4-1.791,4-4S253.209,18.812,251,18.812z"/>
	<path style="fill:#FBB03B;" d="M19,154.812c-6.627,0-12-5.373-12-12s5.373-12,12-12s12,5.373,12,12S25.627,154.812,19,154.812z
		 M19,138.812c-2.209,0-4,1.791-4,4s1.791,4,4,4s4-1.791,4-4S21.209,138.812,19,138.812z"/>
	<path style="fill:#FBB03B;" d="M35,426.812c-6.627,0-12-5.373-12-12s5.373-12,12-12s12,5.373,12,12S41.627,426.812,35,426.812z
		 M35,410.812c-2.209,0-4,1.791-4,4s1.791,4,4,4s4-1.791,4-4S37.209,410.812,35,410.812z"/>
	<path style="fill:#FBB03B;" d="M475,346.812c-6.627,0-12-5.373-12-12s5.373-12,12-12s12,5.373,12,12S481.627,346.812,475,346.812z
		 M475,330.812c-2.209,0-4,1.791-4,4s1.791,4,4,4s4-1.791,4-4S477.209,330.812,475,330.812z"/>
</g>
<g>
</g>
<g>
</g>
<g>
</g>
<g>
</g>
<g>
</g>
<g>
</g>
<g>
</g>
<g>
</g>
<g>
</g>
<g>
</g>
<g>
</g>
<g>
</g>
<g>
</g>
<g>
</g>
<g>
</g>
</svg>
