<svg id="Layer_1" enable-background="new 0 0 510 510" height="512" viewBox="0 0 510 510" width="512" xmlns="http://www.w3.org/2000/svg"><g><path d="m30 405v105h225l10-35.5-10-39.5h-.008l-113.492-45z" fill="#76e2f8"/><path d="m255 435v75h225v-105l-134.333-27.333z" fill="#4bb9ec"/><path d="m255 285 10-54-10-51-107.5-10-117.5 10v75l111.518 51c3.926-.726-20.531 3.799 113.482-21z" fill="#76e2f8"/><path d="m480 255v-75l-121-10-104 10v105l100 23.333z" fill="#4bb9ec"/><path d="m0 59v121h255l15-60.5-15-60.5c-7.193 0-247.807 0-255 0z" fill="#be4dd8"/><path d="m510 59c-7.193 0-247.807 0-255 0v121h255c0-14.636 0-106.266 0-121z" fill="#7a3db4"/><g><g><g><path d="m255 435 10-73.333-10-76.667c6.957 0-129.172 0-140.002 0-11.95 0-17.236-4.53-25.237-11.389-9.673-8.291-21.712-18.611-44.761-18.611h-15v150h15c11.95 0 17.236 4.53 25.237 11.389 9.673 8.292 21.712 18.611 44.761 18.611h139.994" fill="#ffe278"/></g></g></g><path d="m465 255c-23.05 0-35.089 10.319-44.764 18.611-8.002 6.857-13.288 11.389-25.24 11.389s-17.238-4.531-25.24-11.389c-9.675-8.291-21.714-18.611-44.764-18.611-23.049 0-35.088 10.319-44.762 18.611-7.999 6.855-13.285 11.387-25.23 11.389v150c23.044-.002 35.081-10.32 44.754-18.611 8.001-6.857 13.287-11.389 25.238-11.389 11.952 0 17.238 4.531 25.24 11.389 9.675 8.292 21.714 18.611 44.764 18.611s35.089-10.319 44.764-18.611c8.002-6.857 13.288-11.389 25.24-11.389h15v-150z" fill="#ffc178"/><path d="m135 59v451h120c0-13.285 0-438.907 0-451z" fill="#ff8b8b"/><path d="m373.614 2.217c-8.308 2.529-71.316 21.714-79.746 24.28l-3.868 22.688 5.706 19.192c8.089 2.449 69.696 21.104 77.908 23.591 22.444 8.416 46.386-8.174 46.386-32.145 0-8.904 0-16.556 0-25.46 0-23.97-23.94-40.563-46.386-32.146z" fill="#ff936b"/><path d="m216.141 26.5-79.755-24.283c-22.444-8.416-46.386 8.175-46.386 32.146v25.46c0 23.971 23.942 40.563 46.386 32.146l77.908-23.591 5.706-19.193z" fill="#ffc178"/><path d="m223.18 81.005c8.143 8.143 19.393 13.18 31.82 13.18l15-45-15-45c-12.426 0-23.676 5.037-31.82 13.181-17.561 17.558-17.59 46.048 0 63.639z" fill="#ffe278"/><path d="m300 49.185c0-24.908-20.2-45-45-45v90c24.852 0 45-20.146 45-45z" fill="#ffc178"/></g></svg>