<?xml version="1.0" encoding="iso-8859-1"?>
<!-- Generator: Adobe Illustrator 19.0.0, SVG Export Plug-In . SVG Version: 6.00 Build 0)  -->
<svg version="1.1" id="Capa_1" xmlns="http://www.w3.org/2000/svg" xmlns:xlink="http://www.w3.org/1999/xlink" x="0px" y="0px"
	 viewBox="0 0 511.999 511.999" style="enable-background:new 0 0 511.999 511.999;" xml:space="preserve">
<path style="fill:#45484B;" d="M455.851,486.262l-18.103-124.001c-0.674-4.618-2.77-8.911-5.996-12.283l-32.708-34.196
	l-47.56,15.282l42.84,44.787l17.067,116.903c1.799,12.324,13.244,20.769,25.476,18.985
	C449.145,509.946,457.644,498.54,455.851,486.262z"/>
<path style="fill:#52565A;" d="M351.485,331.064l-43.242,13.552c0.038,0.099,2.636,8.149,2.636,8.149l14.917,42.555l-42.231,83.601
	c-5.859,10.937-1.742,24.554,9.195,30.413c10.936,5.858,24.554,1.741,30.413-9.195l50.011-93.362
	c3.137-5.856,3.521-12.8,1.049-18.966L351.485,331.064z"/>
<g>
	<path style="fill:#FFC305;" d="M485.428,183.223c-3.862-14.019,2.186-28.885,14.73-36.24l0,0c4.901-2.874,3.89-10.276-1.621-11.713
		l-58.897-15.364c-5.806-1.514-10.168,4.516-7.315,9.383l9.722,16.581c1.952,3.329,2.362,7.344,1.106,10.992
		c-0.01,0.03-0.021,0.061-0.031,0.092c-3.296,9.554-1.091,20.805,0.777,27.324c0.827,2.884-0.369,6.075-3.059,7.403
		c-3.179,1.57-6.966,0.117-8.314-3.094l-8.583-20.454c-12.571-29.927-7.998-18.99-20.46-48.919
		c-4.7-11.308-7.972-23.169-19.928-33.269c-8.583-7.348-18.132-10.57-27.031-10.563c-5.496,0.004-11.727,1.164-17.768,7.878
		c-5.601,6.028-5.995,8.077-16.145,20.114c-1.157,1.378-2.398,2.695-2.685,3.086c-2.165,2.943-1.534,7.082,1.407,9.248
		c2.943,2.165,6.924,1.412,9.248-1.407c2.708-3.286,9.725-14.59,16.865-17.32c16.899-5.13,30.343,38.743,36.523,57.357
		c8.318,25.315,17.396,52.592,24.67,74.355c7.69,23.009,32.76,35.223,55.623,27.104l0,0c21.848-7.759,33.724-31.337,26.954-53.511
		C489.613,197.037,487.335,190.145,485.428,183.223z"/>
	<path style="fill:#FFC305;" d="M441.508,195.94c-0.157-0.007-0.115,0.015-0.218,0.051
		C441.313,195.985,441.225,196.006,441.508,195.94z"/>
</g>
<path style="fill:#DD3E3E;" d="M405.246,322.291l-94.368,30.474l-46.78-144.046c-2.149-6.619-1.579-13.821,1.587-20.019
	c3.166-6.198,8.665-10.883,15.288-13.021l44.481-14.364c13.759-4.444,28.519,3.094,32.985,16.847L405.246,322.291z"/>
<g>
	<circle style="fill:#A66749;" cx="287.877" cy="120.465" r="38.801"/>
	<path style="fill:#A66749;" d="M443.787,229.929c-1.47,1.409-3.194,2.601-5.148,3.498l-69.344,31.819
		c-5.698,2.617-12.325,2.208-17.66-1.088l-76.18-48.542c-8.795-5.437-11.516-16.974-6.08-25.769
		c5.432-8.798,16.974-11.516,25.769-6.08l69.016,42.667l58.85-27.031c9.396-4.315,20.512-0.198,24.827,9.199
		C451.255,216.042,449.381,224.564,443.787,229.929z"/>
</g>
<path style="fill:#FA503C;" d="M331.978,206.538l-36.835-22.772c-8.795-5.437-20.338-2.718-25.769,6.08
	c-5.437,8.795-2.716,20.332,6.08,25.769l38.991,24.845L331.978,206.538z"/>
<path style="fill:#FFA50A;" d="M165.885,126.768c-1.502,0.001-3.013-0.131-4.524-0.393c-6.843-1.194-12.81-4.98-16.805-10.663
	l-12.538-18.186l69.694-48.992l12.538,18.186c3.994,5.682,5.537,12.579,4.343,19.422c-1.193,6.843-4.979,12.81-10.662,16.805
	l-27.15,19.085C176.355,125.144,171.188,126.768,165.885,126.768z M155.605,105.312l1.253,1.754
	c1.685,2.397,4.201,3.994,7.087,4.497c2.887,0.502,5.795-0.147,8.191-1.832l27.15-19.085c4.947-3.477,6.142-10.331,2.665-15.278
	l-1.253-1.754L155.605,105.312z"/>
<path style="fill:#FFC305;" d="M269.632,41.853L242.554,3.331C241.088,1.245,238.691,0,236.141,0c-0.305,0-0.614,0.018-0.917,0.054
	c-2.863,0.337-5.304,2.211-6.37,4.89l-6.678,16.797c-4.523,11.376-12.207,21.11-22.223,28.151l-93.125,65.461
	c-2.175,1.529-3.623,3.813-4.081,6.431c-0.456,2.619,0.133,5.258,1.662,7.433c1.861,2.648,4.907,4.229,8.147,4.229
	c2.054,0,4.032-0.626,5.717-1.811l93.125-65.461c10.016-7.04,21.776-10.975,34.011-11.379l18.066-0.596
	c2.881-0.095,5.471-1.758,6.758-4.338C271.522,47.28,271.291,44.212,269.632,41.853z"/>
<path style="fill:#464D7F;" d="M49.907,333.503l-0.025,59.185L10.354,481.51c-4.643,11.271,0.729,24.172,12,28.817
	c2.751,1.134,5.599,1.671,8.4,1.671c8.676,0,16.906-5.15,20.417-13.67l41.221-93.197c0.981-2.38,1.537-4.913,1.645-7.486
	l-0.018-64.142H49.907z"/>
<path style="fill:#3A4069;" d="M164.121,386.565c-0.105-2.246-0.551-4.463-1.326-6.574l-17.05-46.488H98.724l21.458,58.503
	l4.604,98.946c0.55,11.828,10.312,21.046,22.031,21.046c0.346,0,0.694-0.008,1.043-0.025c12.177-0.567,21.589-10.897,21.022-23.074
	L164.121,386.565z"/>
<path style="fill:#7EADFC;" d="M147.333,337.753H49.905V194.443c0-14.223,11.53-25.752,25.752-25.752h45.924
	c14.223,0,25.752,11.53,25.752,25.752v143.309H147.333z"/>
<g>
	<circle style="fill:#EDB59E;" cx="96.093" cy="119.728" r="38.12"/>
	<path style="fill:#EDB59E;" d="M209.263,80.94c0.545,1.925,0.782,3.97,0.66,6.08l-4.28,73.363
		c-0.359,6.15-3.771,11.709-9.092,14.815l-83.896,33.299c-8.773,5.12-20.037,2.158-25.158-6.616
		c-5.125-8.771-2.158-20.037,6.616-25.158l75.378-28.329l3.706-63.517c0.591-10.142,9.292-17.883,19.434-17.291
		C200.663,68.054,207.189,73.611,209.263,80.94z"/>
</g>
<path style="fill:#8FBDFD;" d="M132.059,162.462l-37.945,14.262c-8.773,5.12-11.742,16.386-6.616,25.158
	c5.12,8.773,16.383,11.736,25.158,6.616l34.623-13.743L132.059,162.462z"/>
<g>
</g>
<g>
</g>
<g>
</g>
<g>
</g>
<g>
</g>
<g>
</g>
<g>
</g>
<g>
</g>
<g>
</g>
<g>
</g>
<g>
</g>
<g>
</g>
<g>
</g>
<g>
</g>
<g>
</g>
</svg>
