<svg id="Capa_1" enable-background="new 0 0 510.008 510.008" height="512" viewBox="0 0 510.008 510.008" width="512" xmlns="http://www.w3.org/2000/svg"><g id="XMLID_31_"><path id="XMLID_4469_" d="m131.476 16.301c-43.82 0-79.469 35.649-79.469 79.468s35.649 79.469 79.469 79.469c2.279 0 4.583-.098 6.85-.292l4.9-.418 67.719-73.849v-4.909c-.001-43.82-35.65-79.469-79.469-79.469z" fill="#fd3"/><path id="XMLID_4409_" d="m131.476 190.25c-52.098 0-94.481-42.384-94.481-94.481s42.383-94.481 94.481-94.481 94.481 42.384 94.481 94.481h-30c0-35.555-28.927-64.481-64.481-64.481s-64.482 28.926-64.482 64.481 28.927 64.481 64.481 64.481c1.86 0 3.741-.08 5.589-.238l2.555 29.891c-2.694.231-5.433.347-8.143.347z" fill="#fb3"/><path id="XMLID_35_" d="m121.119 89.72 35.664 411.336h204.384l35.664-411.336z" fill="#cff3fc"/><path id="XMLID_167_" d="m258.975 89.72v411.336h102.192l35.664-411.336z" fill="#9ef"/><path id="XMLID_37_" d="m326.476 192.372-29.7-4.243 28.228-188.129h148.01v30h-121.991z" fill="#ff6a4d"/><path id="XMLID_42_" d="m358.347 178.64c-.255.132-26.518 13.081-66.473 6.092l-49.189-6.363-.258-.031c-62.675-6.823-91.683 3.964-92.887 4.427l-9.165 3.521 25.996 299.827h185.453l27.614-318.495z" fill="#a8e62e"/><path id="XMLID_112_" d="m358.347 178.64c-.255.132-26.518 13.081-66.473 6.092l-32.899-4.256v305.636h92.848l27.614-318.495z" fill="#7acc29"/><path id="XMLID_4504_" d="m365.615 510.008h-213.28l-37.216-429.239h287.712zm-185.768-30h158.257l32.015-369.239h-222.287z" fill="#9ef"/><path id="XMLID_4451_" d="m217.55 147.21h95.899v95.899h-95.899z" fill="#e6fbff" transform="matrix(.92 -.391 .391 .92 -55.161 119.305)"/><path id="XMLID_43_" d="m213.315 303.9h95.899v95.899h-95.899z" fill="#e6fbff" transform="matrix(.529 -.848 .848 .529 -175.547 387.239)"/><path id="XMLID_51_" d="m320.321 291.538c7.846 0 15.363-6.899 15-15-.364-8.127-6.591-15-15-15-7.846 0-15.363 6.899-15 15 .364 8.127 6.591 15 15 15z" fill="#3bb324"/><path id="XMLID_64_" d="m195.706 275.384c7.846 0 15.363-6.899 15-15-.364-8.127-6.591-15-15-15-7.846 0-15.363 6.899-15 15 .364 8.127 6.591 15 15 15z" fill="#7acc29"/><path id="XMLID_68_" d="m226.091 458.076c7.846 0 15.363-6.899 15-15-.364-8.127-6.591-15-15-15-7.846 0-15.363 6.899-15 15 .364 8.127 6.591 15 15 15z" fill="#7acc29"/><path id="XMLID_70_" d="m258.975 80.769v30h111.143l-32.014 369.239h-79.129v30h106.64l37.216-429.239z" fill="#66e6ff"/><g fill="#cff3fc"><path id="XMLID_4539_" d="m258.975 250.024 69.402-29.473-37.484-88.269-31.918 13.554z"/><path id="XMLID_4541_" d="m258.975 293.902v113.038l17.584 10.972 50.769-81.358z"/></g></g></svg>