<svg id="Capa_1" enable-background="new 0 0 497.543 497.543" height="512" viewBox="0 0 497.543 497.543" width="512" xmlns="http://www.w3.org/2000/svg"><g><path d="m192.235 344.72c-42.627 42.627-102.577 102.577-145.204 145.204-10.433 10.369-27.762 10.122-38.432-.548s-10.917-27.999-.548-38.432c42.627-42.627 102.578-102.578 145.204-145.204z" fill="#e3e0e4"/><path d="m138.652 358.457c6.748 6.748 13.816 12.967 21.17 18.676l32.413-32.413-21.655-21.655-17.324-17.324-32.517 32.517-112.685 112.685c-10.369 10.438-10.126 27.762.546 38.434 3.101 3.101 6.765 5.327 10.672 6.652-3.266-9.485-1.247-20.356 6.107-27.762l109.848-109.848c.944-.944 2.466-.923 3.409.021.004.006.01.012.016.017z" fill="#c8c3ca"/><ellipse cx="297.323" cy="199.787" fill="#efedef" rx="199.898" ry="199.676" transform="matrix(.707 -.707 .707 .707 -54.187 268.755)"/><path d="m436.368 343.091c-1.749 1.698-3.517 3.361-5.31 4.981-.511.459-1.022.918-1.542 1.369-.251.234-.511.459-.771.684-.511.442-1.005.883-1.524 1.317-.139.121-.277.243-.424.355-.728.624-1.455 1.247-2.2 1.854-19.784 16.423-41.985 28.438-65.321 36.043-.71.225-1.403.45-2.113.676-1.412.442-2.824.866-4.244 1.282-1.412.407-2.833.806-4.253 1.187-.71.191-1.412.372-2.131.554-4.27 1.083-8.567 2.018-12.872 2.824-1.282.243-2.564.468-3.846.676-3.032.502-6.072.927-9.121 1.291-1.438.173-2.885.321-4.322.459 0 0-.009.009-.017 0-1.438.139-2.893.26-4.34.372-.147.009-.294.017-.433.035-1.299.087-2.607.165-3.906.234-1.447.078-2.893.139-4.34.182-8.679.26-17.359-.052-25.978-.91l1.091-.71c59.049-43.562 67.495-132.114 18.892-198.024l-.017-.035c82.775 6.566 145.073 70.198 139.269 142.266z" fill="#efedef"/><path d="m297.281 199.811v.017c-67.322 28.1-147.394-10.602-179.019-86.543 0 0-.277-.104-.788-.303 1.048-2.209 2.131-4.4 3.274-6.566.286-.546.563-1.083.857-1.62 5.466-10.091 11.876-19.828 19.213-29.053.528-.667 1.057-1.317 1.594-1.975 1.013-1.239 2.044-2.477 3.101-3.69.58-.702 1.178-1.386 1.776-2.053 1.031-1.167 2.08-2.317 3.137-3.459 1.86-2.019 3.751-4.018 5.707-5.974 10.773-10.773 22.478-20.043 34.841-27.838 1.183-.752 2.371-1.493 3.567-2.219.728-.45 1.464-.892 2.209-1.325.425-.251.849-.503 1.282-.745 14.769-8.48 30.378-14.925 46.42-19.325l-.546.962c-40.036 57.759-16.181 143.479 53.333 191.666l.061.026c-.011.009-.011.009-.019.017z" fill="#e3e0e4"/><path d="m489.856 146.314c-.658-.017-.988-.035-.988-.035-67.651-38.113-153.284-14.206-191.536 53.445-.017.017-.026.026-.026.06-14.24-81.043 32.362-156.905 104.162-169.612l1.23-.26c3.136 1.94 6.228 3.993 9.277 6.124 4.227 2.962 8.307 6.055 12.231 9.268.598.494 1.195.987 1.784 1.49 1.109.935 2.218 1.888 3.318 2.85l.009.009c3.188 2.806 6.306 5.734 9.355 8.783 5.483 5.483 10.577 11.2 15.297 17.134 1.04 1.317 2.07 2.642 3.084 3.985.494.667.996 1.343 1.49 2.009 1.724 2.33 3.378 4.712 4.989 7.103 1.178 1.784 2.33 3.577 3.465 5.388 10.152 16.338 17.8 33.965 22.859 52.259z" fill="#e3e0e4"/><path d="m165.271 349.128h-.832c-2.876-2.564-5.7-5.232-8.463-7.995-32.119-32.119-51.002-72.467-56.633-114.287.667.702 1.014 1.065 1.014 1.065 57.334 47.079 145.332 34.527 196.854-28.013.017-.035.035-.052.061-.078l.009-.009c.009.009.017 0 .017 0v-.017l.009-.009.017.017c-.052 82.498-59.11 149.283-132.053 149.326z" fill="#dc4955"/><path d="m138.383 249.463c-.026-.078-.052-.156-.069-.243.009.009.017 0 .017 0 .026.078.044.165.052.243z" fill="#dc4955"/><path d="m314.44 398.823c-53.099 4.591-107.67-11.971-150.001-49.694h.832c10.204 0 20.131-1.316 29.667-3.803 1.371 1.277 2.75 2.555 4.149 3.803 33.141 29.537 73.784 46.099 115.353 49.694z" fill="#e3e0e4"/><path d="m314.856.748c-14.891 1.304-29.639 4.25-43.874 8.809 2.37-3.02 5.147-5.78 7.735-8.671 12.024-1.125 24.116-1.177 36.139-.138z" fill="#e3e0e4"/><path d="m194.938 345.326c-9.537 2.486-19.464 3.803-29.667 3.803h-.832c-35.376-31.298-58.951-75.439-65.096-122.282.667.702 1.014 1.065 1.014 1.065 11.59 9.511 24.418 16.588 37.957 21.309 3.699 14.542 9.003 28.673 15.878 42.02 10.347 20.187 24.244 38.523 40.746 54.085z" fill="#d82f3c"/><path d="m135.274 83.073c-30.646 42.409-42.635 94.122-35.93 143.773.667.702 1.014 1.065 1.014 1.065 11.59 9.511 24.418 16.588 37.957 21.309-1.846-7.363-3.315-14.848-4.322-22.374-4.851-35.913.078-72.909 14.769-106.691-5.518-11.356-9.849-23.639-12.759-36.649l-.066-1.362z" fill="#e3e0e4"/><path d="m496.214 180.564c-.641-.139-.97-.208-.97-.208-60.002-49.279-148.485-40.608-197.903 19.377-.017.017-.026.026-.034.052.052-82.29 59.11-148.901 132.036-148.945l1.256-.043c2.746 2.451 5.44 5.007 8.073 7.64 34.128 34.129 53.306 77.544 57.542 122.127z" fill="#dc4955"/><path d="m297.298 199.794c-.009.009-.009.009-.017.017l-.009.009c-71.176 15.982-143.314-36.026-161.271-116.314 0 0-.251-.147-.728-.433 33.228-46.957 88.972-77.733 143.445-82.186l-.719.858c-49.452 49.919-40.85 138.489 19.247 198.015z" fill="#dc4955"/><path d="m270.982 9.558c-53.995 17.017-99.871 58.688-122.222 110.597-5.518-11.356-9.849-23.639-12.759-36.649 0 0-.251-.147-.728-.433 33.149-46.341 86.678-77.165 143.444-82.186-2.588 2.891-5.364 5.65-7.735 8.671z" fill="#d82f3c"/><path d="m277.364 398.554 1.085-.715c59.048-43.559 67.503-132.118 18.901-198.028l-.021-.03c82.78 6.566 145.074 70.201 139.272 142.262l-.237 1.093c-7.508 7.261-15.676 14.027-24.506 20.21-40.801 28.569-88.554 39.799-134.494 35.208z" fill="#e3e0e4"/><path d="m312.179 399.005.944-.892c50.587-53.151 43.536-141.833-15.773-198.301l-.026-.026c82.662-7.908 155.06 43.943 161.86 115.916l-.043 1.118c-6.133 8.454-13.002 16.536-20.624 24.158-35.221 35.219-80.299 54.571-126.338 58.027z" fill="#dc4955"/></g></svg>