<svg id="Capa_1" enable-background="new 0 0 512 512" height="512" viewBox="0 0 512 512" width="512" xmlns="http://www.w3.org/2000/svg"><g><path d="m416 362h-29.615c-8.284 0-15-6.716-15-15s6.716-15 15-15h29.615c24.813 0 45-20.187 45-45v-130c0-13.785-11.215-25-25-25h-78.571c-8.284 0-15-6.716-15-15s6.716-15 15-15h78.571c30.327 0 55 24.673 55 55v130c0 41.356-33.644 75-75 75z" fill="#dcc8be"/><path d="m304.7 512h-177.399c-58.614 0-106.301-47.686-106.301-106.3 0-6.722.644-13.476 1.912-20.075l48.358-251.458c1.358-7.062 7.538-12.167 14.73-12.167h260c7.192 0 13.372 5.104 14.73 12.167l48.357 251.457c1.269 6.6 1.912 13.354 1.912 20.075.001 58.615-47.685 106.301-106.299 106.301z" fill="#ffde46"/><path d="m360.731 134.167c-1.359-7.062-7.538-12.167-14.731-12.167h-130v390h88.7c58.614 0 106.3-47.686 106.3-106.3 0-6.722-.644-13.476-1.912-20.075z" fill="#ff9d21"/><path d="m276.607 393.673-127.279-127.279c-5.857-5.857-15.355-5.857-21.213 0-40.939 40.939-40.939 107.553 0 148.492 20.47 20.47 47.357 30.705 74.246 30.705s53.776-10.235 74.246-30.705c5.858-5.857 5.858-15.355 0-21.213z" fill="#ff9d21"/><path d="m216 333.067v111.635c22.178-2.881 43.606-12.815 60.606-29.816 5.858-5.857 5.858-15.355 0-21.213z" fill="#ff7038"/><path d="m197.842 415.459 12.283-45.841 33.597 33.597c-13.794 9.12-29.961 13.196-45.88 12.244z" fill="#ff9d21"/><path d="m400.689 63.936c-1.339-6.29-6.389-10.867-12.485-11.772l-350-52c-5.336-.794-10.684 1.34-14.011 5.585s-4.118 9.949-2.073 14.94l48.306 117.866 291.353 1.066 37.072-64.876c1.87-3.273 2.623-7.123 1.838-10.809z" fill="#f5f0eb"/><path d="m388.204 52.164-172.204-25.585v112.508l145.779.533 37.072-64.876c1.87-3.272 2.623-7.122 1.838-10.808-1.339-6.29-6.389-10.867-12.485-11.772z" fill="#ebe1dc"/><path d="m139.786 299.279 33.597 33.597-45.842 12.283c-.952-15.92 3.124-32.087 12.245-45.88z" fill="#ff7038"/><path d="m135.272 374.146 45.875-12.292-12.292 45.875c-7.048-3.513-13.66-8.188-19.527-14.056s-10.544-12.479-14.056-19.527z" fill="#ff7038"/><path d="m276 272c-24.813 0-45-20.187-45-45s20.187-45 45-45 45 20.187 45 45-20.186 45-45 45z" fill="#ff9d21"/><circle cx="311" cy="342" fill="#f5f0eb" r="15"/><circle cx="171" cy="212" fill="#eaf6ff" r="15"/><path d="m216 414.352c9.735-1.784 19.183-5.491 27.722-11.137l-27.722-27.722z" fill="#ec7800"/></g></svg>