<svg id="Capa_1" enable-background="new 0 0 496.746 496.746" height="512" viewBox="0 0 496.746 496.746" width="512" xmlns="http://www.w3.org/2000/svg"><g><path d="m362.445 31.019c0-17.131-13.888-31.019-31.019-31.019-17.131 0-31.019 13.888-31.019 31.019v285.615h62.038z" fill="#ffdfcf"/><g><g id="XMLID_194_"><g><path d="m253.582 220.706h103.55c21.092 0 38.19 17.098 38.19 38.19v97.67c0 19.76-7.23 38.83-20.33 53.63l-16.97 19.16c-1.32 1.5-2.05 3.42-2.05 5.42v50.833c0 6.151-4.986 11.137-11.137 11.137h-176.367c-6.151 0-11.137-4.986-11.137-11.137v-53.403c0-1.59-.47-3.14-1.34-4.47l-19.92-30.44c-14.21-21.71-21.78-47.09-21.78-73.04v-84.81-199.805c0-16.939 13.318-31.226 30.252-31.635 8.863-.214 16.921 3.293 22.698 9.081 5.62 5.61 9.09 13.36 9.09 21.93v180.69z" fill="#ffdfcf"/></g><g fill="#ffcebf"><path d="m196.027 485.61v-53.403c0-1.59-.47-3.14-1.34-4.47l-19.92-30.44c-14.21-21.71-21.78-47.09-21.78-73.04v-84.81-199.806c0-9.926 4.586-18.936 11.779-24.782-5.504-4.442-12.565-7.039-20.223-6.854-16.934.41-30.252 14.697-30.252 31.635v199.805 84.81c0 25.95 7.57 51.33 21.78 73.04l19.92 30.44c.87 1.33 1.34 2.88 1.34 4.47v53.403c0 6.151 4.986 11.137 11.137 11.137h38.696c-6.151.001-11.137-4.985-11.137-11.135z"/><path d="m176.332 220.348v26.07c0 31.879 36.59 50.622 61.925 31.272.455-.348.904-.703 1.348-1.065 17.367 12.534 42.867 14.468 66.993-4.039 8.771-6.728 13.81-17.244 13.81-28.298v-23.581z"/><path d="m395.322 258.886c0-21.086-17.094-38.18-38.18-38.18h-103.56l-31.545-.408c-2.342 4.71-3.666 10.011-3.666 15.619v10.88c0 19.216 9.526 36.249 24.104 46.624-4.876 8.519-7.664 18.377-7.664 28.876v26.98c0 .853.011 1.704.033 2.552.961 37.641 32.361 67.384 70.014 67.384h62.148l7.986-9.017c13.1-14.8 20.33-33.87 20.33-53.63z"/></g><path d="m300.407 164.999v70.24c0 17.14-13.89 31.02-31.02 31.02s-31.02-13.88-31.02-31.02v-70.24c0-17.13 13.89-31.02 31.02-31.02 8.56 0 16.32 3.47 21.93 9.09 5.62 5.609 9.09 13.37 9.09 21.93z" fill="#ffdfcf"/></g><g><path d="m238.372 166.886v70.24c0 17.14-13.89 31.02-31.02 31.02s-31.02-13.88-31.02-31.02v-70.24c0-17.13 13.89-31.02 31.02-31.02 8.56 0 16.32 3.47 21.93 9.09 5.62 5.61 9.09 13.37 9.09 21.93z" fill="#ffdfcf"/></g><g id="XMLID_195_"><g><g fill="#ffcebf"><path d="m238.372 237.126v-32.962c-11.821 5.685-20 17.781-20 31.752v10.88c0 6.301 1.042 12.36 2.933 18.034 10.12-5.106 17.067-15.587 17.067-27.704z"/><path d="m253.581 200.706c-5.446 0-10.606 1.244-15.214 3.46v31.072c0 17.14 13.89 31.02 31.02 31.02s31.02-13.88 31.02-31.02v-34.532z"/><path d="m362.445 200.959c-1.751-.159-3.521-.253-5.313-.253h-56.725v115.928h62.038z"/></g><path d="m293.122 283.986h-17.56c-20.539 0-37.19-16.651-37.19-37.19v-10.88c0-8.4 6.81-15.21 15.21-15.21h103.55c21.092 0 38.19 17.098 38.19 38.19v97.67c0 19.76-7.23 38.83-20.33 53.63l-16.26 18.36-.71-.63h-24.56c-43.437 0-78.65-35.213-78.65-78.65v-26.98c0-21.15 17.15-38.31 38.31-38.31z" fill="#ffdfcf"/></g></g><path d="m480.6 391.72c-6.509-4.076-11.993-9.332-16.389-15.838-2.543-3.763-8.13-3.418-10.278.583-3.543 6.602-9.091 11.849-16.665 15.743-4.086 2.101-4.382 7.822-.54 10.342 6.444 4.227 11.841 9.721 16.111 16.578 2.364 3.796 7.833 3.738 10.216-.046 4.344-6.897 10.213-12.616 17.577-17.18 3.781-2.341 3.736-7.822-.032-10.182z" fill="#fef056"/><path d="m381.053 99.881c-5.539-3.468-10.205-7.941-13.946-13.477-2.164-3.202-6.918-2.909-8.745.496-3.015 5.618-7.736 10.083-14.181 13.397-3.477 1.788-3.729 6.656-.46 8.801 5.483 3.597 10.076 8.272 13.709 14.107 2.012 3.23 6.665 3.181 8.693-.039 3.696-5.869 8.691-10.735 14.957-14.619 3.217-1.994 3.179-6.658-.027-8.666z" fill="#fef056"/><ellipse cx="30.124" cy="422.337" fill="#fd8087" rx="17.238" ry="15.254" transform="matrix(.883 -.47 .47 .883 -194.882 63.661)"/><g><path d="m39.448 426.713c-4.143 0-7.5-3.358-7.5-7.5v-71.043c0-4.142 3.357-7.5 7.5-7.5s7.5 3.358 7.5 7.5v71.043c0 4.142-3.357 7.5-7.5 7.5z" fill="#fd8087"/></g><path d="m75.278 390.49-43.33-26.009v-24.685c0-2.558 2.791-4.138 4.984-2.821l41.733 25.05c.991.595 1.597 1.666 1.597 2.821v22.822c0 2.559-2.79 4.138-4.984 2.822z" fill="#fd8087"/></g></g></svg>