<svg id="Layer_1" enable-background="new 0 0 510 510" height="512" viewBox="0 0 510 510" width="512" xmlns="http://www.w3.org/2000/svg"><g><g><path d="m361.396 47.104c5.915-26.908 29.946-47.104 58.604-47.104v30c-12.406 0-23.078 7.57-27.639 18.334l-15.729 9.375z" fill="#00dc7b"/><path d="m255 45c0-8.875 0-9.596 0-24.623-6.61 7.499-11.355 16.584-13.59 26.726l6.628 8.438z" fill="#c6ea4b"/><path d="m263.392 55.787 8.917-7.32c4.589-10.977 15.379-18.467 27.691-18.467 0-10.492 0-19.508 0-30-17.33 0-33.607 7.453-45 20.377v24.623z" fill="#00dc7b"/><path d="m135 309.667-10 47.666 10 47.667 60 10 60-10 10-47.667-10-47.666-60-10z" fill="#d58678"/><path d="m465 309.667-105-10-105 10v95.333l105 10 105-10c0-2.647 0-100.358 0-95.333z" fill="#b95d4c"/><path d="m179.167 192.333-21.667-15.515-19 14.849s-4.167 9.686-4.167 15.5l-9.333 53.5 10 49h120l10-16.334-10-21.511z" fill="#ffe278"/><path d="m465 186.818-142.333-25.151-67.667 110.155v37.845h210c0-15.229 0-108.52 0-122.849z" fill="#ffc178"/><path d="m84 105c-21.383 0-39 15.795-39 35.454v264.546l45 10 45-10c0-5.581 0-192.16 0-197.728 0-5.813 2.682-11.068 6.98-14.796 8.696-7.542 22.338-7.548 31.041 0 4.298 3.728 6.98 8.982 6.98 14.796v34.091c0 22.736 20.382 40.909 45 40.909 11.476 0 21.995-3.929 30-10.45l10-83.411-10.001-83.411h-85.5z" fill="#b95d4c"/><path d="m268.421 252.123c5.171 1.871 10.765 2.877 16.579 2.877 24.674 0 45-18.226 45-40.909 0-.145 0-7.066 0-6.818 0-11.368 10.19-20.454 22.5-20.454h112.5c0-26.002 0-55.816 0-81.818-11.664 0-198.336 0-210 0v166.822c6.3-5.134 11.084-11.918 13.421-19.7z" fill="#873f2e"/><path d="m121.396 47.104c5.916-26.908 29.946-47.104 58.604-47.104v30c-12.406 0-23.078 7.57-27.639 18.334l-15.729 9.375z" fill="#c6ea4b"/><path d="m343.194 58.195c-8.147 8.149-13.194 19.399-13.194 31.805 0 24.812 20.185 45 45 45 12.406 0 23.656-5.047 31.805-13.195 17.591-17.591 17.602-46.008 0-63.609-17.59-17.591-46.01-17.602-63.611-.001z" fill="#7a3db4"/><path d="m210 90c0 24.812 20.185 45 45 45l10-45-10-45c-24.812 0-45 20.185-45 45z" fill="#be4dd8"/><path d="m300 90c0-24.812-20.186-45-45-45v90c24.811 0 45-20.187 45-45z" fill="#7a3db4"/><path d="m135 135c-24.813 0-45-20.188-45-45s20.187-45 45-45 45 20.188 45 45-20.186 45-45 45z" fill="#be4dd8"/><path d="m16.257 435c7.163 42.512 44.229 75 88.743 75h150l10-37.5-10-37.5-119.372-10z" fill="#7a3db4"/><path d="m493.743 435-119.372-10-119.371 10v75h150c44.504 0 81.578-32.478 88.743-75z" fill="#3630a2"/><path d="m0 405v30h255l10-15-10-15c-7.193 0-247.807 0-255 0z" fill="#be4dd8"/></g><path d="m255.019 405.006h254.961v29.994h-254.961z" fill="#7a3db4"/></g></svg>