<?xml version="1.0" encoding="iso-8859-1"?>
<!-- Generator: Adobe Illustrator 19.0.0, SVG Export Plug-In . SVG Version: 6.00 Build 0)  -->
<svg version="1.1" id="Capa_1" xmlns="http://www.w3.org/2000/svg" xmlns:xlink="http://www.w3.org/1999/xlink" x="0px" y="0px"
	 viewBox="0 0 464.28 464.28" style="enable-background:new 0 0 464.28 464.28;" xml:space="preserve">
<path style="fill:#FBCC34;" d="M200,371.036l2.664-1.24c-11.809-10.53-18.594-25.578-18.664-41.4
	c0.214-30.332,24.264-55.123,54.576-56.256c30.767-0.749,56.373,23.471,57.336,54.232L296,360.14c0,8.837,7.163,16,16,16
	s16-7.163,16-16v-32c0,8.837,7.163,16,16,16s16-7.163,16-16v-32l104-48C464.003,118.294,363.042,10.827,233.448,2.732L192,0.14
	l-36.504,88.224c1.488-0.112,2.984-0.224,4.504-0.224c30.928-0.029,56.023,25.02,56.052,55.948
	c0.029,30.928-25.02,56.023-55.948,56.052c-16.438,0.015-32.052-7.192-42.704-19.712l-26.144,63.2
	c29.049,10.537,44.056,42.629,33.519,71.678s-42.629,44.056-71.678,33.519c-1.558-0.565-3.091-1.2-4.593-1.901L0,464.14l136-63.312"
	/>
<path style="fill:#A67C52;" d="M464.28,248.14C464.283,118.294,363.322,10.827,233.728,2.732L192.28,0.14l-25.6,61.824
	c119.512-0.112,224.36,96.8,239.88,212.8L464.28,248.14z"/>
<g>
	<path style="fill:#F15A24;" d="M240,272.14c-30.897-0.031-55.969,24.991-55.999,55.888c-0.016,15.946,6.774,31.141,18.663,41.768
		l93.248-43.408C294.966,296.18,270.222,272.173,240,272.14z"/>
	<path style="fill:#F15A24;" d="M160,200.14c30.928,0,56-25.072,56-56s-25.072-56-56-56c-1.52,0-3.016,0.112-4.504,0.224
		L117.4,180.428C128.014,192.939,143.593,200.148,160,200.14z"/>
	<path style="fill:#F15A24;" d="M128,296.14c-0.024-23.481-14.695-44.454-36.744-52.528L48.504,346.924
		c27.998,13.025,61.254,0.887,74.279-27.111C126.232,312.399,128.013,304.318,128,296.14z"/>
</g>
<g>
	<path style="fill:#39B54A;" d="M204.424,232.99l16-8l7.155,14.311l-16,8L204.424,232.99z"/>
	<path style="fill:#39B54A;" d="M276.42,231.33l7.155-14.311l16,8l-7.155,14.311L276.42,231.33z"/>
	<path style="fill:#39B54A;" d="M240.841,124.562l8-16l14.311,7.155l-8,16L240.841,124.562z"/>
	<path style="fill:#39B54A;" d="M316.424,152.964l16-8l7.155,14.311l-16,8L316.424,152.964z"/>
	<path style="fill:#39B54A;" d="M80,400.14h16v16H80V400.14z"/>
	<path style="fill:#39B54A;" d="M32,392.14h16v16H32V392.14z"/>
	<path style="fill:#39B54A;" d="M140.424,343.292l7.155-14.311l16,8l-7.155,14.311L140.424,343.292z"/>
	<path style="fill:#39B54A;" d="M308.423,280.989l16-8l7.155,14.311l-16,8L308.423,280.989z"/>
	<path style="fill:#39B54A;" d="M360.848,212.521l8-16l14.311,7.155l-8,16L360.848,212.521z"/>
</g>
<g>
	<circle style="fill:#A67C52;" cx="256" cy="184.14" r="16"/>
	<circle style="fill:#A67C52;" cx="168" cy="256.14" r="16"/>
	<circle style="fill:#A67C52;" cx="344" cy="248.14" r="16"/>
	<circle style="fill:#A67C52;" cx="120" cy="376.14" r="16"/>
</g>
<path style="fill:#FBCC34;" d="M136,400.14v48c0,8.837,7.163,16,16,16s16-7.163,16-16v-40c0,8.837,7.163,16,16,16s16-7.163,16-16
	v-40"/>
<g>
</g>
<g>
</g>
<g>
</g>
<g>
</g>
<g>
</g>
<g>
</g>
<g>
</g>
<g>
</g>
<g>
</g>
<g>
</g>
<g>
</g>
<g>
</g>
<g>
</g>
<g>
</g>
<g>
</g>
</svg>
