<?xml version="1.0" encoding="UTF-8" standalone="no"?>
<svg
   xmlns:dc="http://purl.org/dc/elements/1.1/"
   xmlns:cc="http://creativecommons.org/ns#"
   xmlns:rdf="http://www.w3.org/1999/02/22-rdf-syntax-ns#"
   xmlns:svg="http://www.w3.org/2000/svg"
   xmlns="http://www.w3.org/2000/svg"
   xmlns:sodipodi="http://sodipodi.sourceforge.net/DTD/sodipodi-0.dtd"
   xmlns:inkscape="http://www.inkscape.org/namespaces/inkscape"
   inkscape:version="1.0 (4035a4fb49, 2020-05-01)"
   sodipodi:docname="smile.svg"
   xml:space="preserve"
   style="enable-background:new 0 0 512 512;"
   viewBox="0 0 512 512"
   y="0px"
   x="0px"
   id="Capa_1"
   version="1.1"><metadata
   id="metadata51"><rdf:RDF><cc:Work
       rdf:about=""><dc:format>image/svg+xml</dc:format><dc:type
         rdf:resource="http://purl.org/dc/dcmitype/StillImage" /><dc:title></dc:title></cc:Work></rdf:RDF></metadata><defs
   id="defs49" /><sodipodi:namedview
   inkscape:current-layer="Capa_1"
   inkscape:window-maximized="1"
   inkscape:window-y="0"
   inkscape:window-x="0"
   inkscape:cy="263.22835"
   inkscape:cx="134.56907"
   inkscape:zoom="1.1504296"
   showgrid="false"
   id="namedview47"
   inkscape:window-height="1009"
   inkscape:window-width="1920"
   inkscape:pageshadow="2"
   inkscape:pageopacity="0"
   guidetolerance="10"
   gridtolerance="10"
   objecttolerance="10"
   borderopacity="1"
   bordercolor="#666666"
   pagecolor="#ffffff" />
<circle
   id="circle2"
   r="256"
   cy="256"
   cx="256"
   style="fill:#FFD93B;" />
<path
   id="path4"
   d="M256,420.544c-74.864,0-140.096-50.704-158.624-123.28c-1.456-5.712,1.984-11.52,7.696-12.976  c5.68-1.488,11.504,1.984,12.96,7.696c16.128,63.136,72.848,107.232,137.952,107.232s121.84-44.096,137.952-107.232  c1.44-5.712,7.248-9.184,12.976-7.696c5.712,1.456,9.152,7.264,7.696,12.976C396.096,369.84,330.864,420.544,256,420.544z"
   style="fill:#3E4347;" />
<path
   id="path6"
   d="M512,256c0,141.44-114.64,256-256,256c-80.48,0-152.32-37.12-199.28-95.28  c43.92,35.52,99.84,56.72,160.72,56.72c141.36,0,256-114.56,256-256c0-60.88-21.2-116.8-56.72-160.72  C474.8,103.68,512,175.52,512,256z"
   style="fill:#F4C534;" />
<ellipse
   id="ellipse8"
   ry="46.624"
   rx="39.232"
   cy="220.304"
   cx="173.328"
   style="fill:#3E4347;" />
<path
   id="path10"
   d="M191.024,210.272c-3.056,2.4-8.08,1.216-11.296-2.688s-3.376-9.136-0.32-11.536  c3.04-2.512,8.08-1.328,11.28,2.576C193.92,202.64,193.952,207.776,191.024,210.272z"
   style="fill:#5A5F63;" />
<ellipse
   id="ellipse12"
   ry="46.624"
   rx="39.232"
   cy="220.304"
   cx="338.72"
   style="fill:#3E4347;" />
<path
   id="path14"
   d="M356.384,210.272c-3.056,2.4-8.08,1.216-11.296-2.688s-3.376-9.136-0.32-11.536  c3.04-2.512,8.064-1.328,11.28,2.576C359.28,202.64,359.312,207.776,356.384,210.272z"
   style="fill:#5A5F63;" />
<g
   id="g16">
</g>
<g
   id="g18">
</g>
<g
   id="g20">
</g>
<g
   id="g22">
</g>
<g
   id="g24">
</g>
<g
   id="g26">
</g>
<g
   id="g28">
</g>
<g
   id="g30">
</g>
<g
   id="g32">
</g>
<g
   id="g34">
</g>
<g
   id="g36">
</g>
<g
   id="g38">
</g>
<g
   id="g40">
</g>
<g
   id="g42">
</g>
<g
   id="g44">
</g>
</svg>
