<svg id="Capa_1" enable-background="new 0 0 512 512" height="512" viewBox="0 0 512 512" width="512" xmlns="http://www.w3.org/2000/svg"><g><g><path d="m356.268 447.952-65.338-104.368c-2.362-3.77-2.921-8.431-1.512-12.657 1.388-4.247 4.609-7.634 8.773-9.27 36.719-14.346 68.27-30.525 103.01-62.78 4.879-4.506 12.129-5.293 17.837-1.927 5.842 3.439 8.525 10.12 6.93 16.562l-42.426 170.12c-1.45 5.842-6.256 10.234-12.212 11.176-6.095.988-12.023-1.932-15.062-6.856z" fill="#f69"/></g><g><path d="m56.963 140.443c.953-5.966 5.355-10.783 11.228-12.222l170.327-42.219c6.463-1.616 13.227 1.315 16.542 6.95 3.387 5.728 2.59 12.989-1.916 17.868-32.255 34.741-48.434 66.291-62.78 103.01-1.626 4.154-5.024 7.385-9.281 8.784s-8.898.86-12.689-1.523l-104.574-65.546c-5.297-3.361-7.798-9.357-6.857-15.102z" fill="#f9b"/></g><g id="Startup_2_"><g><g><g><path d="m432.628 270.291c-39.462 39.462-73.597 59.711-123.462 79.337-19.989 7.823-63.552 22.612-91.426 32.883-5.517 2.12-11.455.848-15.699-3.396l-69.155-69.155c-4.244-4.244-5.516-10.182-3.396-15.699 10.266-27.863 24.578-70.205 32.883-91.426 19.323-49.095 39.481-83.607 79.337-123.462 26.729-26.729 59.187-44.758 92.067-56.425l98.852 56.425 56.425 98.852c-11.668 32.879-29.697 65.337-56.426 92.066z" fill="#e6f7ff"/></g></g></g></g><path d="m202.04 379.115c4.244 4.244 10.182 5.516 15.699 3.396 27.875-10.271 71.438-25.06 91.426-32.883 49.866-19.626 84-39.874 123.462-79.337 26.729-26.729 44.758-59.187 56.425-92.067l-56.425-98.852-265.164 265.165z" fill="#cef"/><g><path d="m4.392 507.608c-3.501-3.501-5.034-8.473-4.143-13.341 3.325-18.116 35.771-124.394 61.128-149.751 29.251-29.251 76.856-29.251 106.107 0s29.251 76.856 0 106.107c-25.356 25.356-131.634 57.803-149.751 61.128-4.869.891-9.84-.642-13.341-4.143z" fill="#fabe2c"/></g><path d="m17.733 511.752c18.116-3.325 124.394-35.771 149.751-61.128 29.251-29.251 29.251-76.856 0-106.107l-163.092 163.091c3.501 3.501 8.472 5.034 13.341 4.144z" fill="#ff9100"/><g><g><path d="m284.135 227.865c-23.388-23.388-23.399-61.454 0-84.853s61.464-23.388 84.853 0c23.388 23.388 23.399 61.454 0 84.853s-61.464 23.388-84.853 0z" fill="#80bfff"/></g></g><path d="m368.988 227.865c23.399-23.399 23.388-61.464 0-84.853l-84.853 84.853c23.389 23.388 61.454 23.398 84.853 0z" fill="#69f"/><path d="m511.118 14.461c-.426-7.213-6.366-13.153-13.579-13.579-4.664-.422-84.852-6.786-163.763 22.065l155.277 155.277c28.851-78.911 22.487-159.099 22.065-163.763z" fill="#f9b"/><path d="m489.053 178.224c28.851-78.911 22.487-159.099 22.065-163.763-.212-3.607-1.805-6.896-4.244-9.335l-95.459 95.459z" fill="#f69"/></g></svg>