<svg id="Capa_1" enable-background="new 0 0 496.017 496.017" height="512" viewBox="0 0 496.017 496.017" width="512" xmlns="http://www.w3.org/2000/svg"><g><path d="m248.509 123.894 51.886-50.202c.316-2.617.479-5.281.479-7.984 0-36.29-29.362-65.708-65.583-65.708s-65.583 29.418-65.583 65.708c0 6.859 2.068 17.183 4.014 23.399z" fill="#e592d0"/><path d="m263.519 109.371-15.01 14.52-74.79-34.78c-1.94-6.22-4.01-16.54-4.01-23.4 0-29.33 19.18-54.18 45.67-62.62-22.01 27.77-18.07 68.15 9.19 91.04 11.41 9.58 25.13 14.59 38.95 15.24z" fill="#e172c1"/><path d="m244.764 103.756c2.347-3.04 24.764-30.843 60.868-30.031 29.274.658 47.543 19.204 50.602 22.411 20.648 21.654 20.167 48.405 19.916 55.729-.516 15.047-5.23 26.721-8.585 33.453l-122.049 24.362z" fill="#f8e837"/><path d="m348.799 189.071-103.28 20.61-.75-105.92c1.87-2.43 16.49-20.6 40.64-27.45-1.88 3.2-3.68 6.75-5.25 10.66-2.74 6.79-12.35 31.77-.35 59.18 1.78 4.06 12.6 27.73 39.89 38.36 10.21 3.98 20.13 5.05 29.1 4.56z" fill="#f3d332"/><path d="m134.153 185.063c-4.617-9.305-7.212-19.786-7.212-30.87 0-38.494 31.291-69.699 69.89-69.699s69.89 31.205 69.89 69.699c0 11.079-2.592 21.554-7.204 30.856l-66.901 10.008z" fill="#b2e5fb"/><path d="m204.249 193.321-11.63 1.74-58.47-10c-4.61-9.3-7.21-19.78-7.21-30.87 0-26.49 14.82-49.52 36.64-61.32-15.8 28.6-9.65 65.33 16.38 87.18 7.37 6.19 15.64 10.59 24.29 13.27z" fill="#91dafa"/><path d="m259.605 488.269 118.423-285.698c3.426-8.266-2.649-17.36-11.596-17.36h-236.846c-8.948 0-15.022 9.094-11.596 17.36l118.423 285.698c4.28 10.329 18.911 10.329 23.192 0z" fill="#ecb880"/><g fill="#e9a761"><path d="m378.029 202.571-1.09 2.64h-217.35c-8.95 0-15.03 9.1-11.6 17.36l110.81 267.33c-5.07 8.67-18.35 8.12-22.39-1.63l-118.42-285.7c-3.43-8.26 2.65-17.36 11.6-17.36h236.84c8.95 0 15.03 9.1 11.6 17.36z"/><path d="m333.549 309.891 8.16-19.69-42.62-104.37.26-.62h-.52-15.74-.46l.23.56-34.172 81.657c-.688 1.645-3.022 1.635-3.697-.016l-33.471-81.962.1-.24h-.2-16.07-.14l.07.17-42.41 101.35 8.1 19.53 37.681-90.052c1.721-4.112 7.556-4.087 9.241.04l29.946 73.329c.5 1.226.495 2.6-.017 3.821l-41.292 98.663 8.09 19.52 40.163-95.968c.688-1.645 3.022-1.635 3.696.016l41.041 100.492 8.16-19.7-42.048-102.957c-.501-1.226-.495-2.6.016-3.821l30.573-73.057c1.721-4.112 7.556-4.087 9.241.04z"/></g></g></svg>